<?xml version="1.0" encoding="utf-8" standalone="no"?>
<!DOCTYPE svg PUBLIC "-//W3C//DTD SVG 1.1//EN"
  "http://www.w3.org/Graphics/SVG/1.1/DTD/svg11.dtd">
<svg xmlns:xlink="http://www.w3.org/1999/xlink" width="864pt" height="360pt" viewBox="0 0 864 360" xmlns="http://www.w3.org/2000/svg" version="1.1">
 <metadata>
  <rdf:RDF xmlns:dc="http://purl.org/dc/elements/1.1/" xmlns:cc="http://creativecommons.org/ns#" xmlns:rdf="http://www.w3.org/1999/02/22-rdf-syntax-ns#">
   <cc:Work>
    <dc:type rdf:resource="http://purl.org/dc/dcmitype/StillImage"/>
    <dc:date>2023-08-10T08:56:30.514851</dc:date>
    <dc:format>image/svg+xml</dc:format>
    <dc:creator>
     <cc:Agent>
      <dc:title>Matplotlib v3.7.2, https://matplotlib.org/</dc:title>
     </cc:Agent>
    </dc:creator>
   </cc:Work>
  </rdf:RDF>
 </metadata>
 <defs>
  <style type="text/css">*{stroke-linejoin: round; stroke-linecap: butt}</style>
 </defs>
 <g id="figure_1">
  <g id="patch_1">
   <path d="M 0 360 
L 864 360 
L 864 0 
L 0 0 
L 0 360 
z
" style="fill: none; opacity: 0"/>
  </g>
  <g id="axes_1">
   <g id="patch_2">
    <path d="M 108 320.4 
L 777.6 320.4 
L 777.6 43.2 
L 108 43.2 
L 108 320.4 
z
" style="fill: none; opacity: 0"/>
   </g>
   <g id="matplotlib.axis_1">
    <g id="xtick_1">
     <g id="line2d_1">
      <path d="M 119.693757 320.4 
L 119.693757 43.2 
" clip-path="url(#p6785ce1b09)" style="fill: none; stroke-dasharray: 5.12,1.28,0.8,1.28; stroke-dashoffset: 0; stroke: #b0b0b0; stroke-width: 0.8"/>
     </g>
     <g id="line2d_2">
      <defs>
       <path id="m62f1baea11" d="M 0 0 
L 0 3.5 
" style="stroke: #a9a9a9; stroke-width: 0.8"/>
      </defs>
      <g>
       <use xlink:href="#m62f1baea11" x="119.693757" y="320.4" style="fill: #a9a9a9; stroke: #a9a9a9; stroke-width: 0.8"/>
      </g>
     </g>
     <g id="text_1">
      <!-- 2021-07 -->
      <g style="fill: #a9a9a9" transform="translate(98.802351 334.998438) scale(0.1 -0.1)">
       <defs>
        <path id="DejaVuSans-32" d="M 1228 531 
L 3431 531 
L 3431 0 
L 469 0 
L 469 531 
Q 828 903 1448 1529 
Q 2069 2156 2228 2338 
Q 2531 2678 2651 2914 
Q 2772 3150 2772 3378 
Q 2772 3750 2511 3984 
Q 2250 4219 1831 4219 
Q 1534 4219 1204 4116 
Q 875 4013 500 3803 
L 500 4441 
Q 881 4594 1212 4672 
Q 1544 4750 1819 4750 
Q 2544 4750 2975 4387 
Q 3406 4025 3406 3419 
Q 3406 3131 3298 2873 
Q 3191 2616 2906 2266 
Q 2828 2175 2409 1742 
Q 1991 1309 1228 531 
z
" transform="scale(0.015625)"/>
        <path id="DejaVuSans-30" d="M 2034 4250 
Q 1547 4250 1301 3770 
Q 1056 3291 1056 2328 
Q 1056 1369 1301 889 
Q 1547 409 2034 409 
Q 2525 409 2770 889 
Q 3016 1369 3016 2328 
Q 3016 3291 2770 3770 
Q 2525 4250 2034 4250 
z
M 2034 4750 
Q 2819 4750 3233 4129 
Q 3647 3509 3647 2328 
Q 3647 1150 3233 529 
Q 2819 -91 2034 -91 
Q 1250 -91 836 529 
Q 422 1150 422 2328 
Q 422 3509 836 4129 
Q 1250 4750 2034 4750 
z
" transform="scale(0.015625)"/>
        <path id="DejaVuSans-31" d="M 794 531 
L 1825 531 
L 1825 4091 
L 703 3866 
L 703 4441 
L 1819 4666 
L 2450 4666 
L 2450 531 
L 3481 531 
L 3481 0 
L 794 0 
L 794 531 
z
" transform="scale(0.015625)"/>
        <path id="DejaVuSans-2d" d="M 313 2009 
L 1997 2009 
L 1997 1497 
L 313 1497 
L 313 2009 
z
" transform="scale(0.015625)"/>
        <path id="DejaVuSans-37" d="M 525 4666 
L 3525 4666 
L 3525 4397 
L 1831 0 
L 1172 0 
L 2766 4134 
L 525 4134 
L 525 4666 
z
" transform="scale(0.015625)"/>
       </defs>
       <use xlink:href="#DejaVuSans-32"/>
       <use xlink:href="#DejaVuSans-30" x="63.623047"/>
       <use xlink:href="#DejaVuSans-32" x="127.246094"/>
       <use xlink:href="#DejaVuSans-31" x="190.869141"/>
       <use xlink:href="#DejaVuSans-2d" x="254.492188"/>
       <use xlink:href="#DejaVuSans-30" x="290.576172"/>
       <use xlink:href="#DejaVuSans-37" x="354.199219"/>
      </g>
     </g>
    </g>
    <g id="xtick_2">
     <g id="line2d_3">
      <path d="M 194.664184 320.4 
L 194.664184 43.2 
" clip-path="url(#p6785ce1b09)" style="fill: none; stroke-dasharray: 5.12,1.28,0.8,1.28; stroke-dashoffset: 0; stroke: #b0b0b0; stroke-width: 0.8"/>
     </g>
     <g id="line2d_4">
      <g>
       <use xlink:href="#m62f1baea11" x="194.664184" y="320.4" style="fill: #a9a9a9; stroke: #a9a9a9; stroke-width: 0.8"/>
      </g>
     </g>
     <g id="text_2">
      <!-- 2021-10 -->
      <g style="fill: #a9a9a9" transform="translate(173.772778 334.998438) scale(0.1 -0.1)">
       <use xlink:href="#DejaVuSans-32"/>
       <use xlink:href="#DejaVuSans-30" x="63.623047"/>
       <use xlink:href="#DejaVuSans-32" x="127.246094"/>
       <use xlink:href="#DejaVuSans-31" x="190.869141"/>
       <use xlink:href="#DejaVuSans-2d" x="254.492188"/>
       <use xlink:href="#DejaVuSans-31" x="290.576172"/>
       <use xlink:href="#DejaVuSans-30" x="354.199219"/>
      </g>
     </g>
    </g>
    <g id="xtick_3">
     <g id="line2d_5">
      <path d="M 269.634611 320.4 
L 269.634611 43.2 
" clip-path="url(#p6785ce1b09)" style="fill: none; stroke-dasharray: 5.12,1.28,0.8,1.28; stroke-dashoffset: 0; stroke: #b0b0b0; stroke-width: 0.8"/>
     </g>
     <g id="line2d_6">
      <g>
       <use xlink:href="#m62f1baea11" x="269.634611" y="320.4" style="fill: #a9a9a9; stroke: #a9a9a9; stroke-width: 0.8"/>
      </g>
     </g>
     <g id="text_3">
      <!-- 2022-01 -->
      <g style="fill: #a9a9a9" transform="translate(248.743205 334.998438) scale(0.1 -0.1)">
       <use xlink:href="#DejaVuSans-32"/>
       <use xlink:href="#DejaVuSans-30" x="63.623047"/>
       <use xlink:href="#DejaVuSans-32" x="127.246094"/>
       <use xlink:href="#DejaVuSans-32" x="190.869141"/>
       <use xlink:href="#DejaVuSans-2d" x="254.492188"/>
       <use xlink:href="#DejaVuSans-30" x="290.576172"/>
       <use xlink:href="#DejaVuSans-31" x="354.199219"/>
      </g>
     </g>
    </g>
    <g id="xtick_4">
     <g id="line2d_7">
      <path d="M 342.975246 320.4 
L 342.975246 43.2 
" clip-path="url(#p6785ce1b09)" style="fill: none; stroke-dasharray: 5.12,1.28,0.8,1.28; stroke-dashoffset: 0; stroke: #b0b0b0; stroke-width: 0.8"/>
     </g>
     <g id="line2d_8">
      <g>
       <use xlink:href="#m62f1baea11" x="342.975246" y="320.4" style="fill: #a9a9a9; stroke: #a9a9a9; stroke-width: 0.8"/>
      </g>
     </g>
     <g id="text_4">
      <!-- 2022-04 -->
      <g style="fill: #a9a9a9" transform="translate(322.08384 334.998438) scale(0.1 -0.1)">
       <defs>
        <path id="DejaVuSans-34" d="M 2419 4116 
L 825 1625 
L 2419 1625 
L 2419 4116 
z
M 2253 4666 
L 3047 4666 
L 3047 1625 
L 3713 1625 
L 3713 1100 
L 3047 1100 
L 3047 0 
L 2419 0 
L 2419 1100 
L 313 1100 
L 313 1709 
L 2253 4666 
z
" transform="scale(0.015625)"/>
       </defs>
       <use xlink:href="#DejaVuSans-32"/>
       <use xlink:href="#DejaVuSans-30" x="63.623047"/>
       <use xlink:href="#DejaVuSans-32" x="127.246094"/>
       <use xlink:href="#DejaVuSans-32" x="190.869141"/>
       <use xlink:href="#DejaVuSans-2d" x="254.492188"/>
       <use xlink:href="#DejaVuSans-30" x="290.576172"/>
       <use xlink:href="#DejaVuSans-34" x="354.199219"/>
      </g>
     </g>
    </g>
    <g id="xtick_5">
     <g id="line2d_9">
      <path d="M 417.130778 320.4 
L 417.130778 43.2 
" clip-path="url(#p6785ce1b09)" style="fill: none; stroke-dasharray: 5.12,1.28,0.8,1.28; stroke-dashoffset: 0; stroke: #b0b0b0; stroke-width: 0.8"/>
     </g>
     <g id="line2d_10">
      <g>
       <use xlink:href="#m62f1baea11" x="417.130778" y="320.4" style="fill: #a9a9a9; stroke: #a9a9a9; stroke-width: 0.8"/>
      </g>
     </g>
     <g id="text_5">
      <!-- 2022-07 -->
      <g style="fill: #a9a9a9" transform="translate(396.239371 334.998438) scale(0.1 -0.1)">
       <use xlink:href="#DejaVuSans-32"/>
       <use xlink:href="#DejaVuSans-30" x="63.623047"/>
       <use xlink:href="#DejaVuSans-32" x="127.246094"/>
       <use xlink:href="#DejaVuSans-32" x="190.869141"/>
       <use xlink:href="#DejaVuSans-2d" x="254.492188"/>
       <use xlink:href="#DejaVuSans-30" x="290.576172"/>
       <use xlink:href="#DejaVuSans-37" x="354.199219"/>
      </g>
     </g>
    </g>
    <g id="xtick_6">
     <g id="line2d_11">
      <path d="M 492.101205 320.4 
L 492.101205 43.2 
" clip-path="url(#p6785ce1b09)" style="fill: none; stroke-dasharray: 5.12,1.28,0.8,1.28; stroke-dashoffset: 0; stroke: #b0b0b0; stroke-width: 0.8"/>
     </g>
     <g id="line2d_12">
      <g>
       <use xlink:href="#m62f1baea11" x="492.101205" y="320.4" style="fill: #a9a9a9; stroke: #a9a9a9; stroke-width: 0.8"/>
      </g>
     </g>
     <g id="text_6">
      <!-- 2022-10 -->
      <g style="fill: #a9a9a9" transform="translate(471.209799 334.998438) scale(0.1 -0.1)">
       <use xlink:href="#DejaVuSans-32"/>
       <use xlink:href="#DejaVuSans-30" x="63.623047"/>
       <use xlink:href="#DejaVuSans-32" x="127.246094"/>
       <use xlink:href="#DejaVuSans-32" x="190.869141"/>
       <use xlink:href="#DejaVuSans-2d" x="254.492188"/>
       <use xlink:href="#DejaVuSans-31" x="290.576172"/>
       <use xlink:href="#DejaVuSans-30" x="354.199219"/>
      </g>
     </g>
    </g>
    <g id="xtick_7">
     <g id="line2d_13">
      <path d="M 567.071632 320.4 
L 567.071632 43.2 
" clip-path="url(#p6785ce1b09)" style="fill: none; stroke-dasharray: 5.12,1.28,0.8,1.28; stroke-dashoffset: 0; stroke: #b0b0b0; stroke-width: 0.8"/>
     </g>
     <g id="line2d_14">
      <g>
       <use xlink:href="#m62f1baea11" x="567.071632" y="320.4" style="fill: #a9a9a9; stroke: #a9a9a9; stroke-width: 0.8"/>
      </g>
     </g>
     <g id="text_7">
      <!-- 2023-01 -->
      <g style="fill: #a9a9a9" transform="translate(546.180226 334.998438) scale(0.1 -0.1)">
       <defs>
        <path id="DejaVuSans-33" d="M 2597 2516 
Q 3050 2419 3304 2112 
Q 3559 1806 3559 1356 
Q 3559 666 3084 287 
Q 2609 -91 1734 -91 
Q 1441 -91 1130 -33 
Q 819 25 488 141 
L 488 750 
Q 750 597 1062 519 
Q 1375 441 1716 441 
Q 2309 441 2620 675 
Q 2931 909 2931 1356 
Q 2931 1769 2642 2001 
Q 2353 2234 1838 2234 
L 1294 2234 
L 1294 2753 
L 1863 2753 
Q 2328 2753 2575 2939 
Q 2822 3125 2822 3475 
Q 2822 3834 2567 4026 
Q 2313 4219 1838 4219 
Q 1578 4219 1281 4162 
Q 984 4106 628 3988 
L 628 4550 
Q 988 4650 1302 4700 
Q 1616 4750 1894 4750 
Q 2613 4750 3031 4423 
Q 3450 4097 3450 3541 
Q 3450 3153 3228 2886 
Q 3006 2619 2597 2516 
z
" transform="scale(0.015625)"/>
       </defs>
       <use xlink:href="#DejaVuSans-32"/>
       <use xlink:href="#DejaVuSans-30" x="63.623047"/>
       <use xlink:href="#DejaVuSans-32" x="127.246094"/>
       <use xlink:href="#DejaVuSans-33" x="190.869141"/>
       <use xlink:href="#DejaVuSans-2d" x="254.492188"/>
       <use xlink:href="#DejaVuSans-30" x="290.576172"/>
       <use xlink:href="#DejaVuSans-31" x="354.199219"/>
      </g>
     </g>
    </g>
    <g id="xtick_8">
     <g id="line2d_15">
      <path d="M 640.412267 320.4 
L 640.412267 43.2 
" clip-path="url(#p6785ce1b09)" style="fill: none; stroke-dasharray: 5.12,1.28,0.8,1.28; stroke-dashoffset: 0; stroke: #b0b0b0; stroke-width: 0.8"/>
     </g>
     <g id="line2d_16">
      <g>
       <use xlink:href="#m62f1baea11" x="640.412267" y="320.4" style="fill: #a9a9a9; stroke: #a9a9a9; stroke-width: 0.8"/>
      </g>
     </g>
     <g id="text_8">
      <!-- 2023-04 -->
      <g style="fill: #a9a9a9" transform="translate(619.520861 334.998438) scale(0.1 -0.1)">
       <use xlink:href="#DejaVuSans-32"/>
       <use xlink:href="#DejaVuSans-30" x="63.623047"/>
       <use xlink:href="#DejaVuSans-32" x="127.246094"/>
       <use xlink:href="#DejaVuSans-33" x="190.869141"/>
       <use xlink:href="#DejaVuSans-2d" x="254.492188"/>
       <use xlink:href="#DejaVuSans-30" x="290.576172"/>
       <use xlink:href="#DejaVuSans-34" x="354.199219"/>
      </g>
     </g>
    </g>
    <g id="xtick_9">
     <g id="line2d_17">
      <path d="M 714.567798 320.4 
L 714.567798 43.2 
" clip-path="url(#p6785ce1b09)" style="fill: none; stroke-dasharray: 5.12,1.28,0.8,1.28; stroke-dashoffset: 0; stroke: #b0b0b0; stroke-width: 0.8"/>
     </g>
     <g id="line2d_18">
      <g>
       <use xlink:href="#m62f1baea11" x="714.567798" y="320.4" style="fill: #a9a9a9; stroke: #a9a9a9; stroke-width: 0.8"/>
      </g>
     </g>
     <g id="text_9">
      <!-- 2023-07 -->
      <g style="fill: #a9a9a9" transform="translate(693.676392 334.998438) scale(0.1 -0.1)">
       <use xlink:href="#DejaVuSans-32"/>
       <use xlink:href="#DejaVuSans-30" x="63.623047"/>
       <use xlink:href="#DejaVuSans-32" x="127.246094"/>
       <use xlink:href="#DejaVuSans-33" x="190.869141"/>
       <use xlink:href="#DejaVuSans-2d" x="254.492188"/>
       <use xlink:href="#DejaVuSans-30" x="290.576172"/>
       <use xlink:href="#DejaVuSans-37" x="354.199219"/>
      </g>
     </g>
    </g>
   </g>
   <g id="matplotlib.axis_2">
    <g id="ytick_1">
     <g id="line2d_19">
      <path d="M 108 307.853617 
L 777.6 307.853617 
" clip-path="url(#p6785ce1b09)" style="fill: none; stroke-dasharray: 5.12,1.28,0.8,1.28; stroke-dashoffset: 0; stroke: #b0b0b0; stroke-width: 0.8"/>
     </g>
     <g id="line2d_20">
      <defs>
       <path id="md9efd88eb1" d="M 0 0 
L -3.5 0 
" style="stroke: #a9a9a9; stroke-width: 0.8"/>
      </defs>
      <g>
       <use xlink:href="#md9efd88eb1" x="108" y="307.853617" style="fill: #a9a9a9; stroke: #a9a9a9; stroke-width: 0.8"/>
      </g>
     </g>
     <g id="text_10">
      <!-- 0 -->
      <g style="fill: #a9a9a9" transform="translate(94.6375 311.652836) scale(0.1 -0.1)">
       <use xlink:href="#DejaVuSans-30"/>
      </g>
     </g>
    </g>
    <g id="ytick_2">
     <g id="line2d_21">
      <path d="M 108 275.683404 
L 777.6 275.683404 
" clip-path="url(#p6785ce1b09)" style="fill: none; stroke-dasharray: 5.12,1.28,0.8,1.28; stroke-dashoffset: 0; stroke: #b0b0b0; stroke-width: 0.8"/>
     </g>
     <g id="line2d_22">
      <g>
       <use xlink:href="#md9efd88eb1" x="108" y="275.683404" style="fill: #a9a9a9; stroke: #a9a9a9; stroke-width: 0.8"/>
      </g>
     </g>
     <g id="text_11">
      <!-- 600 -->
      <g style="fill: #a9a9a9" transform="translate(81.9125 279.482623) scale(0.1 -0.1)">
       <defs>
        <path id="DejaVuSans-36" d="M 2113 2584 
Q 1688 2584 1439 2293 
Q 1191 2003 1191 1497 
Q 1191 994 1439 701 
Q 1688 409 2113 409 
Q 2538 409 2786 701 
Q 3034 994 3034 1497 
Q 3034 2003 2786 2293 
Q 2538 2584 2113 2584 
z
M 3366 4563 
L 3366 3988 
Q 3128 4100 2886 4159 
Q 2644 4219 2406 4219 
Q 1781 4219 1451 3797 
Q 1122 3375 1075 2522 
Q 1259 2794 1537 2939 
Q 1816 3084 2150 3084 
Q 2853 3084 3261 2657 
Q 3669 2231 3669 1497 
Q 3669 778 3244 343 
Q 2819 -91 2113 -91 
Q 1303 -91 875 529 
Q 447 1150 447 2328 
Q 447 3434 972 4092 
Q 1497 4750 2381 4750 
Q 2619 4750 2861 4703 
Q 3103 4656 3366 4563 
z
" transform="scale(0.015625)"/>
       </defs>
       <use xlink:href="#DejaVuSans-36"/>
       <use xlink:href="#DejaVuSans-30" x="63.623047"/>
       <use xlink:href="#DejaVuSans-30" x="127.246094"/>
      </g>
     </g>
    </g>
    <g id="ytick_3">
     <g id="line2d_23">
      <path d="M 108 243.513191 
L 777.6 243.513191 
" clip-path="url(#p6785ce1b09)" style="fill: none; stroke-dasharray: 5.12,1.28,0.8,1.28; stroke-dashoffset: 0; stroke: #b0b0b0; stroke-width: 0.8"/>
     </g>
     <g id="line2d_24">
      <g>
       <use xlink:href="#md9efd88eb1" x="108" y="243.513191" style="fill: #a9a9a9; stroke: #a9a9a9; stroke-width: 0.8"/>
      </g>
     </g>
     <g id="text_12">
      <!-- 1200 -->
      <g style="fill: #a9a9a9" transform="translate(75.55 247.31241) scale(0.1 -0.1)">
       <use xlink:href="#DejaVuSans-31"/>
       <use xlink:href="#DejaVuSans-32" x="63.623047"/>
       <use xlink:href="#DejaVuSans-30" x="127.246094"/>
       <use xlink:href="#DejaVuSans-30" x="190.869141"/>
      </g>
     </g>
    </g>
    <g id="ytick_4">
     <g id="line2d_25">
      <path d="M 108 211.342979 
L 777.6 211.342979 
" clip-path="url(#p6785ce1b09)" style="fill: none; stroke-dasharray: 5.12,1.28,0.8,1.28; stroke-dashoffset: 0; stroke: #b0b0b0; stroke-width: 0.8"/>
     </g>
     <g id="line2d_26">
      <g>
       <use xlink:href="#md9efd88eb1" x="108" y="211.342979" style="fill: #a9a9a9; stroke: #a9a9a9; stroke-width: 0.8"/>
      </g>
     </g>
     <g id="text_13">
      <!-- 1800 -->
      <g style="fill: #a9a9a9" transform="translate(75.55 215.142197) scale(0.1 -0.1)">
       <defs>
        <path id="DejaVuSans-38" d="M 2034 2216 
Q 1584 2216 1326 1975 
Q 1069 1734 1069 1313 
Q 1069 891 1326 650 
Q 1584 409 2034 409 
Q 2484 409 2743 651 
Q 3003 894 3003 1313 
Q 3003 1734 2745 1975 
Q 2488 2216 2034 2216 
z
M 1403 2484 
Q 997 2584 770 2862 
Q 544 3141 544 3541 
Q 544 4100 942 4425 
Q 1341 4750 2034 4750 
Q 2731 4750 3128 4425 
Q 3525 4100 3525 3541 
Q 3525 3141 3298 2862 
Q 3072 2584 2669 2484 
Q 3125 2378 3379 2068 
Q 3634 1759 3634 1313 
Q 3634 634 3220 271 
Q 2806 -91 2034 -91 
Q 1263 -91 848 271 
Q 434 634 434 1313 
Q 434 1759 690 2068 
Q 947 2378 1403 2484 
z
M 1172 3481 
Q 1172 3119 1398 2916 
Q 1625 2713 2034 2713 
Q 2441 2713 2670 2916 
Q 2900 3119 2900 3481 
Q 2900 3844 2670 4047 
Q 2441 4250 2034 4250 
Q 1625 4250 1398 4047 
Q 1172 3844 1172 3481 
z
" transform="scale(0.015625)"/>
       </defs>
       <use xlink:href="#DejaVuSans-31"/>
       <use xlink:href="#DejaVuSans-38" x="63.623047"/>
       <use xlink:href="#DejaVuSans-30" x="127.246094"/>
       <use xlink:href="#DejaVuSans-30" x="190.869141"/>
      </g>
     </g>
    </g>
    <g id="ytick_5">
     <g id="line2d_27">
      <path d="M 108 179.172766 
L 777.6 179.172766 
" clip-path="url(#p6785ce1b09)" style="fill: none; stroke-dasharray: 5.12,1.28,0.8,1.28; stroke-dashoffset: 0; stroke: #b0b0b0; stroke-width: 0.8"/>
     </g>
     <g id="line2d_28">
      <g>
       <use xlink:href="#md9efd88eb1" x="108" y="179.172766" style="fill: #a9a9a9; stroke: #a9a9a9; stroke-width: 0.8"/>
      </g>
     </g>
     <g id="text_14">
      <!-- 2400 -->
      <g style="fill: #a9a9a9" transform="translate(75.55 182.971985) scale(0.1 -0.1)">
       <use xlink:href="#DejaVuSans-32"/>
       <use xlink:href="#DejaVuSans-34" x="63.623047"/>
       <use xlink:href="#DejaVuSans-30" x="127.246094"/>
       <use xlink:href="#DejaVuSans-30" x="190.869141"/>
      </g>
     </g>
    </g>
    <g id="ytick_6">
     <g id="line2d_29">
      <path d="M 108 147.002553 
L 777.6 147.002553 
" clip-path="url(#p6785ce1b09)" style="fill: none; stroke-dasharray: 5.12,1.28,0.8,1.28; stroke-dashoffset: 0; stroke: #b0b0b0; stroke-width: 0.8"/>
     </g>
     <g id="line2d_30">
      <g>
       <use xlink:href="#md9efd88eb1" x="108" y="147.002553" style="fill: #a9a9a9; stroke: #a9a9a9; stroke-width: 0.8"/>
      </g>
     </g>
     <g id="text_15">
      <!-- 3000 -->
      <g style="fill: #a9a9a9" transform="translate(75.55 150.801772) scale(0.1 -0.1)">
       <use xlink:href="#DejaVuSans-33"/>
       <use xlink:href="#DejaVuSans-30" x="63.623047"/>
       <use xlink:href="#DejaVuSans-30" x="127.246094"/>
       <use xlink:href="#DejaVuSans-30" x="190.869141"/>
      </g>
     </g>
    </g>
    <g id="ytick_7">
     <g id="line2d_31">
      <path d="M 108 114.83234 
L 777.6 114.83234 
" clip-path="url(#p6785ce1b09)" style="fill: none; stroke-dasharray: 5.12,1.28,0.8,1.28; stroke-dashoffset: 0; stroke: #b0b0b0; stroke-width: 0.8"/>
     </g>
     <g id="line2d_32">
      <g>
       <use xlink:href="#md9efd88eb1" x="108" y="114.83234" style="fill: #a9a9a9; stroke: #a9a9a9; stroke-width: 0.8"/>
      </g>
     </g>
     <g id="text_16">
      <!-- 3600 -->
      <g style="fill: #a9a9a9" transform="translate(75.55 118.631559) scale(0.1 -0.1)">
       <use xlink:href="#DejaVuSans-33"/>
       <use xlink:href="#DejaVuSans-36" x="63.623047"/>
       <use xlink:href="#DejaVuSans-30" x="127.246094"/>
       <use xlink:href="#DejaVuSans-30" x="190.869141"/>
      </g>
     </g>
    </g>
    <g id="ytick_8">
     <g id="line2d_33">
      <path d="M 108 82.662128 
L 777.6 82.662128 
" clip-path="url(#p6785ce1b09)" style="fill: none; stroke-dasharray: 5.12,1.28,0.8,1.28; stroke-dashoffset: 0; stroke: #b0b0b0; stroke-width: 0.8"/>
     </g>
     <g id="line2d_34">
      <g>
       <use xlink:href="#md9efd88eb1" x="108" y="82.662128" style="fill: #a9a9a9; stroke: #a9a9a9; stroke-width: 0.8"/>
      </g>
     </g>
     <g id="text_17">
      <!-- 4200 -->
      <g style="fill: #a9a9a9" transform="translate(75.55 86.461346) scale(0.1 -0.1)">
       <use xlink:href="#DejaVuSans-34"/>
       <use xlink:href="#DejaVuSans-32" x="63.623047"/>
       <use xlink:href="#DejaVuSans-30" x="127.246094"/>
       <use xlink:href="#DejaVuSans-30" x="190.869141"/>
      </g>
     </g>
    </g>
    <g id="ytick_9">
     <g id="line2d_35">
      <path d="M 108 50.491915 
L 777.6 50.491915 
" clip-path="url(#p6785ce1b09)" style="fill: none; stroke-dasharray: 5.12,1.28,0.8,1.28; stroke-dashoffset: 0; stroke: #b0b0b0; stroke-width: 0.8"/>
     </g>
     <g id="line2d_36">
      <g>
       <use xlink:href="#md9efd88eb1" x="108" y="50.491915" style="fill: #a9a9a9; stroke: #a9a9a9; stroke-width: 0.8"/>
      </g>
     </g>
     <g id="text_18">
      <!-- 4800 -->
      <g style="fill: #a9a9a9" transform="translate(75.55 54.291134) scale(0.1 -0.1)">
       <use xlink:href="#DejaVuSans-34"/>
       <use xlink:href="#DejaVuSans-38" x="63.623047"/>
       <use xlink:href="#DejaVuSans-30" x="127.246094"/>
       <use xlink:href="#DejaVuSans-30" x="190.869141"/>
      </g>
     </g>
    </g>
   </g>
   <g id="line2d_37">
    <path d="M 138.436364 307.692766 
L 143.325739 307.317447 
L 144.140635 306.995745 
L 146.585323 306.72766 
L 152.289595 305.708936 
L 156.364074 305.333617 
L 157.17897 304.958298 
L 157.993866 304.74383 
L 158.808762 303.778723 
L 159.623658 303.242553 
L 160.438554 301.526809 
L 161.25345 301.419574 
L 162.068346 300.829787 
L 163.698138 300.079149 
L 165.32793 298.899574 
L 166.142826 298.148936 
L 167.772618 297.398298 
L 168.587514 297.076596 
L 169.40241 296.486809 
L 172.661993 295.146383 
L 173.476889 293.913191 
L 174.291785 293.269787 
L 175.921577 292.411915 
L 184.070537 291.285957 
L 184.885433 290.910638 
L 190.589704 290.481702 
L 192.219496 290.052766 
L 193.849288 289.731064 
L 200.368456 288.873191 
L 201.183352 288.444255 
L 201.998248 288.337021 
L 202.813143 288.015319 
L 204.442935 287.747234 
L 205.257831 287.693617 
L 206.072727 287.425532 
L 209.332311 286.942979 
L 210.962103 286.514043 
L 213.406791 286.299574 
L 215.036583 286.138723 
L 215.851479 285.924255 
L 216.666375 285.870638 
L 219.111062 285.173617 
L 224.000438 284.476596 
L 224.815334 284.208511 
L 225.63023 283.13617 
L 228.074918 282.278298 
L 230.519606 281.634894 
L 231.334502 281.259574 
L 232.149398 281.205957 
L 236.223877 280.133617 
L 237.853669 280.026383 
L 238.668565 279.919149 
L 241.113253 279.222128 
L 244.372837 278.471489 
L 245.187733 278.149787 
L 246.002629 278.042553 
L 246.817525 277.667234 
L 254.966484 276.48766 
L 259.040964 275.361702 
L 259.85586 274.879149 
L 263.115444 274.021277 
L 264.745235 273.109787 
L 265.560131 272.573617 
L 266.375027 272.466383 
L 267.189923 272.198298 
L 269.634611 271.769362 
L 270.449507 271.394043 
L 272.079299 271.125957 
L 273.709091 270.375319 
L 277.783571 269.410213 
L 280.228258 268.820426 
L 281.043154 268.498723 
L 281.85805 268.337872 
L 282.672946 268.01617 
L 283.487842 267.908936 
L 284.302738 267.533617 
L 285.117634 267.319149 
L 286.747426 267.211915 
L 288.377218 266.675745 
L 290.00701 266.568511 
L 290.821906 266.193191 
L 294.08149 265.657021 
L 297.341073 265.388936 
L 298.155969 265.228085 
L 299.785761 264.477447 
L 308.749617 260.885106 
L 309.564513 260.45617 
L 310.379409 259.598298 
L 311.194304 258.311489 
L 312.0092 257.292766 
L 312.824096 257.078298 
L 313.638992 257.078298 
L 315.268784 255.898723 
L 316.08368 255.684255 
L 316.898576 255.255319 
L 317.713472 255.094468 
L 318.528368 254.397447 
L 319.343264 254.182979 
L 321.787952 253.057021 
L 322.602848 252.091915 
L 323.417744 250.91234 
L 324.23264 250.429787 
L 325.047536 249.142979 
L 325.862432 248.338723 
L 326.677327 247.963404 
L 327.492223 247.748936 
L 329.122015 246.78383 
L 329.936911 246.408511 
L 333.196495 244.049362 
L 334.011391 242.923404 
L 334.826287 241.100426 
L 335.641183 239.920851 
L 336.456079 239.331064 
L 337.270975 239.009362 
L 340.530559 236.328511 
L 342.16035 235.148936 
L 342.975246 234.451915 
L 343.790142 233.325957 
L 344.605038 232.575319 
L 347.049726 230.913191 
L 348.679518 229.840851 
L 349.494414 229.14383 
L 350.30931 228.929362 
L 352.753998 227.69617 
L 354.38379 226.784681 
L 355.198686 226.462979 
L 356.828478 225.015319 
L 357.643373 224.050213 
L 359.273165 222.977872 
L 360.088061 222.763404 
L 360.902957 222.334468 
L 361.717853 221.744681 
L 363.347645 220.886809 
L 364.162541 220.779574 
L 365.792333 219.921702 
L 366.607229 219.492766 
L 367.422125 218.688511 
L 368.237021 218.205957 
L 369.051917 217.937872 
L 369.866813 217.401702 
L 373.126396 215.793191 
L 373.941292 215.09617 
L 377.200876 214.02383 
L 378.015772 213.48766 
L 378.830668 213.326809 
L 380.46046 212.790638 
L 382.905148 211.879149 
L 385.349836 211.021277 
L 386.979628 210.753191 
L 388.609419 209.412766 
L 390.239211 208.662128 
L 392.683899 207.321702 
L 394.313691 206.892766 
L 395.128587 206.410213 
L 395.943483 206.195745 
L 398.388171 204.694468 
L 400.832859 204.158298 
L 403.277547 203.300426 
L 404.907338 202.388936 
L 405.722234 202.281702 
L 406.53713 202.013617 
L 408.166922 201.691915 
L 410.61161 199.97617 
L 413.056298 199.44 
L 413.871194 199.171915 
L 414.68609 198.582128 
L 419.575465 197.080851 
L 420.390361 197.027234 
L 426.094633 195.097021 
L 426.909529 194.721702 
L 429.354217 194.185532 
L 430.984009 193.810213 
L 431.798905 193.434894 
L 432.613801 193.274043 
L 435.058488 192.201702 
L 437.503176 191.022128 
L 438.318072 190.485957 
L 439.132968 190.271489 
L 441.577656 189.038298 
L 443.207448 188.662979 
L 444.83724 187.858723 
L 446.467032 187.429787 
L 447.281928 187.322553 
L 448.096824 186.786383 
L 448.91172 186.411064 
L 449.726616 186.250213 
L 451.356407 185.606809 
L 452.171303 185.445957 
L 452.986199 185.017021 
L 456.245783 184.534468 
L 457.875575 183.78383 
L 458.690471 183.140426 
L 459.505367 181.746383 
L 461.135159 181.424681 
L 461.950055 181.26383 
L 465.209639 179.655319 
L 466.024535 179.494468 
L 470.91391 177.242553 
L 471.728806 176.706383 
L 472.543702 176.384681 
L 474.98839 175.902128 
L 476.618182 175.151489 
L 477.433078 174.829787 
L 478.247974 174.722553 
L 481.507558 173.328511 
L 483.137349 172.25617 
L 483.952245 171.880851 
L 484.767141 171.773617 
L 485.582037 171.505532 
L 486.396933 171.451915 
L 489.656517 170.433191 
L 490.471413 170.379574 
L 491.286309 169.789787 
L 492.916101 169.253617 
L 495.360789 168.502979 
L 496.175685 168.020426 
L 496.990581 167.805957 
L 497.805476 167.269787 
L 498.620372 166.948085 
L 499.435268 166.465532 
L 501.06506 165.875745 
L 501.879956 165.661277 
L 502.694852 165.285957 
L 503.509748 165.071489 
L 504.324644 164.69617 
L 505.13954 164.106383 
L 505.954436 163.248511 
L 506.769332 162.71234 
L 507.584228 162.551489 
L 509.21402 161.371915 
L 510.028916 161.211064 
L 510.843812 160.031489 
L 511.658708 159.709787 
L 512.473604 159.12 
L 513.288499 159.012766 
L 514.103395 158.476596 
L 514.918291 158.101277 
L 515.733187 157.940426 
L 516.548083 157.618723 
L 517.362979 156.975319 
L 518.177875 156.707234 
L 520.622563 155.15234 
L 523.882147 153.597447 
L 524.697043 153.490213 
L 526.326835 152.793191 
L 527.141731 152.310638 
L 527.956627 151.02383 
L 528.771522 150.219574 
L 529.586418 149.790638 
L 530.401314 149.629787 
L 532.031106 148.664681 
L 532.846002 148.50383 
L 534.475794 147.753191 
L 536.920482 146.734468 
L 538.550274 145.662128 
L 540.180066 144 
L 541.809858 143.034894 
L 542.624754 142.55234 
L 543.43965 141.748085 
L 545.884337 139.817872 
L 546.699233 139.388936 
L 547.514129 138.531064 
L 548.329025 137.941277 
L 549.958817 137.405106 
L 550.773713 136.654468 
L 552.403505 135.850213 
L 553.218401 135.635745 
L 554.033297 135.045957 
L 554.848193 134.831489 
L 557.292881 133.598298 
L 558.107777 133.008511 
L 559.737568 132.365106 
L 560.552464 132.204255 
L 561.36736 131.721702 
L 567.071632 129.737872 
L 567.886528 129.040851 
L 571.146112 127.861277 
L 571.961008 127.646809 
L 572.775904 127.057021 
L 575.220591 125.984681 
L 576.035487 125.394894 
L 576.850383 124.965957 
L 578.480175 121.85617 
L 580.109967 120.033191 
L 580.924863 119.497021 
L 583.369551 118.478298 
L 584.184447 118.210213 
L 584.999343 118.102979 
L 585.814239 117.674043 
L 588.258927 116.923404 
L 590.703614 115.958298 
L 592.333406 114.885957 
L 594.778094 113.813617 
L 598.852574 111.561702 
L 599.66747 110.757447 
L 601.297262 109.899574 
L 602.112158 109.470638 
L 602.927054 109.202553 
L 603.74195 108.612766 
L 605.371742 107.862128 
L 606.186637 107.379574 
L 607.001533 107.057872 
L 607.816429 106.575319 
L 608.631325 106.360851 
L 609.446221 105.771064 
L 610.261117 105.449362 
L 611.076013 105.288511 
L 612.705805 104.645106 
L 615.150493 103.787234 
L 615.965389 103.197447 
L 617.595181 102.768511 
L 619.224973 102.178723 
L 620.039869 101.535319 
L 621.66966 101.052766 
L 622.484556 100.677447 
L 623.299452 100.462979 
L 624.929244 99.390638 
L 626.559036 98.693617 
L 628.188828 97.514043 
L 629.81862 96.977872 
L 630.633516 96.280851 
L 631.448412 96.12 
L 632.263308 95.422979 
L 633.8931 94.511489 
L 635.522892 93.868085 
L 636.337788 93.06383 
L 638.782475 92.313191 
L 639.597371 91.830638 
L 640.412267 91.723404 
L 642.856955 90.54383 
L 646.116539 89.578723 
L 647.746331 89.364255 
L 648.561227 89.042553 
L 649.376123 88.881702 
L 651.005915 88.238298 
L 651.820811 88.184681 
L 654.265498 87.380426 
L 655.89529 86.415319 
L 657.525082 85.342979 
L 662.414458 83.037447 
L 664.859146 81.482553 
L 666.488938 81.107234 
L 668.933625 79.766809 
L 671.378313 79.01617 
L 672.193209 78.694468 
L 673.823001 78.319149 
L 677.897481 77.03234 
L 679.527273 76.710638 
L 681.157065 76.335319 
L 681.971961 75.96 
L 682.786857 75.852766 
L 684.416648 75.209362 
L 685.231544 75.102128 
L 686.04644 74.726809 
L 687.676232 74.405106 
L 688.491128 74.029787 
L 690.935816 73.493617 
L 692.565608 73.171915 
L 699.899671 71.724255 
L 700.714567 71.402553 
L 701.529463 71.348936 
L 703.974151 70.651915 
L 704.789047 70.222979 
L 706.418839 69.686809 
L 707.233735 69.633191 
L 711.308215 68.453617 
L 717.012486 66.577021 
L 717.827382 66.577021 
L 719.457174 66.040851 
L 720.27207 65.236596 
L 721.086966 64.861277 
L 722.716758 64.378723 
L 725.976342 63.199149 
L 726.791238 62.931064 
L 727.606134 62.448511 
L 728.42103 62.28766 
L 729.235926 61.751489 
L 732.495509 60.786383 
L 733.310405 60.518298 
L 734.125301 60.035745 
L 734.940197 59.821277 
L 735.755093 59.177872 
L 738.199781 58.748936 
L 739.829573 57.891064 
L 740.644469 56.979574 
L 742.274261 56.657872 
L 743.904053 56.282553 
L 745.533844 55.853617 
L 747.163636 55.8 
L 747.163636 55.8 
" clip-path="url(#p6785ce1b09)" style="fill: none; stroke: #1f77b4; stroke-width: 1.5; stroke-linecap: square"/>
   </g>
   <g id="line2d_38">
    <path d="M 139.25126 307.8 
L 141.695947 307.692766 
L 143.325739 307.585532 
L 149.030011 307.478298 
L 153.104491 307.317447 
L 156.364074 307.317447 
L 157.17897 307.102979 
L 159.623658 307.049362 
L 164.513034 306.513191 
L 176.736473 305.81617 
L 183.255641 305.708936 
L 187.33012 305.548085 
L 197.108872 305.440851 
L 201.183352 305.28 
L 206.072727 305.172766 
L 209.332311 305.065532 
L 216.666375 304.958298 
L 219.111062 304.904681 
L 221.55575 304.851064 
L 224.000438 304.582979 
L 228.889814 304.529362 
L 230.519606 304.422128 
L 236.223877 304.314894 
L 245.187733 303.83234 
L 250.892004 303.725106 
L 252.521796 303.617872 
L 254.966484 303.510638 
L 259.85586 303.29617 
L 263.115444 303.242553 
L 265.560131 303.028085 
L 279.413363 302.22383 
L 281.85805 302.116596 
L 287.562322 301.848511 
L 290.00701 301.741277 
L 298.155969 301.31234 
L 307.119825 301.205106 
L 310.379409 300.883404 
L 312.0092 300.77617 
L 320.973056 300.132766 
L 321.787952 299.918298 
L 324.23264 299.70383 
L 325.862432 299.328511 
L 328.307119 299.274894 
L 330.751807 299.16766 
L 337.270975 298.363404 
L 341.345455 298.25617 
L 351.939102 297.451915 
L 356.828478 296.915745 
L 359.273165 296.862128 
L 360.902957 296.754894 
L 364.162541 296.64766 
L 365.792333 296.540426 
L 369.866813 296.165106 
L 370.681709 295.950638 
L 375.571084 295.73617 
L 379.645564 295.628936 
L 391.054107 294.985532 
L 392.683899 294.878298 
L 403.277547 294.288511 
L 408.981818 294.181277 
L 409.796714 294.020426 
L 416.315882 293.913191 
L 422.020153 293.645106 
L 430.984009 293.537872 
L 436.68828 293.269787 
L 443.207448 293.162553 
L 450.541512 292.787234 
L 455.430887 292.68 
L 470.91391 291.768511 
L 477.433078 291.661277 
L 481.507558 291.285957 
L 483.137349 291.125106 
L 487.211829 291.071489 
L 490.471413 290.749787 
L 498.620372 290.320851 
L 503.509748 290.213617 
L 505.954436 290.16 
L 508.399124 290.106383 
L 510.843812 289.838298 
L 517.362979 289.731064 
L 518.992771 289.462979 
L 520.622563 289.355745 
L 523.882147 289.248511 
L 525.511939 289.248511 
L 527.141731 288.980426 
L 535.29069 288.873191 
L 536.920482 288.71234 
L 540.180066 288.605106 
L 540.994962 288.390638 
L 542.624754 288.337021 
L 543.43965 288.17617 
L 545.884337 288.068936 
L 559.737568 287.264681 
L 562.182256 287.157447 
L 566.256736 286.996596 
L 577.665279 286.889362 
L 583.369551 286.621277 
L 589.888719 286.514043 
L 593.148302 286.406809 
L 596.407886 286.353191 
L 598.852574 286.138723 
L 606.186637 285.763404 
L 607.816429 285.65617 
L 611.076013 285.548936 
L 615.150493 285.441702 
L 619.224973 285.280851 
L 624.929244 285.173617 
L 628.188828 285.066383 
L 637.152683 284.959149 
L 642.042059 284.744681 
L 646.931435 284.637447 
L 649.376123 284.369362 
L 654.265498 284.315745 
L 655.080394 284.154894 
L 656.710186 284.04766 
L 659.96977 283.940426 
L 669.748521 283.833191 
L 673.823001 283.67234 
L 687.676232 283.618723 
L 689.306024 283.511489 
L 691.750712 283.457872 
L 702.344359 283.350638 
L 703.974151 283.243404 
L 712.938007 283.13617 
L 716.19759 283.028936 
L 725.976342 282.975319 
L 727.606134 282.868085 
L 739.829573 282.814468 
L 742.274261 282.6 
L 747.163636 282.6 
L 747.163636 282.6 
" clip-path="url(#p6785ce1b09)" style="fill: none; stroke: #ff7f0e; stroke-width: 1.5; stroke-linecap: square"/>
   </g>
   <g id="patch_3">
    <path d="M 108 320.4 
L 108 43.2 
" style="fill: none; stroke: #a9a9a9; stroke-width: 0.8; stroke-linejoin: miter; stroke-linecap: square"/>
   </g>
   <g id="patch_4">
    <path d="M 777.6 320.4 
L 777.6 43.2 
" style="fill: none"/>
   </g>
   <g id="patch_5">
    <path d="M 108 320.4 
L 777.6 320.4 
" style="fill: none; stroke: #a9a9a9; stroke-width: 0.8; stroke-linejoin: miter; stroke-linecap: square"/>
   </g>
   <g id="patch_6">
    <path d="M 108 43.2 
L 777.6 43.2 
" style="fill: none"/>
   </g>
   <g id="text_19">
    <!-- get_subscribe history -->
    <g style="fill: #a9a9a9" transform="translate(378.6075 37.2) scale(0.12 -0.12)">
     <defs>
      <path id="DejaVuSans-67" d="M 2906 1791 
Q 2906 2416 2648 2759 
Q 2391 3103 1925 3103 
Q 1463 3103 1205 2759 
Q 947 2416 947 1791 
Q 947 1169 1205 825 
Q 1463 481 1925 481 
Q 2391 481 2648 825 
Q 2906 1169 2906 1791 
z
M 3481 434 
Q 3481 -459 3084 -895 
Q 2688 -1331 1869 -1331 
Q 1566 -1331 1297 -1286 
Q 1028 -1241 775 -1147 
L 775 -588 
Q 1028 -725 1275 -790 
Q 1522 -856 1778 -856 
Q 2344 -856 2625 -561 
Q 2906 -266 2906 331 
L 2906 616 
Q 2728 306 2450 153 
Q 2172 0 1784 0 
Q 1141 0 747 490 
Q 353 981 353 1791 
Q 353 2603 747 3093 
Q 1141 3584 1784 3584 
Q 2172 3584 2450 3431 
Q 2728 3278 2906 2969 
L 2906 3500 
L 3481 3500 
L 3481 434 
z
" transform="scale(0.015625)"/>
      <path id="DejaVuSans-65" d="M 3597 1894 
L 3597 1613 
L 953 1613 
Q 991 1019 1311 708 
Q 1631 397 2203 397 
Q 2534 397 2845 478 
Q 3156 559 3463 722 
L 3463 178 
Q 3153 47 2828 -22 
Q 2503 -91 2169 -91 
Q 1331 -91 842 396 
Q 353 884 353 1716 
Q 353 2575 817 3079 
Q 1281 3584 2069 3584 
Q 2775 3584 3186 3129 
Q 3597 2675 3597 1894 
z
M 3022 2063 
Q 3016 2534 2758 2815 
Q 2500 3097 2075 3097 
Q 1594 3097 1305 2825 
Q 1016 2553 972 2059 
L 3022 2063 
z
" transform="scale(0.015625)"/>
      <path id="DejaVuSans-74" d="M 1172 4494 
L 1172 3500 
L 2356 3500 
L 2356 3053 
L 1172 3053 
L 1172 1153 
Q 1172 725 1289 603 
Q 1406 481 1766 481 
L 2356 481 
L 2356 0 
L 1766 0 
Q 1100 0 847 248 
Q 594 497 594 1153 
L 594 3053 
L 172 3053 
L 172 3500 
L 594 3500 
L 594 4494 
L 1172 4494 
z
" transform="scale(0.015625)"/>
      <path id="DejaVuSans-5f" d="M 3263 -1063 
L 3263 -1509 
L -63 -1509 
L -63 -1063 
L 3263 -1063 
z
" transform="scale(0.015625)"/>
      <path id="DejaVuSans-73" d="M 2834 3397 
L 2834 2853 
Q 2591 2978 2328 3040 
Q 2066 3103 1784 3103 
Q 1356 3103 1142 2972 
Q 928 2841 928 2578 
Q 928 2378 1081 2264 
Q 1234 2150 1697 2047 
L 1894 2003 
Q 2506 1872 2764 1633 
Q 3022 1394 3022 966 
Q 3022 478 2636 193 
Q 2250 -91 1575 -91 
Q 1294 -91 989 -36 
Q 684 19 347 128 
L 347 722 
Q 666 556 975 473 
Q 1284 391 1588 391 
Q 1994 391 2212 530 
Q 2431 669 2431 922 
Q 2431 1156 2273 1281 
Q 2116 1406 1581 1522 
L 1381 1569 
Q 847 1681 609 1914 
Q 372 2147 372 2553 
Q 372 3047 722 3315 
Q 1072 3584 1716 3584 
Q 2034 3584 2315 3537 
Q 2597 3491 2834 3397 
z
" transform="scale(0.015625)"/>
      <path id="DejaVuSans-75" d="M 544 1381 
L 544 3500 
L 1119 3500 
L 1119 1403 
Q 1119 906 1312 657 
Q 1506 409 1894 409 
Q 2359 409 2629 706 
Q 2900 1003 2900 1516 
L 2900 3500 
L 3475 3500 
L 3475 0 
L 2900 0 
L 2900 538 
Q 2691 219 2414 64 
Q 2138 -91 1772 -91 
Q 1169 -91 856 284 
Q 544 659 544 1381 
z
M 1991 3584 
L 1991 3584 
z
" transform="scale(0.015625)"/>
      <path id="DejaVuSans-62" d="M 3116 1747 
Q 3116 2381 2855 2742 
Q 2594 3103 2138 3103 
Q 1681 3103 1420 2742 
Q 1159 2381 1159 1747 
Q 1159 1113 1420 752 
Q 1681 391 2138 391 
Q 2594 391 2855 752 
Q 3116 1113 3116 1747 
z
M 1159 2969 
Q 1341 3281 1617 3432 
Q 1894 3584 2278 3584 
Q 2916 3584 3314 3078 
Q 3713 2572 3713 1747 
Q 3713 922 3314 415 
Q 2916 -91 2278 -91 
Q 1894 -91 1617 61 
Q 1341 213 1159 525 
L 1159 0 
L 581 0 
L 581 4863 
L 1159 4863 
L 1159 2969 
z
" transform="scale(0.015625)"/>
      <path id="DejaVuSans-63" d="M 3122 3366 
L 3122 2828 
Q 2878 2963 2633 3030 
Q 2388 3097 2138 3097 
Q 1578 3097 1268 2742 
Q 959 2388 959 1747 
Q 959 1106 1268 751 
Q 1578 397 2138 397 
Q 2388 397 2633 464 
Q 2878 531 3122 666 
L 3122 134 
Q 2881 22 2623 -34 
Q 2366 -91 2075 -91 
Q 1284 -91 818 406 
Q 353 903 353 1747 
Q 353 2603 823 3093 
Q 1294 3584 2113 3584 
Q 2378 3584 2631 3529 
Q 2884 3475 3122 3366 
z
" transform="scale(0.015625)"/>
      <path id="DejaVuSans-72" d="M 2631 2963 
Q 2534 3019 2420 3045 
Q 2306 3072 2169 3072 
Q 1681 3072 1420 2755 
Q 1159 2438 1159 1844 
L 1159 0 
L 581 0 
L 581 3500 
L 1159 3500 
L 1159 2956 
Q 1341 3275 1631 3429 
Q 1922 3584 2338 3584 
Q 2397 3584 2469 3576 
Q 2541 3569 2628 3553 
L 2631 2963 
z
" transform="scale(0.015625)"/>
      <path id="DejaVuSans-69" d="M 603 3500 
L 1178 3500 
L 1178 0 
L 603 0 
L 603 3500 
z
M 603 4863 
L 1178 4863 
L 1178 4134 
L 603 4134 
L 603 4863 
z
" transform="scale(0.015625)"/>
      <path id="DejaVuSans-20" transform="scale(0.015625)"/>
      <path id="DejaVuSans-68" d="M 3513 2113 
L 3513 0 
L 2938 0 
L 2938 2094 
Q 2938 2591 2744 2837 
Q 2550 3084 2163 3084 
Q 1697 3084 1428 2787 
Q 1159 2491 1159 1978 
L 1159 0 
L 581 0 
L 581 4863 
L 1159 4863 
L 1159 2956 
Q 1366 3272 1645 3428 
Q 1925 3584 2291 3584 
Q 2894 3584 3203 3211 
Q 3513 2838 3513 2113 
z
" transform="scale(0.015625)"/>
      <path id="DejaVuSans-6f" d="M 1959 3097 
Q 1497 3097 1228 2736 
Q 959 2375 959 1747 
Q 959 1119 1226 758 
Q 1494 397 1959 397 
Q 2419 397 2687 759 
Q 2956 1122 2956 1747 
Q 2956 2369 2687 2733 
Q 2419 3097 1959 3097 
z
M 1959 3584 
Q 2709 3584 3137 3096 
Q 3566 2609 3566 1747 
Q 3566 888 3137 398 
Q 2709 -91 1959 -91 
Q 1206 -91 779 398 
Q 353 888 353 1747 
Q 353 2609 779 3096 
Q 1206 3584 1959 3584 
z
" transform="scale(0.015625)"/>
      <path id="DejaVuSans-79" d="M 2059 -325 
Q 1816 -950 1584 -1140 
Q 1353 -1331 966 -1331 
L 506 -1331 
L 506 -850 
L 844 -850 
Q 1081 -850 1212 -737 
Q 1344 -625 1503 -206 
L 1606 56 
L 191 3500 
L 800 3500 
L 1894 763 
L 2988 3500 
L 3597 3500 
L 2059 -325 
z
" transform="scale(0.015625)"/>
     </defs>
     <use xlink:href="#DejaVuSans-67"/>
     <use xlink:href="#DejaVuSans-65" x="63.476562"/>
     <use xlink:href="#DejaVuSans-74" x="125"/>
     <use xlink:href="#DejaVuSans-5f" x="164.208984"/>
     <use xlink:href="#DejaVuSans-73" x="214.208984"/>
     <use xlink:href="#DejaVuSans-75" x="266.308594"/>
     <use xlink:href="#DejaVuSans-62" x="329.6875"/>
     <use xlink:href="#DejaVuSans-73" x="393.164062"/>
     <use xlink:href="#DejaVuSans-63" x="445.263672"/>
     <use xlink:href="#DejaVuSans-72" x="500.244141"/>
     <use xlink:href="#DejaVuSans-69" x="541.357422"/>
     <use xlink:href="#DejaVuSans-62" x="569.140625"/>
     <use xlink:href="#DejaVuSans-65" x="632.617188"/>
     <use xlink:href="#DejaVuSans-20" x="694.140625"/>
     <use xlink:href="#DejaVuSans-68" x="725.927734"/>
     <use xlink:href="#DejaVuSans-69" x="789.306641"/>
     <use xlink:href="#DejaVuSans-73" x="817.089844"/>
     <use xlink:href="#DejaVuSans-74" x="869.189453"/>
     <use xlink:href="#DejaVuSans-6f" x="908.398438"/>
     <use xlink:href="#DejaVuSans-72" x="969.580078"/>
     <use xlink:href="#DejaVuSans-79" x="1010.693359"/>
    </g>
   </g>
   <g id="legend_1">
    <g id="line2d_39">
     <path d="M 815.08 328.498438 
L 825.08 328.498438 
L 835.08 328.498438 
" style="fill: none; stroke: #1f77b4; stroke-width: 1.5; stroke-linecap: square"/>
    </g>
    <g id="text_20">
     <!-- star -->
     <g style="fill: #a9a9a9" transform="translate(843.08 331.998438) scale(0.1 -0.1)">
      <defs>
       <path id="DejaVuSans-61" d="M 2194 1759 
Q 1497 1759 1228 1600 
Q 959 1441 959 1056 
Q 959 750 1161 570 
Q 1363 391 1709 391 
Q 2188 391 2477 730 
Q 2766 1069 2766 1631 
L 2766 1759 
L 2194 1759 
z
M 3341 1997 
L 3341 0 
L 2766 0 
L 2766 531 
Q 2569 213 2275 61 
Q 1981 -91 1556 -91 
Q 1019 -91 701 211 
Q 384 513 384 1019 
Q 384 1609 779 1909 
Q 1175 2209 1959 2209 
L 2766 2209 
L 2766 2266 
Q 2766 2663 2505 2880 
Q 2244 3097 1772 3097 
Q 1472 3097 1187 3025 
Q 903 2953 641 2809 
L 641 3341 
Q 956 3463 1253 3523 
Q 1550 3584 1831 3584 
Q 2591 3584 2966 3190 
Q 3341 2797 3341 1997 
z
" transform="scale(0.015625)"/>
      </defs>
      <use xlink:href="#DejaVuSans-73"/>
      <use xlink:href="#DejaVuSans-74" x="52.099609"/>
      <use xlink:href="#DejaVuSans-61" x="91.308594"/>
      <use xlink:href="#DejaVuSans-72" x="152.587891"/>
     </g>
    </g>
    <g id="line2d_40">
     <path d="M 815.08 343.176562 
L 825.08 343.176562 
L 835.08 343.176562 
" style="fill: none; stroke: #ff7f0e; stroke-width: 1.5; stroke-linecap: square"/>
    </g>
    <g id="text_21">
     <!-- fork -->
     <g style="fill: #a9a9a9" transform="translate(843.08 346.676562) scale(0.1 -0.1)">
      <defs>
       <path id="DejaVuSans-66" d="M 2375 4863 
L 2375 4384 
L 1825 4384 
Q 1516 4384 1395 4259 
Q 1275 4134 1275 3809 
L 1275 3500 
L 2222 3500 
L 2222 3053 
L 1275 3053 
L 1275 0 
L 697 0 
L 697 3053 
L 147 3053 
L 147 3500 
L 697 3500 
L 697 3744 
Q 697 4328 969 4595 
Q 1241 4863 1831 4863 
L 2375 4863 
z
" transform="scale(0.015625)"/>
       <path id="DejaVuSans-6b" d="M 581 4863 
L 1159 4863 
L 1159 1991 
L 2875 3500 
L 3609 3500 
L 1753 1863 
L 3688 0 
L 2938 0 
L 1159 1709 
L 1159 0 
L 581 0 
L 581 4863 
z
" transform="scale(0.015625)"/>
      </defs>
      <use xlink:href="#DejaVuSans-66"/>
      <use xlink:href="#DejaVuSans-6f" x="35.205078"/>
      <use xlink:href="#DejaVuSans-72" x="96.386719"/>
      <use xlink:href="#DejaVuSans-6b" x="137.5"/>
     </g>
    </g>
   </g>
  </g>
 </g>
 <defs>
  <clipPath id="p6785ce1b09">
   <rect x="108" y="43.2" width="669.6" height="277.2"/>
  </clipPath>
 </defs>
</svg>
