<?xml version="1.0" encoding="utf-8" standalone="no"?>
<!DOCTYPE svg PUBLIC "-//W3C//DTD SVG 1.1//EN"
  "http://www.w3.org/Graphics/SVG/1.1/DTD/svg11.dtd">
<svg xmlns:xlink="http://www.w3.org/1999/xlink" width="864pt" height="360pt" viewBox="0 0 864 360" xmlns="http://www.w3.org/2000/svg" version="1.1">
 <metadata>
  <rdf:RDF xmlns:dc="http://purl.org/dc/elements/1.1/" xmlns:cc="http://creativecommons.org/ns#" xmlns:rdf="http://www.w3.org/1999/02/22-rdf-syntax-ns#">
   <cc:Work>
    <dc:type rdf:resource="http://purl.org/dc/dcmitype/StillImage"/>
    <dc:date>2023-08-11T08:44:24.665587</dc:date>
    <dc:format>image/svg+xml</dc:format>
    <dc:creator>
     <cc:Agent>
      <dc:title>Matplotlib v3.7.2, https://matplotlib.org/</dc:title>
     </cc:Agent>
    </dc:creator>
   </cc:Work>
  </rdf:RDF>
 </metadata>
 <defs>
  <style type="text/css">*{stroke-linejoin: round; stroke-linecap: butt}</style>
 </defs>
 <g id="figure_1">
  <g id="patch_1">
   <path d="M 0 360 
L 864 360 
L 864 0 
L 0 0 
L 0 360 
z
" style="fill: none; opacity: 0"/>
  </g>
  <g id="axes_1">
   <g id="patch_2">
    <path d="M 108 320.4 
L 777.6 320.4 
L 777.6 43.2 
L 108 43.2 
L 108 320.4 
z
" style="fill: none; opacity: 0"/>
   </g>
   <g id="matplotlib.axis_1">
    <g id="xtick_1">
     <g id="line2d_1">
      <path d="M 119.718814 320.4 
L 119.718814 43.2 
" clip-path="url(#p5db0a07396)" style="fill: none; stroke-dasharray: 5.12,1.28,0.8,1.28; stroke-dashoffset: 0; stroke: #b0b0b0; stroke-width: 0.8"/>
     </g>
     <g id="line2d_2">
      <defs>
       <path id="m4f18cd171c" d="M 0 0 
L 0 3.5 
" style="stroke: #a9a9a9; stroke-width: 0.8"/>
      </defs>
      <g>
       <use xlink:href="#m4f18cd171c" x="119.718814" y="320.4" style="fill: #a9a9a9; stroke: #a9a9a9; stroke-width: 0.8"/>
      </g>
     </g>
     <g id="text_1">
      <!-- 2021-07 -->
      <g style="fill: #a9a9a9" transform="translate(98.827408 334.998438) scale(0.1 -0.1)">
       <defs>
        <path id="DejaVuSans-32" d="M 1228 531 
L 3431 531 
L 3431 0 
L 469 0 
L 469 531 
Q 828 903 1448 1529 
Q 2069 2156 2228 2338 
Q 2531 2678 2651 2914 
Q 2772 3150 2772 3378 
Q 2772 3750 2511 3984 
Q 2250 4219 1831 4219 
Q 1534 4219 1204 4116 
Q 875 4013 500 3803 
L 500 4441 
Q 881 4594 1212 4672 
Q 1544 4750 1819 4750 
Q 2544 4750 2975 4387 
Q 3406 4025 3406 3419 
Q 3406 3131 3298 2873 
Q 3191 2616 2906 2266 
Q 2828 2175 2409 1742 
Q 1991 1309 1228 531 
z
" transform="scale(0.015625)"/>
        <path id="DejaVuSans-30" d="M 2034 4250 
Q 1547 4250 1301 3770 
Q 1056 3291 1056 2328 
Q 1056 1369 1301 889 
Q 1547 409 2034 409 
Q 2525 409 2770 889 
Q 3016 1369 3016 2328 
Q 3016 3291 2770 3770 
Q 2525 4250 2034 4250 
z
M 2034 4750 
Q 2819 4750 3233 4129 
Q 3647 3509 3647 2328 
Q 3647 1150 3233 529 
Q 2819 -91 2034 -91 
Q 1250 -91 836 529 
Q 422 1150 422 2328 
Q 422 3509 836 4129 
Q 1250 4750 2034 4750 
z
" transform="scale(0.015625)"/>
        <path id="DejaVuSans-31" d="M 794 531 
L 1825 531 
L 1825 4091 
L 703 3866 
L 703 4441 
L 1819 4666 
L 2450 4666 
L 2450 531 
L 3481 531 
L 3481 0 
L 794 0 
L 794 531 
z
" transform="scale(0.015625)"/>
        <path id="DejaVuSans-2d" d="M 313 2009 
L 1997 2009 
L 1997 1497 
L 313 1497 
L 313 2009 
z
" transform="scale(0.015625)"/>
        <path id="DejaVuSans-37" d="M 525 4666 
L 3525 4666 
L 3525 4397 
L 1831 0 
L 1172 0 
L 2766 4134 
L 525 4134 
L 525 4666 
z
" transform="scale(0.015625)"/>
       </defs>
       <use xlink:href="#DejaVuSans-32"/>
       <use xlink:href="#DejaVuSans-30" x="63.623047"/>
       <use xlink:href="#DejaVuSans-32" x="127.246094"/>
       <use xlink:href="#DejaVuSans-31" x="190.869141"/>
       <use xlink:href="#DejaVuSans-2d" x="254.492188"/>
       <use xlink:href="#DejaVuSans-30" x="290.576172"/>
       <use xlink:href="#DejaVuSans-37" x="354.199219"/>
      </g>
     </g>
    </g>
    <g id="xtick_2">
     <g id="line2d_3">
      <path d="M 194.589013 320.4 
L 194.589013 43.2 
" clip-path="url(#p5db0a07396)" style="fill: none; stroke-dasharray: 5.12,1.28,0.8,1.28; stroke-dashoffset: 0; stroke: #b0b0b0; stroke-width: 0.8"/>
     </g>
     <g id="line2d_4">
      <g>
       <use xlink:href="#m4f18cd171c" x="194.589013" y="320.4" style="fill: #a9a9a9; stroke: #a9a9a9; stroke-width: 0.8"/>
      </g>
     </g>
     <g id="text_2">
      <!-- 2021-10 -->
      <g style="fill: #a9a9a9" transform="translate(173.697607 334.998438) scale(0.1 -0.1)">
       <use xlink:href="#DejaVuSans-32"/>
       <use xlink:href="#DejaVuSans-30" x="63.623047"/>
       <use xlink:href="#DejaVuSans-32" x="127.246094"/>
       <use xlink:href="#DejaVuSans-31" x="190.869141"/>
       <use xlink:href="#DejaVuSans-2d" x="254.492188"/>
       <use xlink:href="#DejaVuSans-31" x="290.576172"/>
       <use xlink:href="#DejaVuSans-30" x="354.199219"/>
      </g>
     </g>
    </g>
    <g id="xtick_3">
     <g id="line2d_5">
      <path d="M 269.459212 320.4 
L 269.459212 43.2 
" clip-path="url(#p5db0a07396)" style="fill: none; stroke-dasharray: 5.12,1.28,0.8,1.28; stroke-dashoffset: 0; stroke: #b0b0b0; stroke-width: 0.8"/>
     </g>
     <g id="line2d_6">
      <g>
       <use xlink:href="#m4f18cd171c" x="269.459212" y="320.4" style="fill: #a9a9a9; stroke: #a9a9a9; stroke-width: 0.8"/>
      </g>
     </g>
     <g id="text_3">
      <!-- 2022-01 -->
      <g style="fill: #a9a9a9" transform="translate(248.567806 334.998438) scale(0.1 -0.1)">
       <use xlink:href="#DejaVuSans-32"/>
       <use xlink:href="#DejaVuSans-30" x="63.623047"/>
       <use xlink:href="#DejaVuSans-32" x="127.246094"/>
       <use xlink:href="#DejaVuSans-32" x="190.869141"/>
       <use xlink:href="#DejaVuSans-2d" x="254.492188"/>
       <use xlink:href="#DejaVuSans-30" x="290.576172"/>
       <use xlink:href="#DejaVuSans-31" x="354.199219"/>
      </g>
     </g>
    </g>
    <g id="xtick_4">
     <g id="line2d_7">
      <path d="M 342.701799 320.4 
L 342.701799 43.2 
" clip-path="url(#p5db0a07396)" style="fill: none; stroke-dasharray: 5.12,1.28,0.8,1.28; stroke-dashoffset: 0; stroke: #b0b0b0; stroke-width: 0.8"/>
     </g>
     <g id="line2d_8">
      <g>
       <use xlink:href="#m4f18cd171c" x="342.701799" y="320.4" style="fill: #a9a9a9; stroke: #a9a9a9; stroke-width: 0.8"/>
      </g>
     </g>
     <g id="text_4">
      <!-- 2022-04 -->
      <g style="fill: #a9a9a9" transform="translate(321.810392 334.998438) scale(0.1 -0.1)">
       <defs>
        <path id="DejaVuSans-34" d="M 2419 4116 
L 825 1625 
L 2419 1625 
L 2419 4116 
z
M 2253 4666 
L 3047 4666 
L 3047 1625 
L 3713 1625 
L 3713 1100 
L 3047 1100 
L 3047 0 
L 2419 0 
L 2419 1100 
L 313 1100 
L 313 1709 
L 2253 4666 
z
" transform="scale(0.015625)"/>
       </defs>
       <use xlink:href="#DejaVuSans-32"/>
       <use xlink:href="#DejaVuSans-30" x="63.623047"/>
       <use xlink:href="#DejaVuSans-32" x="127.246094"/>
       <use xlink:href="#DejaVuSans-32" x="190.869141"/>
       <use xlink:href="#DejaVuSans-2d" x="254.492188"/>
       <use xlink:href="#DejaVuSans-30" x="290.576172"/>
       <use xlink:href="#DejaVuSans-34" x="354.199219"/>
      </g>
     </g>
    </g>
    <g id="xtick_5">
     <g id="line2d_9">
      <path d="M 416.758192 320.4 
L 416.758192 43.2 
" clip-path="url(#p5db0a07396)" style="fill: none; stroke-dasharray: 5.12,1.28,0.8,1.28; stroke-dashoffset: 0; stroke: #b0b0b0; stroke-width: 0.8"/>
     </g>
     <g id="line2d_10">
      <g>
       <use xlink:href="#m4f18cd171c" x="416.758192" y="320.4" style="fill: #a9a9a9; stroke: #a9a9a9; stroke-width: 0.8"/>
      </g>
     </g>
     <g id="text_5">
      <!-- 2022-07 -->
      <g style="fill: #a9a9a9" transform="translate(395.866785 334.998438) scale(0.1 -0.1)">
       <use xlink:href="#DejaVuSans-32"/>
       <use xlink:href="#DejaVuSans-30" x="63.623047"/>
       <use xlink:href="#DejaVuSans-32" x="127.246094"/>
       <use xlink:href="#DejaVuSans-32" x="190.869141"/>
       <use xlink:href="#DejaVuSans-2d" x="254.492188"/>
       <use xlink:href="#DejaVuSans-30" x="290.576172"/>
       <use xlink:href="#DejaVuSans-37" x="354.199219"/>
      </g>
     </g>
    </g>
    <g id="xtick_6">
     <g id="line2d_11">
      <path d="M 491.628391 320.4 
L 491.628391 43.2 
" clip-path="url(#p5db0a07396)" style="fill: none; stroke-dasharray: 5.12,1.28,0.8,1.28; stroke-dashoffset: 0; stroke: #b0b0b0; stroke-width: 0.8"/>
     </g>
     <g id="line2d_12">
      <g>
       <use xlink:href="#m4f18cd171c" x="491.628391" y="320.4" style="fill: #a9a9a9; stroke: #a9a9a9; stroke-width: 0.8"/>
      </g>
     </g>
     <g id="text_6">
      <!-- 2022-10 -->
      <g style="fill: #a9a9a9" transform="translate(470.736985 334.998438) scale(0.1 -0.1)">
       <use xlink:href="#DejaVuSans-32"/>
       <use xlink:href="#DejaVuSans-30" x="63.623047"/>
       <use xlink:href="#DejaVuSans-32" x="127.246094"/>
       <use xlink:href="#DejaVuSans-32" x="190.869141"/>
       <use xlink:href="#DejaVuSans-2d" x="254.492188"/>
       <use xlink:href="#DejaVuSans-31" x="290.576172"/>
       <use xlink:href="#DejaVuSans-30" x="354.199219"/>
      </g>
     </g>
    </g>
    <g id="xtick_7">
     <g id="line2d_13">
      <path d="M 566.49859 320.4 
L 566.49859 43.2 
" clip-path="url(#p5db0a07396)" style="fill: none; stroke-dasharray: 5.12,1.28,0.8,1.28; stroke-dashoffset: 0; stroke: #b0b0b0; stroke-width: 0.8"/>
     </g>
     <g id="line2d_14">
      <g>
       <use xlink:href="#m4f18cd171c" x="566.49859" y="320.4" style="fill: #a9a9a9; stroke: #a9a9a9; stroke-width: 0.8"/>
      </g>
     </g>
     <g id="text_7">
      <!-- 2023-01 -->
      <g style="fill: #a9a9a9" transform="translate(545.607184 334.998438) scale(0.1 -0.1)">
       <defs>
        <path id="DejaVuSans-33" d="M 2597 2516 
Q 3050 2419 3304 2112 
Q 3559 1806 3559 1356 
Q 3559 666 3084 287 
Q 2609 -91 1734 -91 
Q 1441 -91 1130 -33 
Q 819 25 488 141 
L 488 750 
Q 750 597 1062 519 
Q 1375 441 1716 441 
Q 2309 441 2620 675 
Q 2931 909 2931 1356 
Q 2931 1769 2642 2001 
Q 2353 2234 1838 2234 
L 1294 2234 
L 1294 2753 
L 1863 2753 
Q 2328 2753 2575 2939 
Q 2822 3125 2822 3475 
Q 2822 3834 2567 4026 
Q 2313 4219 1838 4219 
Q 1578 4219 1281 4162 
Q 984 4106 628 3988 
L 628 4550 
Q 988 4650 1302 4700 
Q 1616 4750 1894 4750 
Q 2613 4750 3031 4423 
Q 3450 4097 3450 3541 
Q 3450 3153 3228 2886 
Q 3006 2619 2597 2516 
z
" transform="scale(0.015625)"/>
       </defs>
       <use xlink:href="#DejaVuSans-32"/>
       <use xlink:href="#DejaVuSans-30" x="63.623047"/>
       <use xlink:href="#DejaVuSans-32" x="127.246094"/>
       <use xlink:href="#DejaVuSans-33" x="190.869141"/>
       <use xlink:href="#DejaVuSans-2d" x="254.492188"/>
       <use xlink:href="#DejaVuSans-30" x="290.576172"/>
       <use xlink:href="#DejaVuSans-31" x="354.199219"/>
      </g>
     </g>
    </g>
    <g id="xtick_8">
     <g id="line2d_15">
      <path d="M 639.741176 320.4 
L 639.741176 43.2 
" clip-path="url(#p5db0a07396)" style="fill: none; stroke-dasharray: 5.12,1.28,0.8,1.28; stroke-dashoffset: 0; stroke: #b0b0b0; stroke-width: 0.8"/>
     </g>
     <g id="line2d_16">
      <g>
       <use xlink:href="#m4f18cd171c" x="639.741176" y="320.4" style="fill: #a9a9a9; stroke: #a9a9a9; stroke-width: 0.8"/>
      </g>
     </g>
     <g id="text_8">
      <!-- 2023-04 -->
      <g style="fill: #a9a9a9" transform="translate(618.84977 334.998438) scale(0.1 -0.1)">
       <use xlink:href="#DejaVuSans-32"/>
       <use xlink:href="#DejaVuSans-30" x="63.623047"/>
       <use xlink:href="#DejaVuSans-32" x="127.246094"/>
       <use xlink:href="#DejaVuSans-33" x="190.869141"/>
       <use xlink:href="#DejaVuSans-2d" x="254.492188"/>
       <use xlink:href="#DejaVuSans-30" x="290.576172"/>
       <use xlink:href="#DejaVuSans-34" x="354.199219"/>
      </g>
     </g>
    </g>
    <g id="xtick_9">
     <g id="line2d_17">
      <path d="M 713.797569 320.4 
L 713.797569 43.2 
" clip-path="url(#p5db0a07396)" style="fill: none; stroke-dasharray: 5.12,1.28,0.8,1.28; stroke-dashoffset: 0; stroke: #b0b0b0; stroke-width: 0.8"/>
     </g>
     <g id="line2d_18">
      <g>
       <use xlink:href="#m4f18cd171c" x="713.797569" y="320.4" style="fill: #a9a9a9; stroke: #a9a9a9; stroke-width: 0.8"/>
      </g>
     </g>
     <g id="text_9">
      <!-- 2023-07 -->
      <g style="fill: #a9a9a9" transform="translate(692.906163 334.998438) scale(0.1 -0.1)">
       <use xlink:href="#DejaVuSans-32"/>
       <use xlink:href="#DejaVuSans-30" x="63.623047"/>
       <use xlink:href="#DejaVuSans-32" x="127.246094"/>
       <use xlink:href="#DejaVuSans-33" x="190.869141"/>
       <use xlink:href="#DejaVuSans-2d" x="254.492188"/>
       <use xlink:href="#DejaVuSans-30" x="290.576172"/>
       <use xlink:href="#DejaVuSans-37" x="354.199219"/>
      </g>
     </g>
    </g>
   </g>
   <g id="matplotlib.axis_2">
    <g id="ytick_1">
     <g id="line2d_19">
      <path d="M 108 307.853571 
L 777.6 307.853571 
" clip-path="url(#p5db0a07396)" style="fill: none; stroke-dasharray: 5.12,1.28,0.8,1.28; stroke-dashoffset: 0; stroke: #b0b0b0; stroke-width: 0.8"/>
     </g>
     <g id="line2d_20">
      <defs>
       <path id="mf759b2f74b" d="M 0 0 
L -3.5 0 
" style="stroke: #a9a9a9; stroke-width: 0.8"/>
      </defs>
      <g>
       <use xlink:href="#mf759b2f74b" x="108" y="307.853571" style="fill: #a9a9a9; stroke: #a9a9a9; stroke-width: 0.8"/>
      </g>
     </g>
     <g id="text_10">
      <!-- 0 -->
      <g style="fill: #a9a9a9" transform="translate(94.6375 311.65279) scale(0.1 -0.1)">
       <use xlink:href="#DejaVuSans-30"/>
      </g>
     </g>
    </g>
    <g id="ytick_2">
     <g id="line2d_21">
      <path d="M 108 275.710714 
L 777.6 275.710714 
" clip-path="url(#p5db0a07396)" style="fill: none; stroke-dasharray: 5.12,1.28,0.8,1.28; stroke-dashoffset: 0; stroke: #b0b0b0; stroke-width: 0.8"/>
     </g>
     <g id="line2d_22">
      <g>
       <use xlink:href="#mf759b2f74b" x="108" y="275.710714" style="fill: #a9a9a9; stroke: #a9a9a9; stroke-width: 0.8"/>
      </g>
     </g>
     <g id="text_11">
      <!-- 600 -->
      <g style="fill: #a9a9a9" transform="translate(81.9125 279.509933) scale(0.1 -0.1)">
       <defs>
        <path id="DejaVuSans-36" d="M 2113 2584 
Q 1688 2584 1439 2293 
Q 1191 2003 1191 1497 
Q 1191 994 1439 701 
Q 1688 409 2113 409 
Q 2538 409 2786 701 
Q 3034 994 3034 1497 
Q 3034 2003 2786 2293 
Q 2538 2584 2113 2584 
z
M 3366 4563 
L 3366 3988 
Q 3128 4100 2886 4159 
Q 2644 4219 2406 4219 
Q 1781 4219 1451 3797 
Q 1122 3375 1075 2522 
Q 1259 2794 1537 2939 
Q 1816 3084 2150 3084 
Q 2853 3084 3261 2657 
Q 3669 2231 3669 1497 
Q 3669 778 3244 343 
Q 2819 -91 2113 -91 
Q 1303 -91 875 529 
Q 447 1150 447 2328 
Q 447 3434 972 4092 
Q 1497 4750 2381 4750 
Q 2619 4750 2861 4703 
Q 3103 4656 3366 4563 
z
" transform="scale(0.015625)"/>
       </defs>
       <use xlink:href="#DejaVuSans-36"/>
       <use xlink:href="#DejaVuSans-30" x="63.623047"/>
       <use xlink:href="#DejaVuSans-30" x="127.246094"/>
      </g>
     </g>
    </g>
    <g id="ytick_3">
     <g id="line2d_23">
      <path d="M 108 243.567857 
L 777.6 243.567857 
" clip-path="url(#p5db0a07396)" style="fill: none; stroke-dasharray: 5.12,1.28,0.8,1.28; stroke-dashoffset: 0; stroke: #b0b0b0; stroke-width: 0.8"/>
     </g>
     <g id="line2d_24">
      <g>
       <use xlink:href="#mf759b2f74b" x="108" y="243.567857" style="fill: #a9a9a9; stroke: #a9a9a9; stroke-width: 0.8"/>
      </g>
     </g>
     <g id="text_12">
      <!-- 1200 -->
      <g style="fill: #a9a9a9" transform="translate(75.55 247.367076) scale(0.1 -0.1)">
       <use xlink:href="#DejaVuSans-31"/>
       <use xlink:href="#DejaVuSans-32" x="63.623047"/>
       <use xlink:href="#DejaVuSans-30" x="127.246094"/>
       <use xlink:href="#DejaVuSans-30" x="190.869141"/>
      </g>
     </g>
    </g>
    <g id="ytick_4">
     <g id="line2d_25">
      <path d="M 108 211.425 
L 777.6 211.425 
" clip-path="url(#p5db0a07396)" style="fill: none; stroke-dasharray: 5.12,1.28,0.8,1.28; stroke-dashoffset: 0; stroke: #b0b0b0; stroke-width: 0.8"/>
     </g>
     <g id="line2d_26">
      <g>
       <use xlink:href="#mf759b2f74b" x="108" y="211.425" style="fill: #a9a9a9; stroke: #a9a9a9; stroke-width: 0.8"/>
      </g>
     </g>
     <g id="text_13">
      <!-- 1800 -->
      <g style="fill: #a9a9a9" transform="translate(75.55 215.224219) scale(0.1 -0.1)">
       <defs>
        <path id="DejaVuSans-38" d="M 2034 2216 
Q 1584 2216 1326 1975 
Q 1069 1734 1069 1313 
Q 1069 891 1326 650 
Q 1584 409 2034 409 
Q 2484 409 2743 651 
Q 3003 894 3003 1313 
Q 3003 1734 2745 1975 
Q 2488 2216 2034 2216 
z
M 1403 2484 
Q 997 2584 770 2862 
Q 544 3141 544 3541 
Q 544 4100 942 4425 
Q 1341 4750 2034 4750 
Q 2731 4750 3128 4425 
Q 3525 4100 3525 3541 
Q 3525 3141 3298 2862 
Q 3072 2584 2669 2484 
Q 3125 2378 3379 2068 
Q 3634 1759 3634 1313 
Q 3634 634 3220 271 
Q 2806 -91 2034 -91 
Q 1263 -91 848 271 
Q 434 634 434 1313 
Q 434 1759 690 2068 
Q 947 2378 1403 2484 
z
M 1172 3481 
Q 1172 3119 1398 2916 
Q 1625 2713 2034 2713 
Q 2441 2713 2670 2916 
Q 2900 3119 2900 3481 
Q 2900 3844 2670 4047 
Q 2441 4250 2034 4250 
Q 1625 4250 1398 4047 
Q 1172 3844 1172 3481 
z
" transform="scale(0.015625)"/>
       </defs>
       <use xlink:href="#DejaVuSans-31"/>
       <use xlink:href="#DejaVuSans-38" x="63.623047"/>
       <use xlink:href="#DejaVuSans-30" x="127.246094"/>
       <use xlink:href="#DejaVuSans-30" x="190.869141"/>
      </g>
     </g>
    </g>
    <g id="ytick_5">
     <g id="line2d_27">
      <path d="M 108 179.282143 
L 777.6 179.282143 
" clip-path="url(#p5db0a07396)" style="fill: none; stroke-dasharray: 5.12,1.28,0.8,1.28; stroke-dashoffset: 0; stroke: #b0b0b0; stroke-width: 0.8"/>
     </g>
     <g id="line2d_28">
      <g>
       <use xlink:href="#mf759b2f74b" x="108" y="179.282143" style="fill: #a9a9a9; stroke: #a9a9a9; stroke-width: 0.8"/>
      </g>
     </g>
     <g id="text_14">
      <!-- 2400 -->
      <g style="fill: #a9a9a9" transform="translate(75.55 183.081362) scale(0.1 -0.1)">
       <use xlink:href="#DejaVuSans-32"/>
       <use xlink:href="#DejaVuSans-34" x="63.623047"/>
       <use xlink:href="#DejaVuSans-30" x="127.246094"/>
       <use xlink:href="#DejaVuSans-30" x="190.869141"/>
      </g>
     </g>
    </g>
    <g id="ytick_6">
     <g id="line2d_29">
      <path d="M 108 147.139286 
L 777.6 147.139286 
" clip-path="url(#p5db0a07396)" style="fill: none; stroke-dasharray: 5.12,1.28,0.8,1.28; stroke-dashoffset: 0; stroke: #b0b0b0; stroke-width: 0.8"/>
     </g>
     <g id="line2d_30">
      <g>
       <use xlink:href="#mf759b2f74b" x="108" y="147.139286" style="fill: #a9a9a9; stroke: #a9a9a9; stroke-width: 0.8"/>
      </g>
     </g>
     <g id="text_15">
      <!-- 3000 -->
      <g style="fill: #a9a9a9" transform="translate(75.55 150.938504) scale(0.1 -0.1)">
       <use xlink:href="#DejaVuSans-33"/>
       <use xlink:href="#DejaVuSans-30" x="63.623047"/>
       <use xlink:href="#DejaVuSans-30" x="127.246094"/>
       <use xlink:href="#DejaVuSans-30" x="190.869141"/>
      </g>
     </g>
    </g>
    <g id="ytick_7">
     <g id="line2d_31">
      <path d="M 108 114.996429 
L 777.6 114.996429 
" clip-path="url(#p5db0a07396)" style="fill: none; stroke-dasharray: 5.12,1.28,0.8,1.28; stroke-dashoffset: 0; stroke: #b0b0b0; stroke-width: 0.8"/>
     </g>
     <g id="line2d_32">
      <g>
       <use xlink:href="#mf759b2f74b" x="108" y="114.996429" style="fill: #a9a9a9; stroke: #a9a9a9; stroke-width: 0.8"/>
      </g>
     </g>
     <g id="text_16">
      <!-- 3600 -->
      <g style="fill: #a9a9a9" transform="translate(75.55 118.795647) scale(0.1 -0.1)">
       <use xlink:href="#DejaVuSans-33"/>
       <use xlink:href="#DejaVuSans-36" x="63.623047"/>
       <use xlink:href="#DejaVuSans-30" x="127.246094"/>
       <use xlink:href="#DejaVuSans-30" x="190.869141"/>
      </g>
     </g>
    </g>
    <g id="ytick_8">
     <g id="line2d_33">
      <path d="M 108 82.853571 
L 777.6 82.853571 
" clip-path="url(#p5db0a07396)" style="fill: none; stroke-dasharray: 5.12,1.28,0.8,1.28; stroke-dashoffset: 0; stroke: #b0b0b0; stroke-width: 0.8"/>
     </g>
     <g id="line2d_34">
      <g>
       <use xlink:href="#mf759b2f74b" x="108" y="82.853571" style="fill: #a9a9a9; stroke: #a9a9a9; stroke-width: 0.8"/>
      </g>
     </g>
     <g id="text_17">
      <!-- 4200 -->
      <g style="fill: #a9a9a9" transform="translate(75.55 86.65279) scale(0.1 -0.1)">
       <use xlink:href="#DejaVuSans-34"/>
       <use xlink:href="#DejaVuSans-32" x="63.623047"/>
       <use xlink:href="#DejaVuSans-30" x="127.246094"/>
       <use xlink:href="#DejaVuSans-30" x="190.869141"/>
      </g>
     </g>
    </g>
    <g id="ytick_9">
     <g id="line2d_35">
      <path d="M 108 50.710714 
L 777.6 50.710714 
" clip-path="url(#p5db0a07396)" style="fill: none; stroke-dasharray: 5.12,1.28,0.8,1.28; stroke-dashoffset: 0; stroke: #b0b0b0; stroke-width: 0.8"/>
     </g>
     <g id="line2d_36">
      <g>
       <use xlink:href="#mf759b2f74b" x="108" y="50.710714" style="fill: #a9a9a9; stroke: #a9a9a9; stroke-width: 0.8"/>
      </g>
     </g>
     <g id="text_18">
      <!-- 4800 -->
      <g style="fill: #a9a9a9" transform="translate(75.55 54.509933) scale(0.1 -0.1)">
       <use xlink:href="#DejaVuSans-34"/>
       <use xlink:href="#DejaVuSans-38" x="63.623047"/>
       <use xlink:href="#DejaVuSans-30" x="127.246094"/>
       <use xlink:href="#DejaVuSans-30" x="190.869141"/>
      </g>
     </g>
    </g>
   </g>
   <g id="line2d_37">
    <path d="M 138.436364 307.692857 
L 143.319203 307.317857 
L 144.133009 306.996429 
L 146.574429 306.728571 
L 152.271074 305.710714 
L 156.340107 305.335714 
L 157.153913 304.960714 
L 157.96772 304.746429 
L 158.781526 303.782143 
L 159.595333 303.246429 
L 160.40914 301.532143 
L 161.222946 301.425 
L 162.036753 300.835714 
L 163.664366 300.085714 
L 165.291979 298.907143 
L 166.105785 298.157143 
L 167.733398 297.407143 
L 168.547205 297.085714 
L 169.361011 296.496429 
L 172.616237 295.157143 
L 173.430044 293.925 
L 174.24385 293.282143 
L 175.871463 292.425 
L 184.009528 291.3 
L 184.823335 290.925 
L 190.519981 290.496429 
L 192.147594 290.067857 
L 193.775207 289.746429 
L 200.285659 288.889286 
L 201.099465 288.460714 
L 201.913272 288.353571 
L 202.727078 288.032143 
L 204.354691 287.764286 
L 205.168498 287.710714 
L 205.982304 287.442857 
L 209.23753 286.960714 
L 210.865143 286.532143 
L 213.306563 286.317857 
L 214.934176 286.157143 
L 215.747982 285.942857 
L 216.561789 285.889286 
L 219.003209 285.192857 
L 223.886048 284.496429 
L 224.699854 284.228571 
L 225.513661 283.157143 
L 227.95508 282.3 
L 230.3965 281.657143 
L 231.210306 281.282143 
L 232.024113 281.228571 
L 236.093145 280.157143 
L 237.720758 280.05 
L 238.534565 279.942857 
L 240.975984 279.246429 
L 244.231211 278.496429 
L 245.045017 278.175 
L 245.858824 278.067857 
L 246.67263 277.692857 
L 254.810695 276.514286 
L 258.879728 275.389286 
L 259.693534 274.907143 
L 262.94876 274.05 
L 264.576373 273.139286 
L 265.39018 272.603571 
L 266.203986 272.496429 
L 267.017793 272.228571 
L 269.459212 271.8 
L 270.273019 271.425 
L 271.900632 271.157143 
L 273.528245 270.407143 
L 277.597278 269.442857 
L 280.038697 268.853571 
L 280.852504 268.532143 
L 281.66631 268.371429 
L 282.480117 268.05 
L 283.293923 267.942857 
L 284.10773 267.567857 
L 284.921536 267.353571 
L 286.549149 267.246429 
L 288.176762 266.710714 
L 289.804375 266.603571 
L 290.618182 266.228571 
L 293.873408 265.692857 
L 297.128634 265.425 
L 297.94244 265.264286 
L 299.570053 264.514286 
L 308.521925 260.925 
L 309.335732 260.496429 
L 310.149538 259.639286 
L 310.963345 258.353571 
L 311.777151 257.335714 
L 312.590958 257.121429 
L 313.404764 257.121429 
L 315.032377 255.942857 
L 315.846184 255.728571 
L 316.65999 255.3 
L 317.473797 255.139286 
L 318.287603 254.442857 
L 319.10141 254.228571 
L 321.542829 253.103571 
L 322.356636 252.139286 
L 323.170442 250.960714 
L 323.984249 250.478571 
L 324.798055 249.192857 
L 325.611862 248.389286 
L 326.425668 248.014286 
L 327.239475 247.8 
L 328.867088 246.835714 
L 329.680895 246.460714 
L 332.936121 244.103571 
L 333.749927 242.978571 
L 334.563734 241.157143 
L 335.37754 239.978571 
L 336.191347 239.389286 
L 337.005153 239.067857 
L 340.260379 236.389286 
L 341.887992 235.210714 
L 342.701799 234.514286 
L 343.515605 233.389286 
L 344.329412 232.639286 
L 346.770831 230.978571 
L 348.398444 229.907143 
L 349.212251 229.210714 
L 350.026057 228.996429 
L 352.467477 227.764286 
L 354.09509 226.853571 
L 354.908896 226.532143 
L 356.536509 225.085714 
L 357.350316 224.121429 
L 358.977929 223.05 
L 359.791736 222.835714 
L 360.605542 222.407143 
L 361.419349 221.817857 
L 363.046962 220.960714 
L 363.860768 220.853571 
L 365.488381 219.996429 
L 366.302188 219.567857 
L 367.115994 218.764286 
L 367.929801 218.282143 
L 368.743607 218.014286 
L 369.557414 217.478571 
L 372.81264 215.871429 
L 373.626446 215.175 
L 376.881672 214.103571 
L 377.695479 213.567857 
L 378.509285 213.407143 
L 380.136898 212.871429 
L 382.578318 211.960714 
L 385.019737 211.103571 
L 386.647351 210.835714 
L 388.274964 209.496429 
L 389.902577 208.746429 
L 392.343996 207.407143 
L 393.971609 206.978571 
L 394.785416 206.496429 
L 395.599222 206.282143 
L 398.040642 204.782143 
L 400.482061 204.246429 
L 402.923481 203.389286 
L 404.551094 202.478571 
L 405.3649 202.371429 
L 406.178707 202.103571 
L 407.80632 201.782143 
L 410.247739 200.067857 
L 412.689159 199.532143 
L 413.502965 199.264286 
L 414.316772 198.675 
L 419.199611 197.175 
L 420.013418 197.121429 
L 425.710063 195.192857 
L 426.52387 194.817857 
L 428.965289 194.282143 
L 430.592902 193.907143 
L 431.406709 193.532143 
L 432.220515 193.371429 
L 434.661935 192.3 
L 437.103354 191.121429 
L 437.917161 190.585714 
L 438.730967 190.371429 
L 441.172387 189.139286 
L 442.8 188.764286 
L 444.427613 187.960714 
L 446.055226 187.532143 
L 446.869033 187.425 
L 447.682839 186.889286 
L 448.496646 186.514286 
L 449.310452 186.353571 
L 450.938065 185.710714 
L 451.751872 185.55 
L 452.565678 185.121429 
L 455.820904 184.639286 
L 457.448517 183.889286 
L 458.262324 183.246429 
L 459.07613 181.853571 
L 460.703743 181.532143 
L 461.51755 181.371429 
L 464.772776 179.764286 
L 465.586582 179.603571 
L 470.469421 177.353571 
L 471.283228 176.817857 
L 472.097035 176.496429 
L 474.538454 176.014286 
L 476.166067 175.264286 
L 476.979874 174.942857 
L 477.79368 174.835714 
L 481.048906 173.442857 
L 482.676519 172.371429 
L 483.490326 171.996429 
L 484.304132 171.889286 
L 485.117939 171.621429 
L 485.931745 171.567857 
L 489.186971 170.55 
L 490.000778 170.496429 
L 490.814584 169.907143 
L 492.442197 169.371429 
L 494.883617 168.621429 
L 495.697423 168.139286 
L 496.51123 167.925 
L 497.325036 167.389286 
L 498.138843 167.067857 
L 498.952649 166.585714 
L 500.580263 165.996429 
L 501.394069 165.782143 
L 502.207876 165.407143 
L 503.021682 165.192857 
L 503.835489 164.817857 
L 504.649295 164.228571 
L 505.463102 163.371429 
L 506.276908 162.835714 
L 507.090715 162.675 
L 508.718328 161.496429 
L 509.532134 161.335714 
L 510.345941 160.157143 
L 511.159747 159.835714 
L 511.973554 159.246429 
L 512.78736 159.139286 
L 513.601167 158.603571 
L 514.414973 158.228571 
L 515.22878 158.067857 
L 516.042586 157.746429 
L 516.856393 157.103571 
L 517.670199 156.835714 
L 520.111619 155.282143 
L 523.366845 153.728571 
L 524.180651 153.621429 
L 525.808264 152.925 
L 526.622071 152.442857 
L 527.435877 151.157143 
L 528.249684 150.353571 
L 529.063491 149.925 
L 529.877297 149.764286 
L 531.50491 148.8 
L 532.318717 148.639286 
L 533.94633 147.889286 
L 536.387749 146.871429 
L 538.015362 145.8 
L 539.642975 144.139286 
L 541.270588 143.175 
L 542.084395 142.692857 
L 542.898201 141.889286 
L 545.339621 139.960714 
L 546.153427 139.532143 
L 546.967234 138.675 
L 547.78104 138.085714 
L 549.408653 137.55 
L 550.22246 136.8 
L 551.850073 135.996429 
L 552.663879 135.782143 
L 553.477686 135.192857 
L 554.291492 134.978571 
L 556.732912 133.746429 
L 557.546719 133.157143 
L 559.174332 132.514286 
L 559.988138 132.353571 
L 560.801945 131.871429 
L 566.49859 129.889286 
L 567.312397 129.192857 
L 570.567623 128.014286 
L 571.381429 127.8 
L 572.195236 127.210714 
L 574.636655 126.139286 
L 575.450462 125.55 
L 576.264268 125.121429 
L 577.891881 122.014286 
L 579.519494 120.192857 
L 580.333301 119.657143 
L 582.77472 118.639286 
L 583.588527 118.371429 
L 584.402333 118.264286 
L 585.21614 117.835714 
L 587.65756 117.085714 
L 590.098979 116.121429 
L 591.726592 115.05 
L 594.168012 113.978571 
L 598.237044 111.728571 
L 599.050851 110.925 
L 600.678464 110.067857 
L 601.49227 109.639286 
L 602.306077 109.371429 
L 603.119883 108.782143 
L 604.747496 108.032143 
L 605.561303 107.55 
L 606.375109 107.228571 
L 607.188916 106.746429 
L 608.002722 106.532143 
L 608.816529 105.942857 
L 609.630335 105.621429 
L 610.444142 105.460714 
L 612.071755 104.817857 
L 614.513175 103.960714 
L 615.326981 103.371429 
L 616.954594 102.942857 
L 618.582207 102.353571 
L 619.396014 101.710714 
L 621.023627 101.228571 
L 621.837433 100.853571 
L 622.65124 100.639286 
L 624.278853 99.567857 
L 625.906466 98.871429 
L 627.534079 97.692857 
L 629.161692 97.157143 
L 629.975498 96.460714 
L 630.789305 96.3 
L 631.603111 95.603571 
L 633.230724 94.692857 
L 634.858337 94.05 
L 635.672144 93.246429 
L 638.113563 92.496429 
L 638.92737 92.014286 
L 639.741176 91.907143 
L 642.182596 90.728571 
L 645.437822 89.764286 
L 647.065435 89.55 
L 647.879242 89.228571 
L 648.693048 89.067857 
L 650.320661 88.425 
L 651.134468 88.371429 
L 653.575887 87.567857 
L 655.2035 86.603571 
L 656.831113 85.532143 
L 661.713952 83.228571 
L 664.155372 81.675 
L 665.782985 81.3 
L 668.224404 79.960714 
L 670.665824 79.210714 
L 671.479631 78.889286 
L 673.107244 78.514286 
L 677.176276 77.228571 
L 678.803889 76.907143 
L 680.431502 76.532143 
L 681.245309 76.157143 
L 682.059115 76.05 
L 683.686728 75.407143 
L 684.500535 75.3 
L 685.314341 74.925 
L 686.941954 74.603571 
L 687.755761 74.228571 
L 690.19718 73.692857 
L 691.824793 73.371429 
L 699.149052 71.925 
L 699.962859 71.603571 
L 700.776665 71.55 
L 703.218085 70.907143 
L 704.031891 70.478571 
L 705.659504 69.942857 
L 706.473311 69.889286 
L 710.542343 68.710714 
L 716.238989 66.835714 
L 717.052795 66.835714 
L 718.680408 66.3 
L 719.494215 65.496429 
L 720.308021 65.121429 
L 721.935634 64.639286 
L 725.19086 63.460714 
L 726.004667 63.192857 
L 726.818474 62.710714 
L 727.63228 62.55 
L 728.446087 62.014286 
L 731.701313 61.05 
L 732.515119 60.782143 
L 733.328926 60.3 
L 734.142732 60.085714 
L 734.956539 59.442857 
L 737.397958 59.014286 
L 739.025571 58.157143 
L 739.839378 57.246429 
L 741.466991 56.925 
L 743.094604 56.55 
L 744.722217 56.121429 
L 745.536023 56.067857 
L 746.34983 55.8 
L 747.163636 55.8 
L 747.163636 55.8 
" clip-path="url(#p5db0a07396)" style="fill: none; stroke: #1f77b4; stroke-width: 1.5; stroke-linecap: square"/>
   </g>
   <g id="line2d_38">
    <path d="M 139.25017 307.8 
L 141.69159 307.692857 
L 143.319203 307.585714 
L 149.015848 307.478571 
L 153.084881 307.317857 
L 156.340107 307.317857 
L 157.153913 307.103571 
L 159.595333 307.05 
L 164.478172 306.514286 
L 176.68527 305.817857 
L 183.195722 305.710714 
L 187.264754 305.55 
L 197.030433 305.442857 
L 201.099465 305.282143 
L 205.982304 305.175 
L 209.23753 305.067857 
L 216.561789 304.960714 
L 219.003209 304.907143 
L 221.444628 304.853571 
L 223.886048 304.585714 
L 228.768887 304.532143 
L 230.3965 304.425 
L 236.093145 304.317857 
L 245.045017 303.835714 
L 250.741663 303.728571 
L 252.369276 303.621429 
L 254.810695 303.514286 
L 259.693534 303.3 
L 262.94876 303.246429 
L 265.39018 303.032143 
L 279.224891 302.228571 
L 281.66631 302.121429 
L 287.362956 301.853571 
L 289.804375 301.746429 
L 297.94244 301.317857 
L 306.894312 301.210714 
L 310.149538 300.889286 
L 311.777151 300.782143 
L 320.729023 300.139286 
L 321.542829 299.925 
L 323.984249 299.710714 
L 325.611862 299.335714 
L 328.053281 299.282143 
L 330.494701 299.175 
L 337.005153 298.371429 
L 341.074186 298.264286 
L 351.65367 297.460714 
L 356.536509 296.925 
L 358.977929 296.871429 
L 360.605542 296.764286 
L 363.860768 296.657143 
L 365.488381 296.55 
L 369.557414 296.175 
L 370.37122 295.960714 
L 375.254059 295.746429 
L 379.323092 295.639286 
L 390.716383 294.996429 
L 392.343996 294.889286 
L 402.923481 294.3 
L 408.620126 294.192857 
L 409.433933 294.032143 
L 415.944385 293.925 
L 421.641031 293.657143 
L 430.592902 293.55 
L 436.289548 293.282143 
L 442.8 293.175 
L 450.124259 292.8 
L 455.007098 292.692857 
L 470.469421 291.782143 
L 476.979874 291.675 
L 481.048906 291.3 
L 482.676519 291.139286 
L 486.745552 291.085714 
L 490.000778 290.764286 
L 498.138843 290.335714 
L 503.021682 290.228571 
L 505.463102 290.175 
L 507.904521 290.121429 
L 510.345941 289.853571 
L 516.856393 289.746429 
L 518.484006 289.478571 
L 520.111619 289.371429 
L 523.366845 289.264286 
L 524.994458 289.264286 
L 526.622071 288.996429 
L 534.760136 288.889286 
L 536.387749 288.728571 
L 539.642975 288.621429 
L 540.456782 288.407143 
L 542.084395 288.353571 
L 542.898201 288.192857 
L 545.339621 288.085714 
L 559.174332 287.282143 
L 561.615751 287.175 
L 565.684784 287.014286 
L 577.078075 286.907143 
L 582.77472 286.639286 
L 589.285173 286.532143 
L 592.540399 286.425 
L 595.795625 286.371429 
L 598.237044 286.157143 
L 605.561303 285.782143 
L 607.188916 285.675 
L 610.444142 285.567857 
L 614.513175 285.460714 
L 618.582207 285.3 
L 624.278853 285.192857 
L 627.534079 285.085714 
L 636.48595 284.978571 
L 641.368789 284.764286 
L 646.251629 284.657143 
L 648.693048 284.389286 
L 653.575887 284.335714 
L 654.389694 284.175 
L 656.017307 284.067857 
L 659.272533 283.960714 
L 669.038211 283.853571 
L 673.107244 283.692857 
L 686.941954 283.639286 
L 688.569567 283.532143 
L 691.010987 283.478571 
L 701.590472 283.371429 
L 703.218085 283.264286 
L 712.169956 283.157143 
L 715.425182 283.05 
L 725.19086 282.996429 
L 726.818474 282.889286 
L 739.025571 282.835714 
L 741.466991 282.621429 
L 747.163636 282.621429 
L 747.163636 282.621429 
" clip-path="url(#p5db0a07396)" style="fill: none; stroke: #ff7f0e; stroke-width: 1.5; stroke-linecap: square"/>
   </g>
   <g id="patch_3">
    <path d="M 108 320.4 
L 108 43.2 
" style="fill: none; stroke: #a9a9a9; stroke-width: 0.8; stroke-linejoin: miter; stroke-linecap: square"/>
   </g>
   <g id="patch_4">
    <path d="M 777.6 320.4 
L 777.6 43.2 
" style="fill: none"/>
   </g>
   <g id="patch_5">
    <path d="M 108 320.4 
L 777.6 320.4 
" style="fill: none; stroke: #a9a9a9; stroke-width: 0.8; stroke-linejoin: miter; stroke-linecap: square"/>
   </g>
   <g id="patch_6">
    <path d="M 108 43.2 
L 777.6 43.2 
" style="fill: none"/>
   </g>
   <g id="text_19">
    <!-- get_subscribe history -->
    <g style="fill: #a9a9a9" transform="translate(378.6075 37.2) scale(0.12 -0.12)">
     <defs>
      <path id="DejaVuSans-67" d="M 2906 1791 
Q 2906 2416 2648 2759 
Q 2391 3103 1925 3103 
Q 1463 3103 1205 2759 
Q 947 2416 947 1791 
Q 947 1169 1205 825 
Q 1463 481 1925 481 
Q 2391 481 2648 825 
Q 2906 1169 2906 1791 
z
M 3481 434 
Q 3481 -459 3084 -895 
Q 2688 -1331 1869 -1331 
Q 1566 -1331 1297 -1286 
Q 1028 -1241 775 -1147 
L 775 -588 
Q 1028 -725 1275 -790 
Q 1522 -856 1778 -856 
Q 2344 -856 2625 -561 
Q 2906 -266 2906 331 
L 2906 616 
Q 2728 306 2450 153 
Q 2172 0 1784 0 
Q 1141 0 747 490 
Q 353 981 353 1791 
Q 353 2603 747 3093 
Q 1141 3584 1784 3584 
Q 2172 3584 2450 3431 
Q 2728 3278 2906 2969 
L 2906 3500 
L 3481 3500 
L 3481 434 
z
" transform="scale(0.015625)"/>
      <path id="DejaVuSans-65" d="M 3597 1894 
L 3597 1613 
L 953 1613 
Q 991 1019 1311 708 
Q 1631 397 2203 397 
Q 2534 397 2845 478 
Q 3156 559 3463 722 
L 3463 178 
Q 3153 47 2828 -22 
Q 2503 -91 2169 -91 
Q 1331 -91 842 396 
Q 353 884 353 1716 
Q 353 2575 817 3079 
Q 1281 3584 2069 3584 
Q 2775 3584 3186 3129 
Q 3597 2675 3597 1894 
z
M 3022 2063 
Q 3016 2534 2758 2815 
Q 2500 3097 2075 3097 
Q 1594 3097 1305 2825 
Q 1016 2553 972 2059 
L 3022 2063 
z
" transform="scale(0.015625)"/>
      <path id="DejaVuSans-74" d="M 1172 4494 
L 1172 3500 
L 2356 3500 
L 2356 3053 
L 1172 3053 
L 1172 1153 
Q 1172 725 1289 603 
Q 1406 481 1766 481 
L 2356 481 
L 2356 0 
L 1766 0 
Q 1100 0 847 248 
Q 594 497 594 1153 
L 594 3053 
L 172 3053 
L 172 3500 
L 594 3500 
L 594 4494 
L 1172 4494 
z
" transform="scale(0.015625)"/>
      <path id="DejaVuSans-5f" d="M 3263 -1063 
L 3263 -1509 
L -63 -1509 
L -63 -1063 
L 3263 -1063 
z
" transform="scale(0.015625)"/>
      <path id="DejaVuSans-73" d="M 2834 3397 
L 2834 2853 
Q 2591 2978 2328 3040 
Q 2066 3103 1784 3103 
Q 1356 3103 1142 2972 
Q 928 2841 928 2578 
Q 928 2378 1081 2264 
Q 1234 2150 1697 2047 
L 1894 2003 
Q 2506 1872 2764 1633 
Q 3022 1394 3022 966 
Q 3022 478 2636 193 
Q 2250 -91 1575 -91 
Q 1294 -91 989 -36 
Q 684 19 347 128 
L 347 722 
Q 666 556 975 473 
Q 1284 391 1588 391 
Q 1994 391 2212 530 
Q 2431 669 2431 922 
Q 2431 1156 2273 1281 
Q 2116 1406 1581 1522 
L 1381 1569 
Q 847 1681 609 1914 
Q 372 2147 372 2553 
Q 372 3047 722 3315 
Q 1072 3584 1716 3584 
Q 2034 3584 2315 3537 
Q 2597 3491 2834 3397 
z
" transform="scale(0.015625)"/>
      <path id="DejaVuSans-75" d="M 544 1381 
L 544 3500 
L 1119 3500 
L 1119 1403 
Q 1119 906 1312 657 
Q 1506 409 1894 409 
Q 2359 409 2629 706 
Q 2900 1003 2900 1516 
L 2900 3500 
L 3475 3500 
L 3475 0 
L 2900 0 
L 2900 538 
Q 2691 219 2414 64 
Q 2138 -91 1772 -91 
Q 1169 -91 856 284 
Q 544 659 544 1381 
z
M 1991 3584 
L 1991 3584 
z
" transform="scale(0.015625)"/>
      <path id="DejaVuSans-62" d="M 3116 1747 
Q 3116 2381 2855 2742 
Q 2594 3103 2138 3103 
Q 1681 3103 1420 2742 
Q 1159 2381 1159 1747 
Q 1159 1113 1420 752 
Q 1681 391 2138 391 
Q 2594 391 2855 752 
Q 3116 1113 3116 1747 
z
M 1159 2969 
Q 1341 3281 1617 3432 
Q 1894 3584 2278 3584 
Q 2916 3584 3314 3078 
Q 3713 2572 3713 1747 
Q 3713 922 3314 415 
Q 2916 -91 2278 -91 
Q 1894 -91 1617 61 
Q 1341 213 1159 525 
L 1159 0 
L 581 0 
L 581 4863 
L 1159 4863 
L 1159 2969 
z
" transform="scale(0.015625)"/>
      <path id="DejaVuSans-63" d="M 3122 3366 
L 3122 2828 
Q 2878 2963 2633 3030 
Q 2388 3097 2138 3097 
Q 1578 3097 1268 2742 
Q 959 2388 959 1747 
Q 959 1106 1268 751 
Q 1578 397 2138 397 
Q 2388 397 2633 464 
Q 2878 531 3122 666 
L 3122 134 
Q 2881 22 2623 -34 
Q 2366 -91 2075 -91 
Q 1284 -91 818 406 
Q 353 903 353 1747 
Q 353 2603 823 3093 
Q 1294 3584 2113 3584 
Q 2378 3584 2631 3529 
Q 2884 3475 3122 3366 
z
" transform="scale(0.015625)"/>
      <path id="DejaVuSans-72" d="M 2631 2963 
Q 2534 3019 2420 3045 
Q 2306 3072 2169 3072 
Q 1681 3072 1420 2755 
Q 1159 2438 1159 1844 
L 1159 0 
L 581 0 
L 581 3500 
L 1159 3500 
L 1159 2956 
Q 1341 3275 1631 3429 
Q 1922 3584 2338 3584 
Q 2397 3584 2469 3576 
Q 2541 3569 2628 3553 
L 2631 2963 
z
" transform="scale(0.015625)"/>
      <path id="DejaVuSans-69" d="M 603 3500 
L 1178 3500 
L 1178 0 
L 603 0 
L 603 3500 
z
M 603 4863 
L 1178 4863 
L 1178 4134 
L 603 4134 
L 603 4863 
z
" transform="scale(0.015625)"/>
      <path id="DejaVuSans-20" transform="scale(0.015625)"/>
      <path id="DejaVuSans-68" d="M 3513 2113 
L 3513 0 
L 2938 0 
L 2938 2094 
Q 2938 2591 2744 2837 
Q 2550 3084 2163 3084 
Q 1697 3084 1428 2787 
Q 1159 2491 1159 1978 
L 1159 0 
L 581 0 
L 581 4863 
L 1159 4863 
L 1159 2956 
Q 1366 3272 1645 3428 
Q 1925 3584 2291 3584 
Q 2894 3584 3203 3211 
Q 3513 2838 3513 2113 
z
" transform="scale(0.015625)"/>
      <path id="DejaVuSans-6f" d="M 1959 3097 
Q 1497 3097 1228 2736 
Q 959 2375 959 1747 
Q 959 1119 1226 758 
Q 1494 397 1959 397 
Q 2419 397 2687 759 
Q 2956 1122 2956 1747 
Q 2956 2369 2687 2733 
Q 2419 3097 1959 3097 
z
M 1959 3584 
Q 2709 3584 3137 3096 
Q 3566 2609 3566 1747 
Q 3566 888 3137 398 
Q 2709 -91 1959 -91 
Q 1206 -91 779 398 
Q 353 888 353 1747 
Q 353 2609 779 3096 
Q 1206 3584 1959 3584 
z
" transform="scale(0.015625)"/>
      <path id="DejaVuSans-79" d="M 2059 -325 
Q 1816 -950 1584 -1140 
Q 1353 -1331 966 -1331 
L 506 -1331 
L 506 -850 
L 844 -850 
Q 1081 -850 1212 -737 
Q 1344 -625 1503 -206 
L 1606 56 
L 191 3500 
L 800 3500 
L 1894 763 
L 2988 3500 
L 3597 3500 
L 2059 -325 
z
" transform="scale(0.015625)"/>
     </defs>
     <use xlink:href="#DejaVuSans-67"/>
     <use xlink:href="#DejaVuSans-65" x="63.476562"/>
     <use xlink:href="#DejaVuSans-74" x="125"/>
     <use xlink:href="#DejaVuSans-5f" x="164.208984"/>
     <use xlink:href="#DejaVuSans-73" x="214.208984"/>
     <use xlink:href="#DejaVuSans-75" x="266.308594"/>
     <use xlink:href="#DejaVuSans-62" x="329.6875"/>
     <use xlink:href="#DejaVuSans-73" x="393.164062"/>
     <use xlink:href="#DejaVuSans-63" x="445.263672"/>
     <use xlink:href="#DejaVuSans-72" x="500.244141"/>
     <use xlink:href="#DejaVuSans-69" x="541.357422"/>
     <use xlink:href="#DejaVuSans-62" x="569.140625"/>
     <use xlink:href="#DejaVuSans-65" x="632.617188"/>
     <use xlink:href="#DejaVuSans-20" x="694.140625"/>
     <use xlink:href="#DejaVuSans-68" x="725.927734"/>
     <use xlink:href="#DejaVuSans-69" x="789.306641"/>
     <use xlink:href="#DejaVuSans-73" x="817.089844"/>
     <use xlink:href="#DejaVuSans-74" x="869.189453"/>
     <use xlink:href="#DejaVuSans-6f" x="908.398438"/>
     <use xlink:href="#DejaVuSans-72" x="969.580078"/>
     <use xlink:href="#DejaVuSans-79" x="1010.693359"/>
    </g>
   </g>
   <g id="legend_1">
    <g id="line2d_39">
     <path d="M 815.08 328.498438 
L 825.08 328.498438 
L 835.08 328.498438 
" style="fill: none; stroke: #1f77b4; stroke-width: 1.5; stroke-linecap: square"/>
    </g>
    <g id="text_20">
     <!-- star -->
     <g style="fill: #a9a9a9" transform="translate(843.08 331.998438) scale(0.1 -0.1)">
      <defs>
       <path id="DejaVuSans-61" d="M 2194 1759 
Q 1497 1759 1228 1600 
Q 959 1441 959 1056 
Q 959 750 1161 570 
Q 1363 391 1709 391 
Q 2188 391 2477 730 
Q 2766 1069 2766 1631 
L 2766 1759 
L 2194 1759 
z
M 3341 1997 
L 3341 0 
L 2766 0 
L 2766 531 
Q 2569 213 2275 61 
Q 1981 -91 1556 -91 
Q 1019 -91 701 211 
Q 384 513 384 1019 
Q 384 1609 779 1909 
Q 1175 2209 1959 2209 
L 2766 2209 
L 2766 2266 
Q 2766 2663 2505 2880 
Q 2244 3097 1772 3097 
Q 1472 3097 1187 3025 
Q 903 2953 641 2809 
L 641 3341 
Q 956 3463 1253 3523 
Q 1550 3584 1831 3584 
Q 2591 3584 2966 3190 
Q 3341 2797 3341 1997 
z
" transform="scale(0.015625)"/>
      </defs>
      <use xlink:href="#DejaVuSans-73"/>
      <use xlink:href="#DejaVuSans-74" x="52.099609"/>
      <use xlink:href="#DejaVuSans-61" x="91.308594"/>
      <use xlink:href="#DejaVuSans-72" x="152.587891"/>
     </g>
    </g>
    <g id="line2d_40">
     <path d="M 815.08 343.176562 
L 825.08 343.176562 
L 835.08 343.176562 
" style="fill: none; stroke: #ff7f0e; stroke-width: 1.5; stroke-linecap: square"/>
    </g>
    <g id="text_21">
     <!-- fork -->
     <g style="fill: #a9a9a9" transform="translate(843.08 346.676562) scale(0.1 -0.1)">
      <defs>
       <path id="DejaVuSans-66" d="M 2375 4863 
L 2375 4384 
L 1825 4384 
Q 1516 4384 1395 4259 
Q 1275 4134 1275 3809 
L 1275 3500 
L 2222 3500 
L 2222 3053 
L 1275 3053 
L 1275 0 
L 697 0 
L 697 3053 
L 147 3053 
L 147 3500 
L 697 3500 
L 697 3744 
Q 697 4328 969 4595 
Q 1241 4863 1831 4863 
L 2375 4863 
z
" transform="scale(0.015625)"/>
       <path id="DejaVuSans-6b" d="M 581 4863 
L 1159 4863 
L 1159 1991 
L 2875 3500 
L 3609 3500 
L 1753 1863 
L 3688 0 
L 2938 0 
L 1159 1709 
L 1159 0 
L 581 0 
L 581 4863 
z
" transform="scale(0.015625)"/>
      </defs>
      <use xlink:href="#DejaVuSans-66"/>
      <use xlink:href="#DejaVuSans-6f" x="35.205078"/>
      <use xlink:href="#DejaVuSans-72" x="96.386719"/>
      <use xlink:href="#DejaVuSans-6b" x="137.5"/>
     </g>
    </g>
   </g>
  </g>
 </g>
 <defs>
  <clipPath id="p5db0a07396">
   <rect x="108" y="43.2" width="669.6" height="277.2"/>
  </clipPath>
 </defs>
</svg>
