<?xml version="1.0" encoding="utf-8" standalone="no"?>
<!DOCTYPE svg PUBLIC "-//W3C//DTD SVG 1.1//EN"
  "http://www.w3.org/Graphics/SVG/1.1/DTD/svg11.dtd">
<svg xmlns:xlink="http://www.w3.org/1999/xlink" width="864pt" height="360pt" viewBox="0 0 864 360" xmlns="http://www.w3.org/2000/svg" version="1.1">
 <metadata>
  <rdf:RDF xmlns:dc="http://purl.org/dc/elements/1.1/" xmlns:cc="http://creativecommons.org/ns#" xmlns:rdf="http://www.w3.org/1999/02/22-rdf-syntax-ns#">
   <cc:Work>
    <dc:type rdf:resource="http://purl.org/dc/dcmitype/StillImage"/>
    <dc:date>2023-08-07T20:21:13.285152</dc:date>
    <dc:format>image/svg+xml</dc:format>
    <dc:creator>
     <cc:Agent>
      <dc:title>Matplotlib v3.7.2, https://matplotlib.org/</dc:title>
     </cc:Agent>
    </dc:creator>
   </cc:Work>
  </rdf:RDF>
 </metadata>
 <defs>
  <style type="text/css">*{stroke-linejoin: round; stroke-linecap: butt}</style>
 </defs>
 <g id="figure_1">
  <g id="patch_1">
   <path d="M 0 360 
L 864 360 
L 864 0 
L 0 0 
L 0 360 
z
" style="fill: none; opacity: 0"/>
  </g>
  <g id="axes_1">
   <g id="patch_2">
    <path d="M 108 320.4 
L 777.6 320.4 
L 777.6 43.2 
L 108 43.2 
L 108 320.4 
z
" style="fill: none; opacity: 0"/>
   </g>
   <g id="matplotlib.axis_1">
    <g id="xtick_1">
     <g id="line2d_1">
      <path d="M 119.618182 320.4 
L 119.618182 43.2 
" clip-path="url(#p1317a29944)" style="fill: none; stroke-dasharray: 5.12,1.28,0.8,1.28; stroke-dashoffset: 0; stroke: #b0b0b0; stroke-width: 0.8"/>
     </g>
     <g id="line2d_2">
      <defs>
       <path id="m2ef1e4966d" d="M 0 0 
L 0 3.5 
" style="stroke: #a9a9a9; stroke-width: 0.8"/>
      </defs>
      <g>
       <use xlink:href="#m2ef1e4966d" x="119.618182" y="320.4" style="fill: #a9a9a9; stroke: #a9a9a9; stroke-width: 0.8"/>
      </g>
     </g>
     <g id="text_1">
      <!-- 2021-07 -->
      <g style="fill: #a9a9a9" transform="translate(98.726776 334.998438) scale(0.1 -0.1)">
       <defs>
        <path id="DejaVuSans-32" d="M 1228 531 
L 3431 531 
L 3431 0 
L 469 0 
L 469 531 
Q 828 903 1448 1529 
Q 2069 2156 2228 2338 
Q 2531 2678 2651 2914 
Q 2772 3150 2772 3378 
Q 2772 3750 2511 3984 
Q 2250 4219 1831 4219 
Q 1534 4219 1204 4116 
Q 875 4013 500 3803 
L 500 4441 
Q 881 4594 1212 4672 
Q 1544 4750 1819 4750 
Q 2544 4750 2975 4387 
Q 3406 4025 3406 3419 
Q 3406 3131 3298 2873 
Q 3191 2616 2906 2266 
Q 2828 2175 2409 1742 
Q 1991 1309 1228 531 
z
" transform="scale(0.015625)"/>
        <path id="DejaVuSans-30" d="M 2034 4250 
Q 1547 4250 1301 3770 
Q 1056 3291 1056 2328 
Q 1056 1369 1301 889 
Q 1547 409 2034 409 
Q 2525 409 2770 889 
Q 3016 1369 3016 2328 
Q 3016 3291 2770 3770 
Q 2525 4250 2034 4250 
z
M 2034 4750 
Q 2819 4750 3233 4129 
Q 3647 3509 3647 2328 
Q 3647 1150 3233 529 
Q 2819 -91 2034 -91 
Q 1250 -91 836 529 
Q 422 1150 422 2328 
Q 422 3509 836 4129 
Q 1250 4750 2034 4750 
z
" transform="scale(0.015625)"/>
        <path id="DejaVuSans-31" d="M 794 531 
L 1825 531 
L 1825 4091 
L 703 3866 
L 703 4441 
L 1819 4666 
L 2450 4666 
L 2450 531 
L 3481 531 
L 3481 0 
L 794 0 
L 794 531 
z
" transform="scale(0.015625)"/>
        <path id="DejaVuSans-2d" d="M 313 2009 
L 1997 2009 
L 1997 1497 
L 313 1497 
L 313 2009 
z
" transform="scale(0.015625)"/>
        <path id="DejaVuSans-37" d="M 525 4666 
L 3525 4666 
L 3525 4397 
L 1831 0 
L 1172 0 
L 2766 4134 
L 525 4134 
L 525 4666 
z
" transform="scale(0.015625)"/>
       </defs>
       <use xlink:href="#DejaVuSans-32"/>
       <use xlink:href="#DejaVuSans-30" x="63.623047"/>
       <use xlink:href="#DejaVuSans-32" x="127.246094"/>
       <use xlink:href="#DejaVuSans-31" x="190.869141"/>
       <use xlink:href="#DejaVuSans-2d" x="254.492188"/>
       <use xlink:href="#DejaVuSans-30" x="290.576172"/>
       <use xlink:href="#DejaVuSans-37" x="354.199219"/>
      </g>
     </g>
    </g>
    <g id="xtick_2">
     <g id="line2d_3">
      <path d="M 194.890909 320.4 
L 194.890909 43.2 
" clip-path="url(#p1317a29944)" style="fill: none; stroke-dasharray: 5.12,1.28,0.8,1.28; stroke-dashoffset: 0; stroke: #b0b0b0; stroke-width: 0.8"/>
     </g>
     <g id="line2d_4">
      <g>
       <use xlink:href="#m2ef1e4966d" x="194.890909" y="320.4" style="fill: #a9a9a9; stroke: #a9a9a9; stroke-width: 0.8"/>
      </g>
     </g>
     <g id="text_2">
      <!-- 2021-10 -->
      <g style="fill: #a9a9a9" transform="translate(173.999503 334.998438) scale(0.1 -0.1)">
       <use xlink:href="#DejaVuSans-32"/>
       <use xlink:href="#DejaVuSans-30" x="63.623047"/>
       <use xlink:href="#DejaVuSans-32" x="127.246094"/>
       <use xlink:href="#DejaVuSans-31" x="190.869141"/>
       <use xlink:href="#DejaVuSans-2d" x="254.492188"/>
       <use xlink:href="#DejaVuSans-31" x="290.576172"/>
       <use xlink:href="#DejaVuSans-30" x="354.199219"/>
      </g>
     </g>
    </g>
    <g id="xtick_3">
     <g id="line2d_5">
      <path d="M 270.163636 320.4 
L 270.163636 43.2 
" clip-path="url(#p1317a29944)" style="fill: none; stroke-dasharray: 5.12,1.28,0.8,1.28; stroke-dashoffset: 0; stroke: #b0b0b0; stroke-width: 0.8"/>
     </g>
     <g id="line2d_6">
      <g>
       <use xlink:href="#m2ef1e4966d" x="270.163636" y="320.4" style="fill: #a9a9a9; stroke: #a9a9a9; stroke-width: 0.8"/>
      </g>
     </g>
     <g id="text_3">
      <!-- 2022-01 -->
      <g style="fill: #a9a9a9" transform="translate(249.27223 334.998438) scale(0.1 -0.1)">
       <use xlink:href="#DejaVuSans-32"/>
       <use xlink:href="#DejaVuSans-30" x="63.623047"/>
       <use xlink:href="#DejaVuSans-32" x="127.246094"/>
       <use xlink:href="#DejaVuSans-32" x="190.869141"/>
       <use xlink:href="#DejaVuSans-2d" x="254.492188"/>
       <use xlink:href="#DejaVuSans-30" x="290.576172"/>
       <use xlink:href="#DejaVuSans-31" x="354.199219"/>
      </g>
     </g>
    </g>
    <g id="xtick_4">
     <g id="line2d_7">
      <path d="M 343.8 320.4 
L 343.8 43.2 
" clip-path="url(#p1317a29944)" style="fill: none; stroke-dasharray: 5.12,1.28,0.8,1.28; stroke-dashoffset: 0; stroke: #b0b0b0; stroke-width: 0.8"/>
     </g>
     <g id="line2d_8">
      <g>
       <use xlink:href="#m2ef1e4966d" x="343.8" y="320.4" style="fill: #a9a9a9; stroke: #a9a9a9; stroke-width: 0.8"/>
      </g>
     </g>
     <g id="text_4">
      <!-- 2022-04 -->
      <g style="fill: #a9a9a9" transform="translate(322.908594 334.998438) scale(0.1 -0.1)">
       <defs>
        <path id="DejaVuSans-34" d="M 2419 4116 
L 825 1625 
L 2419 1625 
L 2419 4116 
z
M 2253 4666 
L 3047 4666 
L 3047 1625 
L 3713 1625 
L 3713 1100 
L 3047 1100 
L 3047 0 
L 2419 0 
L 2419 1100 
L 313 1100 
L 313 1709 
L 2253 4666 
z
" transform="scale(0.015625)"/>
       </defs>
       <use xlink:href="#DejaVuSans-32"/>
       <use xlink:href="#DejaVuSans-30" x="63.623047"/>
       <use xlink:href="#DejaVuSans-32" x="127.246094"/>
       <use xlink:href="#DejaVuSans-32" x="190.869141"/>
       <use xlink:href="#DejaVuSans-2d" x="254.492188"/>
       <use xlink:href="#DejaVuSans-30" x="290.576172"/>
       <use xlink:href="#DejaVuSans-34" x="354.199219"/>
      </g>
     </g>
    </g>
    <g id="xtick_5">
     <g id="line2d_9">
      <path d="M 418.254545 320.4 
L 418.254545 43.2 
" clip-path="url(#p1317a29944)" style="fill: none; stroke-dasharray: 5.12,1.28,0.8,1.28; stroke-dashoffset: 0; stroke: #b0b0b0; stroke-width: 0.8"/>
     </g>
     <g id="line2d_10">
      <g>
       <use xlink:href="#m2ef1e4966d" x="418.254545" y="320.4" style="fill: #a9a9a9; stroke: #a9a9a9; stroke-width: 0.8"/>
      </g>
     </g>
     <g id="text_5">
      <!-- 2022-07 -->
      <g style="fill: #a9a9a9" transform="translate(397.363139 334.998438) scale(0.1 -0.1)">
       <use xlink:href="#DejaVuSans-32"/>
       <use xlink:href="#DejaVuSans-30" x="63.623047"/>
       <use xlink:href="#DejaVuSans-32" x="127.246094"/>
       <use xlink:href="#DejaVuSans-32" x="190.869141"/>
       <use xlink:href="#DejaVuSans-2d" x="254.492188"/>
       <use xlink:href="#DejaVuSans-30" x="290.576172"/>
       <use xlink:href="#DejaVuSans-37" x="354.199219"/>
      </g>
     </g>
    </g>
    <g id="xtick_6">
     <g id="line2d_11">
      <path d="M 493.527273 320.4 
L 493.527273 43.2 
" clip-path="url(#p1317a29944)" style="fill: none; stroke-dasharray: 5.12,1.28,0.8,1.28; stroke-dashoffset: 0; stroke: #b0b0b0; stroke-width: 0.8"/>
     </g>
     <g id="line2d_12">
      <g>
       <use xlink:href="#m2ef1e4966d" x="493.527273" y="320.4" style="fill: #a9a9a9; stroke: #a9a9a9; stroke-width: 0.8"/>
      </g>
     </g>
     <g id="text_6">
      <!-- 2022-10 -->
      <g style="fill: #a9a9a9" transform="translate(472.635866 334.998438) scale(0.1 -0.1)">
       <use xlink:href="#DejaVuSans-32"/>
       <use xlink:href="#DejaVuSans-30" x="63.623047"/>
       <use xlink:href="#DejaVuSans-32" x="127.246094"/>
       <use xlink:href="#DejaVuSans-32" x="190.869141"/>
       <use xlink:href="#DejaVuSans-2d" x="254.492188"/>
       <use xlink:href="#DejaVuSans-31" x="290.576172"/>
       <use xlink:href="#DejaVuSans-30" x="354.199219"/>
      </g>
     </g>
    </g>
    <g id="xtick_7">
     <g id="line2d_13">
      <path d="M 568.8 320.4 
L 568.8 43.2 
" clip-path="url(#p1317a29944)" style="fill: none; stroke-dasharray: 5.12,1.28,0.8,1.28; stroke-dashoffset: 0; stroke: #b0b0b0; stroke-width: 0.8"/>
     </g>
     <g id="line2d_14">
      <g>
       <use xlink:href="#m2ef1e4966d" x="568.8" y="320.4" style="fill: #a9a9a9; stroke: #a9a9a9; stroke-width: 0.8"/>
      </g>
     </g>
     <g id="text_7">
      <!-- 2023-01 -->
      <g style="fill: #a9a9a9" transform="translate(547.908594 334.998438) scale(0.1 -0.1)">
       <defs>
        <path id="DejaVuSans-33" d="M 2597 2516 
Q 3050 2419 3304 2112 
Q 3559 1806 3559 1356 
Q 3559 666 3084 287 
Q 2609 -91 1734 -91 
Q 1441 -91 1130 -33 
Q 819 25 488 141 
L 488 750 
Q 750 597 1062 519 
Q 1375 441 1716 441 
Q 2309 441 2620 675 
Q 2931 909 2931 1356 
Q 2931 1769 2642 2001 
Q 2353 2234 1838 2234 
L 1294 2234 
L 1294 2753 
L 1863 2753 
Q 2328 2753 2575 2939 
Q 2822 3125 2822 3475 
Q 2822 3834 2567 4026 
Q 2313 4219 1838 4219 
Q 1578 4219 1281 4162 
Q 984 4106 628 3988 
L 628 4550 
Q 988 4650 1302 4700 
Q 1616 4750 1894 4750 
Q 2613 4750 3031 4423 
Q 3450 4097 3450 3541 
Q 3450 3153 3228 2886 
Q 3006 2619 2597 2516 
z
" transform="scale(0.015625)"/>
       </defs>
       <use xlink:href="#DejaVuSans-32"/>
       <use xlink:href="#DejaVuSans-30" x="63.623047"/>
       <use xlink:href="#DejaVuSans-32" x="127.246094"/>
       <use xlink:href="#DejaVuSans-33" x="190.869141"/>
       <use xlink:href="#DejaVuSans-2d" x="254.492188"/>
       <use xlink:href="#DejaVuSans-30" x="290.576172"/>
       <use xlink:href="#DejaVuSans-31" x="354.199219"/>
      </g>
     </g>
    </g>
    <g id="xtick_8">
     <g id="line2d_15">
      <path d="M 642.436364 320.4 
L 642.436364 43.2 
" clip-path="url(#p1317a29944)" style="fill: none; stroke-dasharray: 5.12,1.28,0.8,1.28; stroke-dashoffset: 0; stroke: #b0b0b0; stroke-width: 0.8"/>
     </g>
     <g id="line2d_16">
      <g>
       <use xlink:href="#m2ef1e4966d" x="642.436364" y="320.4" style="fill: #a9a9a9; stroke: #a9a9a9; stroke-width: 0.8"/>
      </g>
     </g>
     <g id="text_8">
      <!-- 2023-04 -->
      <g style="fill: #a9a9a9" transform="translate(621.544957 334.998438) scale(0.1 -0.1)">
       <use xlink:href="#DejaVuSans-32"/>
       <use xlink:href="#DejaVuSans-30" x="63.623047"/>
       <use xlink:href="#DejaVuSans-32" x="127.246094"/>
       <use xlink:href="#DejaVuSans-33" x="190.869141"/>
       <use xlink:href="#DejaVuSans-2d" x="254.492188"/>
       <use xlink:href="#DejaVuSans-30" x="290.576172"/>
       <use xlink:href="#DejaVuSans-34" x="354.199219"/>
      </g>
     </g>
    </g>
    <g id="xtick_9">
     <g id="line2d_17">
      <path d="M 716.890909 320.4 
L 716.890909 43.2 
" clip-path="url(#p1317a29944)" style="fill: none; stroke-dasharray: 5.12,1.28,0.8,1.28; stroke-dashoffset: 0; stroke: #b0b0b0; stroke-width: 0.8"/>
     </g>
     <g id="line2d_18">
      <g>
       <use xlink:href="#m2ef1e4966d" x="716.890909" y="320.4" style="fill: #a9a9a9; stroke: #a9a9a9; stroke-width: 0.8"/>
      </g>
     </g>
     <g id="text_9">
      <!-- 2023-07 -->
      <g style="fill: #a9a9a9" transform="translate(695.999503 334.998438) scale(0.1 -0.1)">
       <use xlink:href="#DejaVuSans-32"/>
       <use xlink:href="#DejaVuSans-30" x="63.623047"/>
       <use xlink:href="#DejaVuSans-32" x="127.246094"/>
       <use xlink:href="#DejaVuSans-33" x="190.869141"/>
       <use xlink:href="#DejaVuSans-2d" x="254.492188"/>
       <use xlink:href="#DejaVuSans-30" x="290.576172"/>
       <use xlink:href="#DejaVuSans-37" x="354.199219"/>
      </g>
     </g>
    </g>
   </g>
   <g id="matplotlib.axis_2">
    <g id="ytick_1">
     <g id="line2d_19">
      <path d="M 108 307.853686 
L 777.6 307.853686 
" clip-path="url(#p1317a29944)" style="fill: none; stroke-dasharray: 5.12,1.28,0.8,1.28; stroke-dashoffset: 0; stroke: #b0b0b0; stroke-width: 0.8"/>
     </g>
     <g id="line2d_20">
      <defs>
       <path id="m8957ab17f2" d="M 0 0 
L -3.5 0 
" style="stroke: #a9a9a9; stroke-width: 0.8"/>
      </defs>
      <g>
       <use xlink:href="#m8957ab17f2" x="108" y="307.853686" style="fill: #a9a9a9; stroke: #a9a9a9; stroke-width: 0.8"/>
      </g>
     </g>
     <g id="text_10">
      <!-- 0 -->
      <g style="fill: #a9a9a9" transform="translate(94.6375 311.652904) scale(0.1 -0.1)">
       <use xlink:href="#DejaVuSans-30"/>
      </g>
     </g>
    </g>
    <g id="ytick_2">
     <g id="line2d_21">
      <path d="M 108 275.642352 
L 777.6 275.642352 
" clip-path="url(#p1317a29944)" style="fill: none; stroke-dasharray: 5.12,1.28,0.8,1.28; stroke-dashoffset: 0; stroke: #b0b0b0; stroke-width: 0.8"/>
     </g>
     <g id="line2d_22">
      <g>
       <use xlink:href="#m8957ab17f2" x="108" y="275.642352" style="fill: #a9a9a9; stroke: #a9a9a9; stroke-width: 0.8"/>
      </g>
     </g>
     <g id="text_11">
      <!-- 600 -->
      <g style="fill: #a9a9a9" transform="translate(81.9125 279.441571) scale(0.1 -0.1)">
       <defs>
        <path id="DejaVuSans-36" d="M 2113 2584 
Q 1688 2584 1439 2293 
Q 1191 2003 1191 1497 
Q 1191 994 1439 701 
Q 1688 409 2113 409 
Q 2538 409 2786 701 
Q 3034 994 3034 1497 
Q 3034 2003 2786 2293 
Q 2538 2584 2113 2584 
z
M 3366 4563 
L 3366 3988 
Q 3128 4100 2886 4159 
Q 2644 4219 2406 4219 
Q 1781 4219 1451 3797 
Q 1122 3375 1075 2522 
Q 1259 2794 1537 2939 
Q 1816 3084 2150 3084 
Q 2853 3084 3261 2657 
Q 3669 2231 3669 1497 
Q 3669 778 3244 343 
Q 2819 -91 2113 -91 
Q 1303 -91 875 529 
Q 447 1150 447 2328 
Q 447 3434 972 4092 
Q 1497 4750 2381 4750 
Q 2619 4750 2861 4703 
Q 3103 4656 3366 4563 
z
" transform="scale(0.015625)"/>
       </defs>
       <use xlink:href="#DejaVuSans-36"/>
       <use xlink:href="#DejaVuSans-30" x="63.623047"/>
       <use xlink:href="#DejaVuSans-30" x="127.246094"/>
      </g>
     </g>
    </g>
    <g id="ytick_3">
     <g id="line2d_23">
      <path d="M 108 243.431018 
L 777.6 243.431018 
" clip-path="url(#p1317a29944)" style="fill: none; stroke-dasharray: 5.12,1.28,0.8,1.28; stroke-dashoffset: 0; stroke: #b0b0b0; stroke-width: 0.8"/>
     </g>
     <g id="line2d_24">
      <g>
       <use xlink:href="#m8957ab17f2" x="108" y="243.431018" style="fill: #a9a9a9; stroke: #a9a9a9; stroke-width: 0.8"/>
      </g>
     </g>
     <g id="text_12">
      <!-- 1200 -->
      <g style="fill: #a9a9a9" transform="translate(75.55 247.230237) scale(0.1 -0.1)">
       <use xlink:href="#DejaVuSans-31"/>
       <use xlink:href="#DejaVuSans-32" x="63.623047"/>
       <use xlink:href="#DejaVuSans-30" x="127.246094"/>
       <use xlink:href="#DejaVuSans-30" x="190.869141"/>
      </g>
     </g>
    </g>
    <g id="ytick_4">
     <g id="line2d_25">
      <path d="M 108 211.219685 
L 777.6 211.219685 
" clip-path="url(#p1317a29944)" style="fill: none; stroke-dasharray: 5.12,1.28,0.8,1.28; stroke-dashoffset: 0; stroke: #b0b0b0; stroke-width: 0.8"/>
     </g>
     <g id="line2d_26">
      <g>
       <use xlink:href="#m8957ab17f2" x="108" y="211.219685" style="fill: #a9a9a9; stroke: #a9a9a9; stroke-width: 0.8"/>
      </g>
     </g>
     <g id="text_13">
      <!-- 1800 -->
      <g style="fill: #a9a9a9" transform="translate(75.55 215.018903) scale(0.1 -0.1)">
       <defs>
        <path id="DejaVuSans-38" d="M 2034 2216 
Q 1584 2216 1326 1975 
Q 1069 1734 1069 1313 
Q 1069 891 1326 650 
Q 1584 409 2034 409 
Q 2484 409 2743 651 
Q 3003 894 3003 1313 
Q 3003 1734 2745 1975 
Q 2488 2216 2034 2216 
z
M 1403 2484 
Q 997 2584 770 2862 
Q 544 3141 544 3541 
Q 544 4100 942 4425 
Q 1341 4750 2034 4750 
Q 2731 4750 3128 4425 
Q 3525 4100 3525 3541 
Q 3525 3141 3298 2862 
Q 3072 2584 2669 2484 
Q 3125 2378 3379 2068 
Q 3634 1759 3634 1313 
Q 3634 634 3220 271 
Q 2806 -91 2034 -91 
Q 1263 -91 848 271 
Q 434 634 434 1313 
Q 434 1759 690 2068 
Q 947 2378 1403 2484 
z
M 1172 3481 
Q 1172 3119 1398 2916 
Q 1625 2713 2034 2713 
Q 2441 2713 2670 2916 
Q 2900 3119 2900 3481 
Q 2900 3844 2670 4047 
Q 2441 4250 2034 4250 
Q 1625 4250 1398 4047 
Q 1172 3844 1172 3481 
z
" transform="scale(0.015625)"/>
       </defs>
       <use xlink:href="#DejaVuSans-31"/>
       <use xlink:href="#DejaVuSans-38" x="63.623047"/>
       <use xlink:href="#DejaVuSans-30" x="127.246094"/>
       <use xlink:href="#DejaVuSans-30" x="190.869141"/>
      </g>
     </g>
    </g>
    <g id="ytick_5">
     <g id="line2d_27">
      <path d="M 108 179.008351 
L 777.6 179.008351 
" clip-path="url(#p1317a29944)" style="fill: none; stroke-dasharray: 5.12,1.28,0.8,1.28; stroke-dashoffset: 0; stroke: #b0b0b0; stroke-width: 0.8"/>
     </g>
     <g id="line2d_28">
      <g>
       <use xlink:href="#m8957ab17f2" x="108" y="179.008351" style="fill: #a9a9a9; stroke: #a9a9a9; stroke-width: 0.8"/>
      </g>
     </g>
     <g id="text_14">
      <!-- 2400 -->
      <g style="fill: #a9a9a9" transform="translate(75.55 182.80757) scale(0.1 -0.1)">
       <use xlink:href="#DejaVuSans-32"/>
       <use xlink:href="#DejaVuSans-34" x="63.623047"/>
       <use xlink:href="#DejaVuSans-30" x="127.246094"/>
       <use xlink:href="#DejaVuSans-30" x="190.869141"/>
      </g>
     </g>
    </g>
    <g id="ytick_6">
     <g id="line2d_29">
      <path d="M 108 146.797017 
L 777.6 146.797017 
" clip-path="url(#p1317a29944)" style="fill: none; stroke-dasharray: 5.12,1.28,0.8,1.28; stroke-dashoffset: 0; stroke: #b0b0b0; stroke-width: 0.8"/>
     </g>
     <g id="line2d_30">
      <g>
       <use xlink:href="#m8957ab17f2" x="108" y="146.797017" style="fill: #a9a9a9; stroke: #a9a9a9; stroke-width: 0.8"/>
      </g>
     </g>
     <g id="text_15">
      <!-- 3000 -->
      <g style="fill: #a9a9a9" transform="translate(75.55 150.596236) scale(0.1 -0.1)">
       <use xlink:href="#DejaVuSans-33"/>
       <use xlink:href="#DejaVuSans-30" x="63.623047"/>
       <use xlink:href="#DejaVuSans-30" x="127.246094"/>
       <use xlink:href="#DejaVuSans-30" x="190.869141"/>
      </g>
     </g>
    </g>
    <g id="ytick_7">
     <g id="line2d_31">
      <path d="M 108 114.585684 
L 777.6 114.585684 
" clip-path="url(#p1317a29944)" style="fill: none; stroke-dasharray: 5.12,1.28,0.8,1.28; stroke-dashoffset: 0; stroke: #b0b0b0; stroke-width: 0.8"/>
     </g>
     <g id="line2d_32">
      <g>
       <use xlink:href="#m8957ab17f2" x="108" y="114.585684" style="fill: #a9a9a9; stroke: #a9a9a9; stroke-width: 0.8"/>
      </g>
     </g>
     <g id="text_16">
      <!-- 3600 -->
      <g style="fill: #a9a9a9" transform="translate(75.55 118.384903) scale(0.1 -0.1)">
       <use xlink:href="#DejaVuSans-33"/>
       <use xlink:href="#DejaVuSans-36" x="63.623047"/>
       <use xlink:href="#DejaVuSans-30" x="127.246094"/>
       <use xlink:href="#DejaVuSans-30" x="190.869141"/>
      </g>
     </g>
    </g>
    <g id="ytick_8">
     <g id="line2d_33">
      <path d="M 108 82.37435 
L 777.6 82.37435 
" clip-path="url(#p1317a29944)" style="fill: none; stroke-dasharray: 5.12,1.28,0.8,1.28; stroke-dashoffset: 0; stroke: #b0b0b0; stroke-width: 0.8"/>
     </g>
     <g id="line2d_34">
      <g>
       <use xlink:href="#m8957ab17f2" x="108" y="82.37435" style="fill: #a9a9a9; stroke: #a9a9a9; stroke-width: 0.8"/>
      </g>
     </g>
     <g id="text_17">
      <!-- 4200 -->
      <g style="fill: #a9a9a9" transform="translate(75.55 86.173569) scale(0.1 -0.1)">
       <use xlink:href="#DejaVuSans-34"/>
       <use xlink:href="#DejaVuSans-32" x="63.623047"/>
       <use xlink:href="#DejaVuSans-30" x="127.246094"/>
       <use xlink:href="#DejaVuSans-30" x="190.869141"/>
      </g>
     </g>
    </g>
    <g id="ytick_9">
     <g id="line2d_35">
      <path d="M 108 50.163017 
L 777.6 50.163017 
" clip-path="url(#p1317a29944)" style="fill: none; stroke-dasharray: 5.12,1.28,0.8,1.28; stroke-dashoffset: 0; stroke: #b0b0b0; stroke-width: 0.8"/>
     </g>
     <g id="line2d_36">
      <g>
       <use xlink:href="#m8957ab17f2" x="108" y="50.163017" style="fill: #a9a9a9; stroke: #a9a9a9; stroke-width: 0.8"/>
      </g>
     </g>
     <g id="text_18">
      <!-- 4800 -->
      <g style="fill: #a9a9a9" transform="translate(75.55 53.962235) scale(0.1 -0.1)">
       <use xlink:href="#DejaVuSans-34"/>
       <use xlink:href="#DejaVuSans-38" x="63.623047"/>
       <use xlink:href="#DejaVuSans-30" x="127.246094"/>
       <use xlink:href="#DejaVuSans-30" x="190.869141"/>
      </g>
     </g>
    </g>
   </g>
   <g id="line2d_37">
    <path d="M 138.436364 307.692629 
L 143.345455 307.31683 
L 144.163636 306.994717 
L 146.618182 306.726289 
L 152.345455 305.706263 
L 156.436364 305.330464 
L 157.254545 304.954666 
L 158.072727 304.739923 
L 158.890909 303.773583 
L 159.709091 303.236728 
L 160.527273 301.51879 
L 161.345455 301.411419 
L 162.163636 300.820878 
L 163.8 300.06928 
L 165.436364 298.888198 
L 166.254545 298.1366 
L 167.890909 297.385002 
L 168.709091 297.062889 
L 169.527273 296.472348 
L 172.8 295.130209 
L 173.618182 293.895441 
L 174.436364 293.251214 
L 176.072727 292.392245 
L 184.254545 291.264849 
L 185.072727 290.88905 
L 190.8 290.459565 
L 192.436364 290.030081 
L 194.072727 289.707968 
L 200.618182 288.848999 
L 201.436364 288.419514 
L 202.254545 288.312143 
L 203.072727 287.99003 
L 204.709091 287.721602 
L 205.527273 287.667916 
L 206.345455 287.399489 
L 209.618182 286.916319 
L 211.254545 286.486834 
L 213.709091 286.272092 
L 215.345455 286.111035 
L 216.163636 285.896293 
L 216.981818 285.842608 
L 219.436364 285.144695 
L 224.345455 284.446783 
L 225.163636 284.178355 
L 225.981818 283.104644 
L 228.436364 282.245675 
L 230.890909 281.601449 
L 231.709091 281.22565 
L 232.527273 281.171964 
L 236.618182 280.098253 
L 238.254545 279.990882 
L 239.072727 279.883511 
L 241.527273 279.185599 
L 244.8 278.434001 
L 245.618182 278.111888 
L 246.436364 278.004516 
L 247.254545 277.628718 
L 255.436364 276.447635 
L 259.527273 275.320239 
L 260.345455 274.837069 
L 263.618182 273.9781 
L 265.254545 273.065445 
L 266.072727 272.52859 
L 266.890909 272.421219 
L 267.709091 272.152791 
L 270.163636 271.723306 
L 270.981818 271.347507 
L 272.618182 271.07908 
L 274.254545 270.327482 
L 278.345455 269.361142 
L 280.8 268.770601 
L 281.618182 268.448487 
L 282.436364 268.287431 
L 283.254545 267.965317 
L 284.072727 267.857946 
L 284.890909 267.482147 
L 285.709091 267.267405 
L 287.345455 267.160034 
L 288.981818 266.623179 
L 290.618182 266.515807 
L 291.436364 266.140009 
L 294.709091 265.603153 
L 297.981818 265.334725 
L 298.8 265.173669 
L 300.436364 264.422071 
L 309.436364 260.825138 
L 310.254545 260.395654 
L 311.072727 259.536685 
L 311.890909 258.248232 
L 312.709091 257.228206 
L 313.527273 257.013464 
L 314.345455 257.013464 
L 315.981818 255.832382 
L 316.8 255.61764 
L 317.618182 255.188155 
L 318.436364 255.027098 
L 319.254545 254.329186 
L 320.072727 254.114444 
L 322.527273 252.987047 
L 323.345455 252.020707 
L 324.163636 250.839625 
L 324.981818 250.356455 
L 325.8 249.068002 
L 326.618182 248.262718 
L 327.436364 247.886919 
L 328.254545 247.672177 
L 329.890909 246.705837 
L 330.709091 246.330038 
L 333.981818 243.967874 
L 334.8 242.840477 
L 335.618182 241.015168 
L 336.436364 239.834086 
L 337.254545 239.243545 
L 338.072727 238.921432 
L 341.345455 236.237154 
L 342.981818 235.056072 
L 343.8 234.358159 
L 344.618182 233.230763 
L 345.436364 232.479165 
L 347.890909 230.814913 
L 349.527273 229.741202 
L 350.345455 229.043289 
L 351.163636 228.828547 
L 353.618182 227.593779 
L 355.254545 226.681125 
L 356.072727 226.359012 
L 357.709091 224.909501 
L 358.527273 223.943161 
L 360.163636 222.86945 
L 360.981818 222.654708 
L 361.8 222.225224 
L 362.618182 221.634683 
L 364.254545 220.775714 
L 365.072727 220.668343 
L 366.709091 219.809374 
L 367.527273 219.379889 
L 368.345455 218.574606 
L 369.163636 218.091436 
L 369.981818 217.823008 
L 370.8 217.286153 
L 374.072727 215.675586 
L 374.890909 214.977674 
L 378.163636 213.903963 
L 378.981818 213.367107 
L 379.8 213.20605 
L 381.436364 212.669195 
L 383.890909 211.75654 
L 386.345455 210.897571 
L 387.981818 210.629144 
L 389.618182 209.287005 
L 391.254545 208.535407 
L 393.709091 207.193268 
L 395.345455 206.763784 
L 396.163636 206.280614 
L 396.981818 206.065871 
L 399.436364 204.562676 
L 401.890909 204.02582 
L 404.345455 203.166851 
L 405.981818 202.254197 
L 406.8 202.146826 
L 407.618182 201.878398 
L 409.254545 201.556285 
L 411.709091 199.838347 
L 414.163636 199.301491 
L 414.981818 199.033063 
L 415.8 198.442522 
L 420.709091 196.939327 
L 421.527273 196.885641 
L 427.254545 194.952961 
L 428.072727 194.577162 
L 430.527273 194.040307 
L 432.163636 193.664508 
L 432.981818 193.288709 
L 433.8 193.127652 
L 436.254545 192.053941 
L 438.709091 190.872859 
L 439.527273 190.336003 
L 440.345455 190.121261 
L 442.8 188.886493 
L 444.436364 188.510695 
L 446.072727 187.705411 
L 447.709091 187.275927 
L 448.527273 187.168556 
L 449.345455 186.6317 
L 450.163636 186.255901 
L 450.981818 186.094844 
L 452.618182 185.450618 
L 453.436364 185.289561 
L 454.254545 184.860077 
L 457.527273 184.376907 
L 459.163636 183.625309 
L 459.981818 182.981082 
L 460.8 181.585258 
L 462.436364 181.263144 
L 463.254545 181.102088 
L 466.527273 179.491521 
L 467.345455 179.330464 
L 472.254545 177.075671 
L 473.072727 176.538816 
L 473.890909 176.216702 
L 476.345455 175.733532 
L 477.981818 174.981934 
L 478.8 174.659821 
L 479.618182 174.55245 
L 482.890909 173.156625 
L 484.527273 172.082914 
L 485.345455 171.707115 
L 486.163636 171.599744 
L 486.981818 171.331317 
L 487.8 171.277631 
L 491.072727 170.257605 
L 491.890909 170.20392 
L 492.709091 169.613379 
L 494.345455 169.076523 
L 496.8 168.324925 
L 497.618182 167.841755 
L 498.436364 167.627013 
L 499.254545 167.090158 
L 500.072727 166.768044 
L 500.890909 166.284874 
L 502.527273 165.694333 
L 503.345455 165.479591 
L 504.163636 165.103792 
L 504.981818 164.88905 
L 505.8 164.513251 
L 506.618182 163.92271 
L 507.436364 163.063741 
L 508.254545 162.526885 
L 509.072727 162.365829 
L 510.709091 161.184746 
L 511.527273 161.02369 
L 512.345455 159.842608 
L 513.163636 159.520494 
L 513.981818 158.929953 
L 514.8 158.822582 
L 515.618182 158.285726 
L 516.436364 157.909928 
L 517.254545 157.748871 
L 518.072727 157.426758 
L 518.890909 156.782531 
L 519.709091 156.514103 
L 522.163636 154.957222 
L 525.436364 153.400341 
L 526.254545 153.29297 
L 527.890909 152.595058 
L 528.709091 152.111888 
L 529.527273 150.823434 
L 530.345455 150.018151 
L 531.163636 149.588666 
L 531.981818 149.42761 
L 533.618182 148.46127 
L 534.436364 148.300213 
L 536.072727 147.548615 
L 538.527273 146.52859 
L 540.163636 145.454879 
L 541.8 143.790626 
L 543.436364 142.824286 
L 544.254545 142.341116 
L 545.072727 141.535833 
L 547.527273 139.603153 
L 548.345455 139.173669 
L 549.163636 138.3147 
L 549.981818 137.724159 
L 551.618182 137.187303 
L 552.436364 136.435705 
L 554.072727 135.630422 
L 554.890909 135.41568 
L 555.709091 134.825138 
L 556.527273 134.610396 
L 558.981818 133.375628 
L 559.8 132.785087 
L 560.618182 132.355603 
L 567.981818 129.886067 
L 568.8 129.456583 
L 569.618182 128.758671 
L 572.890909 127.577588 
L 573.709091 127.362846 
L 574.527273 126.772305 
L 576.981818 125.698594 
L 577.8 125.108053 
L 578.618182 124.678568 
L 580.254545 121.564806 
L 581.890909 119.739497 
L 582.709091 119.202642 
L 585.163636 118.182616 
L 585.981818 117.914188 
L 586.8 117.806817 
L 587.618182 117.377333 
L 590.072727 116.625735 
L 592.527273 115.659395 
L 594.163636 114.585684 
L 596.618182 113.511973 
L 600.709091 111.257179 
L 601.527273 110.451896 
L 603.163636 109.592927 
L 603.981818 109.163443 
L 604.8 108.895015 
L 605.618182 108.304474 
L 607.254545 107.552876 
L 608.072727 107.069706 
L 608.890909 106.747593 
L 609.709091 106.264423 
L 610.527273 106.04968 
L 611.345455 105.459139 
L 612.163636 105.137026 
L 612.981818 104.975969 
L 614.618182 104.331743 
L 617.072727 103.472774 
L 617.890909 102.882233 
L 619.527273 102.452748 
L 621.163636 101.862207 
L 621.981818 101.21798 
L 623.618182 100.73481 
L 624.436364 100.359012 
L 625.254545 100.144269 
L 626.890909 99.070558 
L 628.527273 98.372646 
L 630.163636 97.191564 
L 631.8 96.654708 
L 632.618182 95.956796 
L 633.436364 95.795739 
L 634.254545 95.097827 
L 635.890909 94.185173 
L 637.527273 93.540946 
L 638.345455 92.735663 
L 640.8 91.984065 
L 641.618182 91.500895 
L 642.436364 91.393524 
L 644.890909 90.212441 
L 648.163636 89.246101 
L 649.8 89.031359 
L 650.618182 88.709246 
L 651.436364 88.548189 
L 653.072727 87.903963 
L 653.890909 87.850277 
L 656.345455 87.044994 
L 657.981818 86.078654 
L 659.618182 85.004942 
L 664.527273 82.696464 
L 666.981818 81.139582 
L 668.618182 80.763784 
L 671.072727 79.421645 
L 673.527273 78.670047 
L 674.345455 78.347934 
L 675.981818 77.972135 
L 680.072727 76.683681 
L 681.709091 76.361568 
L 683.345455 75.985769 
L 684.163636 75.60997 
L 684.981818 75.502599 
L 686.618182 74.858372 
L 687.436364 74.751001 
L 688.254545 74.375202 
L 689.890909 74.053089 
L 690.709091 73.67729 
L 693.163636 73.140435 
L 694.8 72.818321 
L 702.163636 71.368811 
L 702.981818 71.046698 
L 703.8 70.993012 
L 706.254545 70.2951 
L 707.072727 69.865616 
L 708.709091 69.32876 
L 709.527273 69.275075 
L 713.618182 68.093992 
L 719.345455 66.214998 
L 720.163636 66.214998 
L 721.8 65.678142 
L 722.618182 64.872859 
L 723.436364 64.49706 
L 725.072727 64.01389 
L 728.345455 62.832808 
L 729.163636 62.56438 
L 729.981818 62.08121 
L 730.8 61.920153 
L 731.618182 61.383298 
L 734.890909 60.416958 
L 735.709091 60.14853 
L 736.527273 59.66536 
L 737.345455 59.450618 
L 738.163636 58.806391 
L 740.618182 58.376907 
L 742.254545 57.517938 
L 743.072727 56.605283 
L 744.709091 56.28317 
L 747.163636 55.8 
L 747.163636 55.8 
" clip-path="url(#p1317a29944)" style="fill: none; stroke: #1f77b4; stroke-width: 1.5; stroke-linecap: square"/>
   </g>
   <g id="line2d_38">
    <path d="M 139.254545 307.8 
L 141.709091 307.692629 
L 143.345455 307.585258 
L 149.072727 307.477887 
L 153.163636 307.31683 
L 156.436364 307.31683 
L 157.254545 307.102088 
L 159.709091 307.048402 
L 164.618182 306.511547 
L 176.890909 305.813634 
L 183.436364 305.706263 
L 187.527273 305.545207 
L 197.345455 305.437836 
L 201.436364 305.276779 
L 206.345455 305.169408 
L 209.618182 305.062037 
L 216.981818 304.954666 
L 219.436364 304.90098 
L 221.890909 304.847294 
L 224.345455 304.578867 
L 229.254545 304.525181 
L 230.890909 304.41781 
L 236.618182 304.310439 
L 245.618182 303.827269 
L 251.345455 303.719898 
L 252.981818 303.612527 
L 255.436364 303.505156 
L 260.345455 303.290413 
L 263.618182 303.236728 
L 266.072727 303.021986 
L 279.981818 302.216702 
L 282.436364 302.109331 
L 288.163636 301.840903 
L 290.618182 301.733532 
L 298.8 301.304048 
L 307.8 301.196677 
L 311.072727 300.874563 
L 312.709091 300.767192 
L 321.709091 300.122965 
L 322.527273 299.908223 
L 324.981818 299.693481 
L 326.618182 299.317682 
L 329.072727 299.263997 
L 331.527273 299.156625 
L 338.072727 298.351342 
L 342.163636 298.243971 
L 352.8 297.438688 
L 357.709091 296.901832 
L 360.163636 296.848147 
L 361.8 296.740775 
L 365.072727 296.633404 
L 366.709091 296.526033 
L 370.8 296.150234 
L 371.618182 295.935492 
L 376.527273 295.72075 
L 380.618182 295.613379 
L 392.072727 294.969152 
L 393.709091 294.861781 
L 404.345455 294.27124 
L 410.072727 294.163869 
L 410.890909 294.002812 
L 417.436364 293.895441 
L 423.163636 293.627013 
L 432.163636 293.519642 
L 437.890909 293.251214 
L 444.436364 293.143843 
L 451.8 292.768044 
L 456.709091 292.660673 
L 472.254545 291.748019 
L 478.8 291.640648 
L 482.890909 291.264849 
L 484.527273 291.103792 
L 488.618182 291.050107 
L 491.890909 290.727993 
L 500.072727 290.298509 
L 504.981818 290.191138 
L 507.436364 290.137452 
L 509.890909 290.083767 
L 512.345455 289.815339 
L 518.890909 289.707968 
L 520.527273 289.43954 
L 522.163636 289.332169 
L 525.436364 289.224798 
L 527.072727 289.224798 
L 528.709091 288.95637 
L 536.890909 288.848999 
L 538.527273 288.687942 
L 541.8 288.580571 
L 542.618182 288.365829 
L 544.254545 288.312143 
L 545.072727 288.151086 
L 547.527273 288.043715 
L 561.436364 287.238432 
L 563.890909 287.131061 
L 567.981818 286.970004 
L 579.436364 286.862633 
L 585.163636 286.594205 
L 591.709091 286.486834 
L 594.981818 286.379463 
L 598.254545 286.325778 
L 600.709091 286.111035 
L 608.072727 285.735236 
L 609.709091 285.627865 
L 612.981818 285.520494 
L 617.072727 285.413123 
L 621.163636 285.252066 
L 626.890909 285.144695 
L 630.163636 285.037324 
L 639.163636 284.929953 
L 644.072727 284.715211 
L 648.981818 284.60784 
L 651.436364 284.339412 
L 656.345455 284.285726 
L 657.163636 284.12467 
L 658.8 284.017299 
L 662.072727 283.909928 
L 671.890909 283.802556 
L 675.981818 283.6415 
L 689.890909 283.587814 
L 691.527273 283.480443 
L 693.981818 283.426758 
L 704.618182 283.319386 
L 706.254545 283.212015 
L 715.254545 283.104644 
L 718.527273 282.997273 
L 728.345455 282.943588 
L 729.981818 282.836216 
L 742.254545 282.782531 
L 744.709091 282.567789 
L 747.163636 282.567789 
L 747.163636 282.567789 
" clip-path="url(#p1317a29944)" style="fill: none; stroke: #ff7f0e; stroke-width: 1.5; stroke-linecap: square"/>
   </g>
   <g id="patch_3">
    <path d="M 108 320.4 
L 108 43.2 
" style="fill: none; stroke: #a9a9a9; stroke-width: 0.8; stroke-linejoin: miter; stroke-linecap: square"/>
   </g>
   <g id="patch_4">
    <path d="M 777.6 320.4 
L 777.6 43.2 
" style="fill: none"/>
   </g>
   <g id="patch_5">
    <path d="M 108 320.4 
L 777.6 320.4 
" style="fill: none; stroke: #a9a9a9; stroke-width: 0.8; stroke-linejoin: miter; stroke-linecap: square"/>
   </g>
   <g id="patch_6">
    <path d="M 108 43.2 
L 777.6 43.2 
" style="fill: none"/>
   </g>
   <g id="text_19">
    <!-- get_subscribe history -->
    <g style="fill: #a9a9a9" transform="translate(378.6075 37.2) scale(0.12 -0.12)">
     <defs>
      <path id="DejaVuSans-67" d="M 2906 1791 
Q 2906 2416 2648 2759 
Q 2391 3103 1925 3103 
Q 1463 3103 1205 2759 
Q 947 2416 947 1791 
Q 947 1169 1205 825 
Q 1463 481 1925 481 
Q 2391 481 2648 825 
Q 2906 1169 2906 1791 
z
M 3481 434 
Q 3481 -459 3084 -895 
Q 2688 -1331 1869 -1331 
Q 1566 -1331 1297 -1286 
Q 1028 -1241 775 -1147 
L 775 -588 
Q 1028 -725 1275 -790 
Q 1522 -856 1778 -856 
Q 2344 -856 2625 -561 
Q 2906 -266 2906 331 
L 2906 616 
Q 2728 306 2450 153 
Q 2172 0 1784 0 
Q 1141 0 747 490 
Q 353 981 353 1791 
Q 353 2603 747 3093 
Q 1141 3584 1784 3584 
Q 2172 3584 2450 3431 
Q 2728 3278 2906 2969 
L 2906 3500 
L 3481 3500 
L 3481 434 
z
" transform="scale(0.015625)"/>
      <path id="DejaVuSans-65" d="M 3597 1894 
L 3597 1613 
L 953 1613 
Q 991 1019 1311 708 
Q 1631 397 2203 397 
Q 2534 397 2845 478 
Q 3156 559 3463 722 
L 3463 178 
Q 3153 47 2828 -22 
Q 2503 -91 2169 -91 
Q 1331 -91 842 396 
Q 353 884 353 1716 
Q 353 2575 817 3079 
Q 1281 3584 2069 3584 
Q 2775 3584 3186 3129 
Q 3597 2675 3597 1894 
z
M 3022 2063 
Q 3016 2534 2758 2815 
Q 2500 3097 2075 3097 
Q 1594 3097 1305 2825 
Q 1016 2553 972 2059 
L 3022 2063 
z
" transform="scale(0.015625)"/>
      <path id="DejaVuSans-74" d="M 1172 4494 
L 1172 3500 
L 2356 3500 
L 2356 3053 
L 1172 3053 
L 1172 1153 
Q 1172 725 1289 603 
Q 1406 481 1766 481 
L 2356 481 
L 2356 0 
L 1766 0 
Q 1100 0 847 248 
Q 594 497 594 1153 
L 594 3053 
L 172 3053 
L 172 3500 
L 594 3500 
L 594 4494 
L 1172 4494 
z
" transform="scale(0.015625)"/>
      <path id="DejaVuSans-5f" d="M 3263 -1063 
L 3263 -1509 
L -63 -1509 
L -63 -1063 
L 3263 -1063 
z
" transform="scale(0.015625)"/>
      <path id="DejaVuSans-73" d="M 2834 3397 
L 2834 2853 
Q 2591 2978 2328 3040 
Q 2066 3103 1784 3103 
Q 1356 3103 1142 2972 
Q 928 2841 928 2578 
Q 928 2378 1081 2264 
Q 1234 2150 1697 2047 
L 1894 2003 
Q 2506 1872 2764 1633 
Q 3022 1394 3022 966 
Q 3022 478 2636 193 
Q 2250 -91 1575 -91 
Q 1294 -91 989 -36 
Q 684 19 347 128 
L 347 722 
Q 666 556 975 473 
Q 1284 391 1588 391 
Q 1994 391 2212 530 
Q 2431 669 2431 922 
Q 2431 1156 2273 1281 
Q 2116 1406 1581 1522 
L 1381 1569 
Q 847 1681 609 1914 
Q 372 2147 372 2553 
Q 372 3047 722 3315 
Q 1072 3584 1716 3584 
Q 2034 3584 2315 3537 
Q 2597 3491 2834 3397 
z
" transform="scale(0.015625)"/>
      <path id="DejaVuSans-75" d="M 544 1381 
L 544 3500 
L 1119 3500 
L 1119 1403 
Q 1119 906 1312 657 
Q 1506 409 1894 409 
Q 2359 409 2629 706 
Q 2900 1003 2900 1516 
L 2900 3500 
L 3475 3500 
L 3475 0 
L 2900 0 
L 2900 538 
Q 2691 219 2414 64 
Q 2138 -91 1772 -91 
Q 1169 -91 856 284 
Q 544 659 544 1381 
z
M 1991 3584 
L 1991 3584 
z
" transform="scale(0.015625)"/>
      <path id="DejaVuSans-62" d="M 3116 1747 
Q 3116 2381 2855 2742 
Q 2594 3103 2138 3103 
Q 1681 3103 1420 2742 
Q 1159 2381 1159 1747 
Q 1159 1113 1420 752 
Q 1681 391 2138 391 
Q 2594 391 2855 752 
Q 3116 1113 3116 1747 
z
M 1159 2969 
Q 1341 3281 1617 3432 
Q 1894 3584 2278 3584 
Q 2916 3584 3314 3078 
Q 3713 2572 3713 1747 
Q 3713 922 3314 415 
Q 2916 -91 2278 -91 
Q 1894 -91 1617 61 
Q 1341 213 1159 525 
L 1159 0 
L 581 0 
L 581 4863 
L 1159 4863 
L 1159 2969 
z
" transform="scale(0.015625)"/>
      <path id="DejaVuSans-63" d="M 3122 3366 
L 3122 2828 
Q 2878 2963 2633 3030 
Q 2388 3097 2138 3097 
Q 1578 3097 1268 2742 
Q 959 2388 959 1747 
Q 959 1106 1268 751 
Q 1578 397 2138 397 
Q 2388 397 2633 464 
Q 2878 531 3122 666 
L 3122 134 
Q 2881 22 2623 -34 
Q 2366 -91 2075 -91 
Q 1284 -91 818 406 
Q 353 903 353 1747 
Q 353 2603 823 3093 
Q 1294 3584 2113 3584 
Q 2378 3584 2631 3529 
Q 2884 3475 3122 3366 
z
" transform="scale(0.015625)"/>
      <path id="DejaVuSans-72" d="M 2631 2963 
Q 2534 3019 2420 3045 
Q 2306 3072 2169 3072 
Q 1681 3072 1420 2755 
Q 1159 2438 1159 1844 
L 1159 0 
L 581 0 
L 581 3500 
L 1159 3500 
L 1159 2956 
Q 1341 3275 1631 3429 
Q 1922 3584 2338 3584 
Q 2397 3584 2469 3576 
Q 2541 3569 2628 3553 
L 2631 2963 
z
" transform="scale(0.015625)"/>
      <path id="DejaVuSans-69" d="M 603 3500 
L 1178 3500 
L 1178 0 
L 603 0 
L 603 3500 
z
M 603 4863 
L 1178 4863 
L 1178 4134 
L 603 4134 
L 603 4863 
z
" transform="scale(0.015625)"/>
      <path id="DejaVuSans-20" transform="scale(0.015625)"/>
      <path id="DejaVuSans-68" d="M 3513 2113 
L 3513 0 
L 2938 0 
L 2938 2094 
Q 2938 2591 2744 2837 
Q 2550 3084 2163 3084 
Q 1697 3084 1428 2787 
Q 1159 2491 1159 1978 
L 1159 0 
L 581 0 
L 581 4863 
L 1159 4863 
L 1159 2956 
Q 1366 3272 1645 3428 
Q 1925 3584 2291 3584 
Q 2894 3584 3203 3211 
Q 3513 2838 3513 2113 
z
" transform="scale(0.015625)"/>
      <path id="DejaVuSans-6f" d="M 1959 3097 
Q 1497 3097 1228 2736 
Q 959 2375 959 1747 
Q 959 1119 1226 758 
Q 1494 397 1959 397 
Q 2419 397 2687 759 
Q 2956 1122 2956 1747 
Q 2956 2369 2687 2733 
Q 2419 3097 1959 3097 
z
M 1959 3584 
Q 2709 3584 3137 3096 
Q 3566 2609 3566 1747 
Q 3566 888 3137 398 
Q 2709 -91 1959 -91 
Q 1206 -91 779 398 
Q 353 888 353 1747 
Q 353 2609 779 3096 
Q 1206 3584 1959 3584 
z
" transform="scale(0.015625)"/>
      <path id="DejaVuSans-79" d="M 2059 -325 
Q 1816 -950 1584 -1140 
Q 1353 -1331 966 -1331 
L 506 -1331 
L 506 -850 
L 844 -850 
Q 1081 -850 1212 -737 
Q 1344 -625 1503 -206 
L 1606 56 
L 191 3500 
L 800 3500 
L 1894 763 
L 2988 3500 
L 3597 3500 
L 2059 -325 
z
" transform="scale(0.015625)"/>
     </defs>
     <use xlink:href="#DejaVuSans-67"/>
     <use xlink:href="#DejaVuSans-65" x="63.476562"/>
     <use xlink:href="#DejaVuSans-74" x="125"/>
     <use xlink:href="#DejaVuSans-5f" x="164.208984"/>
     <use xlink:href="#DejaVuSans-73" x="214.208984"/>
     <use xlink:href="#DejaVuSans-75" x="266.308594"/>
     <use xlink:href="#DejaVuSans-62" x="329.6875"/>
     <use xlink:href="#DejaVuSans-73" x="393.164062"/>
     <use xlink:href="#DejaVuSans-63" x="445.263672"/>
     <use xlink:href="#DejaVuSans-72" x="500.244141"/>
     <use xlink:href="#DejaVuSans-69" x="541.357422"/>
     <use xlink:href="#DejaVuSans-62" x="569.140625"/>
     <use xlink:href="#DejaVuSans-65" x="632.617188"/>
     <use xlink:href="#DejaVuSans-20" x="694.140625"/>
     <use xlink:href="#DejaVuSans-68" x="725.927734"/>
     <use xlink:href="#DejaVuSans-69" x="789.306641"/>
     <use xlink:href="#DejaVuSans-73" x="817.089844"/>
     <use xlink:href="#DejaVuSans-74" x="869.189453"/>
     <use xlink:href="#DejaVuSans-6f" x="908.398438"/>
     <use xlink:href="#DejaVuSans-72" x="969.580078"/>
     <use xlink:href="#DejaVuSans-79" x="1010.693359"/>
    </g>
   </g>
   <g id="legend_1">
    <g id="line2d_39">
     <path d="M 815.08 328.498438 
L 825.08 328.498438 
L 835.08 328.498438 
" style="fill: none; stroke: #1f77b4; stroke-width: 1.5; stroke-linecap: square"/>
    </g>
    <g id="text_20">
     <!-- star -->
     <g style="fill: #a9a9a9" transform="translate(843.08 331.998438) scale(0.1 -0.1)">
      <defs>
       <path id="DejaVuSans-61" d="M 2194 1759 
Q 1497 1759 1228 1600 
Q 959 1441 959 1056 
Q 959 750 1161 570 
Q 1363 391 1709 391 
Q 2188 391 2477 730 
Q 2766 1069 2766 1631 
L 2766 1759 
L 2194 1759 
z
M 3341 1997 
L 3341 0 
L 2766 0 
L 2766 531 
Q 2569 213 2275 61 
Q 1981 -91 1556 -91 
Q 1019 -91 701 211 
Q 384 513 384 1019 
Q 384 1609 779 1909 
Q 1175 2209 1959 2209 
L 2766 2209 
L 2766 2266 
Q 2766 2663 2505 2880 
Q 2244 3097 1772 3097 
Q 1472 3097 1187 3025 
Q 903 2953 641 2809 
L 641 3341 
Q 956 3463 1253 3523 
Q 1550 3584 1831 3584 
Q 2591 3584 2966 3190 
Q 3341 2797 3341 1997 
z
" transform="scale(0.015625)"/>
      </defs>
      <use xlink:href="#DejaVuSans-73"/>
      <use xlink:href="#DejaVuSans-74" x="52.099609"/>
      <use xlink:href="#DejaVuSans-61" x="91.308594"/>
      <use xlink:href="#DejaVuSans-72" x="152.587891"/>
     </g>
    </g>
    <g id="line2d_40">
     <path d="M 815.08 343.176562 
L 825.08 343.176562 
L 835.08 343.176562 
" style="fill: none; stroke: #ff7f0e; stroke-width: 1.5; stroke-linecap: square"/>
    </g>
    <g id="text_21">
     <!-- fork -->
     <g style="fill: #a9a9a9" transform="translate(843.08 346.676562) scale(0.1 -0.1)">
      <defs>
       <path id="DejaVuSans-66" d="M 2375 4863 
L 2375 4384 
L 1825 4384 
Q 1516 4384 1395 4259 
Q 1275 4134 1275 3809 
L 1275 3500 
L 2222 3500 
L 2222 3053 
L 1275 3053 
L 1275 0 
L 697 0 
L 697 3053 
L 147 3053 
L 147 3500 
L 697 3500 
L 697 3744 
Q 697 4328 969 4595 
Q 1241 4863 1831 4863 
L 2375 4863 
z
" transform="scale(0.015625)"/>
       <path id="DejaVuSans-6b" d="M 581 4863 
L 1159 4863 
L 1159 1991 
L 2875 3500 
L 3609 3500 
L 1753 1863 
L 3688 0 
L 2938 0 
L 1159 1709 
L 1159 0 
L 581 0 
L 581 4863 
z
" transform="scale(0.015625)"/>
      </defs>
      <use xlink:href="#DejaVuSans-66"/>
      <use xlink:href="#DejaVuSans-6f" x="35.205078"/>
      <use xlink:href="#DejaVuSans-72" x="96.386719"/>
      <use xlink:href="#DejaVuSans-6b" x="137.5"/>
     </g>
    </g>
   </g>
  </g>
 </g>
 <defs>
  <clipPath id="p1317a29944">
   <rect x="108" y="43.2" width="669.6" height="277.2"/>
  </clipPath>
 </defs>
</svg>
