<?xml version="1.0" encoding="utf-8" standalone="no"?>
<!DOCTYPE svg PUBLIC "-//W3C//DTD SVG 1.1//EN"
  "http://www.w3.org/Graphics/SVG/1.1/DTD/svg11.dtd">
<svg xmlns:xlink="http://www.w3.org/1999/xlink" width="864pt" height="360pt" viewBox="0 0 864 360" xmlns="http://www.w3.org/2000/svg" version="1.1">
 <metadata>
  <rdf:RDF xmlns:dc="http://purl.org/dc/elements/1.1/" xmlns:cc="http://creativecommons.org/ns#" xmlns:rdf="http://www.w3.org/1999/02/22-rdf-syntax-ns#">
   <cc:Work>
    <dc:type rdf:resource="http://purl.org/dc/dcmitype/StillImage"/>
    <dc:date>2023-08-08T08:54:57.835384</dc:date>
    <dc:format>image/svg+xml</dc:format>
    <dc:creator>
     <cc:Agent>
      <dc:title>Matplotlib v3.7.2, https://matplotlib.org/</dc:title>
     </cc:Agent>
    </dc:creator>
   </cc:Work>
  </rdf:RDF>
 </metadata>
 <defs>
  <style type="text/css">*{stroke-linejoin: round; stroke-linecap: butt}</style>
 </defs>
 <g id="figure_1">
  <g id="patch_1">
   <path d="M 0 360 
L 864 360 
L 864 0 
L 0 0 
L 0 360 
z
" style="fill: none; opacity: 0"/>
  </g>
  <g id="axes_1">
   <g id="patch_2">
    <path d="M 108 320.4 
L 777.6 320.4 
L 777.6 43.2 
L 108 43.2 
L 108 320.4 
z
" style="fill: none; opacity: 0"/>
   </g>
   <g id="matplotlib.axis_1">
    <g id="xtick_1">
     <g id="line2d_1">
      <path d="M 119.643441 320.4 
L 119.643441 43.2 
" clip-path="url(#p38dc586c57)" style="fill: none; stroke-dasharray: 5.12,1.28,0.8,1.28; stroke-dashoffset: 0; stroke: #b0b0b0; stroke-width: 0.8"/>
     </g>
     <g id="line2d_2">
      <defs>
       <path id="m1557676f2c" d="M 0 0 
L 0 3.5 
" style="stroke: #a9a9a9; stroke-width: 0.8"/>
      </defs>
      <g>
       <use xlink:href="#m1557676f2c" x="119.643441" y="320.4" style="fill: #a9a9a9; stroke: #a9a9a9; stroke-width: 0.8"/>
      </g>
     </g>
     <g id="text_1">
      <!-- 2021-07 -->
      <g style="fill: #a9a9a9" transform="translate(98.752035 334.998438) scale(0.1 -0.1)">
       <defs>
        <path id="DejaVuSans-32" d="M 1228 531 
L 3431 531 
L 3431 0 
L 469 0 
L 469 531 
Q 828 903 1448 1529 
Q 2069 2156 2228 2338 
Q 2531 2678 2651 2914 
Q 2772 3150 2772 3378 
Q 2772 3750 2511 3984 
Q 2250 4219 1831 4219 
Q 1534 4219 1204 4116 
Q 875 4013 500 3803 
L 500 4441 
Q 881 4594 1212 4672 
Q 1544 4750 1819 4750 
Q 2544 4750 2975 4387 
Q 3406 4025 3406 3419 
Q 3406 3131 3298 2873 
Q 3191 2616 2906 2266 
Q 2828 2175 2409 1742 
Q 1991 1309 1228 531 
z
" transform="scale(0.015625)"/>
        <path id="DejaVuSans-30" d="M 2034 4250 
Q 1547 4250 1301 3770 
Q 1056 3291 1056 2328 
Q 1056 1369 1301 889 
Q 1547 409 2034 409 
Q 2525 409 2770 889 
Q 3016 1369 3016 2328 
Q 3016 3291 2770 3770 
Q 2525 4250 2034 4250 
z
M 2034 4750 
Q 2819 4750 3233 4129 
Q 3647 3509 3647 2328 
Q 3647 1150 3233 529 
Q 2819 -91 2034 -91 
Q 1250 -91 836 529 
Q 422 1150 422 2328 
Q 422 3509 836 4129 
Q 1250 4750 2034 4750 
z
" transform="scale(0.015625)"/>
        <path id="DejaVuSans-31" d="M 794 531 
L 1825 531 
L 1825 4091 
L 703 3866 
L 703 4441 
L 1819 4666 
L 2450 4666 
L 2450 531 
L 3481 531 
L 3481 0 
L 794 0 
L 794 531 
z
" transform="scale(0.015625)"/>
        <path id="DejaVuSans-2d" d="M 313 2009 
L 1997 2009 
L 1997 1497 
L 313 1497 
L 313 2009 
z
" transform="scale(0.015625)"/>
        <path id="DejaVuSans-37" d="M 525 4666 
L 3525 4666 
L 3525 4397 
L 1831 0 
L 1172 0 
L 2766 4134 
L 525 4134 
L 525 4666 
z
" transform="scale(0.015625)"/>
       </defs>
       <use xlink:href="#DejaVuSans-32"/>
       <use xlink:href="#DejaVuSans-30" x="63.623047"/>
       <use xlink:href="#DejaVuSans-32" x="127.246094"/>
       <use xlink:href="#DejaVuSans-31" x="190.869141"/>
       <use xlink:href="#DejaVuSans-2d" x="254.492188"/>
       <use xlink:href="#DejaVuSans-30" x="290.576172"/>
       <use xlink:href="#DejaVuSans-37" x="354.199219"/>
      </g>
     </g>
    </g>
    <g id="xtick_2">
     <g id="line2d_3">
      <path d="M 194.815131 320.4 
L 194.815131 43.2 
" clip-path="url(#p38dc586c57)" style="fill: none; stroke-dasharray: 5.12,1.28,0.8,1.28; stroke-dashoffset: 0; stroke: #b0b0b0; stroke-width: 0.8"/>
     </g>
     <g id="line2d_4">
      <g>
       <use xlink:href="#m1557676f2c" x="194.815131" y="320.4" style="fill: #a9a9a9; stroke: #a9a9a9; stroke-width: 0.8"/>
      </g>
     </g>
     <g id="text_2">
      <!-- 2021-10 -->
      <g style="fill: #a9a9a9" transform="translate(173.923725 334.998438) scale(0.1 -0.1)">
       <use xlink:href="#DejaVuSans-32"/>
       <use xlink:href="#DejaVuSans-30" x="63.623047"/>
       <use xlink:href="#DejaVuSans-32" x="127.246094"/>
       <use xlink:href="#DejaVuSans-31" x="190.869141"/>
       <use xlink:href="#DejaVuSans-2d" x="254.492188"/>
       <use xlink:href="#DejaVuSans-31" x="290.576172"/>
       <use xlink:href="#DejaVuSans-30" x="354.199219"/>
      </g>
     </g>
    </g>
    <g id="xtick_3">
     <g id="line2d_5">
      <path d="M 269.986821 320.4 
L 269.986821 43.2 
" clip-path="url(#p38dc586c57)" style="fill: none; stroke-dasharray: 5.12,1.28,0.8,1.28; stroke-dashoffset: 0; stroke: #b0b0b0; stroke-width: 0.8"/>
     </g>
     <g id="line2d_6">
      <g>
       <use xlink:href="#m1557676f2c" x="269.986821" y="320.4" style="fill: #a9a9a9; stroke: #a9a9a9; stroke-width: 0.8"/>
      </g>
     </g>
     <g id="text_3">
      <!-- 2022-01 -->
      <g style="fill: #a9a9a9" transform="translate(249.095415 334.998438) scale(0.1 -0.1)">
       <use xlink:href="#DejaVuSans-32"/>
       <use xlink:href="#DejaVuSans-30" x="63.623047"/>
       <use xlink:href="#DejaVuSans-32" x="127.246094"/>
       <use xlink:href="#DejaVuSans-32" x="190.869141"/>
       <use xlink:href="#DejaVuSans-2d" x="254.492188"/>
       <use xlink:href="#DejaVuSans-30" x="290.576172"/>
       <use xlink:href="#DejaVuSans-31" x="354.199219"/>
      </g>
     </g>
    </g>
    <g id="xtick_4">
     <g id="line2d_7">
      <path d="M 343.524344 320.4 
L 343.524344 43.2 
" clip-path="url(#p38dc586c57)" style="fill: none; stroke-dasharray: 5.12,1.28,0.8,1.28; stroke-dashoffset: 0; stroke: #b0b0b0; stroke-width: 0.8"/>
     </g>
     <g id="line2d_8">
      <g>
       <use xlink:href="#m1557676f2c" x="343.524344" y="320.4" style="fill: #a9a9a9; stroke: #a9a9a9; stroke-width: 0.8"/>
      </g>
     </g>
     <g id="text_4">
      <!-- 2022-04 -->
      <g style="fill: #a9a9a9" transform="translate(322.632938 334.998438) scale(0.1 -0.1)">
       <defs>
        <path id="DejaVuSans-34" d="M 2419 4116 
L 825 1625 
L 2419 1625 
L 2419 4116 
z
M 2253 4666 
L 3047 4666 
L 3047 1625 
L 3713 1625 
L 3713 1100 
L 3047 1100 
L 3047 0 
L 2419 0 
L 2419 1100 
L 313 1100 
L 313 1709 
L 2253 4666 
z
" transform="scale(0.015625)"/>
       </defs>
       <use xlink:href="#DejaVuSans-32"/>
       <use xlink:href="#DejaVuSans-30" x="63.623047"/>
       <use xlink:href="#DejaVuSans-32" x="127.246094"/>
       <use xlink:href="#DejaVuSans-32" x="190.869141"/>
       <use xlink:href="#DejaVuSans-2d" x="254.492188"/>
       <use xlink:href="#DejaVuSans-30" x="290.576172"/>
       <use xlink:href="#DejaVuSans-34" x="354.199219"/>
      </g>
     </g>
    </g>
    <g id="xtick_5">
     <g id="line2d_9">
      <path d="M 417.878951 320.4 
L 417.878951 43.2 
" clip-path="url(#p38dc586c57)" style="fill: none; stroke-dasharray: 5.12,1.28,0.8,1.28; stroke-dashoffset: 0; stroke: #b0b0b0; stroke-width: 0.8"/>
     </g>
     <g id="line2d_10">
      <g>
       <use xlink:href="#m1557676f2c" x="417.878951" y="320.4" style="fill: #a9a9a9; stroke: #a9a9a9; stroke-width: 0.8"/>
      </g>
     </g>
     <g id="text_5">
      <!-- 2022-07 -->
      <g style="fill: #a9a9a9" transform="translate(396.987544 334.998438) scale(0.1 -0.1)">
       <use xlink:href="#DejaVuSans-32"/>
       <use xlink:href="#DejaVuSans-30" x="63.623047"/>
       <use xlink:href="#DejaVuSans-32" x="127.246094"/>
       <use xlink:href="#DejaVuSans-32" x="190.869141"/>
       <use xlink:href="#DejaVuSans-2d" x="254.492188"/>
       <use xlink:href="#DejaVuSans-30" x="290.576172"/>
       <use xlink:href="#DejaVuSans-37" x="354.199219"/>
      </g>
     </g>
    </g>
    <g id="xtick_6">
     <g id="line2d_11">
      <path d="M 493.050641 320.4 
L 493.050641 43.2 
" clip-path="url(#p38dc586c57)" style="fill: none; stroke-dasharray: 5.12,1.28,0.8,1.28; stroke-dashoffset: 0; stroke: #b0b0b0; stroke-width: 0.8"/>
     </g>
     <g id="line2d_12">
      <g>
       <use xlink:href="#m1557676f2c" x="493.050641" y="320.4" style="fill: #a9a9a9; stroke: #a9a9a9; stroke-width: 0.8"/>
      </g>
     </g>
     <g id="text_6">
      <!-- 2022-10 -->
      <g style="fill: #a9a9a9" transform="translate(472.159234 334.998438) scale(0.1 -0.1)">
       <use xlink:href="#DejaVuSans-32"/>
       <use xlink:href="#DejaVuSans-30" x="63.623047"/>
       <use xlink:href="#DejaVuSans-32" x="127.246094"/>
       <use xlink:href="#DejaVuSans-32" x="190.869141"/>
       <use xlink:href="#DejaVuSans-2d" x="254.492188"/>
       <use xlink:href="#DejaVuSans-31" x="290.576172"/>
       <use xlink:href="#DejaVuSans-30" x="354.199219"/>
      </g>
     </g>
    </g>
    <g id="xtick_7">
     <g id="line2d_13">
      <path d="M 568.222331 320.4 
L 568.222331 43.2 
" clip-path="url(#p38dc586c57)" style="fill: none; stroke-dasharray: 5.12,1.28,0.8,1.28; stroke-dashoffset: 0; stroke: #b0b0b0; stroke-width: 0.8"/>
     </g>
     <g id="line2d_14">
      <g>
       <use xlink:href="#m1557676f2c" x="568.222331" y="320.4" style="fill: #a9a9a9; stroke: #a9a9a9; stroke-width: 0.8"/>
      </g>
     </g>
     <g id="text_7">
      <!-- 2023-01 -->
      <g style="fill: #a9a9a9" transform="translate(547.330924 334.998438) scale(0.1 -0.1)">
       <defs>
        <path id="DejaVuSans-33" d="M 2597 2516 
Q 3050 2419 3304 2112 
Q 3559 1806 3559 1356 
Q 3559 666 3084 287 
Q 2609 -91 1734 -91 
Q 1441 -91 1130 -33 
Q 819 25 488 141 
L 488 750 
Q 750 597 1062 519 
Q 1375 441 1716 441 
Q 2309 441 2620 675 
Q 2931 909 2931 1356 
Q 2931 1769 2642 2001 
Q 2353 2234 1838 2234 
L 1294 2234 
L 1294 2753 
L 1863 2753 
Q 2328 2753 2575 2939 
Q 2822 3125 2822 3475 
Q 2822 3834 2567 4026 
Q 2313 4219 1838 4219 
Q 1578 4219 1281 4162 
Q 984 4106 628 3988 
L 628 4550 
Q 988 4650 1302 4700 
Q 1616 4750 1894 4750 
Q 2613 4750 3031 4423 
Q 3450 4097 3450 3541 
Q 3450 3153 3228 2886 
Q 3006 2619 2597 2516 
z
" transform="scale(0.015625)"/>
       </defs>
       <use xlink:href="#DejaVuSans-32"/>
       <use xlink:href="#DejaVuSans-30" x="63.623047"/>
       <use xlink:href="#DejaVuSans-32" x="127.246094"/>
       <use xlink:href="#DejaVuSans-33" x="190.869141"/>
       <use xlink:href="#DejaVuSans-2d" x="254.492188"/>
       <use xlink:href="#DejaVuSans-30" x="290.576172"/>
       <use xlink:href="#DejaVuSans-31" x="354.199219"/>
      </g>
     </g>
    </g>
    <g id="xtick_8">
     <g id="line2d_15">
      <path d="M 641.759854 320.4 
L 641.759854 43.2 
" clip-path="url(#p38dc586c57)" style="fill: none; stroke-dasharray: 5.12,1.28,0.8,1.28; stroke-dashoffset: 0; stroke: #b0b0b0; stroke-width: 0.8"/>
     </g>
     <g id="line2d_16">
      <g>
       <use xlink:href="#m1557676f2c" x="641.759854" y="320.4" style="fill: #a9a9a9; stroke: #a9a9a9; stroke-width: 0.8"/>
      </g>
     </g>
     <g id="text_8">
      <!-- 2023-04 -->
      <g style="fill: #a9a9a9" transform="translate(620.868447 334.998438) scale(0.1 -0.1)">
       <use xlink:href="#DejaVuSans-32"/>
       <use xlink:href="#DejaVuSans-30" x="63.623047"/>
       <use xlink:href="#DejaVuSans-32" x="127.246094"/>
       <use xlink:href="#DejaVuSans-33" x="190.869141"/>
       <use xlink:href="#DejaVuSans-2d" x="254.492188"/>
       <use xlink:href="#DejaVuSans-30" x="290.576172"/>
       <use xlink:href="#DejaVuSans-34" x="354.199219"/>
      </g>
     </g>
    </g>
    <g id="xtick_9">
     <g id="line2d_17">
      <path d="M 716.11446 320.4 
L 716.11446 43.2 
" clip-path="url(#p38dc586c57)" style="fill: none; stroke-dasharray: 5.12,1.28,0.8,1.28; stroke-dashoffset: 0; stroke: #b0b0b0; stroke-width: 0.8"/>
     </g>
     <g id="line2d_18">
      <g>
       <use xlink:href="#m1557676f2c" x="716.11446" y="320.4" style="fill: #a9a9a9; stroke: #a9a9a9; stroke-width: 0.8"/>
      </g>
     </g>
     <g id="text_9">
      <!-- 2023-07 -->
      <g style="fill: #a9a9a9" transform="translate(695.223054 334.998438) scale(0.1 -0.1)">
       <use xlink:href="#DejaVuSans-32"/>
       <use xlink:href="#DejaVuSans-30" x="63.623047"/>
       <use xlink:href="#DejaVuSans-32" x="127.246094"/>
       <use xlink:href="#DejaVuSans-33" x="190.869141"/>
       <use xlink:href="#DejaVuSans-2d" x="254.492188"/>
       <use xlink:href="#DejaVuSans-30" x="290.576172"/>
       <use xlink:href="#DejaVuSans-37" x="354.199219"/>
      </g>
     </g>
    </g>
   </g>
   <g id="matplotlib.axis_2">
    <g id="ytick_1">
     <g id="line2d_19">
      <path d="M 108 307.853651 
L 777.6 307.853651 
" clip-path="url(#p38dc586c57)" style="fill: none; stroke-dasharray: 5.12,1.28,0.8,1.28; stroke-dashoffset: 0; stroke: #b0b0b0; stroke-width: 0.8"/>
     </g>
     <g id="line2d_20">
      <defs>
       <path id="m37ecb95267" d="M 0 0 
L -3.5 0 
" style="stroke: #a9a9a9; stroke-width: 0.8"/>
      </defs>
      <g>
       <use xlink:href="#m37ecb95267" x="108" y="307.853651" style="fill: #a9a9a9; stroke: #a9a9a9; stroke-width: 0.8"/>
      </g>
     </g>
     <g id="text_10">
      <!-- 0 -->
      <g style="fill: #a9a9a9" transform="translate(94.6375 311.65287) scale(0.1 -0.1)">
       <use xlink:href="#DejaVuSans-30"/>
      </g>
     </g>
    </g>
    <g id="ytick_2">
     <g id="line2d_21">
      <path d="M 108 275.662891 
L 777.6 275.662891 
" clip-path="url(#p38dc586c57)" style="fill: none; stroke-dasharray: 5.12,1.28,0.8,1.28; stroke-dashoffset: 0; stroke: #b0b0b0; stroke-width: 0.8"/>
     </g>
     <g id="line2d_22">
      <g>
       <use xlink:href="#m37ecb95267" x="108" y="275.662891" style="fill: #a9a9a9; stroke: #a9a9a9; stroke-width: 0.8"/>
      </g>
     </g>
     <g id="text_11">
      <!-- 600 -->
      <g style="fill: #a9a9a9" transform="translate(81.9125 279.46211) scale(0.1 -0.1)">
       <defs>
        <path id="DejaVuSans-36" d="M 2113 2584 
Q 1688 2584 1439 2293 
Q 1191 2003 1191 1497 
Q 1191 994 1439 701 
Q 1688 409 2113 409 
Q 2538 409 2786 701 
Q 3034 994 3034 1497 
Q 3034 2003 2786 2293 
Q 2538 2584 2113 2584 
z
M 3366 4563 
L 3366 3988 
Q 3128 4100 2886 4159 
Q 2644 4219 2406 4219 
Q 1781 4219 1451 3797 
Q 1122 3375 1075 2522 
Q 1259 2794 1537 2939 
Q 1816 3084 2150 3084 
Q 2853 3084 3261 2657 
Q 3669 2231 3669 1497 
Q 3669 778 3244 343 
Q 2819 -91 2113 -91 
Q 1303 -91 875 529 
Q 447 1150 447 2328 
Q 447 3434 972 4092 
Q 1497 4750 2381 4750 
Q 2619 4750 2861 4703 
Q 3103 4656 3366 4563 
z
" transform="scale(0.015625)"/>
       </defs>
       <use xlink:href="#DejaVuSans-36"/>
       <use xlink:href="#DejaVuSans-30" x="63.623047"/>
       <use xlink:href="#DejaVuSans-30" x="127.246094"/>
      </g>
     </g>
    </g>
    <g id="ytick_3">
     <g id="line2d_23">
      <path d="M 108 243.472131 
L 777.6 243.472131 
" clip-path="url(#p38dc586c57)" style="fill: none; stroke-dasharray: 5.12,1.28,0.8,1.28; stroke-dashoffset: 0; stroke: #b0b0b0; stroke-width: 0.8"/>
     </g>
     <g id="line2d_24">
      <g>
       <use xlink:href="#m37ecb95267" x="108" y="243.472131" style="fill: #a9a9a9; stroke: #a9a9a9; stroke-width: 0.8"/>
      </g>
     </g>
     <g id="text_12">
      <!-- 1200 -->
      <g style="fill: #a9a9a9" transform="translate(75.55 247.27135) scale(0.1 -0.1)">
       <use xlink:href="#DejaVuSans-31"/>
       <use xlink:href="#DejaVuSans-32" x="63.623047"/>
       <use xlink:href="#DejaVuSans-30" x="127.246094"/>
       <use xlink:href="#DejaVuSans-30" x="190.869141"/>
      </g>
     </g>
    </g>
    <g id="ytick_4">
     <g id="line2d_25">
      <path d="M 108 211.281371 
L 777.6 211.281371 
" clip-path="url(#p38dc586c57)" style="fill: none; stroke-dasharray: 5.12,1.28,0.8,1.28; stroke-dashoffset: 0; stroke: #b0b0b0; stroke-width: 0.8"/>
     </g>
     <g id="line2d_26">
      <g>
       <use xlink:href="#m37ecb95267" x="108" y="211.281371" style="fill: #a9a9a9; stroke: #a9a9a9; stroke-width: 0.8"/>
      </g>
     </g>
     <g id="text_13">
      <!-- 1800 -->
      <g style="fill: #a9a9a9" transform="translate(75.55 215.08059) scale(0.1 -0.1)">
       <defs>
        <path id="DejaVuSans-38" d="M 2034 2216 
Q 1584 2216 1326 1975 
Q 1069 1734 1069 1313 
Q 1069 891 1326 650 
Q 1584 409 2034 409 
Q 2484 409 2743 651 
Q 3003 894 3003 1313 
Q 3003 1734 2745 1975 
Q 2488 2216 2034 2216 
z
M 1403 2484 
Q 997 2584 770 2862 
Q 544 3141 544 3541 
Q 544 4100 942 4425 
Q 1341 4750 2034 4750 
Q 2731 4750 3128 4425 
Q 3525 4100 3525 3541 
Q 3525 3141 3298 2862 
Q 3072 2584 2669 2484 
Q 3125 2378 3379 2068 
Q 3634 1759 3634 1313 
Q 3634 634 3220 271 
Q 2806 -91 2034 -91 
Q 1263 -91 848 271 
Q 434 634 434 1313 
Q 434 1759 690 2068 
Q 947 2378 1403 2484 
z
M 1172 3481 
Q 1172 3119 1398 2916 
Q 1625 2713 2034 2713 
Q 2441 2713 2670 2916 
Q 2900 3119 2900 3481 
Q 2900 3844 2670 4047 
Q 2441 4250 2034 4250 
Q 1625 4250 1398 4047 
Q 1172 3844 1172 3481 
z
" transform="scale(0.015625)"/>
       </defs>
       <use xlink:href="#DejaVuSans-31"/>
       <use xlink:href="#DejaVuSans-38" x="63.623047"/>
       <use xlink:href="#DejaVuSans-30" x="127.246094"/>
       <use xlink:href="#DejaVuSans-30" x="190.869141"/>
      </g>
     </g>
    </g>
    <g id="ytick_5">
     <g id="line2d_27">
      <path d="M 108 179.090611 
L 777.6 179.090611 
" clip-path="url(#p38dc586c57)" style="fill: none; stroke-dasharray: 5.12,1.28,0.8,1.28; stroke-dashoffset: 0; stroke: #b0b0b0; stroke-width: 0.8"/>
     </g>
     <g id="line2d_28">
      <g>
       <use xlink:href="#m37ecb95267" x="108" y="179.090611" style="fill: #a9a9a9; stroke: #a9a9a9; stroke-width: 0.8"/>
      </g>
     </g>
     <g id="text_14">
      <!-- 2400 -->
      <g style="fill: #a9a9a9" transform="translate(75.55 182.88983) scale(0.1 -0.1)">
       <use xlink:href="#DejaVuSans-32"/>
       <use xlink:href="#DejaVuSans-34" x="63.623047"/>
       <use xlink:href="#DejaVuSans-30" x="127.246094"/>
       <use xlink:href="#DejaVuSans-30" x="190.869141"/>
      </g>
     </g>
    </g>
    <g id="ytick_6">
     <g id="line2d_29">
      <path d="M 108 146.899851 
L 777.6 146.899851 
" clip-path="url(#p38dc586c57)" style="fill: none; stroke-dasharray: 5.12,1.28,0.8,1.28; stroke-dashoffset: 0; stroke: #b0b0b0; stroke-width: 0.8"/>
     </g>
     <g id="line2d_30">
      <g>
       <use xlink:href="#m37ecb95267" x="108" y="146.899851" style="fill: #a9a9a9; stroke: #a9a9a9; stroke-width: 0.8"/>
      </g>
     </g>
     <g id="text_15">
      <!-- 3000 -->
      <g style="fill: #a9a9a9" transform="translate(75.55 150.69907) scale(0.1 -0.1)">
       <use xlink:href="#DejaVuSans-33"/>
       <use xlink:href="#DejaVuSans-30" x="63.623047"/>
       <use xlink:href="#DejaVuSans-30" x="127.246094"/>
       <use xlink:href="#DejaVuSans-30" x="190.869141"/>
      </g>
     </g>
    </g>
    <g id="ytick_7">
     <g id="line2d_31">
      <path d="M 108 114.709091 
L 777.6 114.709091 
" clip-path="url(#p38dc586c57)" style="fill: none; stroke-dasharray: 5.12,1.28,0.8,1.28; stroke-dashoffset: 0; stroke: #b0b0b0; stroke-width: 0.8"/>
     </g>
     <g id="line2d_32">
      <g>
       <use xlink:href="#m37ecb95267" x="108" y="114.709091" style="fill: #a9a9a9; stroke: #a9a9a9; stroke-width: 0.8"/>
      </g>
     </g>
     <g id="text_16">
      <!-- 3600 -->
      <g style="fill: #a9a9a9" transform="translate(75.55 118.50831) scale(0.1 -0.1)">
       <use xlink:href="#DejaVuSans-33"/>
       <use xlink:href="#DejaVuSans-36" x="63.623047"/>
       <use xlink:href="#DejaVuSans-30" x="127.246094"/>
       <use xlink:href="#DejaVuSans-30" x="190.869141"/>
      </g>
     </g>
    </g>
    <g id="ytick_8">
     <g id="line2d_33">
      <path d="M 108 82.518331 
L 777.6 82.518331 
" clip-path="url(#p38dc586c57)" style="fill: none; stroke-dasharray: 5.12,1.28,0.8,1.28; stroke-dashoffset: 0; stroke: #b0b0b0; stroke-width: 0.8"/>
     </g>
     <g id="line2d_34">
      <g>
       <use xlink:href="#m37ecb95267" x="108" y="82.518331" style="fill: #a9a9a9; stroke: #a9a9a9; stroke-width: 0.8"/>
      </g>
     </g>
     <g id="text_17">
      <!-- 4200 -->
      <g style="fill: #a9a9a9" transform="translate(75.55 86.31755) scale(0.1 -0.1)">
       <use xlink:href="#DejaVuSans-34"/>
       <use xlink:href="#DejaVuSans-32" x="63.623047"/>
       <use xlink:href="#DejaVuSans-30" x="127.246094"/>
       <use xlink:href="#DejaVuSans-30" x="190.869141"/>
      </g>
     </g>
    </g>
    <g id="ytick_9">
     <g id="line2d_35">
      <path d="M 108 50.327571 
L 777.6 50.327571 
" clip-path="url(#p38dc586c57)" style="fill: none; stroke-dasharray: 5.12,1.28,0.8,1.28; stroke-dashoffset: 0; stroke: #b0b0b0; stroke-width: 0.8"/>
     </g>
     <g id="line2d_36">
      <g>
       <use xlink:href="#m37ecb95267" x="108" y="50.327571" style="fill: #a9a9a9; stroke: #a9a9a9; stroke-width: 0.8"/>
      </g>
     </g>
     <g id="text_18">
      <!-- 4800 -->
      <g style="fill: #a9a9a9" transform="translate(75.55 54.12679) scale(0.1 -0.1)">
       <use xlink:href="#DejaVuSans-34"/>
       <use xlink:href="#DejaVuSans-38" x="63.623047"/>
       <use xlink:href="#DejaVuSans-30" x="127.246094"/>
       <use xlink:href="#DejaVuSans-30" x="190.869141"/>
      </g>
     </g>
    </g>
   </g>
   <g id="line2d_37">
    <path d="M 138.436364 307.692697 
L 143.338865 307.317139 
L 144.155949 306.995231 
L 146.6072 306.726975 
L 152.326785 305.707601 
L 156.412203 305.332042 
L 157.229286 304.956483 
L 158.04637 304.741878 
L 158.863453 303.776155 
L 159.680537 303.239642 
L 160.497621 301.522802 
L 161.314704 301.415499 
L 162.131788 300.825335 
L 163.765955 300.074218 
L 165.400122 298.89389 
L 166.217206 298.142772 
L 167.851373 297.391654 
L 168.668456 297.069747 
L 169.48554 296.479583 
L 172.753874 295.138301 
L 173.570958 293.904322 
L 174.388041 293.260507 
L 176.022209 292.402086 
L 184.193045 291.27541 
L 185.010128 290.899851 
L 190.729713 290.470641 
L 192.36388 290.041431 
L 193.998048 289.719523 
L 200.534716 288.861103 
L 201.3518 288.431893 
L 202.168883 288.32459 
L 202.985967 288.002683 
L 204.620134 287.734426 
L 205.437218 287.680775 
L 206.254301 287.412519 
L 209.522636 286.929657 
L 211.156803 286.500447 
L 213.608054 286.285842 
L 215.242221 286.124888 
L 216.059304 285.910283 
L 216.876388 285.856632 
L 219.327639 285.159165 
L 224.23014 284.461699 
L 225.047224 284.193443 
L 225.864308 283.120417 
L 228.315558 282.261997 
L 230.766809 281.618182 
L 231.583893 281.242623 
L 232.400976 281.188972 
L 236.486394 280.115946 
L 238.120561 280.008644 
L 238.937645 279.901341 
L 241.388896 279.203875 
L 244.65723 278.452757 
L 245.474314 278.130849 
L 246.291397 278.023547 
L 247.108481 277.647988 
L 255.279317 276.46766 
L 259.364735 275.340984 
L 260.181818 274.858122 
L 263.450153 273.999702 
L 265.08432 273.08763 
L 265.901403 272.551118 
L 266.718487 272.443815 
L 267.53557 272.175559 
L 269.986821 271.746349 
L 270.803905 271.37079 
L 272.438072 271.102534 
L 274.072239 270.351416 
L 278.157657 269.385693 
L 280.608908 268.795529 
L 281.425991 268.473621 
L 282.243075 268.312668 
L 283.060159 267.99076 
L 283.877242 267.883458 
L 284.694326 267.507899 
L 285.511409 267.293294 
L 287.145577 267.185991 
L 288.779744 266.649478 
L 290.413911 266.542176 
L 291.230995 266.166617 
L 294.499329 265.630104 
L 297.767663 265.361848 
L 298.584747 265.200894 
L 300.218914 264.449776 
L 309.206833 260.855142 
L 310.023917 260.425931 
L 310.841001 259.567511 
L 311.658084 258.279881 
L 312.475168 257.260507 
L 313.292251 257.045902 
L 314.109335 257.045902 
L 315.743502 255.865574 
L 316.560586 255.650969 
L 317.377669 255.221759 
L 318.194753 255.060805 
L 319.011836 254.363338 
L 319.82892 254.148733 
L 322.280171 253.022057 
L 323.097254 252.056334 
L 323.914338 250.876006 
L 324.731422 250.393145 
L 325.548505 249.105514 
L 326.365589 248.300745 
L 327.182672 247.925186 
L 327.999756 247.710581 
L 329.633923 246.744858 
L 330.451007 246.3693 
L 333.719341 244.008644 
L 334.536425 242.881967 
L 335.353508 241.057824 
L 336.170592 239.877496 
L 336.987675 239.287332 
L 337.804759 238.965425 
L 341.073093 236.282861 
L 342.707261 235.102534 
L 343.524344 234.405067 
L 344.341428 233.27839 
L 345.158511 232.527273 
L 347.609762 230.864083 
L 349.243929 229.791058 
L 350.061013 229.093592 
L 350.878096 228.878987 
L 353.329347 227.645007 
L 354.963514 226.732936 
L 355.780598 226.411028 
L 357.414765 224.962444 
L 358.231849 223.996721 
L 359.866016 222.923696 
L 360.683099 222.709091 
L 361.500183 222.279881 
L 362.317267 221.689717 
L 363.951434 220.831297 
L 364.768517 220.723994 
L 366.402685 219.865574 
L 367.219768 219.436364 
L 368.036852 218.631595 
L 368.853935 218.148733 
L 369.671019 217.880477 
L 370.488103 217.343964 
L 373.756437 215.734426 
L 374.57352 215.03696 
L 377.841855 213.963934 
L 378.658938 213.427422 
L 379.476022 213.266468 
L 381.110189 212.729955 
L 383.56144 211.817884 
L 386.012691 210.959463 
L 387.646858 210.691207 
L 389.281025 209.349925 
L 390.915192 208.598808 
L 393.366443 207.257526 
L 395.00061 206.828316 
L 395.817694 206.345455 
L 396.634777 206.130849 
L 399.086028 204.628614 
L 401.537279 204.092101 
L 403.98853 203.233681 
L 405.622697 202.32161 
L 406.43978 202.214307 
L 407.256864 201.946051 
L 408.891031 201.624143 
L 411.342282 199.907303 
L 413.793533 199.37079 
L 414.610616 199.102534 
L 415.4277 198.51237 
L 420.330201 197.010134 
L 421.147285 196.956483 
L 426.86687 195.025037 
L 427.683954 194.649478 
L 430.135204 194.112966 
L 431.769372 193.737407 
L 432.586455 193.361848 
L 433.403539 193.200894 
L 435.85479 192.127869 
L 438.30604 190.947541 
L 439.123124 190.411028 
L 439.940207 190.196423 
L 442.391458 188.962444 
L 444.025625 188.586885 
L 445.659793 187.782116 
L 447.29396 187.352906 
L 448.111043 187.245604 
L 448.928127 186.709091 
L 449.74521 186.333532 
L 450.562294 186.172578 
L 452.196461 185.528763 
L 453.013545 185.367809 
L 453.830628 184.938599 
L 457.098963 184.455738 
L 458.73313 183.70462 
L 459.550214 183.060805 
L 460.367297 181.665872 
L 462.001464 181.343964 
L 462.818548 181.18301 
L 466.086882 179.573472 
L 466.903966 179.412519 
L 471.806467 177.159165 
L 472.623551 176.622653 
L 473.440635 176.300745 
L 475.891885 175.817884 
L 477.526052 175.066766 
L 478.343136 174.744858 
L 479.16022 174.637556 
L 482.428554 173.242623 
L 484.062721 172.169598 
L 484.879805 171.794039 
L 485.696888 171.686736 
L 486.513972 171.41848 
L 487.331056 171.364829 
L 490.59939 170.345455 
L 491.416473 170.291803 
L 492.233557 169.701639 
L 493.867724 169.165127 
L 496.318975 168.414009 
L 497.136059 167.931148 
L 497.953142 167.716542 
L 498.770226 167.18003 
L 499.587309 166.858122 
L 500.404393 166.375261 
L 502.03856 165.785097 
L 502.855644 165.570492 
L 503.672727 165.194933 
L 504.489811 164.980328 
L 505.306894 164.604769 
L 506.123978 164.014605 
L 506.941062 163.156185 
L 507.758145 162.619672 
L 508.575229 162.458718 
L 510.209396 161.27839 
L 511.02648 161.117437 
L 511.843563 159.937109 
L 512.660647 159.615201 
L 513.47773 159.025037 
L 514.294814 158.917735 
L 515.111897 158.381222 
L 515.928981 158.005663 
L 516.746065 157.844709 
L 517.563148 157.522802 
L 518.380232 156.878987 
L 519.197315 156.61073 
L 521.648566 155.054844 
L 524.916901 153.498957 
L 525.733984 153.391654 
L 527.368151 152.694188 
L 528.185235 152.211326 
L 529.002318 150.923696 
L 529.819402 150.118927 
L 530.636486 149.689717 
L 531.453569 149.528763 
L 533.087736 148.56304 
L 533.90482 148.402086 
L 535.538987 147.650969 
L 537.990238 146.631595 
L 539.624405 145.558569 
L 541.258572 143.89538 
L 542.892739 142.929657 
L 543.709823 142.446796 
L 544.526907 141.642027 
L 546.978157 139.710581 
L 547.795241 139.281371 
L 548.612325 138.422951 
L 549.429408 137.832787 
L 551.063575 137.296274 
L 551.880659 136.545156 
L 553.514826 135.740387 
L 554.33191 135.525782 
L 555.148993 134.935618 
L 555.966077 134.721013 
L 558.417328 133.487034 
L 559.234411 132.89687 
L 560.051495 132.46766 
L 567.405247 129.999702 
L 568.222331 129.570492 
L 569.039414 128.873025 
L 572.307749 127.692697 
L 573.124832 127.478092 
L 573.941916 126.887928 
L 576.393167 125.814903 
L 577.21025 125.224739 
L 578.027334 124.795529 
L 579.661501 121.683756 
L 581.295668 119.859613 
L 582.112752 119.3231 
L 584.564002 118.303726 
L 585.381086 118.035469 
L 586.19817 117.928167 
L 587.015253 117.498957 
L 589.466504 116.747839 
L 591.917755 115.782116 
L 593.551922 114.709091 
L 596.003173 113.636066 
L 600.088591 111.382712 
L 600.905674 110.577943 
L 602.539841 109.719523 
L 603.356925 109.290313 
L 604.174009 109.022057 
L 604.991092 108.431893 
L 606.625259 107.680775 
L 607.442343 107.197914 
L 608.259426 106.876006 
L 609.07651 106.393145 
L 609.893594 106.178539 
L 610.710677 105.588376 
L 611.527761 105.266468 
L 612.344844 105.105514 
L 613.979012 104.461699 
L 616.430262 103.603279 
L 617.247346 103.013115 
L 618.881513 102.583905 
L 620.51568 101.993741 
L 621.332764 101.349925 
L 622.966931 100.867064 
L 623.784015 100.491505 
L 624.601098 100.2769 
L 626.235265 99.203875 
L 627.869433 98.506408 
L 629.5036 97.32608 
L 631.137767 96.789568 
L 631.954851 96.092101 
L 632.771934 95.931148 
L 633.589018 95.233681 
L 635.223185 94.32161 
L 636.857352 93.677794 
L 637.674436 92.873025 
L 640.125686 92.121908 
L 640.94277 91.639046 
L 641.759854 91.531744 
L 644.211104 90.351416 
L 647.479439 89.385693 
L 649.113606 89.171088 
L 649.930689 88.84918 
L 650.747773 88.688227 
L 652.38194 88.044411 
L 653.199024 87.99076 
L 655.650275 87.185991 
L 657.284442 86.220268 
L 658.918609 85.147243 
L 663.82111 82.840238 
L 666.272361 81.284352 
L 667.906528 80.908793 
L 670.357779 79.567511 
L 672.80903 78.816393 
L 673.626113 78.494486 
L 675.260281 78.118927 
L 679.345699 76.831297 
L 680.979866 76.509389 
L 682.614033 76.13383 
L 683.431117 75.758271 
L 684.2482 75.650969 
L 685.882367 75.007154 
L 686.699451 74.899851 
L 687.516534 74.524292 
L 689.150702 74.202385 
L 689.967785 73.826826 
L 692.419036 73.290313 
L 694.053203 72.968405 
L 701.406955 71.519821 
L 702.224039 71.197914 
L 703.041123 71.144262 
L 705.492373 70.446796 
L 706.309457 70.017586 
L 707.943624 69.481073 
L 708.760708 69.427422 
L 712.846126 68.247094 
L 718.565711 66.3693 
L 719.382794 66.3693 
L 721.016962 65.832787 
L 721.834045 65.028018 
L 722.651129 64.652459 
L 724.285296 64.169598 
L 727.55363 62.98927 
L 728.370714 62.721013 
L 729.187797 62.238152 
L 730.004881 62.077198 
L 730.821965 61.540686 
L 734.090299 60.574963 
L 734.907383 60.306706 
L 735.724466 59.823845 
L 736.54155 59.60924 
L 737.358633 58.965425 
L 739.809884 58.536215 
L 741.444051 57.677794 
L 742.261135 56.765723 
L 743.895302 56.443815 
L 745.529469 56.068256 
L 746.346553 55.8 
L 747.163636 55.8 
L 747.163636 55.8 
" clip-path="url(#p38dc586c57)" style="fill: none; stroke: #1f77b4; stroke-width: 1.5; stroke-linecap: square"/>
   </g>
   <g id="line2d_38">
    <path d="M 139.253447 307.8 
L 141.704698 307.692697 
L 143.338865 307.585395 
L 149.05845 307.478092 
L 153.143868 307.317139 
L 156.412203 307.317139 
L 157.229286 307.102534 
L 159.680537 307.048882 
L 164.583038 306.51237 
L 176.839292 305.814903 
L 183.375961 305.707601 
L 187.461379 305.546647 
L 197.266382 305.439344 
L 201.3518 305.27839 
L 206.254301 305.171088 
L 209.522636 305.063785 
L 216.876388 304.956483 
L 219.327639 304.902832 
L 221.77889 304.84918 
L 224.23014 304.580924 
L 229.132642 304.527273 
L 230.766809 304.41997 
L 236.486394 304.312668 
L 245.474314 303.829806 
L 251.193899 303.722504 
L 252.828066 303.615201 
L 255.279317 303.507899 
L 260.181818 303.293294 
L 263.450153 303.239642 
L 265.901403 303.025037 
L 279.791824 302.220268 
L 282.243075 302.112966 
L 287.96266 301.844709 
L 290.413911 301.737407 
L 298.584747 301.308197 
L 307.572666 301.200894 
L 310.841001 300.878987 
L 312.475168 300.771684 
L 321.463087 300.127869 
L 322.280171 299.913264 
L 324.731422 299.698659 
L 326.365589 299.3231 
L 328.81684 299.269449 
L 331.26809 299.162146 
L 337.804759 298.357377 
L 341.890177 298.250075 
L 352.512264 297.445306 
L 357.414765 296.908793 
L 359.866016 296.855142 
L 361.500183 296.747839 
L 364.768517 296.640537 
L 366.402685 296.533234 
L 370.488103 296.157675 
L 371.305186 295.94307 
L 376.207688 295.728465 
L 380.293106 295.621162 
L 391.732276 294.977347 
L 393.366443 294.870045 
L 403.98853 294.279881 
L 409.708115 294.172578 
L 410.525198 294.011624 
L 417.061867 293.904322 
L 422.781452 293.636066 
L 431.769372 293.528763 
L 437.488957 293.260507 
L 444.025625 293.153204 
L 451.379378 292.777645 
L 456.281879 292.670343 
L 471.806467 291.758271 
L 478.343136 291.650969 
L 482.428554 291.27541 
L 484.062721 291.114456 
L 488.148139 291.060805 
L 491.416473 290.738897 
L 499.587309 290.309687 
L 504.489811 290.202385 
L 506.941062 290.148733 
L 509.392312 290.095082 
L 511.843563 289.826826 
L 518.380232 289.719523 
L 520.014399 289.451267 
L 521.648566 289.343964 
L 524.916901 289.236662 
L 526.551068 289.236662 
L 528.185235 288.968405 
L 536.356071 288.861103 
L 537.990238 288.700149 
L 541.258572 288.592846 
L 542.075656 288.378241 
L 543.709823 288.32459 
L 544.526907 288.163636 
L 546.978157 288.056334 
L 560.868578 287.251565 
L 563.319829 287.144262 
L 567.405247 286.983308 
L 578.844417 286.876006 
L 584.564002 286.60775 
L 591.100671 286.500447 
L 594.369005 286.393145 
L 597.63734 286.339493 
L 600.088591 286.124888 
L 607.442343 285.749329 
L 609.07651 285.642027 
L 612.344844 285.534724 
L 616.430262 285.427422 
L 620.51568 285.266468 
L 626.235265 285.159165 
L 629.5036 285.051863 
L 638.491519 284.94456 
L 643.394021 284.729955 
L 648.296522 284.622653 
L 650.747773 284.354396 
L 655.650275 284.300745 
L 656.467358 284.139791 
L 658.101525 284.032489 
L 661.36986 283.925186 
L 671.174863 283.817884 
L 675.260281 283.65693 
L 689.150702 283.603279 
L 690.784869 283.495976 
L 693.23612 283.442325 
L 703.858206 283.335022 
L 705.492373 283.22772 
L 714.480293 283.120417 
L 717.748627 283.013115 
L 727.55363 282.959463 
L 729.187797 282.852161 
L 741.444051 282.79851 
L 743.895302 282.583905 
L 747.163636 282.583905 
L 747.163636 282.583905 
" clip-path="url(#p38dc586c57)" style="fill: none; stroke: #ff7f0e; stroke-width: 1.5; stroke-linecap: square"/>
   </g>
   <g id="patch_3">
    <path d="M 108 320.4 
L 108 43.2 
" style="fill: none; stroke: #a9a9a9; stroke-width: 0.8; stroke-linejoin: miter; stroke-linecap: square"/>
   </g>
   <g id="patch_4">
    <path d="M 777.6 320.4 
L 777.6 43.2 
" style="fill: none"/>
   </g>
   <g id="patch_5">
    <path d="M 108 320.4 
L 777.6 320.4 
" style="fill: none; stroke: #a9a9a9; stroke-width: 0.8; stroke-linejoin: miter; stroke-linecap: square"/>
   </g>
   <g id="patch_6">
    <path d="M 108 43.2 
L 777.6 43.2 
" style="fill: none"/>
   </g>
   <g id="text_19">
    <!-- get_subscribe history -->
    <g style="fill: #a9a9a9" transform="translate(378.6075 37.2) scale(0.12 -0.12)">
     <defs>
      <path id="DejaVuSans-67" d="M 2906 1791 
Q 2906 2416 2648 2759 
Q 2391 3103 1925 3103 
Q 1463 3103 1205 2759 
Q 947 2416 947 1791 
Q 947 1169 1205 825 
Q 1463 481 1925 481 
Q 2391 481 2648 825 
Q 2906 1169 2906 1791 
z
M 3481 434 
Q 3481 -459 3084 -895 
Q 2688 -1331 1869 -1331 
Q 1566 -1331 1297 -1286 
Q 1028 -1241 775 -1147 
L 775 -588 
Q 1028 -725 1275 -790 
Q 1522 -856 1778 -856 
Q 2344 -856 2625 -561 
Q 2906 -266 2906 331 
L 2906 616 
Q 2728 306 2450 153 
Q 2172 0 1784 0 
Q 1141 0 747 490 
Q 353 981 353 1791 
Q 353 2603 747 3093 
Q 1141 3584 1784 3584 
Q 2172 3584 2450 3431 
Q 2728 3278 2906 2969 
L 2906 3500 
L 3481 3500 
L 3481 434 
z
" transform="scale(0.015625)"/>
      <path id="DejaVuSans-65" d="M 3597 1894 
L 3597 1613 
L 953 1613 
Q 991 1019 1311 708 
Q 1631 397 2203 397 
Q 2534 397 2845 478 
Q 3156 559 3463 722 
L 3463 178 
Q 3153 47 2828 -22 
Q 2503 -91 2169 -91 
Q 1331 -91 842 396 
Q 353 884 353 1716 
Q 353 2575 817 3079 
Q 1281 3584 2069 3584 
Q 2775 3584 3186 3129 
Q 3597 2675 3597 1894 
z
M 3022 2063 
Q 3016 2534 2758 2815 
Q 2500 3097 2075 3097 
Q 1594 3097 1305 2825 
Q 1016 2553 972 2059 
L 3022 2063 
z
" transform="scale(0.015625)"/>
      <path id="DejaVuSans-74" d="M 1172 4494 
L 1172 3500 
L 2356 3500 
L 2356 3053 
L 1172 3053 
L 1172 1153 
Q 1172 725 1289 603 
Q 1406 481 1766 481 
L 2356 481 
L 2356 0 
L 1766 0 
Q 1100 0 847 248 
Q 594 497 594 1153 
L 594 3053 
L 172 3053 
L 172 3500 
L 594 3500 
L 594 4494 
L 1172 4494 
z
" transform="scale(0.015625)"/>
      <path id="DejaVuSans-5f" d="M 3263 -1063 
L 3263 -1509 
L -63 -1509 
L -63 -1063 
L 3263 -1063 
z
" transform="scale(0.015625)"/>
      <path id="DejaVuSans-73" d="M 2834 3397 
L 2834 2853 
Q 2591 2978 2328 3040 
Q 2066 3103 1784 3103 
Q 1356 3103 1142 2972 
Q 928 2841 928 2578 
Q 928 2378 1081 2264 
Q 1234 2150 1697 2047 
L 1894 2003 
Q 2506 1872 2764 1633 
Q 3022 1394 3022 966 
Q 3022 478 2636 193 
Q 2250 -91 1575 -91 
Q 1294 -91 989 -36 
Q 684 19 347 128 
L 347 722 
Q 666 556 975 473 
Q 1284 391 1588 391 
Q 1994 391 2212 530 
Q 2431 669 2431 922 
Q 2431 1156 2273 1281 
Q 2116 1406 1581 1522 
L 1381 1569 
Q 847 1681 609 1914 
Q 372 2147 372 2553 
Q 372 3047 722 3315 
Q 1072 3584 1716 3584 
Q 2034 3584 2315 3537 
Q 2597 3491 2834 3397 
z
" transform="scale(0.015625)"/>
      <path id="DejaVuSans-75" d="M 544 1381 
L 544 3500 
L 1119 3500 
L 1119 1403 
Q 1119 906 1312 657 
Q 1506 409 1894 409 
Q 2359 409 2629 706 
Q 2900 1003 2900 1516 
L 2900 3500 
L 3475 3500 
L 3475 0 
L 2900 0 
L 2900 538 
Q 2691 219 2414 64 
Q 2138 -91 1772 -91 
Q 1169 -91 856 284 
Q 544 659 544 1381 
z
M 1991 3584 
L 1991 3584 
z
" transform="scale(0.015625)"/>
      <path id="DejaVuSans-62" d="M 3116 1747 
Q 3116 2381 2855 2742 
Q 2594 3103 2138 3103 
Q 1681 3103 1420 2742 
Q 1159 2381 1159 1747 
Q 1159 1113 1420 752 
Q 1681 391 2138 391 
Q 2594 391 2855 752 
Q 3116 1113 3116 1747 
z
M 1159 2969 
Q 1341 3281 1617 3432 
Q 1894 3584 2278 3584 
Q 2916 3584 3314 3078 
Q 3713 2572 3713 1747 
Q 3713 922 3314 415 
Q 2916 -91 2278 -91 
Q 1894 -91 1617 61 
Q 1341 213 1159 525 
L 1159 0 
L 581 0 
L 581 4863 
L 1159 4863 
L 1159 2969 
z
" transform="scale(0.015625)"/>
      <path id="DejaVuSans-63" d="M 3122 3366 
L 3122 2828 
Q 2878 2963 2633 3030 
Q 2388 3097 2138 3097 
Q 1578 3097 1268 2742 
Q 959 2388 959 1747 
Q 959 1106 1268 751 
Q 1578 397 2138 397 
Q 2388 397 2633 464 
Q 2878 531 3122 666 
L 3122 134 
Q 2881 22 2623 -34 
Q 2366 -91 2075 -91 
Q 1284 -91 818 406 
Q 353 903 353 1747 
Q 353 2603 823 3093 
Q 1294 3584 2113 3584 
Q 2378 3584 2631 3529 
Q 2884 3475 3122 3366 
z
" transform="scale(0.015625)"/>
      <path id="DejaVuSans-72" d="M 2631 2963 
Q 2534 3019 2420 3045 
Q 2306 3072 2169 3072 
Q 1681 3072 1420 2755 
Q 1159 2438 1159 1844 
L 1159 0 
L 581 0 
L 581 3500 
L 1159 3500 
L 1159 2956 
Q 1341 3275 1631 3429 
Q 1922 3584 2338 3584 
Q 2397 3584 2469 3576 
Q 2541 3569 2628 3553 
L 2631 2963 
z
" transform="scale(0.015625)"/>
      <path id="DejaVuSans-69" d="M 603 3500 
L 1178 3500 
L 1178 0 
L 603 0 
L 603 3500 
z
M 603 4863 
L 1178 4863 
L 1178 4134 
L 603 4134 
L 603 4863 
z
" transform="scale(0.015625)"/>
      <path id="DejaVuSans-20" transform="scale(0.015625)"/>
      <path id="DejaVuSans-68" d="M 3513 2113 
L 3513 0 
L 2938 0 
L 2938 2094 
Q 2938 2591 2744 2837 
Q 2550 3084 2163 3084 
Q 1697 3084 1428 2787 
Q 1159 2491 1159 1978 
L 1159 0 
L 581 0 
L 581 4863 
L 1159 4863 
L 1159 2956 
Q 1366 3272 1645 3428 
Q 1925 3584 2291 3584 
Q 2894 3584 3203 3211 
Q 3513 2838 3513 2113 
z
" transform="scale(0.015625)"/>
      <path id="DejaVuSans-6f" d="M 1959 3097 
Q 1497 3097 1228 2736 
Q 959 2375 959 1747 
Q 959 1119 1226 758 
Q 1494 397 1959 397 
Q 2419 397 2687 759 
Q 2956 1122 2956 1747 
Q 2956 2369 2687 2733 
Q 2419 3097 1959 3097 
z
M 1959 3584 
Q 2709 3584 3137 3096 
Q 3566 2609 3566 1747 
Q 3566 888 3137 398 
Q 2709 -91 1959 -91 
Q 1206 -91 779 398 
Q 353 888 353 1747 
Q 353 2609 779 3096 
Q 1206 3584 1959 3584 
z
" transform="scale(0.015625)"/>
      <path id="DejaVuSans-79" d="M 2059 -325 
Q 1816 -950 1584 -1140 
Q 1353 -1331 966 -1331 
L 506 -1331 
L 506 -850 
L 844 -850 
Q 1081 -850 1212 -737 
Q 1344 -625 1503 -206 
L 1606 56 
L 191 3500 
L 800 3500 
L 1894 763 
L 2988 3500 
L 3597 3500 
L 2059 -325 
z
" transform="scale(0.015625)"/>
     </defs>
     <use xlink:href="#DejaVuSans-67"/>
     <use xlink:href="#DejaVuSans-65" x="63.476562"/>
     <use xlink:href="#DejaVuSans-74" x="125"/>
     <use xlink:href="#DejaVuSans-5f" x="164.208984"/>
     <use xlink:href="#DejaVuSans-73" x="214.208984"/>
     <use xlink:href="#DejaVuSans-75" x="266.308594"/>
     <use xlink:href="#DejaVuSans-62" x="329.6875"/>
     <use xlink:href="#DejaVuSans-73" x="393.164062"/>
     <use xlink:href="#DejaVuSans-63" x="445.263672"/>
     <use xlink:href="#DejaVuSans-72" x="500.244141"/>
     <use xlink:href="#DejaVuSans-69" x="541.357422"/>
     <use xlink:href="#DejaVuSans-62" x="569.140625"/>
     <use xlink:href="#DejaVuSans-65" x="632.617188"/>
     <use xlink:href="#DejaVuSans-20" x="694.140625"/>
     <use xlink:href="#DejaVuSans-68" x="725.927734"/>
     <use xlink:href="#DejaVuSans-69" x="789.306641"/>
     <use xlink:href="#DejaVuSans-73" x="817.089844"/>
     <use xlink:href="#DejaVuSans-74" x="869.189453"/>
     <use xlink:href="#DejaVuSans-6f" x="908.398438"/>
     <use xlink:href="#DejaVuSans-72" x="969.580078"/>
     <use xlink:href="#DejaVuSans-79" x="1010.693359"/>
    </g>
   </g>
   <g id="legend_1">
    <g id="line2d_39">
     <path d="M 815.08 328.498438 
L 825.08 328.498438 
L 835.08 328.498438 
" style="fill: none; stroke: #1f77b4; stroke-width: 1.5; stroke-linecap: square"/>
    </g>
    <g id="text_20">
     <!-- star -->
     <g style="fill: #a9a9a9" transform="translate(843.08 331.998438) scale(0.1 -0.1)">
      <defs>
       <path id="DejaVuSans-61" d="M 2194 1759 
Q 1497 1759 1228 1600 
Q 959 1441 959 1056 
Q 959 750 1161 570 
Q 1363 391 1709 391 
Q 2188 391 2477 730 
Q 2766 1069 2766 1631 
L 2766 1759 
L 2194 1759 
z
M 3341 1997 
L 3341 0 
L 2766 0 
L 2766 531 
Q 2569 213 2275 61 
Q 1981 -91 1556 -91 
Q 1019 -91 701 211 
Q 384 513 384 1019 
Q 384 1609 779 1909 
Q 1175 2209 1959 2209 
L 2766 2209 
L 2766 2266 
Q 2766 2663 2505 2880 
Q 2244 3097 1772 3097 
Q 1472 3097 1187 3025 
Q 903 2953 641 2809 
L 641 3341 
Q 956 3463 1253 3523 
Q 1550 3584 1831 3584 
Q 2591 3584 2966 3190 
Q 3341 2797 3341 1997 
z
" transform="scale(0.015625)"/>
      </defs>
      <use xlink:href="#DejaVuSans-73"/>
      <use xlink:href="#DejaVuSans-74" x="52.099609"/>
      <use xlink:href="#DejaVuSans-61" x="91.308594"/>
      <use xlink:href="#DejaVuSans-72" x="152.587891"/>
     </g>
    </g>
    <g id="line2d_40">
     <path d="M 815.08 343.176562 
L 825.08 343.176562 
L 835.08 343.176562 
" style="fill: none; stroke: #ff7f0e; stroke-width: 1.5; stroke-linecap: square"/>
    </g>
    <g id="text_21">
     <!-- fork -->
     <g style="fill: #a9a9a9" transform="translate(843.08 346.676562) scale(0.1 -0.1)">
      <defs>
       <path id="DejaVuSans-66" d="M 2375 4863 
L 2375 4384 
L 1825 4384 
Q 1516 4384 1395 4259 
Q 1275 4134 1275 3809 
L 1275 3500 
L 2222 3500 
L 2222 3053 
L 1275 3053 
L 1275 0 
L 697 0 
L 697 3053 
L 147 3053 
L 147 3500 
L 697 3500 
L 697 3744 
Q 697 4328 969 4595 
Q 1241 4863 1831 4863 
L 2375 4863 
z
" transform="scale(0.015625)"/>
       <path id="DejaVuSans-6b" d="M 581 4863 
L 1159 4863 
L 1159 1991 
L 2875 3500 
L 3609 3500 
L 1753 1863 
L 3688 0 
L 2938 0 
L 1159 1709 
L 1159 0 
L 581 0 
L 581 4863 
z
" transform="scale(0.015625)"/>
      </defs>
      <use xlink:href="#DejaVuSans-66"/>
      <use xlink:href="#DejaVuSans-6f" x="35.205078"/>
      <use xlink:href="#DejaVuSans-72" x="96.386719"/>
      <use xlink:href="#DejaVuSans-6b" x="137.5"/>
     </g>
    </g>
   </g>
  </g>
 </g>
 <defs>
  <clipPath id="p38dc586c57">
   <rect x="108" y="43.2" width="669.6" height="277.2"/>
  </clipPath>
 </defs>
</svg>
