<?xml version="1.0" encoding="utf-8" standalone="no"?>
<!DOCTYPE svg PUBLIC "-//W3C//DTD SVG 1.1//EN"
  "http://www.w3.org/Graphics/SVG/1.1/DTD/svg11.dtd">
<svg xmlns:xlink="http://www.w3.org/1999/xlink" width="864pt" height="360pt" viewBox="0 0 864 360" xmlns="http://www.w3.org/2000/svg" version="1.1">
 <metadata>
  <rdf:RDF xmlns:dc="http://purl.org/dc/elements/1.1/" xmlns:cc="http://creativecommons.org/ns#" xmlns:rdf="http://www.w3.org/1999/02/22-rdf-syntax-ns#">
   <cc:Work>
    <dc:type rdf:resource="http://purl.org/dc/dcmitype/StillImage"/>
    <dc:date>2023-08-10T20:22:09.549264</dc:date>
    <dc:format>image/svg+xml</dc:format>
    <dc:creator>
     <cc:Agent>
      <dc:title>Matplotlib v3.7.2, https://matplotlib.org/</dc:title>
     </cc:Agent>
    </dc:creator>
   </cc:Work>
  </rdf:RDF>
 </metadata>
 <defs>
  <style type="text/css">*{stroke-linejoin: round; stroke-linecap: butt}</style>
 </defs>
 <g id="figure_1">
  <g id="patch_1">
   <path d="M 0 360 
L 864 360 
L 864 0 
L 0 0 
L 0 360 
z
" style="fill: none; opacity: 0"/>
  </g>
  <g id="axes_1">
   <g id="patch_2">
    <path d="M 108 320.4 
L 777.6 320.4 
L 777.6 43.2 
L 108 43.2 
L 108 320.4 
z
" style="fill: none; opacity: 0"/>
   </g>
   <g id="matplotlib.axis_1">
    <g id="xtick_1">
     <g id="line2d_1">
      <path d="M 119.693757 320.4 
L 119.693757 43.2 
" clip-path="url(#pb472e7de0b)" style="fill: none; stroke-dasharray: 5.12,1.28,0.8,1.28; stroke-dashoffset: 0; stroke: #b0b0b0; stroke-width: 0.8"/>
     </g>
     <g id="line2d_2">
      <defs>
       <path id="m694031dfa1" d="M 0 0 
L 0 3.5 
" style="stroke: #a9a9a9; stroke-width: 0.8"/>
      </defs>
      <g>
       <use xlink:href="#m694031dfa1" x="119.693757" y="320.4" style="fill: #a9a9a9; stroke: #a9a9a9; stroke-width: 0.8"/>
      </g>
     </g>
     <g id="text_1">
      <!-- 2021-07 -->
      <g style="fill: #a9a9a9" transform="translate(98.802351 334.998438) scale(0.1 -0.1)">
       <defs>
        <path id="DejaVuSans-32" d="M 1228 531 
L 3431 531 
L 3431 0 
L 469 0 
L 469 531 
Q 828 903 1448 1529 
Q 2069 2156 2228 2338 
Q 2531 2678 2651 2914 
Q 2772 3150 2772 3378 
Q 2772 3750 2511 3984 
Q 2250 4219 1831 4219 
Q 1534 4219 1204 4116 
Q 875 4013 500 3803 
L 500 4441 
Q 881 4594 1212 4672 
Q 1544 4750 1819 4750 
Q 2544 4750 2975 4387 
Q 3406 4025 3406 3419 
Q 3406 3131 3298 2873 
Q 3191 2616 2906 2266 
Q 2828 2175 2409 1742 
Q 1991 1309 1228 531 
z
" transform="scale(0.015625)"/>
        <path id="DejaVuSans-30" d="M 2034 4250 
Q 1547 4250 1301 3770 
Q 1056 3291 1056 2328 
Q 1056 1369 1301 889 
Q 1547 409 2034 409 
Q 2525 409 2770 889 
Q 3016 1369 3016 2328 
Q 3016 3291 2770 3770 
Q 2525 4250 2034 4250 
z
M 2034 4750 
Q 2819 4750 3233 4129 
Q 3647 3509 3647 2328 
Q 3647 1150 3233 529 
Q 2819 -91 2034 -91 
Q 1250 -91 836 529 
Q 422 1150 422 2328 
Q 422 3509 836 4129 
Q 1250 4750 2034 4750 
z
" transform="scale(0.015625)"/>
        <path id="DejaVuSans-31" d="M 794 531 
L 1825 531 
L 1825 4091 
L 703 3866 
L 703 4441 
L 1819 4666 
L 2450 4666 
L 2450 531 
L 3481 531 
L 3481 0 
L 794 0 
L 794 531 
z
" transform="scale(0.015625)"/>
        <path id="DejaVuSans-2d" d="M 313 2009 
L 1997 2009 
L 1997 1497 
L 313 1497 
L 313 2009 
z
" transform="scale(0.015625)"/>
        <path id="DejaVuSans-37" d="M 525 4666 
L 3525 4666 
L 3525 4397 
L 1831 0 
L 1172 0 
L 2766 4134 
L 525 4134 
L 525 4666 
z
" transform="scale(0.015625)"/>
       </defs>
       <use xlink:href="#DejaVuSans-32"/>
       <use xlink:href="#DejaVuSans-30" x="63.623047"/>
       <use xlink:href="#DejaVuSans-32" x="127.246094"/>
       <use xlink:href="#DejaVuSans-31" x="190.869141"/>
       <use xlink:href="#DejaVuSans-2d" x="254.492188"/>
       <use xlink:href="#DejaVuSans-30" x="290.576172"/>
       <use xlink:href="#DejaVuSans-37" x="354.199219"/>
      </g>
     </g>
    </g>
    <g id="xtick_2">
     <g id="line2d_3">
      <path d="M 194.664184 320.4 
L 194.664184 43.2 
" clip-path="url(#pb472e7de0b)" style="fill: none; stroke-dasharray: 5.12,1.28,0.8,1.28; stroke-dashoffset: 0; stroke: #b0b0b0; stroke-width: 0.8"/>
     </g>
     <g id="line2d_4">
      <g>
       <use xlink:href="#m694031dfa1" x="194.664184" y="320.4" style="fill: #a9a9a9; stroke: #a9a9a9; stroke-width: 0.8"/>
      </g>
     </g>
     <g id="text_2">
      <!-- 2021-10 -->
      <g style="fill: #a9a9a9" transform="translate(173.772778 334.998438) scale(0.1 -0.1)">
       <use xlink:href="#DejaVuSans-32"/>
       <use xlink:href="#DejaVuSans-30" x="63.623047"/>
       <use xlink:href="#DejaVuSans-32" x="127.246094"/>
       <use xlink:href="#DejaVuSans-31" x="190.869141"/>
       <use xlink:href="#DejaVuSans-2d" x="254.492188"/>
       <use xlink:href="#DejaVuSans-31" x="290.576172"/>
       <use xlink:href="#DejaVuSans-30" x="354.199219"/>
      </g>
     </g>
    </g>
    <g id="xtick_3">
     <g id="line2d_5">
      <path d="M 269.634611 320.4 
L 269.634611 43.2 
" clip-path="url(#pb472e7de0b)" style="fill: none; stroke-dasharray: 5.12,1.28,0.8,1.28; stroke-dashoffset: 0; stroke: #b0b0b0; stroke-width: 0.8"/>
     </g>
     <g id="line2d_6">
      <g>
       <use xlink:href="#m694031dfa1" x="269.634611" y="320.4" style="fill: #a9a9a9; stroke: #a9a9a9; stroke-width: 0.8"/>
      </g>
     </g>
     <g id="text_3">
      <!-- 2022-01 -->
      <g style="fill: #a9a9a9" transform="translate(248.743205 334.998438) scale(0.1 -0.1)">
       <use xlink:href="#DejaVuSans-32"/>
       <use xlink:href="#DejaVuSans-30" x="63.623047"/>
       <use xlink:href="#DejaVuSans-32" x="127.246094"/>
       <use xlink:href="#DejaVuSans-32" x="190.869141"/>
       <use xlink:href="#DejaVuSans-2d" x="254.492188"/>
       <use xlink:href="#DejaVuSans-30" x="290.576172"/>
       <use xlink:href="#DejaVuSans-31" x="354.199219"/>
      </g>
     </g>
    </g>
    <g id="xtick_4">
     <g id="line2d_7">
      <path d="M 342.975246 320.4 
L 342.975246 43.2 
" clip-path="url(#pb472e7de0b)" style="fill: none; stroke-dasharray: 5.12,1.28,0.8,1.28; stroke-dashoffset: 0; stroke: #b0b0b0; stroke-width: 0.8"/>
     </g>
     <g id="line2d_8">
      <g>
       <use xlink:href="#m694031dfa1" x="342.975246" y="320.4" style="fill: #a9a9a9; stroke: #a9a9a9; stroke-width: 0.8"/>
      </g>
     </g>
     <g id="text_4">
      <!-- 2022-04 -->
      <g style="fill: #a9a9a9" transform="translate(322.08384 334.998438) scale(0.1 -0.1)">
       <defs>
        <path id="DejaVuSans-34" d="M 2419 4116 
L 825 1625 
L 2419 1625 
L 2419 4116 
z
M 2253 4666 
L 3047 4666 
L 3047 1625 
L 3713 1625 
L 3713 1100 
L 3047 1100 
L 3047 0 
L 2419 0 
L 2419 1100 
L 313 1100 
L 313 1709 
L 2253 4666 
z
" transform="scale(0.015625)"/>
       </defs>
       <use xlink:href="#DejaVuSans-32"/>
       <use xlink:href="#DejaVuSans-30" x="63.623047"/>
       <use xlink:href="#DejaVuSans-32" x="127.246094"/>
       <use xlink:href="#DejaVuSans-32" x="190.869141"/>
       <use xlink:href="#DejaVuSans-2d" x="254.492188"/>
       <use xlink:href="#DejaVuSans-30" x="290.576172"/>
       <use xlink:href="#DejaVuSans-34" x="354.199219"/>
      </g>
     </g>
    </g>
    <g id="xtick_5">
     <g id="line2d_9">
      <path d="M 417.130778 320.4 
L 417.130778 43.2 
" clip-path="url(#pb472e7de0b)" style="fill: none; stroke-dasharray: 5.12,1.28,0.8,1.28; stroke-dashoffset: 0; stroke: #b0b0b0; stroke-width: 0.8"/>
     </g>
     <g id="line2d_10">
      <g>
       <use xlink:href="#m694031dfa1" x="417.130778" y="320.4" style="fill: #a9a9a9; stroke: #a9a9a9; stroke-width: 0.8"/>
      </g>
     </g>
     <g id="text_5">
      <!-- 2022-07 -->
      <g style="fill: #a9a9a9" transform="translate(396.239371 334.998438) scale(0.1 -0.1)">
       <use xlink:href="#DejaVuSans-32"/>
       <use xlink:href="#DejaVuSans-30" x="63.623047"/>
       <use xlink:href="#DejaVuSans-32" x="127.246094"/>
       <use xlink:href="#DejaVuSans-32" x="190.869141"/>
       <use xlink:href="#DejaVuSans-2d" x="254.492188"/>
       <use xlink:href="#DejaVuSans-30" x="290.576172"/>
       <use xlink:href="#DejaVuSans-37" x="354.199219"/>
      </g>
     </g>
    </g>
    <g id="xtick_6">
     <g id="line2d_11">
      <path d="M 492.101205 320.4 
L 492.101205 43.2 
" clip-path="url(#pb472e7de0b)" style="fill: none; stroke-dasharray: 5.12,1.28,0.8,1.28; stroke-dashoffset: 0; stroke: #b0b0b0; stroke-width: 0.8"/>
     </g>
     <g id="line2d_12">
      <g>
       <use xlink:href="#m694031dfa1" x="492.101205" y="320.4" style="fill: #a9a9a9; stroke: #a9a9a9; stroke-width: 0.8"/>
      </g>
     </g>
     <g id="text_6">
      <!-- 2022-10 -->
      <g style="fill: #a9a9a9" transform="translate(471.209799 334.998438) scale(0.1 -0.1)">
       <use xlink:href="#DejaVuSans-32"/>
       <use xlink:href="#DejaVuSans-30" x="63.623047"/>
       <use xlink:href="#DejaVuSans-32" x="127.246094"/>
       <use xlink:href="#DejaVuSans-32" x="190.869141"/>
       <use xlink:href="#DejaVuSans-2d" x="254.492188"/>
       <use xlink:href="#DejaVuSans-31" x="290.576172"/>
       <use xlink:href="#DejaVuSans-30" x="354.199219"/>
      </g>
     </g>
    </g>
    <g id="xtick_7">
     <g id="line2d_13">
      <path d="M 567.071632 320.4 
L 567.071632 43.2 
" clip-path="url(#pb472e7de0b)" style="fill: none; stroke-dasharray: 5.12,1.28,0.8,1.28; stroke-dashoffset: 0; stroke: #b0b0b0; stroke-width: 0.8"/>
     </g>
     <g id="line2d_14">
      <g>
       <use xlink:href="#m694031dfa1" x="567.071632" y="320.4" style="fill: #a9a9a9; stroke: #a9a9a9; stroke-width: 0.8"/>
      </g>
     </g>
     <g id="text_7">
      <!-- 2023-01 -->
      <g style="fill: #a9a9a9" transform="translate(546.180226 334.998438) scale(0.1 -0.1)">
       <defs>
        <path id="DejaVuSans-33" d="M 2597 2516 
Q 3050 2419 3304 2112 
Q 3559 1806 3559 1356 
Q 3559 666 3084 287 
Q 2609 -91 1734 -91 
Q 1441 -91 1130 -33 
Q 819 25 488 141 
L 488 750 
Q 750 597 1062 519 
Q 1375 441 1716 441 
Q 2309 441 2620 675 
Q 2931 909 2931 1356 
Q 2931 1769 2642 2001 
Q 2353 2234 1838 2234 
L 1294 2234 
L 1294 2753 
L 1863 2753 
Q 2328 2753 2575 2939 
Q 2822 3125 2822 3475 
Q 2822 3834 2567 4026 
Q 2313 4219 1838 4219 
Q 1578 4219 1281 4162 
Q 984 4106 628 3988 
L 628 4550 
Q 988 4650 1302 4700 
Q 1616 4750 1894 4750 
Q 2613 4750 3031 4423 
Q 3450 4097 3450 3541 
Q 3450 3153 3228 2886 
Q 3006 2619 2597 2516 
z
" transform="scale(0.015625)"/>
       </defs>
       <use xlink:href="#DejaVuSans-32"/>
       <use xlink:href="#DejaVuSans-30" x="63.623047"/>
       <use xlink:href="#DejaVuSans-32" x="127.246094"/>
       <use xlink:href="#DejaVuSans-33" x="190.869141"/>
       <use xlink:href="#DejaVuSans-2d" x="254.492188"/>
       <use xlink:href="#DejaVuSans-30" x="290.576172"/>
       <use xlink:href="#DejaVuSans-31" x="354.199219"/>
      </g>
     </g>
    </g>
    <g id="xtick_8">
     <g id="line2d_15">
      <path d="M 640.412267 320.4 
L 640.412267 43.2 
" clip-path="url(#pb472e7de0b)" style="fill: none; stroke-dasharray: 5.12,1.28,0.8,1.28; stroke-dashoffset: 0; stroke: #b0b0b0; stroke-width: 0.8"/>
     </g>
     <g id="line2d_16">
      <g>
       <use xlink:href="#m694031dfa1" x="640.412267" y="320.4" style="fill: #a9a9a9; stroke: #a9a9a9; stroke-width: 0.8"/>
      </g>
     </g>
     <g id="text_8">
      <!-- 2023-04 -->
      <g style="fill: #a9a9a9" transform="translate(619.520861 334.998438) scale(0.1 -0.1)">
       <use xlink:href="#DejaVuSans-32"/>
       <use xlink:href="#DejaVuSans-30" x="63.623047"/>
       <use xlink:href="#DejaVuSans-32" x="127.246094"/>
       <use xlink:href="#DejaVuSans-33" x="190.869141"/>
       <use xlink:href="#DejaVuSans-2d" x="254.492188"/>
       <use xlink:href="#DejaVuSans-30" x="290.576172"/>
       <use xlink:href="#DejaVuSans-34" x="354.199219"/>
      </g>
     </g>
    </g>
    <g id="xtick_9">
     <g id="line2d_17">
      <path d="M 714.567798 320.4 
L 714.567798 43.2 
" clip-path="url(#pb472e7de0b)" style="fill: none; stroke-dasharray: 5.12,1.28,0.8,1.28; stroke-dashoffset: 0; stroke: #b0b0b0; stroke-width: 0.8"/>
     </g>
     <g id="line2d_18">
      <g>
       <use xlink:href="#m694031dfa1" x="714.567798" y="320.4" style="fill: #a9a9a9; stroke: #a9a9a9; stroke-width: 0.8"/>
      </g>
     </g>
     <g id="text_9">
      <!-- 2023-07 -->
      <g style="fill: #a9a9a9" transform="translate(693.676392 334.998438) scale(0.1 -0.1)">
       <use xlink:href="#DejaVuSans-32"/>
       <use xlink:href="#DejaVuSans-30" x="63.623047"/>
       <use xlink:href="#DejaVuSans-32" x="127.246094"/>
       <use xlink:href="#DejaVuSans-33" x="190.869141"/>
       <use xlink:href="#DejaVuSans-2d" x="254.492188"/>
       <use xlink:href="#DejaVuSans-30" x="290.576172"/>
       <use xlink:href="#DejaVuSans-37" x="354.199219"/>
      </g>
     </g>
    </g>
   </g>
   <g id="matplotlib.axis_2">
    <g id="ytick_1">
     <g id="line2d_19">
      <path d="M 108 307.853606 
L 777.6 307.853606 
" clip-path="url(#pb472e7de0b)" style="fill: none; stroke-dasharray: 5.12,1.28,0.8,1.28; stroke-dashoffset: 0; stroke: #b0b0b0; stroke-width: 0.8"/>
     </g>
     <g id="line2d_20">
      <defs>
       <path id="m0a00ac3fc1" d="M 0 0 
L -3.5 0 
" style="stroke: #a9a9a9; stroke-width: 0.8"/>
      </defs>
      <g>
       <use xlink:href="#m0a00ac3fc1" x="108" y="307.853606" style="fill: #a9a9a9; stroke: #a9a9a9; stroke-width: 0.8"/>
      </g>
     </g>
     <g id="text_10">
      <!-- 0 -->
      <g style="fill: #a9a9a9" transform="translate(94.6375 311.652824) scale(0.1 -0.1)">
       <use xlink:href="#DejaVuSans-30"/>
      </g>
     </g>
    </g>
    <g id="ytick_2">
     <g id="line2d_21">
      <path d="M 108 275.690236 
L 777.6 275.690236 
" clip-path="url(#pb472e7de0b)" style="fill: none; stroke-dasharray: 5.12,1.28,0.8,1.28; stroke-dashoffset: 0; stroke: #b0b0b0; stroke-width: 0.8"/>
     </g>
     <g id="line2d_22">
      <g>
       <use xlink:href="#m0a00ac3fc1" x="108" y="275.690236" style="fill: #a9a9a9; stroke: #a9a9a9; stroke-width: 0.8"/>
      </g>
     </g>
     <g id="text_11">
      <!-- 600 -->
      <g style="fill: #a9a9a9" transform="translate(81.9125 279.489455) scale(0.1 -0.1)">
       <defs>
        <path id="DejaVuSans-36" d="M 2113 2584 
Q 1688 2584 1439 2293 
Q 1191 2003 1191 1497 
Q 1191 994 1439 701 
Q 1688 409 2113 409 
Q 2538 409 2786 701 
Q 3034 994 3034 1497 
Q 3034 2003 2786 2293 
Q 2538 2584 2113 2584 
z
M 3366 4563 
L 3366 3988 
Q 3128 4100 2886 4159 
Q 2644 4219 2406 4219 
Q 1781 4219 1451 3797 
Q 1122 3375 1075 2522 
Q 1259 2794 1537 2939 
Q 1816 3084 2150 3084 
Q 2853 3084 3261 2657 
Q 3669 2231 3669 1497 
Q 3669 778 3244 343 
Q 2819 -91 2113 -91 
Q 1303 -91 875 529 
Q 447 1150 447 2328 
Q 447 3434 972 4092 
Q 1497 4750 2381 4750 
Q 2619 4750 2861 4703 
Q 3103 4656 3366 4563 
z
" transform="scale(0.015625)"/>
       </defs>
       <use xlink:href="#DejaVuSans-36"/>
       <use xlink:href="#DejaVuSans-30" x="63.623047"/>
       <use xlink:href="#DejaVuSans-30" x="127.246094"/>
      </g>
     </g>
    </g>
    <g id="ytick_3">
     <g id="line2d_23">
      <path d="M 108 243.526867 
L 777.6 243.526867 
" clip-path="url(#pb472e7de0b)" style="fill: none; stroke-dasharray: 5.12,1.28,0.8,1.28; stroke-dashoffset: 0; stroke: #b0b0b0; stroke-width: 0.8"/>
     </g>
     <g id="line2d_24">
      <g>
       <use xlink:href="#m0a00ac3fc1" x="108" y="243.526867" style="fill: #a9a9a9; stroke: #a9a9a9; stroke-width: 0.8"/>
      </g>
     </g>
     <g id="text_12">
      <!-- 1200 -->
      <g style="fill: #a9a9a9" transform="translate(75.55 247.326085) scale(0.1 -0.1)">
       <use xlink:href="#DejaVuSans-31"/>
       <use xlink:href="#DejaVuSans-32" x="63.623047"/>
       <use xlink:href="#DejaVuSans-30" x="127.246094"/>
       <use xlink:href="#DejaVuSans-30" x="190.869141"/>
      </g>
     </g>
    </g>
    <g id="ytick_4">
     <g id="line2d_25">
      <path d="M 108 211.363497 
L 777.6 211.363497 
" clip-path="url(#pb472e7de0b)" style="fill: none; stroke-dasharray: 5.12,1.28,0.8,1.28; stroke-dashoffset: 0; stroke: #b0b0b0; stroke-width: 0.8"/>
     </g>
     <g id="line2d_26">
      <g>
       <use xlink:href="#m0a00ac3fc1" x="108" y="211.363497" style="fill: #a9a9a9; stroke: #a9a9a9; stroke-width: 0.8"/>
      </g>
     </g>
     <g id="text_13">
      <!-- 1800 -->
      <g style="fill: #a9a9a9" transform="translate(75.55 215.162716) scale(0.1 -0.1)">
       <defs>
        <path id="DejaVuSans-38" d="M 2034 2216 
Q 1584 2216 1326 1975 
Q 1069 1734 1069 1313 
Q 1069 891 1326 650 
Q 1584 409 2034 409 
Q 2484 409 2743 651 
Q 3003 894 3003 1313 
Q 3003 1734 2745 1975 
Q 2488 2216 2034 2216 
z
M 1403 2484 
Q 997 2584 770 2862 
Q 544 3141 544 3541 
Q 544 4100 942 4425 
Q 1341 4750 2034 4750 
Q 2731 4750 3128 4425 
Q 3525 4100 3525 3541 
Q 3525 3141 3298 2862 
Q 3072 2584 2669 2484 
Q 3125 2378 3379 2068 
Q 3634 1759 3634 1313 
Q 3634 634 3220 271 
Q 2806 -91 2034 -91 
Q 1263 -91 848 271 
Q 434 634 434 1313 
Q 434 1759 690 2068 
Q 947 2378 1403 2484 
z
M 1172 3481 
Q 1172 3119 1398 2916 
Q 1625 2713 2034 2713 
Q 2441 2713 2670 2916 
Q 2900 3119 2900 3481 
Q 2900 3844 2670 4047 
Q 2441 4250 2034 4250 
Q 1625 4250 1398 4047 
Q 1172 3844 1172 3481 
z
" transform="scale(0.015625)"/>
       </defs>
       <use xlink:href="#DejaVuSans-31"/>
       <use xlink:href="#DejaVuSans-38" x="63.623047"/>
       <use xlink:href="#DejaVuSans-30" x="127.246094"/>
       <use xlink:href="#DejaVuSans-30" x="190.869141"/>
      </g>
     </g>
    </g>
    <g id="ytick_5">
     <g id="line2d_27">
      <path d="M 108 179.200128 
L 777.6 179.200128 
" clip-path="url(#pb472e7de0b)" style="fill: none; stroke-dasharray: 5.12,1.28,0.8,1.28; stroke-dashoffset: 0; stroke: #b0b0b0; stroke-width: 0.8"/>
     </g>
     <g id="line2d_28">
      <g>
       <use xlink:href="#m0a00ac3fc1" x="108" y="179.200128" style="fill: #a9a9a9; stroke: #a9a9a9; stroke-width: 0.8"/>
      </g>
     </g>
     <g id="text_14">
      <!-- 2400 -->
      <g style="fill: #a9a9a9" transform="translate(75.55 182.999346) scale(0.1 -0.1)">
       <use xlink:href="#DejaVuSans-32"/>
       <use xlink:href="#DejaVuSans-34" x="63.623047"/>
       <use xlink:href="#DejaVuSans-30" x="127.246094"/>
       <use xlink:href="#DejaVuSans-30" x="190.869141"/>
      </g>
     </g>
    </g>
    <g id="ytick_6">
     <g id="line2d_29">
      <path d="M 108 147.036758 
L 777.6 147.036758 
" clip-path="url(#pb472e7de0b)" style="fill: none; stroke-dasharray: 5.12,1.28,0.8,1.28; stroke-dashoffset: 0; stroke: #b0b0b0; stroke-width: 0.8"/>
     </g>
     <g id="line2d_30">
      <g>
       <use xlink:href="#m0a00ac3fc1" x="108" y="147.036758" style="fill: #a9a9a9; stroke: #a9a9a9; stroke-width: 0.8"/>
      </g>
     </g>
     <g id="text_15">
      <!-- 3000 -->
      <g style="fill: #a9a9a9" transform="translate(75.55 150.835977) scale(0.1 -0.1)">
       <use xlink:href="#DejaVuSans-33"/>
       <use xlink:href="#DejaVuSans-30" x="63.623047"/>
       <use xlink:href="#DejaVuSans-30" x="127.246094"/>
       <use xlink:href="#DejaVuSans-30" x="190.869141"/>
      </g>
     </g>
    </g>
    <g id="ytick_7">
     <g id="line2d_31">
      <path d="M 108 114.873389 
L 777.6 114.873389 
" clip-path="url(#pb472e7de0b)" style="fill: none; stroke-dasharray: 5.12,1.28,0.8,1.28; stroke-dashoffset: 0; stroke: #b0b0b0; stroke-width: 0.8"/>
     </g>
     <g id="line2d_32">
      <g>
       <use xlink:href="#m0a00ac3fc1" x="108" y="114.873389" style="fill: #a9a9a9; stroke: #a9a9a9; stroke-width: 0.8"/>
      </g>
     </g>
     <g id="text_16">
      <!-- 3600 -->
      <g style="fill: #a9a9a9" transform="translate(75.55 118.672607) scale(0.1 -0.1)">
       <use xlink:href="#DejaVuSans-33"/>
       <use xlink:href="#DejaVuSans-36" x="63.623047"/>
       <use xlink:href="#DejaVuSans-30" x="127.246094"/>
       <use xlink:href="#DejaVuSans-30" x="190.869141"/>
      </g>
     </g>
    </g>
    <g id="ytick_8">
     <g id="line2d_33">
      <path d="M 108 82.710019 
L 777.6 82.710019 
" clip-path="url(#pb472e7de0b)" style="fill: none; stroke-dasharray: 5.12,1.28,0.8,1.28; stroke-dashoffset: 0; stroke: #b0b0b0; stroke-width: 0.8"/>
     </g>
     <g id="line2d_34">
      <g>
       <use xlink:href="#m0a00ac3fc1" x="108" y="82.710019" style="fill: #a9a9a9; stroke: #a9a9a9; stroke-width: 0.8"/>
      </g>
     </g>
     <g id="text_17">
      <!-- 4200 -->
      <g style="fill: #a9a9a9" transform="translate(75.55 86.509238) scale(0.1 -0.1)">
       <use xlink:href="#DejaVuSans-34"/>
       <use xlink:href="#DejaVuSans-32" x="63.623047"/>
       <use xlink:href="#DejaVuSans-30" x="127.246094"/>
       <use xlink:href="#DejaVuSans-30" x="190.869141"/>
      </g>
     </g>
    </g>
    <g id="ytick_9">
     <g id="line2d_35">
      <path d="M 108 50.54665 
L 777.6 50.54665 
" clip-path="url(#pb472e7de0b)" style="fill: none; stroke-dasharray: 5.12,1.28,0.8,1.28; stroke-dashoffset: 0; stroke: #b0b0b0; stroke-width: 0.8"/>
     </g>
     <g id="line2d_36">
      <g>
       <use xlink:href="#m0a00ac3fc1" x="108" y="50.54665" style="fill: #a9a9a9; stroke: #a9a9a9; stroke-width: 0.8"/>
      </g>
     </g>
     <g id="text_18">
      <!-- 4800 -->
      <g style="fill: #a9a9a9" transform="translate(75.55 54.345868) scale(0.1 -0.1)">
       <use xlink:href="#DejaVuSans-34"/>
       <use xlink:href="#DejaVuSans-38" x="63.623047"/>
       <use xlink:href="#DejaVuSans-30" x="127.246094"/>
       <use xlink:href="#DejaVuSans-30" x="190.869141"/>
      </g>
     </g>
    </g>
   </g>
   <g id="line2d_37">
    <path d="M 138.436364 307.692789 
L 143.325739 307.317549 
L 144.140635 306.995916 
L 146.585323 306.727888 
L 152.289595 305.709381 
L 156.364074 305.334142 
L 157.17897 304.958902 
L 157.993866 304.74448 
L 158.808762 303.779579 
L 159.623658 303.243523 
L 160.438554 301.528143 
L 161.25345 301.420932 
L 162.068346 300.83127 
L 163.698138 300.080791 
L 165.32793 298.901468 
L 166.142826 298.150989 
L 167.772618 297.400511 
L 168.587514 297.078877 
L 169.40241 296.489215 
L 172.661993 295.149075 
L 173.476889 293.916146 
L 174.291785 293.272878 
L 175.921577 292.415188 
L 184.070537 291.28947 
L 184.885433 290.914231 
L 190.589704 290.485386 
L 192.219496 290.056541 
L 193.849288 289.734907 
L 200.368456 288.877218 
L 201.183352 288.448373 
L 201.998248 288.341161 
L 202.813143 288.019528 
L 204.442935 287.7515 
L 205.257831 287.697894 
L 206.072727 287.429866 
L 209.332311 286.947415 
L 210.962103 286.518571 
L 213.406791 286.304148 
L 215.036583 286.143331 
L 215.851479 285.928909 
L 216.666375 285.875303 
L 219.111062 285.17843 
L 224.000438 284.481557 
L 224.815334 284.213529 
L 225.63023 283.141417 
L 228.074918 282.283727 
L 230.519606 281.640459 
L 231.334502 281.26522 
L 232.149398 281.211615 
L 236.223877 280.139502 
L 237.853669 280.032291 
L 238.668565 279.92508 
L 241.113253 279.228207 
L 244.372837 278.477728 
L 245.187733 278.156094 
L 246.002629 278.048883 
L 246.817525 277.673644 
L 254.966484 276.49432 
L 259.040964 275.368602 
L 259.85586 274.886152 
L 263.115444 274.028462 
L 264.745235 273.117167 
L 265.560131 272.58111 
L 266.375027 272.473899 
L 267.189923 272.205871 
L 269.634611 271.777026 
L 270.449507 271.401787 
L 272.079299 271.133759 
L 273.709091 270.38328 
L 277.783571 269.418379 
L 280.228258 268.828717 
L 281.043154 268.507084 
L 281.85805 268.346267 
L 282.672946 268.024633 
L 283.487842 267.917422 
L 284.302738 267.542183 
L 285.117634 267.32776 
L 286.747426 267.220549 
L 288.377218 266.684493 
L 290.00701 266.577281 
L 290.821906 266.202042 
L 294.08149 265.665986 
L 297.341073 265.397958 
L 298.155969 265.237141 
L 299.785761 264.486662 
L 308.749617 260.895086 
L 309.564513 260.466241 
L 310.379409 259.608551 
L 311.194304 258.322017 
L 312.0092 257.30351 
L 312.824096 257.089087 
L 313.638992 257.089087 
L 315.268784 255.909764 
L 316.08368 255.695341 
L 316.898576 255.266496 
L 317.713472 255.10568 
L 318.528368 254.408807 
L 319.343264 254.194384 
L 321.787952 253.068666 
L 322.602848 252.103765 
L 323.417744 250.924442 
L 324.23264 250.441991 
L 325.047536 249.155456 
L 325.862432 248.351372 
L 326.677327 247.976133 
L 327.492223 247.76171 
L 329.122015 246.796809 
L 329.936911 246.42157 
L 333.196495 244.062923 
L 334.011391 242.937205 
L 334.826287 241.114614 
L 335.641183 239.93529 
L 336.456079 239.345629 
L 337.270975 239.023995 
L 340.530559 236.343714 
L 342.16035 235.164391 
L 342.975246 234.467518 
L 343.790142 233.3418 
L 344.605038 232.591321 
L 347.049726 230.929547 
L 348.679518 229.857435 
L 349.494414 229.160562 
L 350.30931 228.946139 
L 352.753998 227.71321 
L 354.38379 226.801914 
L 355.198686 226.480281 
L 356.828478 225.032929 
L 357.643373 224.068028 
L 359.273165 222.995916 
L 360.088061 222.781493 
L 360.902957 222.352648 
L 361.717853 221.762987 
L 363.347645 220.905297 
L 364.162541 220.798086 
L 365.792333 219.940396 
L 366.607229 219.511551 
L 367.422125 218.707466 
L 368.237021 218.225016 
L 369.051917 217.956988 
L 369.866813 217.420932 
L 373.126396 215.812763 
L 373.941292 215.11589 
L 377.200876 214.043778 
L 378.015772 213.507722 
L 378.830668 213.346905 
L 380.46046 212.810849 
L 382.905148 211.899553 
L 385.349836 211.041863 
L 386.979628 210.773835 
L 388.609419 209.433695 
L 390.239211 208.683216 
L 392.683899 207.343076 
L 394.313691 206.914231 
L 395.128587 206.43178 
L 395.943483 206.217358 
L 398.388171 204.716401 
L 400.832859 204.180345 
L 403.277547 203.322655 
L 404.907338 202.411359 
L 405.722234 202.304148 
L 406.53713 202.03612 
L 408.166922 201.714486 
L 410.61161 199.999107 
L 413.056298 199.46305 
L 413.871194 199.195022 
L 414.68609 198.605361 
L 419.575465 197.104403 
L 420.390361 197.050798 
L 426.094633 195.120996 
L 426.909529 194.745756 
L 429.354217 194.2097 
L 430.984009 193.834461 
L 431.798905 193.459221 
L 432.613801 193.298405 
L 435.058488 192.226292 
L 437.503176 191.046969 
L 438.318072 190.510913 
L 439.132968 190.29649 
L 441.577656 189.063561 
L 443.207448 188.688322 
L 444.83724 187.884237 
L 446.467032 187.455392 
L 447.281928 187.348181 
L 448.096824 186.812125 
L 448.91172 186.436886 
L 449.726616 186.276069 
L 451.356407 185.632802 
L 452.171303 185.471985 
L 452.986199 185.04314 
L 456.245783 184.560689 
L 457.875575 183.810211 
L 458.690471 183.166943 
L 459.505367 181.773197 
L 461.135159 181.451563 
L 461.950055 181.290747 
L 465.209639 179.682578 
L 466.024535 179.521761 
L 470.91391 177.270325 
L 471.728806 176.734269 
L 472.543702 176.412636 
L 474.98839 175.930185 
L 476.618182 175.179706 
L 477.433078 174.858073 
L 478.247974 174.750862 
L 481.507558 173.357116 
L 483.137349 172.285003 
L 483.952245 171.909764 
L 484.767141 171.802553 
L 485.582037 171.534525 
L 486.396933 171.480919 
L 489.656517 170.462412 
L 490.471413 170.408807 
L 491.286309 169.819145 
L 492.916101 169.283089 
L 495.360789 168.53261 
L 496.175685 168.05016 
L 496.990581 167.835737 
L 497.805476 167.299681 
L 498.620372 166.978047 
L 499.435268 166.495597 
L 501.06506 165.905935 
L 501.879956 165.691512 
L 502.694852 165.316273 
L 503.509748 165.101851 
L 504.324644 164.726611 
L 505.13954 164.13695 
L 505.954436 163.27926 
L 506.769332 162.743204 
L 507.584228 162.582387 
L 509.21402 161.403063 
L 510.028916 161.242246 
L 510.843812 160.062923 
L 511.658708 159.741289 
L 512.473604 159.151627 
L 513.288499 159.044416 
L 514.103395 158.50836 
L 514.918291 158.133121 
L 515.733187 157.972304 
L 516.548083 157.65067 
L 517.362979 157.007403 
L 518.177875 156.739375 
L 520.622563 155.184812 
L 523.882147 153.630249 
L 524.697043 153.523038 
L 526.326835 152.826165 
L 527.141731 152.343714 
L 527.956627 151.057179 
L 528.771522 150.253095 
L 529.586418 149.82425 
L 530.401314 149.663433 
L 532.031106 148.698532 
L 532.846002 148.537715 
L 534.475794 147.787237 
L 536.920482 146.76873 
L 538.550274 145.696618 
L 540.180066 144.034844 
L 541.809858 143.069943 
L 542.624754 142.587492 
L 543.43965 141.783408 
L 545.884337 139.853606 
L 546.699233 139.424761 
L 547.514129 138.567071 
L 548.329025 137.977409 
L 549.958817 137.441353 
L 550.773713 136.690874 
L 552.403505 135.88679 
L 553.218401 135.672368 
L 554.033297 135.082706 
L 554.848193 134.868283 
L 557.292881 133.635354 
L 558.107777 133.045692 
L 559.737568 132.402425 
L 560.552464 132.241608 
L 561.36736 131.759158 
L 567.071632 129.77575 
L 567.886528 129.078877 
L 571.146112 127.899553 
L 571.961008 127.685131 
L 572.775904 127.095469 
L 575.220591 126.023357 
L 576.035487 125.433695 
L 576.850383 125.00485 
L 578.480175 121.895724 
L 580.109967 120.073133 
L 580.924863 119.537077 
L 583.369551 118.518571 
L 584.184447 118.250542 
L 584.999343 118.143331 
L 585.814239 117.714486 
L 588.258927 116.964008 
L 590.703614 115.999107 
L 592.333406 114.926994 
L 594.778094 113.854882 
L 598.852574 111.603446 
L 599.66747 110.799362 
L 601.297262 109.941672 
L 602.112158 109.512827 
L 602.927054 109.244799 
L 603.74195 108.655137 
L 605.371742 107.904659 
L 606.186637 107.422208 
L 607.001533 107.100574 
L 607.816429 106.618124 
L 608.631325 106.403701 
L 609.446221 105.81404 
L 610.261117 105.492406 
L 611.076013 105.331589 
L 612.705805 104.688322 
L 615.150493 103.830632 
L 615.965389 103.24097 
L 617.595181 102.812125 
L 619.224973 102.222463 
L 620.039869 101.579196 
L 621.66966 101.096745 
L 622.484556 100.721506 
L 623.299452 100.507084 
L 624.929244 99.434971 
L 626.559036 98.738098 
L 628.188828 97.558775 
L 629.81862 97.022719 
L 630.633516 96.325846 
L 631.448412 96.165029 
L 632.263308 95.468156 
L 633.8931 94.55686 
L 635.522892 93.913593 
L 636.337788 93.109509 
L 638.782475 92.35903 
L 639.597371 91.876579 
L 640.412267 91.769368 
L 642.856955 90.590045 
L 646.116539 89.625144 
L 647.746331 89.410721 
L 648.561227 89.089087 
L 649.376123 88.928271 
L 651.005915 88.285003 
L 651.820811 88.231398 
L 654.265498 87.427313 
L 655.89529 86.462412 
L 657.525082 85.3903 
L 662.414458 83.085258 
L 664.859146 81.530696 
L 666.488938 81.155456 
L 668.933625 79.815316 
L 671.378313 79.064837 
L 672.193209 78.743204 
L 673.823001 78.367964 
L 677.897481 77.081429 
L 679.527273 76.759796 
L 681.157065 76.384556 
L 681.971961 76.009317 
L 682.786857 75.902106 
L 684.416648 75.258839 
L 685.231544 75.151627 
L 686.04644 74.776388 
L 687.676232 74.454754 
L 688.491128 74.079515 
L 690.935816 73.543459 
L 692.565608 73.221825 
L 699.899671 71.774474 
L 700.714567 71.45284 
L 701.529463 71.399234 
L 703.974151 70.755967 
L 704.789047 70.327122 
L 706.418839 69.791066 
L 707.233735 69.73746 
L 711.308215 68.558137 
L 717.012486 66.68194 
L 717.827382 66.68194 
L 719.457174 66.145884 
L 720.27207 65.3418 
L 721.086966 64.96656 
L 722.716758 64.48411 
L 725.976342 63.304786 
L 726.791238 63.036758 
L 727.606134 62.554308 
L 728.42103 62.393491 
L 729.235926 61.857435 
L 732.495509 60.892534 
L 733.310405 60.624505 
L 734.125301 60.142055 
L 734.940197 59.927632 
L 735.755093 59.284365 
L 738.199781 58.85552 
L 739.829573 57.99783 
L 740.644469 57.086535 
L 742.274261 56.764901 
L 743.904053 56.389662 
L 745.533844 55.960817 
L 747.163636 55.8 
L 747.163636 55.8 
" clip-path="url(#pb472e7de0b)" style="fill: none; stroke: #1f77b4; stroke-width: 1.5; stroke-linecap: square"/>
   </g>
   <g id="line2d_38">
    <path d="M 139.25126 307.8 
L 141.695947 307.692789 
L 143.325739 307.585578 
L 149.030011 307.478366 
L 153.104491 307.317549 
L 156.364074 307.317549 
L 157.17897 307.103127 
L 159.623658 307.049521 
L 164.513034 306.513465 
L 176.736473 305.816592 
L 183.255641 305.709381 
L 187.33012 305.548564 
L 197.108872 305.441353 
L 201.183352 305.280536 
L 206.072727 305.173325 
L 209.332311 305.066114 
L 216.666375 304.958902 
L 219.111062 304.905297 
L 221.55575 304.851691 
L 224.000438 304.583663 
L 228.889814 304.530057 
L 230.519606 304.422846 
L 236.223877 304.315635 
L 245.187733 303.833184 
L 250.892004 303.725973 
L 252.521796 303.618762 
L 254.966484 303.511551 
L 259.85586 303.297128 
L 263.115444 303.243523 
L 265.560131 303.0291 
L 279.413363 302.225016 
L 281.85805 302.117805 
L 287.562322 301.849777 
L 290.00701 301.742565 
L 298.155969 301.31372 
L 307.119825 301.206509 
L 310.379409 300.884876 
L 312.0092 300.777664 
L 320.973056 300.134397 
L 321.787952 299.919974 
L 324.23264 299.705552 
L 325.862432 299.330313 
L 328.307119 299.276707 
L 330.751807 299.169496 
L 337.270975 298.365412 
L 341.345455 298.2582 
L 351.939102 297.454116 
L 356.828478 296.91806 
L 359.273165 296.864454 
L 360.902957 296.757243 
L 364.162541 296.650032 
L 365.792333 296.542821 
L 369.866813 296.167581 
L 370.681709 295.953159 
L 375.571084 295.738736 
L 379.645564 295.631525 
L 391.054107 294.988258 
L 392.683899 294.881047 
L 403.277547 294.291385 
L 408.981818 294.184174 
L 409.796714 294.023357 
L 416.315882 293.916146 
L 422.020153 293.648117 
L 430.984009 293.540906 
L 436.68828 293.272878 
L 443.207448 293.165667 
L 450.541512 292.790428 
L 455.430887 292.683216 
L 470.91391 291.771921 
L 477.433078 291.66471 
L 481.507558 291.28947 
L 483.137349 291.128653 
L 487.211829 291.075048 
L 490.471413 290.753414 
L 498.620372 290.324569 
L 503.509748 290.217358 
L 505.954436 290.163752 
L 508.399124 290.110147 
L 510.843812 289.842119 
L 517.362979 289.734907 
L 518.992771 289.466879 
L 520.622563 289.359668 
L 523.882147 289.252457 
L 525.511939 289.252457 
L 527.141731 288.984429 
L 535.29069 288.877218 
L 536.920482 288.716401 
L 540.180066 288.60919 
L 540.994962 288.394767 
L 542.624754 288.341161 
L 543.43965 288.180345 
L 545.884337 288.073133 
L 559.737568 287.269049 
L 562.182256 287.161838 
L 566.256736 287.001021 
L 577.665279 286.89381 
L 583.369551 286.625782 
L 589.888719 286.518571 
L 593.148302 286.411359 
L 596.407886 286.357754 
L 598.852574 286.143331 
L 606.186637 285.768092 
L 607.816429 285.660881 
L 611.076013 285.553669 
L 615.150493 285.446458 
L 619.224973 285.285641 
L 624.929244 285.17843 
L 628.188828 285.071219 
L 637.152683 284.964008 
L 642.042059 284.749585 
L 646.931435 284.642374 
L 649.376123 284.374346 
L 654.265498 284.32074 
L 655.080394 284.159923 
L 656.710186 284.052712 
L 659.96977 283.945501 
L 669.748521 283.83829 
L 673.823001 283.677473 
L 687.676232 283.623867 
L 689.306024 283.516656 
L 691.750712 283.46305 
L 702.344359 283.355839 
L 703.974151 283.248628 
L 712.938007 283.141417 
L 716.19759 283.034205 
L 725.976342 282.9806 
L 727.606134 282.873389 
L 739.829573 282.819783 
L 742.274261 282.605361 
L 747.163636 282.605361 
L 747.163636 282.605361 
" clip-path="url(#pb472e7de0b)" style="fill: none; stroke: #ff7f0e; stroke-width: 1.5; stroke-linecap: square"/>
   </g>
   <g id="patch_3">
    <path d="M 108 320.4 
L 108 43.2 
" style="fill: none; stroke: #a9a9a9; stroke-width: 0.8; stroke-linejoin: miter; stroke-linecap: square"/>
   </g>
   <g id="patch_4">
    <path d="M 777.6 320.4 
L 777.6 43.2 
" style="fill: none"/>
   </g>
   <g id="patch_5">
    <path d="M 108 320.4 
L 777.6 320.4 
" style="fill: none; stroke: #a9a9a9; stroke-width: 0.8; stroke-linejoin: miter; stroke-linecap: square"/>
   </g>
   <g id="patch_6">
    <path d="M 108 43.2 
L 777.6 43.2 
" style="fill: none"/>
   </g>
   <g id="text_19">
    <!-- get_subscribe history -->
    <g style="fill: #a9a9a9" transform="translate(378.6075 37.2) scale(0.12 -0.12)">
     <defs>
      <path id="DejaVuSans-67" d="M 2906 1791 
Q 2906 2416 2648 2759 
Q 2391 3103 1925 3103 
Q 1463 3103 1205 2759 
Q 947 2416 947 1791 
Q 947 1169 1205 825 
Q 1463 481 1925 481 
Q 2391 481 2648 825 
Q 2906 1169 2906 1791 
z
M 3481 434 
Q 3481 -459 3084 -895 
Q 2688 -1331 1869 -1331 
Q 1566 -1331 1297 -1286 
Q 1028 -1241 775 -1147 
L 775 -588 
Q 1028 -725 1275 -790 
Q 1522 -856 1778 -856 
Q 2344 -856 2625 -561 
Q 2906 -266 2906 331 
L 2906 616 
Q 2728 306 2450 153 
Q 2172 0 1784 0 
Q 1141 0 747 490 
Q 353 981 353 1791 
Q 353 2603 747 3093 
Q 1141 3584 1784 3584 
Q 2172 3584 2450 3431 
Q 2728 3278 2906 2969 
L 2906 3500 
L 3481 3500 
L 3481 434 
z
" transform="scale(0.015625)"/>
      <path id="DejaVuSans-65" d="M 3597 1894 
L 3597 1613 
L 953 1613 
Q 991 1019 1311 708 
Q 1631 397 2203 397 
Q 2534 397 2845 478 
Q 3156 559 3463 722 
L 3463 178 
Q 3153 47 2828 -22 
Q 2503 -91 2169 -91 
Q 1331 -91 842 396 
Q 353 884 353 1716 
Q 353 2575 817 3079 
Q 1281 3584 2069 3584 
Q 2775 3584 3186 3129 
Q 3597 2675 3597 1894 
z
M 3022 2063 
Q 3016 2534 2758 2815 
Q 2500 3097 2075 3097 
Q 1594 3097 1305 2825 
Q 1016 2553 972 2059 
L 3022 2063 
z
" transform="scale(0.015625)"/>
      <path id="DejaVuSans-74" d="M 1172 4494 
L 1172 3500 
L 2356 3500 
L 2356 3053 
L 1172 3053 
L 1172 1153 
Q 1172 725 1289 603 
Q 1406 481 1766 481 
L 2356 481 
L 2356 0 
L 1766 0 
Q 1100 0 847 248 
Q 594 497 594 1153 
L 594 3053 
L 172 3053 
L 172 3500 
L 594 3500 
L 594 4494 
L 1172 4494 
z
" transform="scale(0.015625)"/>
      <path id="DejaVuSans-5f" d="M 3263 -1063 
L 3263 -1509 
L -63 -1509 
L -63 -1063 
L 3263 -1063 
z
" transform="scale(0.015625)"/>
      <path id="DejaVuSans-73" d="M 2834 3397 
L 2834 2853 
Q 2591 2978 2328 3040 
Q 2066 3103 1784 3103 
Q 1356 3103 1142 2972 
Q 928 2841 928 2578 
Q 928 2378 1081 2264 
Q 1234 2150 1697 2047 
L 1894 2003 
Q 2506 1872 2764 1633 
Q 3022 1394 3022 966 
Q 3022 478 2636 193 
Q 2250 -91 1575 -91 
Q 1294 -91 989 -36 
Q 684 19 347 128 
L 347 722 
Q 666 556 975 473 
Q 1284 391 1588 391 
Q 1994 391 2212 530 
Q 2431 669 2431 922 
Q 2431 1156 2273 1281 
Q 2116 1406 1581 1522 
L 1381 1569 
Q 847 1681 609 1914 
Q 372 2147 372 2553 
Q 372 3047 722 3315 
Q 1072 3584 1716 3584 
Q 2034 3584 2315 3537 
Q 2597 3491 2834 3397 
z
" transform="scale(0.015625)"/>
      <path id="DejaVuSans-75" d="M 544 1381 
L 544 3500 
L 1119 3500 
L 1119 1403 
Q 1119 906 1312 657 
Q 1506 409 1894 409 
Q 2359 409 2629 706 
Q 2900 1003 2900 1516 
L 2900 3500 
L 3475 3500 
L 3475 0 
L 2900 0 
L 2900 538 
Q 2691 219 2414 64 
Q 2138 -91 1772 -91 
Q 1169 -91 856 284 
Q 544 659 544 1381 
z
M 1991 3584 
L 1991 3584 
z
" transform="scale(0.015625)"/>
      <path id="DejaVuSans-62" d="M 3116 1747 
Q 3116 2381 2855 2742 
Q 2594 3103 2138 3103 
Q 1681 3103 1420 2742 
Q 1159 2381 1159 1747 
Q 1159 1113 1420 752 
Q 1681 391 2138 391 
Q 2594 391 2855 752 
Q 3116 1113 3116 1747 
z
M 1159 2969 
Q 1341 3281 1617 3432 
Q 1894 3584 2278 3584 
Q 2916 3584 3314 3078 
Q 3713 2572 3713 1747 
Q 3713 922 3314 415 
Q 2916 -91 2278 -91 
Q 1894 -91 1617 61 
Q 1341 213 1159 525 
L 1159 0 
L 581 0 
L 581 4863 
L 1159 4863 
L 1159 2969 
z
" transform="scale(0.015625)"/>
      <path id="DejaVuSans-63" d="M 3122 3366 
L 3122 2828 
Q 2878 2963 2633 3030 
Q 2388 3097 2138 3097 
Q 1578 3097 1268 2742 
Q 959 2388 959 1747 
Q 959 1106 1268 751 
Q 1578 397 2138 397 
Q 2388 397 2633 464 
Q 2878 531 3122 666 
L 3122 134 
Q 2881 22 2623 -34 
Q 2366 -91 2075 -91 
Q 1284 -91 818 406 
Q 353 903 353 1747 
Q 353 2603 823 3093 
Q 1294 3584 2113 3584 
Q 2378 3584 2631 3529 
Q 2884 3475 3122 3366 
z
" transform="scale(0.015625)"/>
      <path id="DejaVuSans-72" d="M 2631 2963 
Q 2534 3019 2420 3045 
Q 2306 3072 2169 3072 
Q 1681 3072 1420 2755 
Q 1159 2438 1159 1844 
L 1159 0 
L 581 0 
L 581 3500 
L 1159 3500 
L 1159 2956 
Q 1341 3275 1631 3429 
Q 1922 3584 2338 3584 
Q 2397 3584 2469 3576 
Q 2541 3569 2628 3553 
L 2631 2963 
z
" transform="scale(0.015625)"/>
      <path id="DejaVuSans-69" d="M 603 3500 
L 1178 3500 
L 1178 0 
L 603 0 
L 603 3500 
z
M 603 4863 
L 1178 4863 
L 1178 4134 
L 603 4134 
L 603 4863 
z
" transform="scale(0.015625)"/>
      <path id="DejaVuSans-20" transform="scale(0.015625)"/>
      <path id="DejaVuSans-68" d="M 3513 2113 
L 3513 0 
L 2938 0 
L 2938 2094 
Q 2938 2591 2744 2837 
Q 2550 3084 2163 3084 
Q 1697 3084 1428 2787 
Q 1159 2491 1159 1978 
L 1159 0 
L 581 0 
L 581 4863 
L 1159 4863 
L 1159 2956 
Q 1366 3272 1645 3428 
Q 1925 3584 2291 3584 
Q 2894 3584 3203 3211 
Q 3513 2838 3513 2113 
z
" transform="scale(0.015625)"/>
      <path id="DejaVuSans-6f" d="M 1959 3097 
Q 1497 3097 1228 2736 
Q 959 2375 959 1747 
Q 959 1119 1226 758 
Q 1494 397 1959 397 
Q 2419 397 2687 759 
Q 2956 1122 2956 1747 
Q 2956 2369 2687 2733 
Q 2419 3097 1959 3097 
z
M 1959 3584 
Q 2709 3584 3137 3096 
Q 3566 2609 3566 1747 
Q 3566 888 3137 398 
Q 2709 -91 1959 -91 
Q 1206 -91 779 398 
Q 353 888 353 1747 
Q 353 2609 779 3096 
Q 1206 3584 1959 3584 
z
" transform="scale(0.015625)"/>
      <path id="DejaVuSans-79" d="M 2059 -325 
Q 1816 -950 1584 -1140 
Q 1353 -1331 966 -1331 
L 506 -1331 
L 506 -850 
L 844 -850 
Q 1081 -850 1212 -737 
Q 1344 -625 1503 -206 
L 1606 56 
L 191 3500 
L 800 3500 
L 1894 763 
L 2988 3500 
L 3597 3500 
L 2059 -325 
z
" transform="scale(0.015625)"/>
     </defs>
     <use xlink:href="#DejaVuSans-67"/>
     <use xlink:href="#DejaVuSans-65" x="63.476562"/>
     <use xlink:href="#DejaVuSans-74" x="125"/>
     <use xlink:href="#DejaVuSans-5f" x="164.208984"/>
     <use xlink:href="#DejaVuSans-73" x="214.208984"/>
     <use xlink:href="#DejaVuSans-75" x="266.308594"/>
     <use xlink:href="#DejaVuSans-62" x="329.6875"/>
     <use xlink:href="#DejaVuSans-73" x="393.164062"/>
     <use xlink:href="#DejaVuSans-63" x="445.263672"/>
     <use xlink:href="#DejaVuSans-72" x="500.244141"/>
     <use xlink:href="#DejaVuSans-69" x="541.357422"/>
     <use xlink:href="#DejaVuSans-62" x="569.140625"/>
     <use xlink:href="#DejaVuSans-65" x="632.617188"/>
     <use xlink:href="#DejaVuSans-20" x="694.140625"/>
     <use xlink:href="#DejaVuSans-68" x="725.927734"/>
     <use xlink:href="#DejaVuSans-69" x="789.306641"/>
     <use xlink:href="#DejaVuSans-73" x="817.089844"/>
     <use xlink:href="#DejaVuSans-74" x="869.189453"/>
     <use xlink:href="#DejaVuSans-6f" x="908.398438"/>
     <use xlink:href="#DejaVuSans-72" x="969.580078"/>
     <use xlink:href="#DejaVuSans-79" x="1010.693359"/>
    </g>
   </g>
   <g id="legend_1">
    <g id="line2d_39">
     <path d="M 815.08 328.498438 
L 825.08 328.498438 
L 835.08 328.498438 
" style="fill: none; stroke: #1f77b4; stroke-width: 1.5; stroke-linecap: square"/>
    </g>
    <g id="text_20">
     <!-- star -->
     <g style="fill: #a9a9a9" transform="translate(843.08 331.998438) scale(0.1 -0.1)">
      <defs>
       <path id="DejaVuSans-61" d="M 2194 1759 
Q 1497 1759 1228 1600 
Q 959 1441 959 1056 
Q 959 750 1161 570 
Q 1363 391 1709 391 
Q 2188 391 2477 730 
Q 2766 1069 2766 1631 
L 2766 1759 
L 2194 1759 
z
M 3341 1997 
L 3341 0 
L 2766 0 
L 2766 531 
Q 2569 213 2275 61 
Q 1981 -91 1556 -91 
Q 1019 -91 701 211 
Q 384 513 384 1019 
Q 384 1609 779 1909 
Q 1175 2209 1959 2209 
L 2766 2209 
L 2766 2266 
Q 2766 2663 2505 2880 
Q 2244 3097 1772 3097 
Q 1472 3097 1187 3025 
Q 903 2953 641 2809 
L 641 3341 
Q 956 3463 1253 3523 
Q 1550 3584 1831 3584 
Q 2591 3584 2966 3190 
Q 3341 2797 3341 1997 
z
" transform="scale(0.015625)"/>
      </defs>
      <use xlink:href="#DejaVuSans-73"/>
      <use xlink:href="#DejaVuSans-74" x="52.099609"/>
      <use xlink:href="#DejaVuSans-61" x="91.308594"/>
      <use xlink:href="#DejaVuSans-72" x="152.587891"/>
     </g>
    </g>
    <g id="line2d_40">
     <path d="M 815.08 343.176562 
L 825.08 343.176562 
L 835.08 343.176562 
" style="fill: none; stroke: #ff7f0e; stroke-width: 1.5; stroke-linecap: square"/>
    </g>
    <g id="text_21">
     <!-- fork -->
     <g style="fill: #a9a9a9" transform="translate(843.08 346.676562) scale(0.1 -0.1)">
      <defs>
       <path id="DejaVuSans-66" d="M 2375 4863 
L 2375 4384 
L 1825 4384 
Q 1516 4384 1395 4259 
Q 1275 4134 1275 3809 
L 1275 3500 
L 2222 3500 
L 2222 3053 
L 1275 3053 
L 1275 0 
L 697 0 
L 697 3053 
L 147 3053 
L 147 3500 
L 697 3500 
L 697 3744 
Q 697 4328 969 4595 
Q 1241 4863 1831 4863 
L 2375 4863 
z
" transform="scale(0.015625)"/>
       <path id="DejaVuSans-6b" d="M 581 4863 
L 1159 4863 
L 1159 1991 
L 2875 3500 
L 3609 3500 
L 1753 1863 
L 3688 0 
L 2938 0 
L 1159 1709 
L 1159 0 
L 581 0 
L 581 4863 
z
" transform="scale(0.015625)"/>
      </defs>
      <use xlink:href="#DejaVuSans-66"/>
      <use xlink:href="#DejaVuSans-6f" x="35.205078"/>
      <use xlink:href="#DejaVuSans-72" x="96.386719"/>
      <use xlink:href="#DejaVuSans-6b" x="137.5"/>
     </g>
    </g>
   </g>
  </g>
 </g>
 <defs>
  <clipPath id="pb472e7de0b">
   <rect x="108" y="43.2" width="669.6" height="277.2"/>
  </clipPath>
 </defs>
</svg>
