<?xml version="1.0" encoding="utf-8" standalone="no"?>
<!DOCTYPE svg PUBLIC "-//W3C//DTD SVG 1.1//EN"
  "http://www.w3.org/Graphics/SVG/1.1/DTD/svg11.dtd">
<svg xmlns:xlink="http://www.w3.org/1999/xlink" width="864pt" height="360pt" viewBox="0 0 864 360" xmlns="http://www.w3.org/2000/svg" version="1.1">
 <metadata>
  <rdf:RDF xmlns:dc="http://purl.org/dc/elements/1.1/" xmlns:cc="http://creativecommons.org/ns#" xmlns:rdf="http://www.w3.org/1999/02/22-rdf-syntax-ns#">
   <cc:Work>
    <dc:type rdf:resource="http://purl.org/dc/dcmitype/StillImage"/>
    <dc:date>2023-08-08T20:20:47.568670</dc:date>
    <dc:format>image/svg+xml</dc:format>
    <dc:creator>
     <cc:Agent>
      <dc:title>Matplotlib v3.7.2, https://matplotlib.org/</dc:title>
     </cc:Agent>
    </dc:creator>
   </cc:Work>
  </rdf:RDF>
 </metadata>
 <defs>
  <style type="text/css">*{stroke-linejoin: round; stroke-linecap: butt}</style>
 </defs>
 <g id="figure_1">
  <g id="patch_1">
   <path d="M 0 360 
L 864 360 
L 864 0 
L 0 0 
L 0 360 
z
" style="fill: none; opacity: 0"/>
  </g>
  <g id="axes_1">
   <g id="patch_2">
    <path d="M 108 320.4 
L 777.6 320.4 
L 777.6 43.2 
L 108 43.2 
L 108 320.4 
z
" style="fill: none; opacity: 0"/>
   </g>
   <g id="matplotlib.axis_1">
    <g id="xtick_1">
     <g id="line2d_1">
      <path d="M 119.643441 320.4 
L 119.643441 43.2 
" clip-path="url(#p04f6be1a9d)" style="fill: none; stroke-dasharray: 5.12,1.28,0.8,1.28; stroke-dashoffset: 0; stroke: #b0b0b0; stroke-width: 0.8"/>
     </g>
     <g id="line2d_2">
      <defs>
       <path id="m8af4baac61" d="M 0 0 
L 0 3.5 
" style="stroke: #a9a9a9; stroke-width: 0.8"/>
      </defs>
      <g>
       <use xlink:href="#m8af4baac61" x="119.643441" y="320.4" style="fill: #a9a9a9; stroke: #a9a9a9; stroke-width: 0.8"/>
      </g>
     </g>
     <g id="text_1">
      <!-- 2021-07 -->
      <g style="fill: #a9a9a9" transform="translate(98.752035 334.998438) scale(0.1 -0.1)">
       <defs>
        <path id="DejaVuSans-32" d="M 1228 531 
L 3431 531 
L 3431 0 
L 469 0 
L 469 531 
Q 828 903 1448 1529 
Q 2069 2156 2228 2338 
Q 2531 2678 2651 2914 
Q 2772 3150 2772 3378 
Q 2772 3750 2511 3984 
Q 2250 4219 1831 4219 
Q 1534 4219 1204 4116 
Q 875 4013 500 3803 
L 500 4441 
Q 881 4594 1212 4672 
Q 1544 4750 1819 4750 
Q 2544 4750 2975 4387 
Q 3406 4025 3406 3419 
Q 3406 3131 3298 2873 
Q 3191 2616 2906 2266 
Q 2828 2175 2409 1742 
Q 1991 1309 1228 531 
z
" transform="scale(0.015625)"/>
        <path id="DejaVuSans-30" d="M 2034 4250 
Q 1547 4250 1301 3770 
Q 1056 3291 1056 2328 
Q 1056 1369 1301 889 
Q 1547 409 2034 409 
Q 2525 409 2770 889 
Q 3016 1369 3016 2328 
Q 3016 3291 2770 3770 
Q 2525 4250 2034 4250 
z
M 2034 4750 
Q 2819 4750 3233 4129 
Q 3647 3509 3647 2328 
Q 3647 1150 3233 529 
Q 2819 -91 2034 -91 
Q 1250 -91 836 529 
Q 422 1150 422 2328 
Q 422 3509 836 4129 
Q 1250 4750 2034 4750 
z
" transform="scale(0.015625)"/>
        <path id="DejaVuSans-31" d="M 794 531 
L 1825 531 
L 1825 4091 
L 703 3866 
L 703 4441 
L 1819 4666 
L 2450 4666 
L 2450 531 
L 3481 531 
L 3481 0 
L 794 0 
L 794 531 
z
" transform="scale(0.015625)"/>
        <path id="DejaVuSans-2d" d="M 313 2009 
L 1997 2009 
L 1997 1497 
L 313 1497 
L 313 2009 
z
" transform="scale(0.015625)"/>
        <path id="DejaVuSans-37" d="M 525 4666 
L 3525 4666 
L 3525 4397 
L 1831 0 
L 1172 0 
L 2766 4134 
L 525 4134 
L 525 4666 
z
" transform="scale(0.015625)"/>
       </defs>
       <use xlink:href="#DejaVuSans-32"/>
       <use xlink:href="#DejaVuSans-30" x="63.623047"/>
       <use xlink:href="#DejaVuSans-32" x="127.246094"/>
       <use xlink:href="#DejaVuSans-31" x="190.869141"/>
       <use xlink:href="#DejaVuSans-2d" x="254.492188"/>
       <use xlink:href="#DejaVuSans-30" x="290.576172"/>
       <use xlink:href="#DejaVuSans-37" x="354.199219"/>
      </g>
     </g>
    </g>
    <g id="xtick_2">
     <g id="line2d_3">
      <path d="M 194.815131 320.4 
L 194.815131 43.2 
" clip-path="url(#p04f6be1a9d)" style="fill: none; stroke-dasharray: 5.12,1.28,0.8,1.28; stroke-dashoffset: 0; stroke: #b0b0b0; stroke-width: 0.8"/>
     </g>
     <g id="line2d_4">
      <g>
       <use xlink:href="#m8af4baac61" x="194.815131" y="320.4" style="fill: #a9a9a9; stroke: #a9a9a9; stroke-width: 0.8"/>
      </g>
     </g>
     <g id="text_2">
      <!-- 2021-10 -->
      <g style="fill: #a9a9a9" transform="translate(173.923725 334.998438) scale(0.1 -0.1)">
       <use xlink:href="#DejaVuSans-32"/>
       <use xlink:href="#DejaVuSans-30" x="63.623047"/>
       <use xlink:href="#DejaVuSans-32" x="127.246094"/>
       <use xlink:href="#DejaVuSans-31" x="190.869141"/>
       <use xlink:href="#DejaVuSans-2d" x="254.492188"/>
       <use xlink:href="#DejaVuSans-31" x="290.576172"/>
       <use xlink:href="#DejaVuSans-30" x="354.199219"/>
      </g>
     </g>
    </g>
    <g id="xtick_3">
     <g id="line2d_5">
      <path d="M 269.986821 320.4 
L 269.986821 43.2 
" clip-path="url(#p04f6be1a9d)" style="fill: none; stroke-dasharray: 5.12,1.28,0.8,1.28; stroke-dashoffset: 0; stroke: #b0b0b0; stroke-width: 0.8"/>
     </g>
     <g id="line2d_6">
      <g>
       <use xlink:href="#m8af4baac61" x="269.986821" y="320.4" style="fill: #a9a9a9; stroke: #a9a9a9; stroke-width: 0.8"/>
      </g>
     </g>
     <g id="text_3">
      <!-- 2022-01 -->
      <g style="fill: #a9a9a9" transform="translate(249.095415 334.998438) scale(0.1 -0.1)">
       <use xlink:href="#DejaVuSans-32"/>
       <use xlink:href="#DejaVuSans-30" x="63.623047"/>
       <use xlink:href="#DejaVuSans-32" x="127.246094"/>
       <use xlink:href="#DejaVuSans-32" x="190.869141"/>
       <use xlink:href="#DejaVuSans-2d" x="254.492188"/>
       <use xlink:href="#DejaVuSans-30" x="290.576172"/>
       <use xlink:href="#DejaVuSans-31" x="354.199219"/>
      </g>
     </g>
    </g>
    <g id="xtick_4">
     <g id="line2d_7">
      <path d="M 343.524344 320.4 
L 343.524344 43.2 
" clip-path="url(#p04f6be1a9d)" style="fill: none; stroke-dasharray: 5.12,1.28,0.8,1.28; stroke-dashoffset: 0; stroke: #b0b0b0; stroke-width: 0.8"/>
     </g>
     <g id="line2d_8">
      <g>
       <use xlink:href="#m8af4baac61" x="343.524344" y="320.4" style="fill: #a9a9a9; stroke: #a9a9a9; stroke-width: 0.8"/>
      </g>
     </g>
     <g id="text_4">
      <!-- 2022-04 -->
      <g style="fill: #a9a9a9" transform="translate(322.632938 334.998438) scale(0.1 -0.1)">
       <defs>
        <path id="DejaVuSans-34" d="M 2419 4116 
L 825 1625 
L 2419 1625 
L 2419 4116 
z
M 2253 4666 
L 3047 4666 
L 3047 1625 
L 3713 1625 
L 3713 1100 
L 3047 1100 
L 3047 0 
L 2419 0 
L 2419 1100 
L 313 1100 
L 313 1709 
L 2253 4666 
z
" transform="scale(0.015625)"/>
       </defs>
       <use xlink:href="#DejaVuSans-32"/>
       <use xlink:href="#DejaVuSans-30" x="63.623047"/>
       <use xlink:href="#DejaVuSans-32" x="127.246094"/>
       <use xlink:href="#DejaVuSans-32" x="190.869141"/>
       <use xlink:href="#DejaVuSans-2d" x="254.492188"/>
       <use xlink:href="#DejaVuSans-30" x="290.576172"/>
       <use xlink:href="#DejaVuSans-34" x="354.199219"/>
      </g>
     </g>
    </g>
    <g id="xtick_5">
     <g id="line2d_9">
      <path d="M 417.878951 320.4 
L 417.878951 43.2 
" clip-path="url(#p04f6be1a9d)" style="fill: none; stroke-dasharray: 5.12,1.28,0.8,1.28; stroke-dashoffset: 0; stroke: #b0b0b0; stroke-width: 0.8"/>
     </g>
     <g id="line2d_10">
      <g>
       <use xlink:href="#m8af4baac61" x="417.878951" y="320.4" style="fill: #a9a9a9; stroke: #a9a9a9; stroke-width: 0.8"/>
      </g>
     </g>
     <g id="text_5">
      <!-- 2022-07 -->
      <g style="fill: #a9a9a9" transform="translate(396.987544 334.998438) scale(0.1 -0.1)">
       <use xlink:href="#DejaVuSans-32"/>
       <use xlink:href="#DejaVuSans-30" x="63.623047"/>
       <use xlink:href="#DejaVuSans-32" x="127.246094"/>
       <use xlink:href="#DejaVuSans-32" x="190.869141"/>
       <use xlink:href="#DejaVuSans-2d" x="254.492188"/>
       <use xlink:href="#DejaVuSans-30" x="290.576172"/>
       <use xlink:href="#DejaVuSans-37" x="354.199219"/>
      </g>
     </g>
    </g>
    <g id="xtick_6">
     <g id="line2d_11">
      <path d="M 493.050641 320.4 
L 493.050641 43.2 
" clip-path="url(#p04f6be1a9d)" style="fill: none; stroke-dasharray: 5.12,1.28,0.8,1.28; stroke-dashoffset: 0; stroke: #b0b0b0; stroke-width: 0.8"/>
     </g>
     <g id="line2d_12">
      <g>
       <use xlink:href="#m8af4baac61" x="493.050641" y="320.4" style="fill: #a9a9a9; stroke: #a9a9a9; stroke-width: 0.8"/>
      </g>
     </g>
     <g id="text_6">
      <!-- 2022-10 -->
      <g style="fill: #a9a9a9" transform="translate(472.159234 334.998438) scale(0.1 -0.1)">
       <use xlink:href="#DejaVuSans-32"/>
       <use xlink:href="#DejaVuSans-30" x="63.623047"/>
       <use xlink:href="#DejaVuSans-32" x="127.246094"/>
       <use xlink:href="#DejaVuSans-32" x="190.869141"/>
       <use xlink:href="#DejaVuSans-2d" x="254.492188"/>
       <use xlink:href="#DejaVuSans-31" x="290.576172"/>
       <use xlink:href="#DejaVuSans-30" x="354.199219"/>
      </g>
     </g>
    </g>
    <g id="xtick_7">
     <g id="line2d_13">
      <path d="M 568.222331 320.4 
L 568.222331 43.2 
" clip-path="url(#p04f6be1a9d)" style="fill: none; stroke-dasharray: 5.12,1.28,0.8,1.28; stroke-dashoffset: 0; stroke: #b0b0b0; stroke-width: 0.8"/>
     </g>
     <g id="line2d_14">
      <g>
       <use xlink:href="#m8af4baac61" x="568.222331" y="320.4" style="fill: #a9a9a9; stroke: #a9a9a9; stroke-width: 0.8"/>
      </g>
     </g>
     <g id="text_7">
      <!-- 2023-01 -->
      <g style="fill: #a9a9a9" transform="translate(547.330924 334.998438) scale(0.1 -0.1)">
       <defs>
        <path id="DejaVuSans-33" d="M 2597 2516 
Q 3050 2419 3304 2112 
Q 3559 1806 3559 1356 
Q 3559 666 3084 287 
Q 2609 -91 1734 -91 
Q 1441 -91 1130 -33 
Q 819 25 488 141 
L 488 750 
Q 750 597 1062 519 
Q 1375 441 1716 441 
Q 2309 441 2620 675 
Q 2931 909 2931 1356 
Q 2931 1769 2642 2001 
Q 2353 2234 1838 2234 
L 1294 2234 
L 1294 2753 
L 1863 2753 
Q 2328 2753 2575 2939 
Q 2822 3125 2822 3475 
Q 2822 3834 2567 4026 
Q 2313 4219 1838 4219 
Q 1578 4219 1281 4162 
Q 984 4106 628 3988 
L 628 4550 
Q 988 4650 1302 4700 
Q 1616 4750 1894 4750 
Q 2613 4750 3031 4423 
Q 3450 4097 3450 3541 
Q 3450 3153 3228 2886 
Q 3006 2619 2597 2516 
z
" transform="scale(0.015625)"/>
       </defs>
       <use xlink:href="#DejaVuSans-32"/>
       <use xlink:href="#DejaVuSans-30" x="63.623047"/>
       <use xlink:href="#DejaVuSans-32" x="127.246094"/>
       <use xlink:href="#DejaVuSans-33" x="190.869141"/>
       <use xlink:href="#DejaVuSans-2d" x="254.492188"/>
       <use xlink:href="#DejaVuSans-30" x="290.576172"/>
       <use xlink:href="#DejaVuSans-31" x="354.199219"/>
      </g>
     </g>
    </g>
    <g id="xtick_8">
     <g id="line2d_15">
      <path d="M 641.759854 320.4 
L 641.759854 43.2 
" clip-path="url(#p04f6be1a9d)" style="fill: none; stroke-dasharray: 5.12,1.28,0.8,1.28; stroke-dashoffset: 0; stroke: #b0b0b0; stroke-width: 0.8"/>
     </g>
     <g id="line2d_16">
      <g>
       <use xlink:href="#m8af4baac61" x="641.759854" y="320.4" style="fill: #a9a9a9; stroke: #a9a9a9; stroke-width: 0.8"/>
      </g>
     </g>
     <g id="text_8">
      <!-- 2023-04 -->
      <g style="fill: #a9a9a9" transform="translate(620.868447 334.998438) scale(0.1 -0.1)">
       <use xlink:href="#DejaVuSans-32"/>
       <use xlink:href="#DejaVuSans-30" x="63.623047"/>
       <use xlink:href="#DejaVuSans-32" x="127.246094"/>
       <use xlink:href="#DejaVuSans-33" x="190.869141"/>
       <use xlink:href="#DejaVuSans-2d" x="254.492188"/>
       <use xlink:href="#DejaVuSans-30" x="290.576172"/>
       <use xlink:href="#DejaVuSans-34" x="354.199219"/>
      </g>
     </g>
    </g>
    <g id="xtick_9">
     <g id="line2d_17">
      <path d="M 716.11446 320.4 
L 716.11446 43.2 
" clip-path="url(#p04f6be1a9d)" style="fill: none; stroke-dasharray: 5.12,1.28,0.8,1.28; stroke-dashoffset: 0; stroke: #b0b0b0; stroke-width: 0.8"/>
     </g>
     <g id="line2d_18">
      <g>
       <use xlink:href="#m8af4baac61" x="716.11446" y="320.4" style="fill: #a9a9a9; stroke: #a9a9a9; stroke-width: 0.8"/>
      </g>
     </g>
     <g id="text_9">
      <!-- 2023-07 -->
      <g style="fill: #a9a9a9" transform="translate(695.223054 334.998438) scale(0.1 -0.1)">
       <use xlink:href="#DejaVuSans-32"/>
       <use xlink:href="#DejaVuSans-30" x="63.623047"/>
       <use xlink:href="#DejaVuSans-32" x="127.246094"/>
       <use xlink:href="#DejaVuSans-33" x="190.869141"/>
       <use xlink:href="#DejaVuSans-2d" x="254.492188"/>
       <use xlink:href="#DejaVuSans-30" x="290.576172"/>
       <use xlink:href="#DejaVuSans-37" x="354.199219"/>
      </g>
     </g>
    </g>
   </g>
   <g id="matplotlib.axis_2">
    <g id="ytick_1">
     <g id="line2d_19">
      <path d="M 108 307.85364 
L 777.6 307.85364 
" clip-path="url(#p04f6be1a9d)" style="fill: none; stroke-dasharray: 5.12,1.28,0.8,1.28; stroke-dashoffset: 0; stroke: #b0b0b0; stroke-width: 0.8"/>
     </g>
     <g id="line2d_20">
      <defs>
       <path id="m269fd3ed6e" d="M 0 0 
L -3.5 0 
" style="stroke: #a9a9a9; stroke-width: 0.8"/>
      </defs>
      <g>
       <use xlink:href="#m269fd3ed6e" x="108" y="307.85364" style="fill: #a9a9a9; stroke: #a9a9a9; stroke-width: 0.8"/>
      </g>
     </g>
     <g id="text_10">
      <!-- 0 -->
      <g style="fill: #a9a9a9" transform="translate(94.6375 311.652859) scale(0.1 -0.1)">
       <use xlink:href="#DejaVuSans-30"/>
      </g>
     </g>
    </g>
    <g id="ytick_2">
     <g id="line2d_21">
      <path d="M 108 275.669732 
L 777.6 275.669732 
" clip-path="url(#p04f6be1a9d)" style="fill: none; stroke-dasharray: 5.12,1.28,0.8,1.28; stroke-dashoffset: 0; stroke: #b0b0b0; stroke-width: 0.8"/>
     </g>
     <g id="line2d_22">
      <g>
       <use xlink:href="#m269fd3ed6e" x="108" y="275.669732" style="fill: #a9a9a9; stroke: #a9a9a9; stroke-width: 0.8"/>
      </g>
     </g>
     <g id="text_11">
      <!-- 600 -->
      <g style="fill: #a9a9a9" transform="translate(81.9125 279.468951) scale(0.1 -0.1)">
       <defs>
        <path id="DejaVuSans-36" d="M 2113 2584 
Q 1688 2584 1439 2293 
Q 1191 2003 1191 1497 
Q 1191 994 1439 701 
Q 1688 409 2113 409 
Q 2538 409 2786 701 
Q 3034 994 3034 1497 
Q 3034 2003 2786 2293 
Q 2538 2584 2113 2584 
z
M 3366 4563 
L 3366 3988 
Q 3128 4100 2886 4159 
Q 2644 4219 2406 4219 
Q 1781 4219 1451 3797 
Q 1122 3375 1075 2522 
Q 1259 2794 1537 2939 
Q 1816 3084 2150 3084 
Q 2853 3084 3261 2657 
Q 3669 2231 3669 1497 
Q 3669 778 3244 343 
Q 2819 -91 2113 -91 
Q 1303 -91 875 529 
Q 447 1150 447 2328 
Q 447 3434 972 4092 
Q 1497 4750 2381 4750 
Q 2619 4750 2861 4703 
Q 3103 4656 3366 4563 
z
" transform="scale(0.015625)"/>
       </defs>
       <use xlink:href="#DejaVuSans-36"/>
       <use xlink:href="#DejaVuSans-30" x="63.623047"/>
       <use xlink:href="#DejaVuSans-30" x="127.246094"/>
      </g>
     </g>
    </g>
    <g id="ytick_3">
     <g id="line2d_23">
      <path d="M 108 243.485824 
L 777.6 243.485824 
" clip-path="url(#p04f6be1a9d)" style="fill: none; stroke-dasharray: 5.12,1.28,0.8,1.28; stroke-dashoffset: 0; stroke: #b0b0b0; stroke-width: 0.8"/>
     </g>
     <g id="line2d_24">
      <g>
       <use xlink:href="#m269fd3ed6e" x="108" y="243.485824" style="fill: #a9a9a9; stroke: #a9a9a9; stroke-width: 0.8"/>
      </g>
     </g>
     <g id="text_12">
      <!-- 1200 -->
      <g style="fill: #a9a9a9" transform="translate(75.55 247.285043) scale(0.1 -0.1)">
       <use xlink:href="#DejaVuSans-31"/>
       <use xlink:href="#DejaVuSans-32" x="63.623047"/>
       <use xlink:href="#DejaVuSans-30" x="127.246094"/>
       <use xlink:href="#DejaVuSans-30" x="190.869141"/>
      </g>
     </g>
    </g>
    <g id="ytick_4">
     <g id="line2d_25">
      <path d="M 108 211.301916 
L 777.6 211.301916 
" clip-path="url(#p04f6be1a9d)" style="fill: none; stroke-dasharray: 5.12,1.28,0.8,1.28; stroke-dashoffset: 0; stroke: #b0b0b0; stroke-width: 0.8"/>
     </g>
     <g id="line2d_26">
      <g>
       <use xlink:href="#m269fd3ed6e" x="108" y="211.301916" style="fill: #a9a9a9; stroke: #a9a9a9; stroke-width: 0.8"/>
      </g>
     </g>
     <g id="text_13">
      <!-- 1800 -->
      <g style="fill: #a9a9a9" transform="translate(75.55 215.101134) scale(0.1 -0.1)">
       <defs>
        <path id="DejaVuSans-38" d="M 2034 2216 
Q 1584 2216 1326 1975 
Q 1069 1734 1069 1313 
Q 1069 891 1326 650 
Q 1584 409 2034 409 
Q 2484 409 2743 651 
Q 3003 894 3003 1313 
Q 3003 1734 2745 1975 
Q 2488 2216 2034 2216 
z
M 1403 2484 
Q 997 2584 770 2862 
Q 544 3141 544 3541 
Q 544 4100 942 4425 
Q 1341 4750 2034 4750 
Q 2731 4750 3128 4425 
Q 3525 4100 3525 3541 
Q 3525 3141 3298 2862 
Q 3072 2584 2669 2484 
Q 3125 2378 3379 2068 
Q 3634 1759 3634 1313 
Q 3634 634 3220 271 
Q 2806 -91 2034 -91 
Q 1263 -91 848 271 
Q 434 634 434 1313 
Q 434 1759 690 2068 
Q 947 2378 1403 2484 
z
M 1172 3481 
Q 1172 3119 1398 2916 
Q 1625 2713 2034 2713 
Q 2441 2713 2670 2916 
Q 2900 3119 2900 3481 
Q 2900 3844 2670 4047 
Q 2441 4250 2034 4250 
Q 1625 4250 1398 4047 
Q 1172 3844 1172 3481 
z
" transform="scale(0.015625)"/>
       </defs>
       <use xlink:href="#DejaVuSans-31"/>
       <use xlink:href="#DejaVuSans-38" x="63.623047"/>
       <use xlink:href="#DejaVuSans-30" x="127.246094"/>
       <use xlink:href="#DejaVuSans-30" x="190.869141"/>
      </g>
     </g>
    </g>
    <g id="ytick_5">
     <g id="line2d_27">
      <path d="M 108 179.118008 
L 777.6 179.118008 
" clip-path="url(#p04f6be1a9d)" style="fill: none; stroke-dasharray: 5.12,1.28,0.8,1.28; stroke-dashoffset: 0; stroke: #b0b0b0; stroke-width: 0.8"/>
     </g>
     <g id="line2d_28">
      <g>
       <use xlink:href="#m269fd3ed6e" x="108" y="179.118008" style="fill: #a9a9a9; stroke: #a9a9a9; stroke-width: 0.8"/>
      </g>
     </g>
     <g id="text_14">
      <!-- 2400 -->
      <g style="fill: #a9a9a9" transform="translate(75.55 182.917226) scale(0.1 -0.1)">
       <use xlink:href="#DejaVuSans-32"/>
       <use xlink:href="#DejaVuSans-34" x="63.623047"/>
       <use xlink:href="#DejaVuSans-30" x="127.246094"/>
       <use xlink:href="#DejaVuSans-30" x="190.869141"/>
      </g>
     </g>
    </g>
    <g id="ytick_6">
     <g id="line2d_29">
      <path d="M 108 146.9341 
L 777.6 146.9341 
" clip-path="url(#p04f6be1a9d)" style="fill: none; stroke-dasharray: 5.12,1.28,0.8,1.28; stroke-dashoffset: 0; stroke: #b0b0b0; stroke-width: 0.8"/>
     </g>
     <g id="line2d_30">
      <g>
       <use xlink:href="#m269fd3ed6e" x="108" y="146.9341" style="fill: #a9a9a9; stroke: #a9a9a9; stroke-width: 0.8"/>
      </g>
     </g>
     <g id="text_15">
      <!-- 3000 -->
      <g style="fill: #a9a9a9" transform="translate(75.55 150.733318) scale(0.1 -0.1)">
       <use xlink:href="#DejaVuSans-33"/>
       <use xlink:href="#DejaVuSans-30" x="63.623047"/>
       <use xlink:href="#DejaVuSans-30" x="127.246094"/>
       <use xlink:href="#DejaVuSans-30" x="190.869141"/>
      </g>
     </g>
    </g>
    <g id="ytick_7">
     <g id="line2d_31">
      <path d="M 108 114.750192 
L 777.6 114.750192 
" clip-path="url(#p04f6be1a9d)" style="fill: none; stroke-dasharray: 5.12,1.28,0.8,1.28; stroke-dashoffset: 0; stroke: #b0b0b0; stroke-width: 0.8"/>
     </g>
     <g id="line2d_32">
      <g>
       <use xlink:href="#m269fd3ed6e" x="108" y="114.750192" style="fill: #a9a9a9; stroke: #a9a9a9; stroke-width: 0.8"/>
      </g>
     </g>
     <g id="text_16">
      <!-- 3600 -->
      <g style="fill: #a9a9a9" transform="translate(75.55 118.54941) scale(0.1 -0.1)">
       <use xlink:href="#DejaVuSans-33"/>
       <use xlink:href="#DejaVuSans-36" x="63.623047"/>
       <use xlink:href="#DejaVuSans-30" x="127.246094"/>
       <use xlink:href="#DejaVuSans-30" x="190.869141"/>
      </g>
     </g>
    </g>
    <g id="ytick_8">
     <g id="line2d_33">
      <path d="M 108 82.566284 
L 777.6 82.566284 
" clip-path="url(#p04f6be1a9d)" style="fill: none; stroke-dasharray: 5.12,1.28,0.8,1.28; stroke-dashoffset: 0; stroke: #b0b0b0; stroke-width: 0.8"/>
     </g>
     <g id="line2d_34">
      <g>
       <use xlink:href="#m269fd3ed6e" x="108" y="82.566284" style="fill: #a9a9a9; stroke: #a9a9a9; stroke-width: 0.8"/>
      </g>
     </g>
     <g id="text_17">
      <!-- 4200 -->
      <g style="fill: #a9a9a9" transform="translate(75.55 86.365502) scale(0.1 -0.1)">
       <use xlink:href="#DejaVuSans-34"/>
       <use xlink:href="#DejaVuSans-32" x="63.623047"/>
       <use xlink:href="#DejaVuSans-30" x="127.246094"/>
       <use xlink:href="#DejaVuSans-30" x="190.869141"/>
      </g>
     </g>
    </g>
    <g id="ytick_9">
     <g id="line2d_35">
      <path d="M 108 50.382375 
L 777.6 50.382375 
" clip-path="url(#p04f6be1a9d)" style="fill: none; stroke-dasharray: 5.12,1.28,0.8,1.28; stroke-dashoffset: 0; stroke: #b0b0b0; stroke-width: 0.8"/>
     </g>
     <g id="line2d_36">
      <g>
       <use xlink:href="#m269fd3ed6e" x="108" y="50.382375" style="fill: #a9a9a9; stroke: #a9a9a9; stroke-width: 0.8"/>
      </g>
     </g>
     <g id="text_18">
      <!-- 4800 -->
      <g style="fill: #a9a9a9" transform="translate(75.55 54.181594) scale(0.1 -0.1)">
       <use xlink:href="#DejaVuSans-34"/>
       <use xlink:href="#DejaVuSans-38" x="63.623047"/>
       <use xlink:href="#DejaVuSans-30" x="127.246094"/>
       <use xlink:href="#DejaVuSans-30" x="190.869141"/>
      </g>
     </g>
    </g>
   </g>
   <g id="line2d_37">
    <path d="M 138.436364 307.69272 
L 143.338865 307.317241 
L 144.155949 306.995402 
L 146.6072 306.727203 
L 152.326785 305.708046 
L 156.412203 305.332567 
L 157.229286 304.957088 
L 158.04637 304.742529 
L 158.863453 303.777011 
L 159.680537 303.240613 
L 160.497621 301.524138 
L 161.314704 301.416858 
L 162.131788 300.82682 
L 163.765955 300.075862 
L 165.400122 298.895785 
L 166.217206 298.144828 
L 167.851373 297.39387 
L 168.668456 297.072031 
L 169.48554 296.481992 
L 172.753874 295.140996 
L 173.570958 293.90728 
L 174.388041 293.263602 
L 176.022209 292.405364 
L 184.193045 291.278927 
L 185.010128 290.903448 
L 190.729713 290.47433 
L 192.36388 290.045211 
L 193.998048 289.723372 
L 200.534716 288.865134 
L 201.3518 288.436015 
L 202.168883 288.328736 
L 202.985967 288.006897 
L 204.620134 287.738697 
L 205.437218 287.685057 
L 206.254301 287.416858 
L 209.522636 286.9341 
L 211.156803 286.504981 
L 213.608054 286.290421 
L 215.242221 286.129502 
L 216.059304 285.914943 
L 216.876388 285.861303 
L 219.327639 285.163985 
L 224.23014 284.466667 
L 225.047224 284.198467 
L 225.864308 283.12567 
L 228.315558 282.267433 
L 230.766809 281.623755 
L 231.583893 281.248276 
L 232.400976 281.194636 
L 236.486394 280.121839 
L 238.120561 280.014559 
L 238.937645 279.90728 
L 241.388896 279.209962 
L 244.65723 278.459004 
L 245.474314 278.137165 
L 246.291397 278.029885 
L 247.108481 277.654406 
L 255.279317 276.47433 
L 259.364735 275.347893 
L 260.181818 274.865134 
L 263.450153 274.006897 
L 265.08432 273.095019 
L 265.901403 272.558621 
L 266.718487 272.451341 
L 267.53557 272.183142 
L 269.986821 271.754023 
L 270.803905 271.378544 
L 272.438072 271.110345 
L 274.072239 270.359387 
L 278.157657 269.39387 
L 280.608908 268.803831 
L 281.425991 268.481992 
L 282.243075 268.321073 
L 283.060159 267.999234 
L 283.877242 267.891954 
L 284.694326 267.516475 
L 285.511409 267.301916 
L 287.145577 267.194636 
L 288.779744 266.658238 
L 290.413911 266.550958 
L 291.230995 266.175479 
L 294.499329 265.63908 
L 297.767663 265.370881 
L 298.584747 265.209962 
L 300.218914 264.459004 
L 309.206833 260.865134 
L 310.023917 260.436015 
L 310.841001 259.577778 
L 311.658084 258.290421 
L 312.475168 257.271264 
L 313.292251 257.056705 
L 314.109335 257.056705 
L 315.743502 255.876628 
L 316.560586 255.662069 
L 317.377669 255.23295 
L 318.194753 255.072031 
L 319.011836 254.374713 
L 319.82892 254.160153 
L 322.280171 253.033716 
L 323.097254 252.068199 
L 323.914338 250.888123 
L 324.731422 250.405364 
L 325.548505 249.118008 
L 326.365589 248.31341 
L 327.182672 247.937931 
L 327.999756 247.723372 
L 329.633923 246.757854 
L 330.451007 246.382375 
L 333.719341 244.022222 
L 334.536425 242.895785 
L 335.353508 241.072031 
L 336.170592 239.891954 
L 336.987675 239.301916 
L 337.804759 238.980077 
L 341.073093 236.298084 
L 342.707261 235.118008 
L 343.524344 234.42069 
L 344.341428 233.294253 
L 345.158511 232.543295 
L 347.609762 230.88046 
L 349.243929 229.807663 
L 350.061013 229.110345 
L 350.878096 228.895785 
L 353.329347 227.662069 
L 354.963514 226.750192 
L 355.780598 226.428352 
L 357.414765 224.980077 
L 358.231849 224.014559 
L 359.866016 222.941762 
L 360.683099 222.727203 
L 361.500183 222.298084 
L 362.317267 221.708046 
L 363.951434 220.849808 
L 364.768517 220.742529 
L 366.402685 219.884291 
L 367.219768 219.455172 
L 368.036852 218.650575 
L 368.853935 218.167816 
L 369.671019 217.899617 
L 370.488103 217.363218 
L 373.756437 215.754023 
L 374.57352 215.056705 
L 377.841855 213.983908 
L 378.658938 213.44751 
L 379.476022 213.28659 
L 381.110189 212.750192 
L 383.56144 211.838314 
L 386.012691 210.980077 
L 387.646858 210.711877 
L 389.281025 209.370881 
L 390.915192 208.619923 
L 393.366443 207.278927 
L 395.00061 206.849808 
L 395.817694 206.36705 
L 396.634777 206.15249 
L 399.086028 204.650575 
L 401.537279 204.114176 
L 403.98853 203.255939 
L 405.622697 202.344061 
L 406.43978 202.236782 
L 407.256864 201.968582 
L 408.891031 201.646743 
L 411.342282 199.930268 
L 413.793533 199.39387 
L 414.610616 199.12567 
L 415.4277 198.535632 
L 420.330201 197.033716 
L 421.147285 196.980077 
L 426.86687 195.049042 
L 427.683954 194.673563 
L 430.135204 194.137165 
L 431.769372 193.761686 
L 432.586455 193.386207 
L 433.403539 193.225287 
L 435.85479 192.15249 
L 438.30604 190.972414 
L 439.123124 190.436015 
L 439.940207 190.221456 
L 442.391458 188.987739 
L 444.025625 188.612261 
L 445.659793 187.807663 
L 447.29396 187.378544 
L 448.111043 187.271264 
L 448.928127 186.734866 
L 449.74521 186.359387 
L 450.562294 186.198467 
L 452.196461 185.554789 
L 453.013545 185.39387 
L 453.830628 184.964751 
L 457.098963 184.481992 
L 458.73313 183.731034 
L 459.550214 183.087356 
L 460.367297 181.69272 
L 462.001464 181.370881 
L 462.818548 181.209962 
L 466.086882 179.600766 
L 466.903966 179.439847 
L 471.806467 177.186973 
L 472.623551 176.650575 
L 473.440635 176.328736 
L 475.891885 175.845977 
L 477.526052 175.095019 
L 478.343136 174.77318 
L 479.16022 174.6659 
L 482.428554 173.271264 
L 484.062721 172.198467 
L 484.879805 171.822989 
L 485.696888 171.715709 
L 486.513972 171.44751 
L 487.331056 171.39387 
L 490.59939 170.374713 
L 491.416473 170.321073 
L 492.233557 169.731034 
L 493.867724 169.194636 
L 496.318975 168.443678 
L 497.136059 167.96092 
L 497.953142 167.74636 
L 498.770226 167.209962 
L 499.587309 166.888123 
L 500.404393 166.405364 
L 502.03856 165.815326 
L 502.855644 165.600766 
L 503.672727 165.225287 
L 504.489811 165.010728 
L 505.306894 164.635249 
L 506.123978 164.045211 
L 506.941062 163.186973 
L 507.758145 162.650575 
L 508.575229 162.489655 
L 510.209396 161.309579 
L 511.02648 161.148659 
L 511.843563 159.968582 
L 512.660647 159.646743 
L 513.47773 159.056705 
L 514.294814 158.949425 
L 515.111897 158.413027 
L 515.928981 158.037548 
L 516.746065 157.876628 
L 517.563148 157.554789 
L 518.380232 156.911111 
L 519.197315 156.642912 
L 521.648566 155.087356 
L 524.916901 153.531801 
L 525.733984 153.424521 
L 527.368151 152.727203 
L 528.185235 152.244444 
L 529.002318 150.957088 
L 529.819402 150.15249 
L 530.636486 149.723372 
L 531.453569 149.562452 
L 533.087736 148.596935 
L 533.90482 148.436015 
L 535.538987 147.685057 
L 537.990238 146.6659 
L 539.624405 145.593103 
L 541.258572 143.930268 
L 542.892739 142.964751 
L 543.709823 142.481992 
L 544.526907 141.677395 
L 546.978157 139.74636 
L 547.795241 139.317241 
L 548.612325 138.459004 
L 549.429408 137.868966 
L 551.063575 137.332567 
L 551.880659 136.581609 
L 553.514826 135.777011 
L 554.33191 135.562452 
L 555.148993 134.972414 
L 555.966077 134.757854 
L 558.417328 133.524138 
L 559.234411 132.9341 
L 560.868578 132.290421 
L 561.685662 132.129502 
L 562.502746 131.646743 
L 568.222331 129.662069 
L 569.039414 128.964751 
L 572.307749 127.784674 
L 573.124832 127.570115 
L 573.941916 126.980077 
L 576.393167 125.90728 
L 577.21025 125.317241 
L 578.027334 124.888123 
L 579.661501 121.777011 
L 581.295668 119.953257 
L 582.112752 119.416858 
L 584.564002 118.397701 
L 585.381086 118.129502 
L 586.19817 118.022222 
L 587.015253 117.593103 
L 589.466504 116.842146 
L 591.917755 115.876628 
L 593.551922 114.803831 
L 596.003173 113.731034 
L 600.088591 111.478161 
L 600.905674 110.673563 
L 602.539841 109.815326 
L 603.356925 109.386207 
L 604.174009 109.118008 
L 604.991092 108.527969 
L 606.625259 107.777011 
L 607.442343 107.294253 
L 608.259426 106.972414 
L 609.07651 106.489655 
L 609.893594 106.275096 
L 610.710677 105.685057 
L 611.527761 105.363218 
L 612.344844 105.202299 
L 613.979012 104.558621 
L 616.430262 103.700383 
L 617.247346 103.110345 
L 618.881513 102.681226 
L 620.51568 102.091188 
L 621.332764 101.44751 
L 622.966931 100.964751 
L 623.784015 100.589272 
L 624.601098 100.374713 
L 626.235265 99.301916 
L 627.869433 98.604598 
L 629.5036 97.424521 
L 631.137767 96.888123 
L 631.954851 96.190805 
L 632.771934 96.029885 
L 633.589018 95.332567 
L 635.223185 94.42069 
L 636.857352 93.777011 
L 637.674436 92.972414 
L 640.125686 92.221456 
L 640.94277 91.738697 
L 641.759854 91.631418 
L 644.211104 90.451341 
L 647.479439 89.485824 
L 649.113606 89.271264 
L 649.930689 88.949425 
L 650.747773 88.788506 
L 652.38194 88.144828 
L 653.199024 88.091188 
L 655.650275 87.28659 
L 657.284442 86.321073 
L 658.918609 85.248276 
L 663.82111 82.941762 
L 666.272361 81.386207 
L 667.906528 81.010728 
L 670.357779 79.669732 
L 672.80903 78.918774 
L 673.626113 78.596935 
L 675.260281 78.221456 
L 679.345699 76.9341 
L 680.979866 76.612261 
L 682.614033 76.236782 
L 683.431117 75.861303 
L 684.2482 75.754023 
L 685.882367 75.110345 
L 686.699451 75.003065 
L 687.516534 74.627586 
L 689.150702 74.305747 
L 689.967785 73.930268 
L 692.419036 73.39387 
L 694.053203 73.072031 
L 701.406955 71.623755 
L 702.224039 71.301916 
L 703.041123 71.248276 
L 705.492373 70.550958 
L 706.309457 70.121839 
L 707.943624 69.585441 
L 708.760708 69.531801 
L 712.846126 68.351724 
L 718.565711 66.47433 
L 719.382794 66.47433 
L 721.016962 65.937931 
L 721.834045 65.133333 
L 722.651129 64.757854 
L 724.285296 64.275096 
L 727.55363 63.095019 
L 728.370714 62.82682 
L 729.187797 62.344061 
L 730.004881 62.183142 
L 730.821965 61.646743 
L 734.090299 60.681226 
L 734.907383 60.413027 
L 735.724466 59.930268 
L 736.54155 59.715709 
L 737.358633 59.072031 
L 739.809884 58.642912 
L 741.444051 57.784674 
L 742.261135 56.872797 
L 743.895302 56.550958 
L 745.529469 56.175479 
L 746.346553 55.90728 
L 747.163636 55.8 
L 747.163636 55.8 
" clip-path="url(#p04f6be1a9d)" style="fill: none; stroke: #1f77b4; stroke-width: 1.5; stroke-linecap: square"/>
   </g>
   <g id="line2d_38">
    <path d="M 139.253447 307.8 
L 141.704698 307.69272 
L 143.338865 307.585441 
L 149.05845 307.478161 
L 153.143868 307.317241 
L 156.412203 307.317241 
L 157.229286 307.102682 
L 159.680537 307.049042 
L 164.583038 306.512644 
L 176.839292 305.815326 
L 183.375961 305.708046 
L 187.461379 305.547126 
L 197.266382 305.439847 
L 201.3518 305.278927 
L 206.254301 305.171648 
L 209.522636 305.064368 
L 216.876388 304.957088 
L 219.327639 304.903448 
L 221.77889 304.849808 
L 224.23014 304.581609 
L 229.132642 304.527969 
L 230.766809 304.42069 
L 236.486394 304.31341 
L 245.474314 303.830651 
L 251.193899 303.723372 
L 252.828066 303.616092 
L 255.279317 303.508812 
L 260.181818 303.294253 
L 263.450153 303.240613 
L 265.901403 303.026054 
L 279.791824 302.221456 
L 282.243075 302.114176 
L 287.96266 301.845977 
L 290.413911 301.738697 
L 298.584747 301.309579 
L 307.572666 301.202299 
L 310.841001 300.88046 
L 312.475168 300.77318 
L 321.463087 300.129502 
L 322.280171 299.914943 
L 324.731422 299.700383 
L 326.365589 299.324904 
L 328.81684 299.271264 
L 331.26809 299.163985 
L 337.804759 298.359387 
L 341.890177 298.252107 
L 352.512264 297.44751 
L 357.414765 296.911111 
L 359.866016 296.857471 
L 361.500183 296.750192 
L 364.768517 296.642912 
L 366.402685 296.535632 
L 370.488103 296.160153 
L 371.305186 295.945594 
L 376.207688 295.731034 
L 380.293106 295.623755 
L 391.732276 294.980077 
L 393.366443 294.872797 
L 403.98853 294.282759 
L 409.708115 294.175479 
L 410.525198 294.014559 
L 417.061867 293.90728 
L 422.781452 293.63908 
L 431.769372 293.531801 
L 437.488957 293.263602 
L 444.025625 293.156322 
L 451.379378 292.780843 
L 456.281879 292.673563 
L 471.806467 291.761686 
L 478.343136 291.654406 
L 482.428554 291.278927 
L 484.062721 291.118008 
L 488.148139 291.064368 
L 491.416473 290.742529 
L 499.587309 290.31341 
L 504.489811 290.20613 
L 506.941062 290.15249 
L 509.392312 290.098851 
L 511.843563 289.830651 
L 518.380232 289.723372 
L 520.014399 289.455172 
L 521.648566 289.347893 
L 524.916901 289.240613 
L 526.551068 289.240613 
L 528.185235 288.972414 
L 536.356071 288.865134 
L 537.990238 288.704215 
L 541.258572 288.596935 
L 542.075656 288.382375 
L 543.709823 288.328736 
L 544.526907 288.167816 
L 546.978157 288.060536 
L 560.868578 287.255939 
L 563.319829 287.148659 
L 567.405247 286.987739 
L 578.844417 286.88046 
L 584.564002 286.612261 
L 591.100671 286.504981 
L 594.369005 286.397701 
L 597.63734 286.344061 
L 600.088591 286.129502 
L 607.442343 285.754023 
L 609.07651 285.646743 
L 612.344844 285.539464 
L 616.430262 285.432184 
L 620.51568 285.271264 
L 626.235265 285.163985 
L 629.5036 285.056705 
L 638.491519 284.949425 
L 643.394021 284.734866 
L 648.296522 284.627586 
L 650.747773 284.359387 
L 655.650275 284.305747 
L 656.467358 284.144828 
L 658.101525 284.037548 
L 661.36986 283.930268 
L 671.174863 283.822989 
L 675.260281 283.662069 
L 689.150702 283.608429 
L 690.784869 283.501149 
L 693.23612 283.44751 
L 703.858206 283.34023 
L 705.492373 283.23295 
L 714.480293 283.12567 
L 717.748627 283.018391 
L 727.55363 282.964751 
L 729.187797 282.857471 
L 741.444051 282.803831 
L 743.895302 282.589272 
L 747.163636 282.589272 
L 747.163636 282.589272 
" clip-path="url(#p04f6be1a9d)" style="fill: none; stroke: #ff7f0e; stroke-width: 1.5; stroke-linecap: square"/>
   </g>
   <g id="patch_3">
    <path d="M 108 320.4 
L 108 43.2 
" style="fill: none; stroke: #a9a9a9; stroke-width: 0.8; stroke-linejoin: miter; stroke-linecap: square"/>
   </g>
   <g id="patch_4">
    <path d="M 777.6 320.4 
L 777.6 43.2 
" style="fill: none"/>
   </g>
   <g id="patch_5">
    <path d="M 108 320.4 
L 777.6 320.4 
" style="fill: none; stroke: #a9a9a9; stroke-width: 0.8; stroke-linejoin: miter; stroke-linecap: square"/>
   </g>
   <g id="patch_6">
    <path d="M 108 43.2 
L 777.6 43.2 
" style="fill: none"/>
   </g>
   <g id="text_19">
    <!-- get_subscribe history -->
    <g style="fill: #a9a9a9" transform="translate(378.6075 37.2) scale(0.12 -0.12)">
     <defs>
      <path id="DejaVuSans-67" d="M 2906 1791 
Q 2906 2416 2648 2759 
Q 2391 3103 1925 3103 
Q 1463 3103 1205 2759 
Q 947 2416 947 1791 
Q 947 1169 1205 825 
Q 1463 481 1925 481 
Q 2391 481 2648 825 
Q 2906 1169 2906 1791 
z
M 3481 434 
Q 3481 -459 3084 -895 
Q 2688 -1331 1869 -1331 
Q 1566 -1331 1297 -1286 
Q 1028 -1241 775 -1147 
L 775 -588 
Q 1028 -725 1275 -790 
Q 1522 -856 1778 -856 
Q 2344 -856 2625 -561 
Q 2906 -266 2906 331 
L 2906 616 
Q 2728 306 2450 153 
Q 2172 0 1784 0 
Q 1141 0 747 490 
Q 353 981 353 1791 
Q 353 2603 747 3093 
Q 1141 3584 1784 3584 
Q 2172 3584 2450 3431 
Q 2728 3278 2906 2969 
L 2906 3500 
L 3481 3500 
L 3481 434 
z
" transform="scale(0.015625)"/>
      <path id="DejaVuSans-65" d="M 3597 1894 
L 3597 1613 
L 953 1613 
Q 991 1019 1311 708 
Q 1631 397 2203 397 
Q 2534 397 2845 478 
Q 3156 559 3463 722 
L 3463 178 
Q 3153 47 2828 -22 
Q 2503 -91 2169 -91 
Q 1331 -91 842 396 
Q 353 884 353 1716 
Q 353 2575 817 3079 
Q 1281 3584 2069 3584 
Q 2775 3584 3186 3129 
Q 3597 2675 3597 1894 
z
M 3022 2063 
Q 3016 2534 2758 2815 
Q 2500 3097 2075 3097 
Q 1594 3097 1305 2825 
Q 1016 2553 972 2059 
L 3022 2063 
z
" transform="scale(0.015625)"/>
      <path id="DejaVuSans-74" d="M 1172 4494 
L 1172 3500 
L 2356 3500 
L 2356 3053 
L 1172 3053 
L 1172 1153 
Q 1172 725 1289 603 
Q 1406 481 1766 481 
L 2356 481 
L 2356 0 
L 1766 0 
Q 1100 0 847 248 
Q 594 497 594 1153 
L 594 3053 
L 172 3053 
L 172 3500 
L 594 3500 
L 594 4494 
L 1172 4494 
z
" transform="scale(0.015625)"/>
      <path id="DejaVuSans-5f" d="M 3263 -1063 
L 3263 -1509 
L -63 -1509 
L -63 -1063 
L 3263 -1063 
z
" transform="scale(0.015625)"/>
      <path id="DejaVuSans-73" d="M 2834 3397 
L 2834 2853 
Q 2591 2978 2328 3040 
Q 2066 3103 1784 3103 
Q 1356 3103 1142 2972 
Q 928 2841 928 2578 
Q 928 2378 1081 2264 
Q 1234 2150 1697 2047 
L 1894 2003 
Q 2506 1872 2764 1633 
Q 3022 1394 3022 966 
Q 3022 478 2636 193 
Q 2250 -91 1575 -91 
Q 1294 -91 989 -36 
Q 684 19 347 128 
L 347 722 
Q 666 556 975 473 
Q 1284 391 1588 391 
Q 1994 391 2212 530 
Q 2431 669 2431 922 
Q 2431 1156 2273 1281 
Q 2116 1406 1581 1522 
L 1381 1569 
Q 847 1681 609 1914 
Q 372 2147 372 2553 
Q 372 3047 722 3315 
Q 1072 3584 1716 3584 
Q 2034 3584 2315 3537 
Q 2597 3491 2834 3397 
z
" transform="scale(0.015625)"/>
      <path id="DejaVuSans-75" d="M 544 1381 
L 544 3500 
L 1119 3500 
L 1119 1403 
Q 1119 906 1312 657 
Q 1506 409 1894 409 
Q 2359 409 2629 706 
Q 2900 1003 2900 1516 
L 2900 3500 
L 3475 3500 
L 3475 0 
L 2900 0 
L 2900 538 
Q 2691 219 2414 64 
Q 2138 -91 1772 -91 
Q 1169 -91 856 284 
Q 544 659 544 1381 
z
M 1991 3584 
L 1991 3584 
z
" transform="scale(0.015625)"/>
      <path id="DejaVuSans-62" d="M 3116 1747 
Q 3116 2381 2855 2742 
Q 2594 3103 2138 3103 
Q 1681 3103 1420 2742 
Q 1159 2381 1159 1747 
Q 1159 1113 1420 752 
Q 1681 391 2138 391 
Q 2594 391 2855 752 
Q 3116 1113 3116 1747 
z
M 1159 2969 
Q 1341 3281 1617 3432 
Q 1894 3584 2278 3584 
Q 2916 3584 3314 3078 
Q 3713 2572 3713 1747 
Q 3713 922 3314 415 
Q 2916 -91 2278 -91 
Q 1894 -91 1617 61 
Q 1341 213 1159 525 
L 1159 0 
L 581 0 
L 581 4863 
L 1159 4863 
L 1159 2969 
z
" transform="scale(0.015625)"/>
      <path id="DejaVuSans-63" d="M 3122 3366 
L 3122 2828 
Q 2878 2963 2633 3030 
Q 2388 3097 2138 3097 
Q 1578 3097 1268 2742 
Q 959 2388 959 1747 
Q 959 1106 1268 751 
Q 1578 397 2138 397 
Q 2388 397 2633 464 
Q 2878 531 3122 666 
L 3122 134 
Q 2881 22 2623 -34 
Q 2366 -91 2075 -91 
Q 1284 -91 818 406 
Q 353 903 353 1747 
Q 353 2603 823 3093 
Q 1294 3584 2113 3584 
Q 2378 3584 2631 3529 
Q 2884 3475 3122 3366 
z
" transform="scale(0.015625)"/>
      <path id="DejaVuSans-72" d="M 2631 2963 
Q 2534 3019 2420 3045 
Q 2306 3072 2169 3072 
Q 1681 3072 1420 2755 
Q 1159 2438 1159 1844 
L 1159 0 
L 581 0 
L 581 3500 
L 1159 3500 
L 1159 2956 
Q 1341 3275 1631 3429 
Q 1922 3584 2338 3584 
Q 2397 3584 2469 3576 
Q 2541 3569 2628 3553 
L 2631 2963 
z
" transform="scale(0.015625)"/>
      <path id="DejaVuSans-69" d="M 603 3500 
L 1178 3500 
L 1178 0 
L 603 0 
L 603 3500 
z
M 603 4863 
L 1178 4863 
L 1178 4134 
L 603 4134 
L 603 4863 
z
" transform="scale(0.015625)"/>
      <path id="DejaVuSans-20" transform="scale(0.015625)"/>
      <path id="DejaVuSans-68" d="M 3513 2113 
L 3513 0 
L 2938 0 
L 2938 2094 
Q 2938 2591 2744 2837 
Q 2550 3084 2163 3084 
Q 1697 3084 1428 2787 
Q 1159 2491 1159 1978 
L 1159 0 
L 581 0 
L 581 4863 
L 1159 4863 
L 1159 2956 
Q 1366 3272 1645 3428 
Q 1925 3584 2291 3584 
Q 2894 3584 3203 3211 
Q 3513 2838 3513 2113 
z
" transform="scale(0.015625)"/>
      <path id="DejaVuSans-6f" d="M 1959 3097 
Q 1497 3097 1228 2736 
Q 959 2375 959 1747 
Q 959 1119 1226 758 
Q 1494 397 1959 397 
Q 2419 397 2687 759 
Q 2956 1122 2956 1747 
Q 2956 2369 2687 2733 
Q 2419 3097 1959 3097 
z
M 1959 3584 
Q 2709 3584 3137 3096 
Q 3566 2609 3566 1747 
Q 3566 888 3137 398 
Q 2709 -91 1959 -91 
Q 1206 -91 779 398 
Q 353 888 353 1747 
Q 353 2609 779 3096 
Q 1206 3584 1959 3584 
z
" transform="scale(0.015625)"/>
      <path id="DejaVuSans-79" d="M 2059 -325 
Q 1816 -950 1584 -1140 
Q 1353 -1331 966 -1331 
L 506 -1331 
L 506 -850 
L 844 -850 
Q 1081 -850 1212 -737 
Q 1344 -625 1503 -206 
L 1606 56 
L 191 3500 
L 800 3500 
L 1894 763 
L 2988 3500 
L 3597 3500 
L 2059 -325 
z
" transform="scale(0.015625)"/>
     </defs>
     <use xlink:href="#DejaVuSans-67"/>
     <use xlink:href="#DejaVuSans-65" x="63.476562"/>
     <use xlink:href="#DejaVuSans-74" x="125"/>
     <use xlink:href="#DejaVuSans-5f" x="164.208984"/>
     <use xlink:href="#DejaVuSans-73" x="214.208984"/>
     <use xlink:href="#DejaVuSans-75" x="266.308594"/>
     <use xlink:href="#DejaVuSans-62" x="329.6875"/>
     <use xlink:href="#DejaVuSans-73" x="393.164062"/>
     <use xlink:href="#DejaVuSans-63" x="445.263672"/>
     <use xlink:href="#DejaVuSans-72" x="500.244141"/>
     <use xlink:href="#DejaVuSans-69" x="541.357422"/>
     <use xlink:href="#DejaVuSans-62" x="569.140625"/>
     <use xlink:href="#DejaVuSans-65" x="632.617188"/>
     <use xlink:href="#DejaVuSans-20" x="694.140625"/>
     <use xlink:href="#DejaVuSans-68" x="725.927734"/>
     <use xlink:href="#DejaVuSans-69" x="789.306641"/>
     <use xlink:href="#DejaVuSans-73" x="817.089844"/>
     <use xlink:href="#DejaVuSans-74" x="869.189453"/>
     <use xlink:href="#DejaVuSans-6f" x="908.398438"/>
     <use xlink:href="#DejaVuSans-72" x="969.580078"/>
     <use xlink:href="#DejaVuSans-79" x="1010.693359"/>
    </g>
   </g>
   <g id="legend_1">
    <g id="line2d_39">
     <path d="M 815.08 328.498438 
L 825.08 328.498438 
L 835.08 328.498438 
" style="fill: none; stroke: #1f77b4; stroke-width: 1.5; stroke-linecap: square"/>
    </g>
    <g id="text_20">
     <!-- star -->
     <g style="fill: #a9a9a9" transform="translate(843.08 331.998438) scale(0.1 -0.1)">
      <defs>
       <path id="DejaVuSans-61" d="M 2194 1759 
Q 1497 1759 1228 1600 
Q 959 1441 959 1056 
Q 959 750 1161 570 
Q 1363 391 1709 391 
Q 2188 391 2477 730 
Q 2766 1069 2766 1631 
L 2766 1759 
L 2194 1759 
z
M 3341 1997 
L 3341 0 
L 2766 0 
L 2766 531 
Q 2569 213 2275 61 
Q 1981 -91 1556 -91 
Q 1019 -91 701 211 
Q 384 513 384 1019 
Q 384 1609 779 1909 
Q 1175 2209 1959 2209 
L 2766 2209 
L 2766 2266 
Q 2766 2663 2505 2880 
Q 2244 3097 1772 3097 
Q 1472 3097 1187 3025 
Q 903 2953 641 2809 
L 641 3341 
Q 956 3463 1253 3523 
Q 1550 3584 1831 3584 
Q 2591 3584 2966 3190 
Q 3341 2797 3341 1997 
z
" transform="scale(0.015625)"/>
      </defs>
      <use xlink:href="#DejaVuSans-73"/>
      <use xlink:href="#DejaVuSans-74" x="52.099609"/>
      <use xlink:href="#DejaVuSans-61" x="91.308594"/>
      <use xlink:href="#DejaVuSans-72" x="152.587891"/>
     </g>
    </g>
    <g id="line2d_40">
     <path d="M 815.08 343.176562 
L 825.08 343.176562 
L 835.08 343.176562 
" style="fill: none; stroke: #ff7f0e; stroke-width: 1.5; stroke-linecap: square"/>
    </g>
    <g id="text_21">
     <!-- fork -->
     <g style="fill: #a9a9a9" transform="translate(843.08 346.676562) scale(0.1 -0.1)">
      <defs>
       <path id="DejaVuSans-66" d="M 2375 4863 
L 2375 4384 
L 1825 4384 
Q 1516 4384 1395 4259 
Q 1275 4134 1275 3809 
L 1275 3500 
L 2222 3500 
L 2222 3053 
L 1275 3053 
L 1275 0 
L 697 0 
L 697 3053 
L 147 3053 
L 147 3500 
L 697 3500 
L 697 3744 
Q 697 4328 969 4595 
Q 1241 4863 1831 4863 
L 2375 4863 
z
" transform="scale(0.015625)"/>
       <path id="DejaVuSans-6b" d="M 581 4863 
L 1159 4863 
L 1159 1991 
L 2875 3500 
L 3609 3500 
L 1753 1863 
L 3688 0 
L 2938 0 
L 1159 1709 
L 1159 0 
L 581 0 
L 581 4863 
z
" transform="scale(0.015625)"/>
      </defs>
      <use xlink:href="#DejaVuSans-66"/>
      <use xlink:href="#DejaVuSans-6f" x="35.205078"/>
      <use xlink:href="#DejaVuSans-72" x="96.386719"/>
      <use xlink:href="#DejaVuSans-6b" x="137.5"/>
     </g>
    </g>
   </g>
  </g>
 </g>
 <defs>
  <clipPath id="p04f6be1a9d">
   <rect x="108" y="43.2" width="669.6" height="277.2"/>
  </clipPath>
 </defs>
</svg>
