<?xml version="1.0" encoding="utf-8" standalone="no"?>
<!DOCTYPE svg PUBLIC "-//W3C//DTD SVG 1.1//EN"
  "http://www.w3.org/Graphics/SVG/1.1/DTD/svg11.dtd">
<svg xmlns:xlink="http://www.w3.org/1999/xlink" width="864pt" height="360pt" viewBox="0 0 864 360" xmlns="http://www.w3.org/2000/svg" version="1.1">
 <metadata>
  <rdf:RDF xmlns:dc="http://purl.org/dc/elements/1.1/" xmlns:cc="http://creativecommons.org/ns#" xmlns:rdf="http://www.w3.org/1999/02/22-rdf-syntax-ns#">
   <cc:Work>
    <dc:type rdf:resource="http://purl.org/dc/dcmitype/StillImage"/>
    <dc:date>2023-08-07T08:56:45.112577</dc:date>
    <dc:format>image/svg+xml</dc:format>
    <dc:creator>
     <cc:Agent>
      <dc:title>Matplotlib v3.7.2, https://matplotlib.org/</dc:title>
     </cc:Agent>
    </dc:creator>
   </cc:Work>
  </rdf:RDF>
 </metadata>
 <defs>
  <style type="text/css">*{stroke-linejoin: round; stroke-linecap: butt}</style>
 </defs>
 <g id="figure_1">
  <g id="patch_1">
   <path d="M 0 360 
L 864 360 
L 864 0 
L 0 0 
L 0 360 
z
" style="fill: none; opacity: 0"/>
  </g>
  <g id="axes_1">
   <g id="patch_2">
    <path d="M 108 320.4 
L 777.6 320.4 
L 777.6 43.2 
L 108 43.2 
L 108 320.4 
z
" style="fill: none; opacity: 0"/>
   </g>
   <g id="matplotlib.axis_1">
    <g id="xtick_1">
     <g id="line2d_1">
      <path d="M 119.618182 320.4 
L 119.618182 43.2 
" clip-path="url(#p62da09aa7b)" style="fill: none; stroke-dasharray: 5.12,1.28,0.8,1.28; stroke-dashoffset: 0; stroke: #b0b0b0; stroke-width: 0.8"/>
     </g>
     <g id="line2d_2">
      <defs>
       <path id="m0e5ed1d508" d="M 0 0 
L 0 3.5 
" style="stroke: #a9a9a9; stroke-width: 0.8"/>
      </defs>
      <g>
       <use xlink:href="#m0e5ed1d508" x="119.618182" y="320.4" style="fill: #a9a9a9; stroke: #a9a9a9; stroke-width: 0.8"/>
      </g>
     </g>
     <g id="text_1">
      <!-- 2021-07 -->
      <g style="fill: #a9a9a9" transform="translate(98.726776 334.998438) scale(0.1 -0.1)">
       <defs>
        <path id="DejaVuSans-32" d="M 1228 531 
L 3431 531 
L 3431 0 
L 469 0 
L 469 531 
Q 828 903 1448 1529 
Q 2069 2156 2228 2338 
Q 2531 2678 2651 2914 
Q 2772 3150 2772 3378 
Q 2772 3750 2511 3984 
Q 2250 4219 1831 4219 
Q 1534 4219 1204 4116 
Q 875 4013 500 3803 
L 500 4441 
Q 881 4594 1212 4672 
Q 1544 4750 1819 4750 
Q 2544 4750 2975 4387 
Q 3406 4025 3406 3419 
Q 3406 3131 3298 2873 
Q 3191 2616 2906 2266 
Q 2828 2175 2409 1742 
Q 1991 1309 1228 531 
z
" transform="scale(0.015625)"/>
        <path id="DejaVuSans-30" d="M 2034 4250 
Q 1547 4250 1301 3770 
Q 1056 3291 1056 2328 
Q 1056 1369 1301 889 
Q 1547 409 2034 409 
Q 2525 409 2770 889 
Q 3016 1369 3016 2328 
Q 3016 3291 2770 3770 
Q 2525 4250 2034 4250 
z
M 2034 4750 
Q 2819 4750 3233 4129 
Q 3647 3509 3647 2328 
Q 3647 1150 3233 529 
Q 2819 -91 2034 -91 
Q 1250 -91 836 529 
Q 422 1150 422 2328 
Q 422 3509 836 4129 
Q 1250 4750 2034 4750 
z
" transform="scale(0.015625)"/>
        <path id="DejaVuSans-31" d="M 794 531 
L 1825 531 
L 1825 4091 
L 703 3866 
L 703 4441 
L 1819 4666 
L 2450 4666 
L 2450 531 
L 3481 531 
L 3481 0 
L 794 0 
L 794 531 
z
" transform="scale(0.015625)"/>
        <path id="DejaVuSans-2d" d="M 313 2009 
L 1997 2009 
L 1997 1497 
L 313 1497 
L 313 2009 
z
" transform="scale(0.015625)"/>
        <path id="DejaVuSans-37" d="M 525 4666 
L 3525 4666 
L 3525 4397 
L 1831 0 
L 1172 0 
L 2766 4134 
L 525 4134 
L 525 4666 
z
" transform="scale(0.015625)"/>
       </defs>
       <use xlink:href="#DejaVuSans-32"/>
       <use xlink:href="#DejaVuSans-30" x="63.623047"/>
       <use xlink:href="#DejaVuSans-32" x="127.246094"/>
       <use xlink:href="#DejaVuSans-31" x="190.869141"/>
       <use xlink:href="#DejaVuSans-2d" x="254.492188"/>
       <use xlink:href="#DejaVuSans-30" x="290.576172"/>
       <use xlink:href="#DejaVuSans-37" x="354.199219"/>
      </g>
     </g>
    </g>
    <g id="xtick_2">
     <g id="line2d_3">
      <path d="M 194.890909 320.4 
L 194.890909 43.2 
" clip-path="url(#p62da09aa7b)" style="fill: none; stroke-dasharray: 5.12,1.28,0.8,1.28; stroke-dashoffset: 0; stroke: #b0b0b0; stroke-width: 0.8"/>
     </g>
     <g id="line2d_4">
      <g>
       <use xlink:href="#m0e5ed1d508" x="194.890909" y="320.4" style="fill: #a9a9a9; stroke: #a9a9a9; stroke-width: 0.8"/>
      </g>
     </g>
     <g id="text_2">
      <!-- 2021-10 -->
      <g style="fill: #a9a9a9" transform="translate(173.999503 334.998438) scale(0.1 -0.1)">
       <use xlink:href="#DejaVuSans-32"/>
       <use xlink:href="#DejaVuSans-30" x="63.623047"/>
       <use xlink:href="#DejaVuSans-32" x="127.246094"/>
       <use xlink:href="#DejaVuSans-31" x="190.869141"/>
       <use xlink:href="#DejaVuSans-2d" x="254.492188"/>
       <use xlink:href="#DejaVuSans-31" x="290.576172"/>
       <use xlink:href="#DejaVuSans-30" x="354.199219"/>
      </g>
     </g>
    </g>
    <g id="xtick_3">
     <g id="line2d_5">
      <path d="M 270.163636 320.4 
L 270.163636 43.2 
" clip-path="url(#p62da09aa7b)" style="fill: none; stroke-dasharray: 5.12,1.28,0.8,1.28; stroke-dashoffset: 0; stroke: #b0b0b0; stroke-width: 0.8"/>
     </g>
     <g id="line2d_6">
      <g>
       <use xlink:href="#m0e5ed1d508" x="270.163636" y="320.4" style="fill: #a9a9a9; stroke: #a9a9a9; stroke-width: 0.8"/>
      </g>
     </g>
     <g id="text_3">
      <!-- 2022-01 -->
      <g style="fill: #a9a9a9" transform="translate(249.27223 334.998438) scale(0.1 -0.1)">
       <use xlink:href="#DejaVuSans-32"/>
       <use xlink:href="#DejaVuSans-30" x="63.623047"/>
       <use xlink:href="#DejaVuSans-32" x="127.246094"/>
       <use xlink:href="#DejaVuSans-32" x="190.869141"/>
       <use xlink:href="#DejaVuSans-2d" x="254.492188"/>
       <use xlink:href="#DejaVuSans-30" x="290.576172"/>
       <use xlink:href="#DejaVuSans-31" x="354.199219"/>
      </g>
     </g>
    </g>
    <g id="xtick_4">
     <g id="line2d_7">
      <path d="M 343.8 320.4 
L 343.8 43.2 
" clip-path="url(#p62da09aa7b)" style="fill: none; stroke-dasharray: 5.12,1.28,0.8,1.28; stroke-dashoffset: 0; stroke: #b0b0b0; stroke-width: 0.8"/>
     </g>
     <g id="line2d_8">
      <g>
       <use xlink:href="#m0e5ed1d508" x="343.8" y="320.4" style="fill: #a9a9a9; stroke: #a9a9a9; stroke-width: 0.8"/>
      </g>
     </g>
     <g id="text_4">
      <!-- 2022-04 -->
      <g style="fill: #a9a9a9" transform="translate(322.908594 334.998438) scale(0.1 -0.1)">
       <defs>
        <path id="DejaVuSans-34" d="M 2419 4116 
L 825 1625 
L 2419 1625 
L 2419 4116 
z
M 2253 4666 
L 3047 4666 
L 3047 1625 
L 3713 1625 
L 3713 1100 
L 3047 1100 
L 3047 0 
L 2419 0 
L 2419 1100 
L 313 1100 
L 313 1709 
L 2253 4666 
z
" transform="scale(0.015625)"/>
       </defs>
       <use xlink:href="#DejaVuSans-32"/>
       <use xlink:href="#DejaVuSans-30" x="63.623047"/>
       <use xlink:href="#DejaVuSans-32" x="127.246094"/>
       <use xlink:href="#DejaVuSans-32" x="190.869141"/>
       <use xlink:href="#DejaVuSans-2d" x="254.492188"/>
       <use xlink:href="#DejaVuSans-30" x="290.576172"/>
       <use xlink:href="#DejaVuSans-34" x="354.199219"/>
      </g>
     </g>
    </g>
    <g id="xtick_5">
     <g id="line2d_9">
      <path d="M 418.254545 320.4 
L 418.254545 43.2 
" clip-path="url(#p62da09aa7b)" style="fill: none; stroke-dasharray: 5.12,1.28,0.8,1.28; stroke-dashoffset: 0; stroke: #b0b0b0; stroke-width: 0.8"/>
     </g>
     <g id="line2d_10">
      <g>
       <use xlink:href="#m0e5ed1d508" x="418.254545" y="320.4" style="fill: #a9a9a9; stroke: #a9a9a9; stroke-width: 0.8"/>
      </g>
     </g>
     <g id="text_5">
      <!-- 2022-07 -->
      <g style="fill: #a9a9a9" transform="translate(397.363139 334.998438) scale(0.1 -0.1)">
       <use xlink:href="#DejaVuSans-32"/>
       <use xlink:href="#DejaVuSans-30" x="63.623047"/>
       <use xlink:href="#DejaVuSans-32" x="127.246094"/>
       <use xlink:href="#DejaVuSans-32" x="190.869141"/>
       <use xlink:href="#DejaVuSans-2d" x="254.492188"/>
       <use xlink:href="#DejaVuSans-30" x="290.576172"/>
       <use xlink:href="#DejaVuSans-37" x="354.199219"/>
      </g>
     </g>
    </g>
    <g id="xtick_6">
     <g id="line2d_11">
      <path d="M 493.527273 320.4 
L 493.527273 43.2 
" clip-path="url(#p62da09aa7b)" style="fill: none; stroke-dasharray: 5.12,1.28,0.8,1.28; stroke-dashoffset: 0; stroke: #b0b0b0; stroke-width: 0.8"/>
     </g>
     <g id="line2d_12">
      <g>
       <use xlink:href="#m0e5ed1d508" x="493.527273" y="320.4" style="fill: #a9a9a9; stroke: #a9a9a9; stroke-width: 0.8"/>
      </g>
     </g>
     <g id="text_6">
      <!-- 2022-10 -->
      <g style="fill: #a9a9a9" transform="translate(472.635866 334.998438) scale(0.1 -0.1)">
       <use xlink:href="#DejaVuSans-32"/>
       <use xlink:href="#DejaVuSans-30" x="63.623047"/>
       <use xlink:href="#DejaVuSans-32" x="127.246094"/>
       <use xlink:href="#DejaVuSans-32" x="190.869141"/>
       <use xlink:href="#DejaVuSans-2d" x="254.492188"/>
       <use xlink:href="#DejaVuSans-31" x="290.576172"/>
       <use xlink:href="#DejaVuSans-30" x="354.199219"/>
      </g>
     </g>
    </g>
    <g id="xtick_7">
     <g id="line2d_13">
      <path d="M 568.8 320.4 
L 568.8 43.2 
" clip-path="url(#p62da09aa7b)" style="fill: none; stroke-dasharray: 5.12,1.28,0.8,1.28; stroke-dashoffset: 0; stroke: #b0b0b0; stroke-width: 0.8"/>
     </g>
     <g id="line2d_14">
      <g>
       <use xlink:href="#m0e5ed1d508" x="568.8" y="320.4" style="fill: #a9a9a9; stroke: #a9a9a9; stroke-width: 0.8"/>
      </g>
     </g>
     <g id="text_7">
      <!-- 2023-01 -->
      <g style="fill: #a9a9a9" transform="translate(547.908594 334.998438) scale(0.1 -0.1)">
       <defs>
        <path id="DejaVuSans-33" d="M 2597 2516 
Q 3050 2419 3304 2112 
Q 3559 1806 3559 1356 
Q 3559 666 3084 287 
Q 2609 -91 1734 -91 
Q 1441 -91 1130 -33 
Q 819 25 488 141 
L 488 750 
Q 750 597 1062 519 
Q 1375 441 1716 441 
Q 2309 441 2620 675 
Q 2931 909 2931 1356 
Q 2931 1769 2642 2001 
Q 2353 2234 1838 2234 
L 1294 2234 
L 1294 2753 
L 1863 2753 
Q 2328 2753 2575 2939 
Q 2822 3125 2822 3475 
Q 2822 3834 2567 4026 
Q 2313 4219 1838 4219 
Q 1578 4219 1281 4162 
Q 984 4106 628 3988 
L 628 4550 
Q 988 4650 1302 4700 
Q 1616 4750 1894 4750 
Q 2613 4750 3031 4423 
Q 3450 4097 3450 3541 
Q 3450 3153 3228 2886 
Q 3006 2619 2597 2516 
z
" transform="scale(0.015625)"/>
       </defs>
       <use xlink:href="#DejaVuSans-32"/>
       <use xlink:href="#DejaVuSans-30" x="63.623047"/>
       <use xlink:href="#DejaVuSans-32" x="127.246094"/>
       <use xlink:href="#DejaVuSans-33" x="190.869141"/>
       <use xlink:href="#DejaVuSans-2d" x="254.492188"/>
       <use xlink:href="#DejaVuSans-30" x="290.576172"/>
       <use xlink:href="#DejaVuSans-31" x="354.199219"/>
      </g>
     </g>
    </g>
    <g id="xtick_8">
     <g id="line2d_15">
      <path d="M 642.436364 320.4 
L 642.436364 43.2 
" clip-path="url(#p62da09aa7b)" style="fill: none; stroke-dasharray: 5.12,1.28,0.8,1.28; stroke-dashoffset: 0; stroke: #b0b0b0; stroke-width: 0.8"/>
     </g>
     <g id="line2d_16">
      <g>
       <use xlink:href="#m0e5ed1d508" x="642.436364" y="320.4" style="fill: #a9a9a9; stroke: #a9a9a9; stroke-width: 0.8"/>
      </g>
     </g>
     <g id="text_8">
      <!-- 2023-04 -->
      <g style="fill: #a9a9a9" transform="translate(621.544957 334.998438) scale(0.1 -0.1)">
       <use xlink:href="#DejaVuSans-32"/>
       <use xlink:href="#DejaVuSans-30" x="63.623047"/>
       <use xlink:href="#DejaVuSans-32" x="127.246094"/>
       <use xlink:href="#DejaVuSans-33" x="190.869141"/>
       <use xlink:href="#DejaVuSans-2d" x="254.492188"/>
       <use xlink:href="#DejaVuSans-30" x="290.576172"/>
       <use xlink:href="#DejaVuSans-34" x="354.199219"/>
      </g>
     </g>
    </g>
    <g id="xtick_9">
     <g id="line2d_17">
      <path d="M 716.890909 320.4 
L 716.890909 43.2 
" clip-path="url(#p62da09aa7b)" style="fill: none; stroke-dasharray: 5.12,1.28,0.8,1.28; stroke-dashoffset: 0; stroke: #b0b0b0; stroke-width: 0.8"/>
     </g>
     <g id="line2d_18">
      <g>
       <use xlink:href="#m0e5ed1d508" x="716.890909" y="320.4" style="fill: #a9a9a9; stroke: #a9a9a9; stroke-width: 0.8"/>
      </g>
     </g>
     <g id="text_9">
      <!-- 2023-07 -->
      <g style="fill: #a9a9a9" transform="translate(695.999503 334.998438) scale(0.1 -0.1)">
       <use xlink:href="#DejaVuSans-32"/>
       <use xlink:href="#DejaVuSans-30" x="63.623047"/>
       <use xlink:href="#DejaVuSans-32" x="127.246094"/>
       <use xlink:href="#DejaVuSans-33" x="190.869141"/>
       <use xlink:href="#DejaVuSans-2d" x="254.492188"/>
       <use xlink:href="#DejaVuSans-30" x="290.576172"/>
       <use xlink:href="#DejaVuSans-37" x="354.199219"/>
      </g>
     </g>
    </g>
   </g>
   <g id="matplotlib.axis_2">
    <g id="ytick_1">
     <g id="line2d_19">
      <path d="M 108 307.853697 
L 777.6 307.853697 
" clip-path="url(#p62da09aa7b)" style="fill: none; stroke-dasharray: 5.12,1.28,0.8,1.28; stroke-dashoffset: 0; stroke: #b0b0b0; stroke-width: 0.8"/>
     </g>
     <g id="line2d_20">
      <defs>
       <path id="md41edd82ff" d="M 0 0 
L -3.5 0 
" style="stroke: #a9a9a9; stroke-width: 0.8"/>
      </defs>
      <g>
       <use xlink:href="#md41edd82ff" x="108" y="307.853697" style="fill: #a9a9a9; stroke: #a9a9a9; stroke-width: 0.8"/>
      </g>
     </g>
     <g id="text_10">
      <!-- 0 -->
      <g style="fill: #a9a9a9" transform="translate(94.6375 311.652916) scale(0.1 -0.1)">
       <use xlink:href="#DejaVuSans-30"/>
      </g>
     </g>
    </g>
    <g id="ytick_2">
     <g id="line2d_21">
      <path d="M 108 275.6355 
L 777.6 275.6355 
" clip-path="url(#p62da09aa7b)" style="fill: none; stroke-dasharray: 5.12,1.28,0.8,1.28; stroke-dashoffset: 0; stroke: #b0b0b0; stroke-width: 0.8"/>
     </g>
     <g id="line2d_22">
      <g>
       <use xlink:href="#md41edd82ff" x="108" y="275.6355" style="fill: #a9a9a9; stroke: #a9a9a9; stroke-width: 0.8"/>
      </g>
     </g>
     <g id="text_11">
      <!-- 600 -->
      <g style="fill: #a9a9a9" transform="translate(81.9125 279.434718) scale(0.1 -0.1)">
       <defs>
        <path id="DejaVuSans-36" d="M 2113 2584 
Q 1688 2584 1439 2293 
Q 1191 2003 1191 1497 
Q 1191 994 1439 701 
Q 1688 409 2113 409 
Q 2538 409 2786 701 
Q 3034 994 3034 1497 
Q 3034 2003 2786 2293 
Q 2538 2584 2113 2584 
z
M 3366 4563 
L 3366 3988 
Q 3128 4100 2886 4159 
Q 2644 4219 2406 4219 
Q 1781 4219 1451 3797 
Q 1122 3375 1075 2522 
Q 1259 2794 1537 2939 
Q 1816 3084 2150 3084 
Q 2853 3084 3261 2657 
Q 3669 2231 3669 1497 
Q 3669 778 3244 343 
Q 2819 -91 2113 -91 
Q 1303 -91 875 529 
Q 447 1150 447 2328 
Q 447 3434 972 4092 
Q 1497 4750 2381 4750 
Q 2619 4750 2861 4703 
Q 3103 4656 3366 4563 
z
" transform="scale(0.015625)"/>
       </defs>
       <use xlink:href="#DejaVuSans-36"/>
       <use xlink:href="#DejaVuSans-30" x="63.623047"/>
       <use xlink:href="#DejaVuSans-30" x="127.246094"/>
      </g>
     </g>
    </g>
    <g id="ytick_3">
     <g id="line2d_23">
      <path d="M 108 243.417302 
L 777.6 243.417302 
" clip-path="url(#p62da09aa7b)" style="fill: none; stroke-dasharray: 5.12,1.28,0.8,1.28; stroke-dashoffset: 0; stroke: #b0b0b0; stroke-width: 0.8"/>
     </g>
     <g id="line2d_24">
      <g>
       <use xlink:href="#md41edd82ff" x="108" y="243.417302" style="fill: #a9a9a9; stroke: #a9a9a9; stroke-width: 0.8"/>
      </g>
     </g>
     <g id="text_12">
      <!-- 1200 -->
      <g style="fill: #a9a9a9" transform="translate(75.55 247.216521) scale(0.1 -0.1)">
       <use xlink:href="#DejaVuSans-31"/>
       <use xlink:href="#DejaVuSans-32" x="63.623047"/>
       <use xlink:href="#DejaVuSans-30" x="127.246094"/>
       <use xlink:href="#DejaVuSans-30" x="190.869141"/>
      </g>
     </g>
    </g>
    <g id="ytick_4">
     <g id="line2d_25">
      <path d="M 108 211.199105 
L 777.6 211.199105 
" clip-path="url(#p62da09aa7b)" style="fill: none; stroke-dasharray: 5.12,1.28,0.8,1.28; stroke-dashoffset: 0; stroke: #b0b0b0; stroke-width: 0.8"/>
     </g>
     <g id="line2d_26">
      <g>
       <use xlink:href="#md41edd82ff" x="108" y="211.199105" style="fill: #a9a9a9; stroke: #a9a9a9; stroke-width: 0.8"/>
      </g>
     </g>
     <g id="text_13">
      <!-- 1800 -->
      <g style="fill: #a9a9a9" transform="translate(75.55 214.998324) scale(0.1 -0.1)">
       <defs>
        <path id="DejaVuSans-38" d="M 2034 2216 
Q 1584 2216 1326 1975 
Q 1069 1734 1069 1313 
Q 1069 891 1326 650 
Q 1584 409 2034 409 
Q 2484 409 2743 651 
Q 3003 894 3003 1313 
Q 3003 1734 2745 1975 
Q 2488 2216 2034 2216 
z
M 1403 2484 
Q 997 2584 770 2862 
Q 544 3141 544 3541 
Q 544 4100 942 4425 
Q 1341 4750 2034 4750 
Q 2731 4750 3128 4425 
Q 3525 4100 3525 3541 
Q 3525 3141 3298 2862 
Q 3072 2584 2669 2484 
Q 3125 2378 3379 2068 
Q 3634 1759 3634 1313 
Q 3634 634 3220 271 
Q 2806 -91 2034 -91 
Q 1263 -91 848 271 
Q 434 634 434 1313 
Q 434 1759 690 2068 
Q 947 2378 1403 2484 
z
M 1172 3481 
Q 1172 3119 1398 2916 
Q 1625 2713 2034 2713 
Q 2441 2713 2670 2916 
Q 2900 3119 2900 3481 
Q 2900 3844 2670 4047 
Q 2441 4250 2034 4250 
Q 1625 4250 1398 4047 
Q 1172 3844 1172 3481 
z
" transform="scale(0.015625)"/>
       </defs>
       <use xlink:href="#DejaVuSans-31"/>
       <use xlink:href="#DejaVuSans-38" x="63.623047"/>
       <use xlink:href="#DejaVuSans-30" x="127.246094"/>
       <use xlink:href="#DejaVuSans-30" x="190.869141"/>
      </g>
     </g>
    </g>
    <g id="ytick_5">
     <g id="line2d_27">
      <path d="M 108 178.980908 
L 777.6 178.980908 
" clip-path="url(#p62da09aa7b)" style="fill: none; stroke-dasharray: 5.12,1.28,0.8,1.28; stroke-dashoffset: 0; stroke: #b0b0b0; stroke-width: 0.8"/>
     </g>
     <g id="line2d_28">
      <g>
       <use xlink:href="#md41edd82ff" x="108" y="178.980908" style="fill: #a9a9a9; stroke: #a9a9a9; stroke-width: 0.8"/>
      </g>
     </g>
     <g id="text_14">
      <!-- 2400 -->
      <g style="fill: #a9a9a9" transform="translate(75.55 182.780126) scale(0.1 -0.1)">
       <use xlink:href="#DejaVuSans-32"/>
       <use xlink:href="#DejaVuSans-34" x="63.623047"/>
       <use xlink:href="#DejaVuSans-30" x="127.246094"/>
       <use xlink:href="#DejaVuSans-30" x="190.869141"/>
      </g>
     </g>
    </g>
    <g id="ytick_6">
     <g id="line2d_29">
      <path d="M 108 146.76271 
L 777.6 146.76271 
" clip-path="url(#p62da09aa7b)" style="fill: none; stroke-dasharray: 5.12,1.28,0.8,1.28; stroke-dashoffset: 0; stroke: #b0b0b0; stroke-width: 0.8"/>
     </g>
     <g id="line2d_30">
      <g>
       <use xlink:href="#md41edd82ff" x="108" y="146.76271" style="fill: #a9a9a9; stroke: #a9a9a9; stroke-width: 0.8"/>
      </g>
     </g>
     <g id="text_15">
      <!-- 3000 -->
      <g style="fill: #a9a9a9" transform="translate(75.55 150.561929) scale(0.1 -0.1)">
       <use xlink:href="#DejaVuSans-33"/>
       <use xlink:href="#DejaVuSans-30" x="63.623047"/>
       <use xlink:href="#DejaVuSans-30" x="127.246094"/>
       <use xlink:href="#DejaVuSans-30" x="190.869141"/>
      </g>
     </g>
    </g>
    <g id="ytick_7">
     <g id="line2d_31">
      <path d="M 108 114.544513 
L 777.6 114.544513 
" clip-path="url(#p62da09aa7b)" style="fill: none; stroke-dasharray: 5.12,1.28,0.8,1.28; stroke-dashoffset: 0; stroke: #b0b0b0; stroke-width: 0.8"/>
     </g>
     <g id="line2d_32">
      <g>
       <use xlink:href="#md41edd82ff" x="108" y="114.544513" style="fill: #a9a9a9; stroke: #a9a9a9; stroke-width: 0.8"/>
      </g>
     </g>
     <g id="text_16">
      <!-- 3600 -->
      <g style="fill: #a9a9a9" transform="translate(75.55 118.343732) scale(0.1 -0.1)">
       <use xlink:href="#DejaVuSans-33"/>
       <use xlink:href="#DejaVuSans-36" x="63.623047"/>
       <use xlink:href="#DejaVuSans-30" x="127.246094"/>
       <use xlink:href="#DejaVuSans-30" x="190.869141"/>
      </g>
     </g>
    </g>
    <g id="ytick_8">
     <g id="line2d_33">
      <path d="M 108 82.326316 
L 777.6 82.326316 
" clip-path="url(#p62da09aa7b)" style="fill: none; stroke-dasharray: 5.12,1.28,0.8,1.28; stroke-dashoffset: 0; stroke: #b0b0b0; stroke-width: 0.8"/>
     </g>
     <g id="line2d_34">
      <g>
       <use xlink:href="#md41edd82ff" x="108" y="82.326316" style="fill: #a9a9a9; stroke: #a9a9a9; stroke-width: 0.8"/>
      </g>
     </g>
     <g id="text_17">
      <!-- 4200 -->
      <g style="fill: #a9a9a9" transform="translate(75.55 86.125535) scale(0.1 -0.1)">
       <use xlink:href="#DejaVuSans-34"/>
       <use xlink:href="#DejaVuSans-32" x="63.623047"/>
       <use xlink:href="#DejaVuSans-30" x="127.246094"/>
       <use xlink:href="#DejaVuSans-30" x="190.869141"/>
      </g>
     </g>
    </g>
    <g id="ytick_9">
     <g id="line2d_35">
      <path d="M 108 50.108118 
L 777.6 50.108118 
" clip-path="url(#p62da09aa7b)" style="fill: none; stroke-dasharray: 5.12,1.28,0.8,1.28; stroke-dashoffset: 0; stroke: #b0b0b0; stroke-width: 0.8"/>
     </g>
     <g id="line2d_36">
      <g>
       <use xlink:href="#md41edd82ff" x="108" y="50.108118" style="fill: #a9a9a9; stroke: #a9a9a9; stroke-width: 0.8"/>
      </g>
     </g>
     <g id="text_18">
      <!-- 4800 -->
      <g style="fill: #a9a9a9" transform="translate(75.55 53.907337) scale(0.1 -0.1)">
       <use xlink:href="#DejaVuSans-34"/>
       <use xlink:href="#DejaVuSans-38" x="63.623047"/>
       <use xlink:href="#DejaVuSans-30" x="127.246094"/>
       <use xlink:href="#DejaVuSans-30" x="190.869141"/>
      </g>
     </g>
    </g>
   </g>
   <g id="line2d_37">
    <path d="M 138.436364 307.692606 
L 143.345455 307.316727 
L 144.163636 306.994545 
L 146.618182 306.72606 
L 152.345455 305.705817 
L 156.436364 305.329938 
L 157.254545 304.954059 
L 158.072727 304.739271 
L 158.890909 303.772725 
L 159.709091 303.235755 
L 160.527273 301.517452 
L 161.345455 301.410058 
L 162.163636 300.819391 
L 163.8 300.067633 
L 165.436364 298.886299 
L 166.254545 298.134541 
L 167.890909 297.382783 
L 168.709091 297.060601 
L 169.527273 296.469934 
L 172.8 295.127509 
L 173.618182 293.892478 
L 174.436364 293.248114 
L 176.072727 292.388962 
L 184.254545 291.261325 
L 185.072727 290.885446 
L 190.8 290.45587 
L 192.436364 290.026294 
L 194.072727 289.704113 
L 200.618182 288.844961 
L 201.436364 288.415385 
L 202.254545 288.307991 
L 203.072727 287.985809 
L 204.709091 287.717324 
L 205.527273 287.663627 
L 206.345455 287.395142 
L 209.618182 286.911869 
L 211.254545 286.482293 
L 213.709091 286.267505 
L 215.345455 286.106414 
L 216.163636 285.891626 
L 216.981818 285.837929 
L 219.436364 285.139868 
L 224.345455 284.441807 
L 225.163636 284.173322 
L 225.981818 283.099382 
L 228.436364 282.24023 
L 230.890909 281.595866 
L 231.709091 281.219987 
L 232.527273 281.16629 
L 236.618182 280.09235 
L 238.254545 279.984956 
L 239.072727 279.877562 
L 241.527273 279.179501 
L 244.8 278.427743 
L 245.618182 278.105561 
L 246.436364 277.998167 
L 247.254545 277.622289 
L 255.436364 276.440955 
L 259.527273 275.313318 
L 260.345455 274.830045 
L 263.618182 273.970893 
L 265.254545 273.058044 
L 266.072727 272.521074 
L 266.890909 272.41368 
L 267.709091 272.145195 
L 270.163636 271.715619 
L 270.981818 271.33974 
L 272.618182 271.071255 
L 274.254545 270.319497 
L 278.345455 269.352951 
L 280.8 268.762284 
L 281.618182 268.440102 
L 282.436364 268.279011 
L 283.254545 267.956829 
L 284.072727 267.849435 
L 284.890909 267.473556 
L 285.709091 267.258768 
L 287.345455 267.151374 
L 288.981818 266.614404 
L 290.618182 266.50701 
L 291.436364 266.131131 
L 294.709091 265.594162 
L 297.981818 265.325677 
L 298.8 265.164586 
L 300.436364 264.412828 
L 309.436364 260.815129 
L 310.254545 260.385553 
L 311.072727 259.526401 
L 311.890909 258.237673 
L 312.709091 257.21743 
L 313.527273 257.002642 
L 314.345455 257.002642 
L 315.981818 255.821308 
L 316.8 255.60652 
L 317.618182 255.176944 
L 318.436364 255.015853 
L 319.254545 254.317792 
L 320.072727 254.103004 
L 322.527273 252.975368 
L 323.345455 252.008822 
L 324.163636 250.827488 
L 324.981818 250.344215 
L 325.8 249.055487 
L 326.618182 248.250032 
L 327.436364 247.874153 
L 328.254545 247.659365 
L 329.890909 246.692819 
L 330.709091 246.31694 
L 333.981818 243.954272 
L 334.8 242.826635 
L 335.618182 241.000938 
L 336.436364 239.819604 
L 337.254545 239.228937 
L 338.072727 238.906755 
L 341.345455 236.221905 
L 342.981818 235.040571 
L 343.8 234.34251 
L 344.618182 233.214873 
L 345.436364 232.463115 
L 347.890909 230.798508 
L 349.527273 229.724569 
L 350.345455 229.026508 
L 351.163636 228.81172 
L 353.618182 227.576689 
L 355.254545 226.66384 
L 356.072727 226.341658 
L 357.709091 224.891839 
L 358.527273 223.925293 
L 360.163636 222.851353 
L 360.981818 222.636565 
L 361.8 222.206989 
L 362.618182 221.616322 
L 364.254545 220.75717 
L 365.072727 220.649776 
L 366.709091 219.790624 
L 367.527273 219.361048 
L 368.345455 218.555593 
L 369.163636 218.07232 
L 369.981818 217.803835 
L 370.8 217.266866 
L 374.072727 215.655956 
L 374.890909 214.957895 
L 378.163636 213.883955 
L 378.981818 213.346985 
L 379.8 213.185894 
L 381.436364 212.648924 
L 383.890909 211.736075 
L 386.345455 210.876923 
L 387.981818 210.608438 
L 389.618182 209.266013 
L 391.254545 208.514255 
L 393.709091 207.17183 
L 395.345455 206.742254 
L 396.163636 206.258981 
L 396.981818 206.044193 
L 399.436364 204.540678 
L 401.890909 204.003708 
L 404.345455 203.144556 
L 405.981818 202.231707 
L 406.8 202.124313 
L 407.618182 201.855828 
L 409.254545 201.533646 
L 411.709091 199.815342 
L 414.163636 199.278372 
L 414.981818 199.009887 
L 415.8 198.41922 
L 420.709091 196.915704 
L 421.527273 196.862007 
L 427.254545 194.928915 
L 428.072727 194.553036 
L 430.527273 194.016066 
L 432.163636 193.640188 
L 432.981818 193.264309 
L 433.8 193.103218 
L 436.254545 192.029278 
L 438.709091 190.847944 
L 439.527273 190.310974 
L 440.345455 190.096186 
L 442.8 188.861155 
L 444.436364 188.485276 
L 446.072727 187.679821 
L 447.709091 187.250245 
L 448.527273 187.142851 
L 449.345455 186.605881 
L 450.163636 186.230002 
L 450.981818 186.068911 
L 452.618182 185.424547 
L 453.436364 185.263456 
L 454.254545 184.83388 
L 457.527273 184.350607 
L 459.163636 183.598849 
L 459.981818 182.954485 
L 460.8 181.558364 
L 462.436364 181.236182 
L 463.254545 181.075091 
L 466.527273 179.464181 
L 467.345455 179.30309 
L 472.254545 176.994119 
L 473.072727 176.457149 
L 473.890909 176.134967 
L 476.345455 175.651694 
L 477.981818 174.899936 
L 478.8 174.577754 
L 479.618182 174.47036 
L 482.890909 173.074238 
L 484.527273 172.000298 
L 485.345455 171.624419 
L 486.163636 171.517025 
L 486.981818 171.24854 
L 487.8 171.194843 
L 491.072727 170.1746 
L 491.890909 170.120903 
L 492.709091 169.530237 
L 494.345455 168.993267 
L 496.8 168.241509 
L 497.618182 167.758236 
L 498.436364 167.543448 
L 499.254545 167.006478 
L 500.072727 166.684296 
L 500.890909 166.201023 
L 502.527273 165.610356 
L 503.345455 165.395568 
L 504.163636 165.019689 
L 504.981818 164.804901 
L 505.8 164.429022 
L 506.618182 163.838355 
L 507.436364 162.979203 
L 508.254545 162.442233 
L 509.072727 162.281142 
L 510.709091 161.099808 
L 511.527273 160.938717 
L 512.345455 159.757383 
L 513.163636 159.435201 
L 513.981818 158.844534 
L 514.8 158.73714 
L 515.618182 158.20017 
L 516.436364 157.824291 
L 517.254545 157.663201 
L 518.072727 157.341019 
L 518.890909 156.696655 
L 519.709091 156.42817 
L 522.163636 154.870957 
L 525.436364 153.313744 
L 526.254545 153.20635 
L 527.890909 152.508289 
L 528.709091 152.025016 
L 529.527273 150.736288 
L 530.345455 149.930833 
L 531.163636 149.501257 
L 531.981818 149.340166 
L 533.618182 148.37362 
L 534.436364 148.212529 
L 536.072727 147.460771 
L 538.527273 146.440528 
L 540.163636 145.366589 
L 541.8 143.701982 
L 543.436364 142.735436 
L 544.254545 142.252163 
L 545.072727 141.446708 
L 547.527273 139.513616 
L 548.345455 139.08404 
L 549.163636 138.224888 
L 549.981818 137.634221 
L 551.618182 137.097251 
L 552.436364 136.345493 
L 554.072727 135.540038 
L 554.890909 135.32525 
L 555.709091 134.734583 
L 556.527273 134.519795 
L 558.981818 133.284765 
L 559.8 132.694098 
L 560.618182 132.264522 
L 567.981818 129.79446 
L 568.8 129.364884 
L 569.618182 128.666823 
L 572.890909 127.485489 
L 573.709091 127.270701 
L 574.527273 126.680034 
L 576.981818 125.606094 
L 577.8 125.015427 
L 578.618182 124.585851 
L 580.254545 121.471426 
L 581.890909 119.645728 
L 582.709091 119.108758 
L 585.163636 118.088515 
L 585.981818 117.82003 
L 586.8 117.712636 
L 587.618182 117.28306 
L 590.072727 116.531302 
L 592.527273 115.564756 
L 594.163636 114.490816 
L 596.618182 113.416876 
L 600.709091 111.161602 
L 601.527273 110.356147 
L 603.163636 109.496996 
L 603.981818 109.06742 
L 604.8 108.798935 
L 605.618182 108.208268 
L 607.254545 107.45651 
L 608.072727 106.973237 
L 608.890909 106.651055 
L 609.709091 106.167782 
L 610.527273 105.952994 
L 611.345455 105.362327 
L 612.163636 105.040145 
L 612.981818 104.879054 
L 614.618182 104.23469 
L 617.072727 103.375538 
L 617.890909 102.784871 
L 619.527273 102.355295 
L 621.163636 101.764628 
L 621.981818 101.120264 
L 623.618182 100.636991 
L 624.436364 100.261112 
L 625.254545 100.046324 
L 626.890909 98.972384 
L 628.527273 98.274323 
L 630.163636 97.09299 
L 631.8 96.55602 
L 632.618182 95.857959 
L 633.436364 95.696868 
L 634.254545 94.998807 
L 635.890909 94.085958 
L 637.527273 93.441594 
L 638.345455 92.636139 
L 640.8 91.884381 
L 641.618182 91.401108 
L 642.436364 91.293714 
L 644.890909 90.11238 
L 648.163636 89.145834 
L 649.8 88.931046 
L 650.618182 88.608864 
L 651.436364 88.447773 
L 653.072727 87.803409 
L 653.890909 87.749712 
L 656.345455 86.944257 
L 657.981818 85.977711 
L 659.618182 84.903772 
L 664.527273 82.594801 
L 666.981818 81.037588 
L 668.618182 80.661709 
L 671.072727 79.319284 
L 673.527273 78.567526 
L 674.345455 78.245344 
L 675.981818 77.869465 
L 680.072727 76.580737 
L 681.709091 76.258555 
L 683.345455 75.882676 
L 684.163636 75.506797 
L 684.981818 75.399403 
L 686.618182 74.755039 
L 687.436364 74.647645 
L 688.254545 74.271766 
L 689.890909 73.949584 
L 690.709091 73.573706 
L 693.163636 73.036736 
L 694.8 72.714554 
L 702.163636 71.264735 
L 702.981818 70.942553 
L 703.8 70.888856 
L 706.254545 70.190795 
L 707.072727 69.761219 
L 708.709091 69.224249 
L 709.527273 69.170552 
L 713.618182 67.989218 
L 719.345455 66.109823 
L 720.163636 66.109823 
L 721.8 65.572853 
L 722.618182 64.767398 
L 723.436364 64.391519 
L 725.072727 63.908246 
L 728.345455 62.726912 
L 729.163636 62.458427 
L 729.981818 61.975154 
L 730.8 61.814063 
L 731.618182 61.277094 
L 734.890909 60.310548 
L 735.709091 60.042063 
L 736.527273 59.55879 
L 737.345455 59.344002 
L 738.163636 58.699638 
L 740.618182 58.270062 
L 742.254545 57.41091 
L 743.072727 56.498061 
L 744.709091 56.175879 
L 747.163636 55.8 
L 747.163636 55.8 
" clip-path="url(#p62da09aa7b)" style="fill: none; stroke: #1f77b4; stroke-width: 1.5; stroke-linecap: square"/>
   </g>
   <g id="line2d_38">
    <path d="M 139.254545 307.8 
L 141.709091 307.692606 
L 143.345455 307.585212 
L 149.072727 307.477818 
L 153.163636 307.316727 
L 156.436364 307.316727 
L 157.254545 307.101939 
L 159.709091 307.048242 
L 164.618182 306.511272 
L 176.890909 305.813211 
L 183.436364 305.705817 
L 187.527273 305.544726 
L 197.345455 305.437332 
L 201.436364 305.276241 
L 206.345455 305.168847 
L 209.618182 305.061453 
L 216.981818 304.954059 
L 219.436364 304.900362 
L 221.890909 304.846665 
L 224.345455 304.57818 
L 229.254545 304.524483 
L 230.890909 304.417089 
L 236.618182 304.309695 
L 245.618182 303.826422 
L 251.345455 303.719028 
L 252.981818 303.611634 
L 255.436364 303.50424 
L 260.345455 303.289452 
L 263.618182 303.235755 
L 266.072727 303.020967 
L 279.981818 302.215512 
L 282.436364 302.108118 
L 288.163636 301.839633 
L 290.618182 301.73224 
L 298.8 301.302664 
L 307.8 301.19527 
L 311.072727 300.873088 
L 312.709091 300.765694 
L 321.709091 300.12133 
L 322.527273 299.906542 
L 324.981818 299.691754 
L 326.618182 299.315875 
L 329.072727 299.262178 
L 331.527273 299.154784 
L 338.072727 298.349329 
L 342.163636 298.241935 
L 352.8 297.43648 
L 357.709091 296.89951 
L 360.163636 296.845813 
L 361.8 296.738419 
L 365.072727 296.631025 
L 366.709091 296.523631 
L 370.8 296.147752 
L 371.618182 295.932964 
L 376.527273 295.718176 
L 380.618182 295.610782 
L 392.072727 294.966418 
L 393.709091 294.859024 
L 404.345455 294.268357 
L 410.072727 294.160963 
L 410.890909 293.999872 
L 417.436364 293.892478 
L 423.163636 293.623993 
L 432.163636 293.516599 
L 437.890909 293.248114 
L 444.436364 293.14072 
L 451.8 292.764841 
L 456.709091 292.657447 
L 472.254545 291.744598 
L 478.8 291.637204 
L 482.890909 291.261325 
L 484.527273 291.100234 
L 488.618182 291.046537 
L 491.890909 290.724355 
L 500.072727 290.294779 
L 504.981818 290.187385 
L 507.436364 290.133688 
L 509.890909 290.079991 
L 512.345455 289.811506 
L 518.890909 289.704113 
L 520.527273 289.435628 
L 522.163636 289.328234 
L 525.436364 289.22084 
L 527.072727 289.22084 
L 528.709091 288.952355 
L 536.890909 288.844961 
L 538.527273 288.68387 
L 541.8 288.576476 
L 542.618182 288.361688 
L 544.254545 288.307991 
L 545.072727 288.1469 
L 547.527273 288.039506 
L 561.436364 287.234051 
L 563.890909 287.126657 
L 567.981818 286.965566 
L 579.436364 286.858172 
L 585.163636 286.589687 
L 591.709091 286.482293 
L 594.981818 286.374899 
L 598.254545 286.321202 
L 600.709091 286.106414 
L 608.072727 285.730535 
L 609.709091 285.623141 
L 612.981818 285.515747 
L 617.072727 285.408353 
L 621.163636 285.247262 
L 626.890909 285.139868 
L 630.163636 285.032474 
L 639.163636 284.92508 
L 644.072727 284.710292 
L 648.981818 284.602898 
L 651.436364 284.334413 
L 656.345455 284.280716 
L 657.163636 284.119625 
L 658.8 284.012231 
L 662.072727 283.904837 
L 671.890909 283.797443 
L 675.981818 283.636352 
L 689.890909 283.582655 
L 691.527273 283.475261 
L 693.981818 283.421564 
L 704.618182 283.31417 
L 706.254545 283.206776 
L 715.254545 283.099382 
L 718.527273 282.991988 
L 728.345455 282.938291 
L 729.981818 282.830897 
L 742.254545 282.7772 
L 744.709091 282.562412 
L 747.163636 282.562412 
L 747.163636 282.562412 
" clip-path="url(#p62da09aa7b)" style="fill: none; stroke: #ff7f0e; stroke-width: 1.5; stroke-linecap: square"/>
   </g>
   <g id="patch_3">
    <path d="M 108 320.4 
L 108 43.2 
" style="fill: none; stroke: #a9a9a9; stroke-width: 0.8; stroke-linejoin: miter; stroke-linecap: square"/>
   </g>
   <g id="patch_4">
    <path d="M 777.6 320.4 
L 777.6 43.2 
" style="fill: none"/>
   </g>
   <g id="patch_5">
    <path d="M 108 320.4 
L 777.6 320.4 
" style="fill: none; stroke: #a9a9a9; stroke-width: 0.8; stroke-linejoin: miter; stroke-linecap: square"/>
   </g>
   <g id="patch_6">
    <path d="M 108 43.2 
L 777.6 43.2 
" style="fill: none"/>
   </g>
   <g id="text_19">
    <!-- get_subscribe history -->
    <g style="fill: #a9a9a9" transform="translate(378.6075 37.2) scale(0.12 -0.12)">
     <defs>
      <path id="DejaVuSans-67" d="M 2906 1791 
Q 2906 2416 2648 2759 
Q 2391 3103 1925 3103 
Q 1463 3103 1205 2759 
Q 947 2416 947 1791 
Q 947 1169 1205 825 
Q 1463 481 1925 481 
Q 2391 481 2648 825 
Q 2906 1169 2906 1791 
z
M 3481 434 
Q 3481 -459 3084 -895 
Q 2688 -1331 1869 -1331 
Q 1566 -1331 1297 -1286 
Q 1028 -1241 775 -1147 
L 775 -588 
Q 1028 -725 1275 -790 
Q 1522 -856 1778 -856 
Q 2344 -856 2625 -561 
Q 2906 -266 2906 331 
L 2906 616 
Q 2728 306 2450 153 
Q 2172 0 1784 0 
Q 1141 0 747 490 
Q 353 981 353 1791 
Q 353 2603 747 3093 
Q 1141 3584 1784 3584 
Q 2172 3584 2450 3431 
Q 2728 3278 2906 2969 
L 2906 3500 
L 3481 3500 
L 3481 434 
z
" transform="scale(0.015625)"/>
      <path id="DejaVuSans-65" d="M 3597 1894 
L 3597 1613 
L 953 1613 
Q 991 1019 1311 708 
Q 1631 397 2203 397 
Q 2534 397 2845 478 
Q 3156 559 3463 722 
L 3463 178 
Q 3153 47 2828 -22 
Q 2503 -91 2169 -91 
Q 1331 -91 842 396 
Q 353 884 353 1716 
Q 353 2575 817 3079 
Q 1281 3584 2069 3584 
Q 2775 3584 3186 3129 
Q 3597 2675 3597 1894 
z
M 3022 2063 
Q 3016 2534 2758 2815 
Q 2500 3097 2075 3097 
Q 1594 3097 1305 2825 
Q 1016 2553 972 2059 
L 3022 2063 
z
" transform="scale(0.015625)"/>
      <path id="DejaVuSans-74" d="M 1172 4494 
L 1172 3500 
L 2356 3500 
L 2356 3053 
L 1172 3053 
L 1172 1153 
Q 1172 725 1289 603 
Q 1406 481 1766 481 
L 2356 481 
L 2356 0 
L 1766 0 
Q 1100 0 847 248 
Q 594 497 594 1153 
L 594 3053 
L 172 3053 
L 172 3500 
L 594 3500 
L 594 4494 
L 1172 4494 
z
" transform="scale(0.015625)"/>
      <path id="DejaVuSans-5f" d="M 3263 -1063 
L 3263 -1509 
L -63 -1509 
L -63 -1063 
L 3263 -1063 
z
" transform="scale(0.015625)"/>
      <path id="DejaVuSans-73" d="M 2834 3397 
L 2834 2853 
Q 2591 2978 2328 3040 
Q 2066 3103 1784 3103 
Q 1356 3103 1142 2972 
Q 928 2841 928 2578 
Q 928 2378 1081 2264 
Q 1234 2150 1697 2047 
L 1894 2003 
Q 2506 1872 2764 1633 
Q 3022 1394 3022 966 
Q 3022 478 2636 193 
Q 2250 -91 1575 -91 
Q 1294 -91 989 -36 
Q 684 19 347 128 
L 347 722 
Q 666 556 975 473 
Q 1284 391 1588 391 
Q 1994 391 2212 530 
Q 2431 669 2431 922 
Q 2431 1156 2273 1281 
Q 2116 1406 1581 1522 
L 1381 1569 
Q 847 1681 609 1914 
Q 372 2147 372 2553 
Q 372 3047 722 3315 
Q 1072 3584 1716 3584 
Q 2034 3584 2315 3537 
Q 2597 3491 2834 3397 
z
" transform="scale(0.015625)"/>
      <path id="DejaVuSans-75" d="M 544 1381 
L 544 3500 
L 1119 3500 
L 1119 1403 
Q 1119 906 1312 657 
Q 1506 409 1894 409 
Q 2359 409 2629 706 
Q 2900 1003 2900 1516 
L 2900 3500 
L 3475 3500 
L 3475 0 
L 2900 0 
L 2900 538 
Q 2691 219 2414 64 
Q 2138 -91 1772 -91 
Q 1169 -91 856 284 
Q 544 659 544 1381 
z
M 1991 3584 
L 1991 3584 
z
" transform="scale(0.015625)"/>
      <path id="DejaVuSans-62" d="M 3116 1747 
Q 3116 2381 2855 2742 
Q 2594 3103 2138 3103 
Q 1681 3103 1420 2742 
Q 1159 2381 1159 1747 
Q 1159 1113 1420 752 
Q 1681 391 2138 391 
Q 2594 391 2855 752 
Q 3116 1113 3116 1747 
z
M 1159 2969 
Q 1341 3281 1617 3432 
Q 1894 3584 2278 3584 
Q 2916 3584 3314 3078 
Q 3713 2572 3713 1747 
Q 3713 922 3314 415 
Q 2916 -91 2278 -91 
Q 1894 -91 1617 61 
Q 1341 213 1159 525 
L 1159 0 
L 581 0 
L 581 4863 
L 1159 4863 
L 1159 2969 
z
" transform="scale(0.015625)"/>
      <path id="DejaVuSans-63" d="M 3122 3366 
L 3122 2828 
Q 2878 2963 2633 3030 
Q 2388 3097 2138 3097 
Q 1578 3097 1268 2742 
Q 959 2388 959 1747 
Q 959 1106 1268 751 
Q 1578 397 2138 397 
Q 2388 397 2633 464 
Q 2878 531 3122 666 
L 3122 134 
Q 2881 22 2623 -34 
Q 2366 -91 2075 -91 
Q 1284 -91 818 406 
Q 353 903 353 1747 
Q 353 2603 823 3093 
Q 1294 3584 2113 3584 
Q 2378 3584 2631 3529 
Q 2884 3475 3122 3366 
z
" transform="scale(0.015625)"/>
      <path id="DejaVuSans-72" d="M 2631 2963 
Q 2534 3019 2420 3045 
Q 2306 3072 2169 3072 
Q 1681 3072 1420 2755 
Q 1159 2438 1159 1844 
L 1159 0 
L 581 0 
L 581 3500 
L 1159 3500 
L 1159 2956 
Q 1341 3275 1631 3429 
Q 1922 3584 2338 3584 
Q 2397 3584 2469 3576 
Q 2541 3569 2628 3553 
L 2631 2963 
z
" transform="scale(0.015625)"/>
      <path id="DejaVuSans-69" d="M 603 3500 
L 1178 3500 
L 1178 0 
L 603 0 
L 603 3500 
z
M 603 4863 
L 1178 4863 
L 1178 4134 
L 603 4134 
L 603 4863 
z
" transform="scale(0.015625)"/>
      <path id="DejaVuSans-20" transform="scale(0.015625)"/>
      <path id="DejaVuSans-68" d="M 3513 2113 
L 3513 0 
L 2938 0 
L 2938 2094 
Q 2938 2591 2744 2837 
Q 2550 3084 2163 3084 
Q 1697 3084 1428 2787 
Q 1159 2491 1159 1978 
L 1159 0 
L 581 0 
L 581 4863 
L 1159 4863 
L 1159 2956 
Q 1366 3272 1645 3428 
Q 1925 3584 2291 3584 
Q 2894 3584 3203 3211 
Q 3513 2838 3513 2113 
z
" transform="scale(0.015625)"/>
      <path id="DejaVuSans-6f" d="M 1959 3097 
Q 1497 3097 1228 2736 
Q 959 2375 959 1747 
Q 959 1119 1226 758 
Q 1494 397 1959 397 
Q 2419 397 2687 759 
Q 2956 1122 2956 1747 
Q 2956 2369 2687 2733 
Q 2419 3097 1959 3097 
z
M 1959 3584 
Q 2709 3584 3137 3096 
Q 3566 2609 3566 1747 
Q 3566 888 3137 398 
Q 2709 -91 1959 -91 
Q 1206 -91 779 398 
Q 353 888 353 1747 
Q 353 2609 779 3096 
Q 1206 3584 1959 3584 
z
" transform="scale(0.015625)"/>
      <path id="DejaVuSans-79" d="M 2059 -325 
Q 1816 -950 1584 -1140 
Q 1353 -1331 966 -1331 
L 506 -1331 
L 506 -850 
L 844 -850 
Q 1081 -850 1212 -737 
Q 1344 -625 1503 -206 
L 1606 56 
L 191 3500 
L 800 3500 
L 1894 763 
L 2988 3500 
L 3597 3500 
L 2059 -325 
z
" transform="scale(0.015625)"/>
     </defs>
     <use xlink:href="#DejaVuSans-67"/>
     <use xlink:href="#DejaVuSans-65" x="63.476562"/>
     <use xlink:href="#DejaVuSans-74" x="125"/>
     <use xlink:href="#DejaVuSans-5f" x="164.208984"/>
     <use xlink:href="#DejaVuSans-73" x="214.208984"/>
     <use xlink:href="#DejaVuSans-75" x="266.308594"/>
     <use xlink:href="#DejaVuSans-62" x="329.6875"/>
     <use xlink:href="#DejaVuSans-73" x="393.164062"/>
     <use xlink:href="#DejaVuSans-63" x="445.263672"/>
     <use xlink:href="#DejaVuSans-72" x="500.244141"/>
     <use xlink:href="#DejaVuSans-69" x="541.357422"/>
     <use xlink:href="#DejaVuSans-62" x="569.140625"/>
     <use xlink:href="#DejaVuSans-65" x="632.617188"/>
     <use xlink:href="#DejaVuSans-20" x="694.140625"/>
     <use xlink:href="#DejaVuSans-68" x="725.927734"/>
     <use xlink:href="#DejaVuSans-69" x="789.306641"/>
     <use xlink:href="#DejaVuSans-73" x="817.089844"/>
     <use xlink:href="#DejaVuSans-74" x="869.189453"/>
     <use xlink:href="#DejaVuSans-6f" x="908.398438"/>
     <use xlink:href="#DejaVuSans-72" x="969.580078"/>
     <use xlink:href="#DejaVuSans-79" x="1010.693359"/>
    </g>
   </g>
   <g id="legend_1">
    <g id="line2d_39">
     <path d="M 815.08 328.498438 
L 825.08 328.498438 
L 835.08 328.498438 
" style="fill: none; stroke: #1f77b4; stroke-width: 1.5; stroke-linecap: square"/>
    </g>
    <g id="text_20">
     <!-- star -->
     <g style="fill: #a9a9a9" transform="translate(843.08 331.998438) scale(0.1 -0.1)">
      <defs>
       <path id="DejaVuSans-61" d="M 2194 1759 
Q 1497 1759 1228 1600 
Q 959 1441 959 1056 
Q 959 750 1161 570 
Q 1363 391 1709 391 
Q 2188 391 2477 730 
Q 2766 1069 2766 1631 
L 2766 1759 
L 2194 1759 
z
M 3341 1997 
L 3341 0 
L 2766 0 
L 2766 531 
Q 2569 213 2275 61 
Q 1981 -91 1556 -91 
Q 1019 -91 701 211 
Q 384 513 384 1019 
Q 384 1609 779 1909 
Q 1175 2209 1959 2209 
L 2766 2209 
L 2766 2266 
Q 2766 2663 2505 2880 
Q 2244 3097 1772 3097 
Q 1472 3097 1187 3025 
Q 903 2953 641 2809 
L 641 3341 
Q 956 3463 1253 3523 
Q 1550 3584 1831 3584 
Q 2591 3584 2966 3190 
Q 3341 2797 3341 1997 
z
" transform="scale(0.015625)"/>
      </defs>
      <use xlink:href="#DejaVuSans-73"/>
      <use xlink:href="#DejaVuSans-74" x="52.099609"/>
      <use xlink:href="#DejaVuSans-61" x="91.308594"/>
      <use xlink:href="#DejaVuSans-72" x="152.587891"/>
     </g>
    </g>
    <g id="line2d_40">
     <path d="M 815.08 343.176562 
L 825.08 343.176562 
L 835.08 343.176562 
" style="fill: none; stroke: #ff7f0e; stroke-width: 1.5; stroke-linecap: square"/>
    </g>
    <g id="text_21">
     <!-- fork -->
     <g style="fill: #a9a9a9" transform="translate(843.08 346.676562) scale(0.1 -0.1)">
      <defs>
       <path id="DejaVuSans-66" d="M 2375 4863 
L 2375 4384 
L 1825 4384 
Q 1516 4384 1395 4259 
Q 1275 4134 1275 3809 
L 1275 3500 
L 2222 3500 
L 2222 3053 
L 1275 3053 
L 1275 0 
L 697 0 
L 697 3053 
L 147 3053 
L 147 3500 
L 697 3500 
L 697 3744 
Q 697 4328 969 4595 
Q 1241 4863 1831 4863 
L 2375 4863 
z
" transform="scale(0.015625)"/>
       <path id="DejaVuSans-6b" d="M 581 4863 
L 1159 4863 
L 1159 1991 
L 2875 3500 
L 3609 3500 
L 1753 1863 
L 3688 0 
L 2938 0 
L 1159 1709 
L 1159 0 
L 581 0 
L 581 4863 
z
" transform="scale(0.015625)"/>
      </defs>
      <use xlink:href="#DejaVuSans-66"/>
      <use xlink:href="#DejaVuSans-6f" x="35.205078"/>
      <use xlink:href="#DejaVuSans-72" x="96.386719"/>
      <use xlink:href="#DejaVuSans-6b" x="137.5"/>
     </g>
    </g>
   </g>
  </g>
 </g>
 <defs>
  <clipPath id="p62da09aa7b">
   <rect x="108" y="43.2" width="669.6" height="277.2"/>
  </clipPath>
 </defs>
</svg>
