<?xml version="1.0" encoding="utf-8" standalone="no"?>
<!DOCTYPE svg PUBLIC "-//W3C//DTD SVG 1.1//EN"
  "http://www.w3.org/Graphics/SVG/1.1/DTD/svg11.dtd">
<svg xmlns:xlink="http://www.w3.org/1999/xlink" width="864pt" height="360pt" viewBox="0 0 864 360" xmlns="http://www.w3.org/2000/svg" version="1.1">
 <metadata>
  <rdf:RDF xmlns:dc="http://purl.org/dc/elements/1.1/" xmlns:cc="http://creativecommons.org/ns#" xmlns:rdf="http://www.w3.org/1999/02/22-rdf-syntax-ns#">
   <cc:Work>
    <dc:type rdf:resource="http://purl.org/dc/dcmitype/StillImage"/>
    <dc:date>2023-08-09T20:22:28.727811</dc:date>
    <dc:format>image/svg+xml</dc:format>
    <dc:creator>
     <cc:Agent>
      <dc:title>Matplotlib v3.7.2, https://matplotlib.org/</dc:title>
     </cc:Agent>
    </dc:creator>
   </cc:Work>
  </rdf:RDF>
 </metadata>
 <defs>
  <style type="text/css">*{stroke-linejoin: round; stroke-linecap: butt}</style>
 </defs>
 <g id="figure_1">
  <g id="patch_1">
   <path d="M 0 360 
L 864 360 
L 864 0 
L 0 0 
L 0 360 
z
" style="fill: none; opacity: 0"/>
  </g>
  <g id="axes_1">
   <g id="patch_2">
    <path d="M 108 320.4 
L 777.6 320.4 
L 777.6 43.2 
L 108 43.2 
L 108 320.4 
z
" style="fill: none; opacity: 0"/>
   </g>
   <g id="matplotlib.axis_1">
    <g id="xtick_1">
     <g id="line2d_1">
      <path d="M 119.668633 320.4 
L 119.668633 43.2 
" clip-path="url(#p68f70d9b34)" style="fill: none; stroke-dasharray: 5.12,1.28,0.8,1.28; stroke-dashoffset: 0; stroke: #b0b0b0; stroke-width: 0.8"/>
     </g>
     <g id="line2d_2">
      <defs>
       <path id="m006eb9bae7" d="M 0 0 
L 0 3.5 
" style="stroke: #a9a9a9; stroke-width: 0.8"/>
      </defs>
      <g>
       <use xlink:href="#m006eb9bae7" x="119.668633" y="320.4" style="fill: #a9a9a9; stroke: #a9a9a9; stroke-width: 0.8"/>
      </g>
     </g>
     <g id="text_1">
      <!-- 2021-07 -->
      <g style="fill: #a9a9a9" transform="translate(98.777226 334.998438) scale(0.1 -0.1)">
       <defs>
        <path id="DejaVuSans-32" d="M 1228 531 
L 3431 531 
L 3431 0 
L 469 0 
L 469 531 
Q 828 903 1448 1529 
Q 2069 2156 2228 2338 
Q 2531 2678 2651 2914 
Q 2772 3150 2772 3378 
Q 2772 3750 2511 3984 
Q 2250 4219 1831 4219 
Q 1534 4219 1204 4116 
Q 875 4013 500 3803 
L 500 4441 
Q 881 4594 1212 4672 
Q 1544 4750 1819 4750 
Q 2544 4750 2975 4387 
Q 3406 4025 3406 3419 
Q 3406 3131 3298 2873 
Q 3191 2616 2906 2266 
Q 2828 2175 2409 1742 
Q 1991 1309 1228 531 
z
" transform="scale(0.015625)"/>
        <path id="DejaVuSans-30" d="M 2034 4250 
Q 1547 4250 1301 3770 
Q 1056 3291 1056 2328 
Q 1056 1369 1301 889 
Q 1547 409 2034 409 
Q 2525 409 2770 889 
Q 3016 1369 3016 2328 
Q 3016 3291 2770 3770 
Q 2525 4250 2034 4250 
z
M 2034 4750 
Q 2819 4750 3233 4129 
Q 3647 3509 3647 2328 
Q 3647 1150 3233 529 
Q 2819 -91 2034 -91 
Q 1250 -91 836 529 
Q 422 1150 422 2328 
Q 422 3509 836 4129 
Q 1250 4750 2034 4750 
z
" transform="scale(0.015625)"/>
        <path id="DejaVuSans-31" d="M 794 531 
L 1825 531 
L 1825 4091 
L 703 3866 
L 703 4441 
L 1819 4666 
L 2450 4666 
L 2450 531 
L 3481 531 
L 3481 0 
L 794 0 
L 794 531 
z
" transform="scale(0.015625)"/>
        <path id="DejaVuSans-2d" d="M 313 2009 
L 1997 2009 
L 1997 1497 
L 313 1497 
L 313 2009 
z
" transform="scale(0.015625)"/>
        <path id="DejaVuSans-37" d="M 525 4666 
L 3525 4666 
L 3525 4397 
L 1831 0 
L 1172 0 
L 2766 4134 
L 525 4134 
L 525 4666 
z
" transform="scale(0.015625)"/>
       </defs>
       <use xlink:href="#DejaVuSans-32"/>
       <use xlink:href="#DejaVuSans-30" x="63.623047"/>
       <use xlink:href="#DejaVuSans-32" x="127.246094"/>
       <use xlink:href="#DejaVuSans-31" x="190.869141"/>
       <use xlink:href="#DejaVuSans-2d" x="254.492188"/>
       <use xlink:href="#DejaVuSans-30" x="290.576172"/>
       <use xlink:href="#DejaVuSans-37" x="354.199219"/>
      </g>
     </g>
    </g>
    <g id="xtick_2">
     <g id="line2d_3">
      <path d="M 194.739556 320.4 
L 194.739556 43.2 
" clip-path="url(#p68f70d9b34)" style="fill: none; stroke-dasharray: 5.12,1.28,0.8,1.28; stroke-dashoffset: 0; stroke: #b0b0b0; stroke-width: 0.8"/>
     </g>
     <g id="line2d_4">
      <g>
       <use xlink:href="#m006eb9bae7" x="194.739556" y="320.4" style="fill: #a9a9a9; stroke: #a9a9a9; stroke-width: 0.8"/>
      </g>
     </g>
     <g id="text_2">
      <!-- 2021-10 -->
      <g style="fill: #a9a9a9" transform="translate(173.84815 334.998438) scale(0.1 -0.1)">
       <use xlink:href="#DejaVuSans-32"/>
       <use xlink:href="#DejaVuSans-30" x="63.623047"/>
       <use xlink:href="#DejaVuSans-32" x="127.246094"/>
       <use xlink:href="#DejaVuSans-31" x="190.869141"/>
       <use xlink:href="#DejaVuSans-2d" x="254.492188"/>
       <use xlink:href="#DejaVuSans-31" x="290.576172"/>
       <use xlink:href="#DejaVuSans-30" x="354.199219"/>
      </g>
     </g>
    </g>
    <g id="xtick_3">
     <g id="line2d_5">
      <path d="M 269.81048 320.4 
L 269.81048 43.2 
" clip-path="url(#p68f70d9b34)" style="fill: none; stroke-dasharray: 5.12,1.28,0.8,1.28; stroke-dashoffset: 0; stroke: #b0b0b0; stroke-width: 0.8"/>
     </g>
     <g id="line2d_6">
      <g>
       <use xlink:href="#m006eb9bae7" x="269.81048" y="320.4" style="fill: #a9a9a9; stroke: #a9a9a9; stroke-width: 0.8"/>
      </g>
     </g>
     <g id="text_3">
      <!-- 2022-01 -->
      <g style="fill: #a9a9a9" transform="translate(248.919074 334.998438) scale(0.1 -0.1)">
       <use xlink:href="#DejaVuSans-32"/>
       <use xlink:href="#DejaVuSans-30" x="63.623047"/>
       <use xlink:href="#DejaVuSans-32" x="127.246094"/>
       <use xlink:href="#DejaVuSans-32" x="190.869141"/>
       <use xlink:href="#DejaVuSans-2d" x="254.492188"/>
       <use xlink:href="#DejaVuSans-30" x="290.576172"/>
       <use xlink:href="#DejaVuSans-31" x="354.199219"/>
      </g>
     </g>
    </g>
    <g id="xtick_4">
     <g id="line2d_7">
      <path d="M 343.249427 320.4 
L 343.249427 43.2 
" clip-path="url(#p68f70d9b34)" style="fill: none; stroke-dasharray: 5.12,1.28,0.8,1.28; stroke-dashoffset: 0; stroke: #b0b0b0; stroke-width: 0.8"/>
     </g>
     <g id="line2d_8">
      <g>
       <use xlink:href="#m006eb9bae7" x="343.249427" y="320.4" style="fill: #a9a9a9; stroke: #a9a9a9; stroke-width: 0.8"/>
      </g>
     </g>
     <g id="text_4">
      <!-- 2022-04 -->
      <g style="fill: #a9a9a9" transform="translate(322.358021 334.998438) scale(0.1 -0.1)">
       <defs>
        <path id="DejaVuSans-34" d="M 2419 4116 
L 825 1625 
L 2419 1625 
L 2419 4116 
z
M 2253 4666 
L 3047 4666 
L 3047 1625 
L 3713 1625 
L 3713 1100 
L 3047 1100 
L 3047 0 
L 2419 0 
L 2419 1100 
L 313 1100 
L 313 1709 
L 2253 4666 
z
" transform="scale(0.015625)"/>
       </defs>
       <use xlink:href="#DejaVuSans-32"/>
       <use xlink:href="#DejaVuSans-30" x="63.623047"/>
       <use xlink:href="#DejaVuSans-32" x="127.246094"/>
       <use xlink:href="#DejaVuSans-32" x="190.869141"/>
       <use xlink:href="#DejaVuSans-2d" x="254.492188"/>
       <use xlink:href="#DejaVuSans-30" x="290.576172"/>
       <use xlink:href="#DejaVuSans-34" x="354.199219"/>
      </g>
     </g>
    </g>
    <g id="xtick_5">
     <g id="line2d_9">
      <path d="M 417.504363 320.4 
L 417.504363 43.2 
" clip-path="url(#p68f70d9b34)" style="fill: none; stroke-dasharray: 5.12,1.28,0.8,1.28; stroke-dashoffset: 0; stroke: #b0b0b0; stroke-width: 0.8"/>
     </g>
     <g id="line2d_10">
      <g>
       <use xlink:href="#m006eb9bae7" x="417.504363" y="320.4" style="fill: #a9a9a9; stroke: #a9a9a9; stroke-width: 0.8"/>
      </g>
     </g>
     <g id="text_5">
      <!-- 2022-07 -->
      <g style="fill: #a9a9a9" transform="translate(396.612956 334.998438) scale(0.1 -0.1)">
       <use xlink:href="#DejaVuSans-32"/>
       <use xlink:href="#DejaVuSans-30" x="63.623047"/>
       <use xlink:href="#DejaVuSans-32" x="127.246094"/>
       <use xlink:href="#DejaVuSans-32" x="190.869141"/>
       <use xlink:href="#DejaVuSans-2d" x="254.492188"/>
       <use xlink:href="#DejaVuSans-30" x="290.576172"/>
       <use xlink:href="#DejaVuSans-37" x="354.199219"/>
      </g>
     </g>
    </g>
    <g id="xtick_6">
     <g id="line2d_11">
      <path d="M 492.575286 320.4 
L 492.575286 43.2 
" clip-path="url(#p68f70d9b34)" style="fill: none; stroke-dasharray: 5.12,1.28,0.8,1.28; stroke-dashoffset: 0; stroke: #b0b0b0; stroke-width: 0.8"/>
     </g>
     <g id="line2d_12">
      <g>
       <use xlink:href="#m006eb9bae7" x="492.575286" y="320.4" style="fill: #a9a9a9; stroke: #a9a9a9; stroke-width: 0.8"/>
      </g>
     </g>
     <g id="text_6">
      <!-- 2022-10 -->
      <g style="fill: #a9a9a9" transform="translate(471.68388 334.998438) scale(0.1 -0.1)">
       <use xlink:href="#DejaVuSans-32"/>
       <use xlink:href="#DejaVuSans-30" x="63.623047"/>
       <use xlink:href="#DejaVuSans-32" x="127.246094"/>
       <use xlink:href="#DejaVuSans-32" x="190.869141"/>
       <use xlink:href="#DejaVuSans-2d" x="254.492188"/>
       <use xlink:href="#DejaVuSans-31" x="290.576172"/>
       <use xlink:href="#DejaVuSans-30" x="354.199219"/>
      </g>
     </g>
    </g>
    <g id="xtick_7">
     <g id="line2d_13">
      <path d="M 567.64621 320.4 
L 567.64621 43.2 
" clip-path="url(#p68f70d9b34)" style="fill: none; stroke-dasharray: 5.12,1.28,0.8,1.28; stroke-dashoffset: 0; stroke: #b0b0b0; stroke-width: 0.8"/>
     </g>
     <g id="line2d_14">
      <g>
       <use xlink:href="#m006eb9bae7" x="567.64621" y="320.4" style="fill: #a9a9a9; stroke: #a9a9a9; stroke-width: 0.8"/>
      </g>
     </g>
     <g id="text_7">
      <!-- 2023-01 -->
      <g style="fill: #a9a9a9" transform="translate(546.754804 334.998438) scale(0.1 -0.1)">
       <defs>
        <path id="DejaVuSans-33" d="M 2597 2516 
Q 3050 2419 3304 2112 
Q 3559 1806 3559 1356 
Q 3559 666 3084 287 
Q 2609 -91 1734 -91 
Q 1441 -91 1130 -33 
Q 819 25 488 141 
L 488 750 
Q 750 597 1062 519 
Q 1375 441 1716 441 
Q 2309 441 2620 675 
Q 2931 909 2931 1356 
Q 2931 1769 2642 2001 
Q 2353 2234 1838 2234 
L 1294 2234 
L 1294 2753 
L 1863 2753 
Q 2328 2753 2575 2939 
Q 2822 3125 2822 3475 
Q 2822 3834 2567 4026 
Q 2313 4219 1838 4219 
Q 1578 4219 1281 4162 
Q 984 4106 628 3988 
L 628 4550 
Q 988 4650 1302 4700 
Q 1616 4750 1894 4750 
Q 2613 4750 3031 4423 
Q 3450 4097 3450 3541 
Q 3450 3153 3228 2886 
Q 3006 2619 2597 2516 
z
" transform="scale(0.015625)"/>
       </defs>
       <use xlink:href="#DejaVuSans-32"/>
       <use xlink:href="#DejaVuSans-30" x="63.623047"/>
       <use xlink:href="#DejaVuSans-32" x="127.246094"/>
       <use xlink:href="#DejaVuSans-33" x="190.869141"/>
       <use xlink:href="#DejaVuSans-2d" x="254.492188"/>
       <use xlink:href="#DejaVuSans-30" x="290.576172"/>
       <use xlink:href="#DejaVuSans-31" x="354.199219"/>
      </g>
     </g>
    </g>
    <g id="xtick_8">
     <g id="line2d_15">
      <path d="M 641.085157 320.4 
L 641.085157 43.2 
" clip-path="url(#p68f70d9b34)" style="fill: none; stroke-dasharray: 5.12,1.28,0.8,1.28; stroke-dashoffset: 0; stroke: #b0b0b0; stroke-width: 0.8"/>
     </g>
     <g id="line2d_16">
      <g>
       <use xlink:href="#m006eb9bae7" x="641.085157" y="320.4" style="fill: #a9a9a9; stroke: #a9a9a9; stroke-width: 0.8"/>
      </g>
     </g>
     <g id="text_8">
      <!-- 2023-04 -->
      <g style="fill: #a9a9a9" transform="translate(620.193751 334.998438) scale(0.1 -0.1)">
       <use xlink:href="#DejaVuSans-32"/>
       <use xlink:href="#DejaVuSans-30" x="63.623047"/>
       <use xlink:href="#DejaVuSans-32" x="127.246094"/>
       <use xlink:href="#DejaVuSans-33" x="190.869141"/>
       <use xlink:href="#DejaVuSans-2d" x="254.492188"/>
       <use xlink:href="#DejaVuSans-30" x="290.576172"/>
       <use xlink:href="#DejaVuSans-34" x="354.199219"/>
      </g>
     </g>
    </g>
    <g id="xtick_9">
     <g id="line2d_17">
      <path d="M 715.340093 320.4 
L 715.340093 43.2 
" clip-path="url(#p68f70d9b34)" style="fill: none; stroke-dasharray: 5.12,1.28,0.8,1.28; stroke-dashoffset: 0; stroke: #b0b0b0; stroke-width: 0.8"/>
     </g>
     <g id="line2d_18">
      <g>
       <use xlink:href="#m006eb9bae7" x="715.340093" y="320.4" style="fill: #a9a9a9; stroke: #a9a9a9; stroke-width: 0.8"/>
      </g>
     </g>
     <g id="text_9">
      <!-- 2023-07 -->
      <g style="fill: #a9a9a9" transform="translate(694.448686 334.998438) scale(0.1 -0.1)">
       <use xlink:href="#DejaVuSans-32"/>
       <use xlink:href="#DejaVuSans-30" x="63.623047"/>
       <use xlink:href="#DejaVuSans-32" x="127.246094"/>
       <use xlink:href="#DejaVuSans-33" x="190.869141"/>
       <use xlink:href="#DejaVuSans-2d" x="254.492188"/>
       <use xlink:href="#DejaVuSans-30" x="290.576172"/>
       <use xlink:href="#DejaVuSans-37" x="354.199219"/>
      </g>
     </g>
    </g>
   </g>
   <g id="matplotlib.axis_2">
    <g id="ytick_1">
     <g id="line2d_19">
      <path d="M 108 307.853628 
L 777.6 307.853628 
" clip-path="url(#p68f70d9b34)" style="fill: none; stroke-dasharray: 5.12,1.28,0.8,1.28; stroke-dashoffset: 0; stroke: #b0b0b0; stroke-width: 0.8"/>
     </g>
     <g id="line2d_20">
      <defs>
       <path id="m0826e3f37b" d="M 0 0 
L -3.5 0 
" style="stroke: #a9a9a9; stroke-width: 0.8"/>
      </defs>
      <g>
       <use xlink:href="#m0826e3f37b" x="108" y="307.853628" style="fill: #a9a9a9; stroke: #a9a9a9; stroke-width: 0.8"/>
      </g>
     </g>
     <g id="text_10">
      <!-- 0 -->
      <g style="fill: #a9a9a9" transform="translate(94.6375 311.652847) scale(0.1 -0.1)">
       <use xlink:href="#DejaVuSans-30"/>
      </g>
     </g>
    </g>
    <g id="ytick_2">
     <g id="line2d_21">
      <path d="M 108 275.676569 
L 777.6 275.676569 
" clip-path="url(#p68f70d9b34)" style="fill: none; stroke-dasharray: 5.12,1.28,0.8,1.28; stroke-dashoffset: 0; stroke: #b0b0b0; stroke-width: 0.8"/>
     </g>
     <g id="line2d_22">
      <g>
       <use xlink:href="#m0826e3f37b" x="108" y="275.676569" style="fill: #a9a9a9; stroke: #a9a9a9; stroke-width: 0.8"/>
      </g>
     </g>
     <g id="text_11">
      <!-- 600 -->
      <g style="fill: #a9a9a9" transform="translate(81.9125 279.475788) scale(0.1 -0.1)">
       <defs>
        <path id="DejaVuSans-36" d="M 2113 2584 
Q 1688 2584 1439 2293 
Q 1191 2003 1191 1497 
Q 1191 994 1439 701 
Q 1688 409 2113 409 
Q 2538 409 2786 701 
Q 3034 994 3034 1497 
Q 3034 2003 2786 2293 
Q 2538 2584 2113 2584 
z
M 3366 4563 
L 3366 3988 
Q 3128 4100 2886 4159 
Q 2644 4219 2406 4219 
Q 1781 4219 1451 3797 
Q 1122 3375 1075 2522 
Q 1259 2794 1537 2939 
Q 1816 3084 2150 3084 
Q 2853 3084 3261 2657 
Q 3669 2231 3669 1497 
Q 3669 778 3244 343 
Q 2819 -91 2113 -91 
Q 1303 -91 875 529 
Q 447 1150 447 2328 
Q 447 3434 972 4092 
Q 1497 4750 2381 4750 
Q 2619 4750 2861 4703 
Q 3103 4656 3366 4563 
z
" transform="scale(0.015625)"/>
       </defs>
       <use xlink:href="#DejaVuSans-36"/>
       <use xlink:href="#DejaVuSans-30" x="63.623047"/>
       <use xlink:href="#DejaVuSans-30" x="127.246094"/>
      </g>
     </g>
    </g>
    <g id="ytick_3">
     <g id="line2d_23">
      <path d="M 108 243.499511 
L 777.6 243.499511 
" clip-path="url(#p68f70d9b34)" style="fill: none; stroke-dasharray: 5.12,1.28,0.8,1.28; stroke-dashoffset: 0; stroke: #b0b0b0; stroke-width: 0.8"/>
     </g>
     <g id="line2d_24">
      <g>
       <use xlink:href="#m0826e3f37b" x="108" y="243.499511" style="fill: #a9a9a9; stroke: #a9a9a9; stroke-width: 0.8"/>
      </g>
     </g>
     <g id="text_12">
      <!-- 1200 -->
      <g style="fill: #a9a9a9" transform="translate(75.55 247.298729) scale(0.1 -0.1)">
       <use xlink:href="#DejaVuSans-31"/>
       <use xlink:href="#DejaVuSans-32" x="63.623047"/>
       <use xlink:href="#DejaVuSans-30" x="127.246094"/>
       <use xlink:href="#DejaVuSans-30" x="190.869141"/>
      </g>
     </g>
    </g>
    <g id="ytick_4">
     <g id="line2d_25">
      <path d="M 108 211.322452 
L 777.6 211.322452 
" clip-path="url(#p68f70d9b34)" style="fill: none; stroke-dasharray: 5.12,1.28,0.8,1.28; stroke-dashoffset: 0; stroke: #b0b0b0; stroke-width: 0.8"/>
     </g>
     <g id="line2d_26">
      <g>
       <use xlink:href="#m0826e3f37b" x="108" y="211.322452" style="fill: #a9a9a9; stroke: #a9a9a9; stroke-width: 0.8"/>
      </g>
     </g>
     <g id="text_13">
      <!-- 1800 -->
      <g style="fill: #a9a9a9" transform="translate(75.55 215.12167) scale(0.1 -0.1)">
       <defs>
        <path id="DejaVuSans-38" d="M 2034 2216 
Q 1584 2216 1326 1975 
Q 1069 1734 1069 1313 
Q 1069 891 1326 650 
Q 1584 409 2034 409 
Q 2484 409 2743 651 
Q 3003 894 3003 1313 
Q 3003 1734 2745 1975 
Q 2488 2216 2034 2216 
z
M 1403 2484 
Q 997 2584 770 2862 
Q 544 3141 544 3541 
Q 544 4100 942 4425 
Q 1341 4750 2034 4750 
Q 2731 4750 3128 4425 
Q 3525 4100 3525 3541 
Q 3525 3141 3298 2862 
Q 3072 2584 2669 2484 
Q 3125 2378 3379 2068 
Q 3634 1759 3634 1313 
Q 3634 634 3220 271 
Q 2806 -91 2034 -91 
Q 1263 -91 848 271 
Q 434 634 434 1313 
Q 434 1759 690 2068 
Q 947 2378 1403 2484 
z
M 1172 3481 
Q 1172 3119 1398 2916 
Q 1625 2713 2034 2713 
Q 2441 2713 2670 2916 
Q 2900 3119 2900 3481 
Q 2900 3844 2670 4047 
Q 2441 4250 2034 4250 
Q 1625 4250 1398 4047 
Q 1172 3844 1172 3481 
z
" transform="scale(0.015625)"/>
       </defs>
       <use xlink:href="#DejaVuSans-31"/>
       <use xlink:href="#DejaVuSans-38" x="63.623047"/>
       <use xlink:href="#DejaVuSans-30" x="127.246094"/>
       <use xlink:href="#DejaVuSans-30" x="190.869141"/>
      </g>
     </g>
    </g>
    <g id="ytick_5">
     <g id="line2d_27">
      <path d="M 108 179.145393 
L 777.6 179.145393 
" clip-path="url(#p68f70d9b34)" style="fill: none; stroke-dasharray: 5.12,1.28,0.8,1.28; stroke-dashoffset: 0; stroke: #b0b0b0; stroke-width: 0.8"/>
     </g>
     <g id="line2d_28">
      <g>
       <use xlink:href="#m0826e3f37b" x="108" y="179.145393" style="fill: #a9a9a9; stroke: #a9a9a9; stroke-width: 0.8"/>
      </g>
     </g>
     <g id="text_14">
      <!-- 2400 -->
      <g style="fill: #a9a9a9" transform="translate(75.55 182.944611) scale(0.1 -0.1)">
       <use xlink:href="#DejaVuSans-32"/>
       <use xlink:href="#DejaVuSans-34" x="63.623047"/>
       <use xlink:href="#DejaVuSans-30" x="127.246094"/>
       <use xlink:href="#DejaVuSans-30" x="190.869141"/>
      </g>
     </g>
    </g>
    <g id="ytick_6">
     <g id="line2d_29">
      <path d="M 108 146.968334 
L 777.6 146.968334 
" clip-path="url(#p68f70d9b34)" style="fill: none; stroke-dasharray: 5.12,1.28,0.8,1.28; stroke-dashoffset: 0; stroke: #b0b0b0; stroke-width: 0.8"/>
     </g>
     <g id="line2d_30">
      <g>
       <use xlink:href="#m0826e3f37b" x="108" y="146.968334" style="fill: #a9a9a9; stroke: #a9a9a9; stroke-width: 0.8"/>
      </g>
     </g>
     <g id="text_15">
      <!-- 3000 -->
      <g style="fill: #a9a9a9" transform="translate(75.55 150.767552) scale(0.1 -0.1)">
       <use xlink:href="#DejaVuSans-33"/>
       <use xlink:href="#DejaVuSans-30" x="63.623047"/>
       <use xlink:href="#DejaVuSans-30" x="127.246094"/>
       <use xlink:href="#DejaVuSans-30" x="190.869141"/>
      </g>
     </g>
    </g>
    <g id="ytick_7">
     <g id="line2d_31">
      <path d="M 108 114.791275 
L 777.6 114.791275 
" clip-path="url(#p68f70d9b34)" style="fill: none; stroke-dasharray: 5.12,1.28,0.8,1.28; stroke-dashoffset: 0; stroke: #b0b0b0; stroke-width: 0.8"/>
     </g>
     <g id="line2d_32">
      <g>
       <use xlink:href="#m0826e3f37b" x="108" y="114.791275" style="fill: #a9a9a9; stroke: #a9a9a9; stroke-width: 0.8"/>
      </g>
     </g>
     <g id="text_16">
      <!-- 3600 -->
      <g style="fill: #a9a9a9" transform="translate(75.55 118.590493) scale(0.1 -0.1)">
       <use xlink:href="#DejaVuSans-33"/>
       <use xlink:href="#DejaVuSans-36" x="63.623047"/>
       <use xlink:href="#DejaVuSans-30" x="127.246094"/>
       <use xlink:href="#DejaVuSans-30" x="190.869141"/>
      </g>
     </g>
    </g>
    <g id="ytick_8">
     <g id="line2d_33">
      <path d="M 108 82.614216 
L 777.6 82.614216 
" clip-path="url(#p68f70d9b34)" style="fill: none; stroke-dasharray: 5.12,1.28,0.8,1.28; stroke-dashoffset: 0; stroke: #b0b0b0; stroke-width: 0.8"/>
     </g>
     <g id="line2d_34">
      <g>
       <use xlink:href="#m0826e3f37b" x="108" y="82.614216" style="fill: #a9a9a9; stroke: #a9a9a9; stroke-width: 0.8"/>
      </g>
     </g>
     <g id="text_17">
      <!-- 4200 -->
      <g style="fill: #a9a9a9" transform="translate(75.55 86.413435) scale(0.1 -0.1)">
       <use xlink:href="#DejaVuSans-34"/>
       <use xlink:href="#DejaVuSans-32" x="63.623047"/>
       <use xlink:href="#DejaVuSans-30" x="127.246094"/>
       <use xlink:href="#DejaVuSans-30" x="190.869141"/>
      </g>
     </g>
    </g>
    <g id="ytick_9">
     <g id="line2d_35">
      <path d="M 108 50.437157 
L 777.6 50.437157 
" clip-path="url(#p68f70d9b34)" style="fill: none; stroke-dasharray: 5.12,1.28,0.8,1.28; stroke-dashoffset: 0; stroke: #b0b0b0; stroke-width: 0.8"/>
     </g>
     <g id="line2d_36">
      <g>
       <use xlink:href="#m0826e3f37b" x="108" y="50.437157" style="fill: #a9a9a9; stroke: #a9a9a9; stroke-width: 0.8"/>
      </g>
     </g>
     <g id="text_18">
      <!-- 4800 -->
      <g style="fill: #a9a9a9" transform="translate(75.55 54.236376) scale(0.1 -0.1)">
       <use xlink:href="#DejaVuSans-34"/>
       <use xlink:href="#DejaVuSans-38" x="63.623047"/>
       <use xlink:href="#DejaVuSans-30" x="127.246094"/>
       <use xlink:href="#DejaVuSans-30" x="190.869141"/>
      </g>
     </g>
    </g>
   </g>
   <g id="line2d_37">
    <path d="M 138.436364 307.692743 
L 143.332293 307.317344 
L 144.148282 306.995574 
L 146.596247 306.727431 
L 152.308165 305.708491 
L 156.388106 305.333092 
L 157.204095 304.957693 
L 158.020083 304.743179 
L 158.836071 303.777868 
L 159.652059 303.241583 
L 160.468048 301.525474 
L 161.284036 301.418217 
L 162.100024 300.828304 
L 163.732001 300.077506 
L 165.363978 298.89768 
L 166.179966 298.146882 
L 167.811942 297.396084 
L 168.627931 297.074314 
L 169.443919 296.484401 
L 172.707872 295.14369 
L 173.523861 293.910236 
L 174.339849 293.266695 
L 175.971825 292.40864 
L 184.131709 291.282443 
L 184.947697 290.907044 
L 190.659615 290.478017 
L 192.291592 290.048989 
L 193.923568 289.727219 
L 200.451475 288.869164 
L 201.267463 288.440136 
L 202.083451 288.332879 
L 202.899439 288.011109 
L 204.531416 287.742967 
L 205.347404 287.689338 
L 206.163393 287.421196 
L 209.427346 286.93854 
L 211.059322 286.509513 
L 213.507287 286.294999 
L 215.139264 286.134114 
L 215.955252 285.9196 
L 216.771241 285.865971 
L 219.219205 285.168802 
L 224.115135 284.471632 
L 224.931124 284.20349 
L 225.747112 283.130921 
L 228.195077 282.272867 
L 230.643042 281.629325 
L 231.45903 281.253926 
L 232.275018 281.200298 
L 236.35496 280.127729 
L 237.986936 280.020472 
L 238.802925 279.913216 
L 241.25089 279.216046 
L 244.514843 278.465248 
L 245.330831 278.143477 
L 246.146819 278.03622 
L 246.962808 277.660821 
L 255.122691 276.480996 
L 259.202632 275.354799 
L 260.018621 274.872143 
L 263.282574 274.014088 
L 264.91455 273.102405 
L 265.730539 272.56612 
L 266.546527 272.458864 
L 267.362515 272.190721 
L 269.81048 271.761694 
L 270.626468 271.386295 
L 272.258445 271.118153 
L 273.890422 270.367355 
L 277.970363 269.402043 
L 280.418328 268.81213 
L 281.234316 268.49036 
L 282.050305 268.329474 
L 282.866293 268.007704 
L 283.682281 267.900447 
L 284.49827 267.525048 
L 285.314258 267.310534 
L 286.946234 267.203277 
L 288.578211 266.666993 
L 290.210188 266.559736 
L 291.026176 266.184337 
L 294.290129 265.648053 
L 297.554082 265.379911 
L 298.370071 265.219025 
L 300.002047 264.468227 
L 308.977919 260.875122 
L 309.793907 260.446095 
L 310.609895 259.58804 
L 311.425883 258.300958 
L 312.241872 257.282017 
L 313.05786 257.067504 
L 313.873848 257.067504 
L 315.505825 255.887678 
L 316.321813 255.673165 
L 317.137802 255.244137 
L 317.95379 255.083252 
L 318.769778 254.386082 
L 319.585767 254.171568 
L 322.033731 253.045371 
L 322.84972 252.08006 
L 323.665708 250.900234 
L 324.481696 250.417578 
L 325.297685 249.130496 
L 326.113673 248.326069 
L 326.929661 247.95067 
L 327.74565 247.736157 
L 329.377626 246.770845 
L 330.193614 246.395446 
L 333.457568 244.035795 
L 334.273556 242.909598 
L 335.089544 241.086231 
L 335.905533 239.906406 
L 336.721521 239.316493 
L 337.537509 238.994722 
L 340.801462 236.313301 
L 342.433439 235.133475 
L 343.249427 234.436306 
L 344.065416 233.310109 
L 344.881404 232.55931 
L 347.329369 230.896829 
L 348.961345 229.82426 
L 349.777334 229.127091 
L 350.593322 228.912577 
L 353.041287 227.679123 
L 354.673263 226.76744 
L 355.489252 226.445669 
L 357.121228 224.997702 
L 357.937217 224.03239 
L 359.569193 222.959821 
L 360.385182 222.745308 
L 361.20117 222.31628 
L 362.017158 221.726367 
L 363.649135 220.868312 
L 364.465123 220.761056 
L 366.0971 219.903001 
L 366.913088 219.473973 
L 367.729076 218.669547 
L 368.545065 218.186891 
L 369.361053 217.918749 
L 370.177041 217.382464 
L 373.440994 215.773611 
L 374.256983 215.076442 
L 377.520936 214.003873 
L 378.336924 213.467589 
L 379.152913 213.306704 
L 380.784889 212.770419 
L 383.232854 211.858736 
L 385.680819 211.000681 
L 387.312796 210.732539 
L 388.944772 209.391828 
L 390.576749 208.64103 
L 393.024714 207.300319 
L 394.65669 206.871292 
L 395.472679 206.388636 
L 396.288667 206.174122 
L 398.736632 204.672526 
L 401.184597 204.136242 
L 403.632562 203.278187 
L 405.264538 202.366504 
L 406.080526 202.259247 
L 406.896515 201.991104 
L 408.528491 201.669334 
L 410.976456 199.953224 
L 413.424421 199.41694 
L 414.240409 199.148798 
L 415.056398 198.558885 
L 419.952328 197.057289 
L 420.768316 197.00366 
L 426.480234 195.073037 
L 427.296222 194.697638 
L 429.744187 194.161353 
L 431.376164 193.785954 
L 432.192152 193.410555 
L 433.00814 193.24967 
L 435.456105 192.177102 
L 437.90407 190.997276 
L 438.720058 190.460992 
L 439.536047 190.246478 
L 441.984012 189.013024 
L 443.615988 188.637625 
L 445.247965 187.833199 
L 446.879942 187.404171 
L 447.69593 187.296914 
L 448.511918 186.76063 
L 449.327906 186.385231 
L 450.143895 186.224346 
L 451.775871 185.580804 
L 452.59186 185.419919 
L 453.407848 184.990892 
L 456.671801 184.508236 
L 458.303778 183.757438 
L 459.119766 183.113897 
L 459.935754 181.719557 
L 461.567731 181.397787 
L 462.383719 181.236901 
L 465.647672 179.628049 
L 466.463661 179.467163 
L 471.359591 177.214769 
L 472.175579 176.678485 
L 472.991567 176.356714 
L 475.439532 175.874058 
L 477.071509 175.12326 
L 477.887497 174.80149 
L 478.703485 174.694233 
L 481.967438 173.299894 
L 483.599415 172.227325 
L 484.415403 171.851926 
L 485.231392 171.744669 
L 486.04738 171.476527 
L 486.863368 171.422898 
L 490.127321 170.403958 
L 490.94331 170.35033 
L 491.759298 169.760417 
L 493.391275 169.224133 
L 495.83924 168.473335 
L 496.655228 167.990679 
L 497.471216 167.776165 
L 498.287204 167.239881 
L 499.103193 166.91811 
L 499.919181 166.435454 
L 501.551158 165.845542 
L 502.367146 165.631028 
L 503.183134 165.255629 
L 503.999123 165.041115 
L 504.815111 164.665716 
L 505.631099 164.075803 
L 506.447087 163.217748 
L 507.263076 162.681464 
L 508.079064 162.520579 
L 509.711041 161.340753 
L 510.527029 161.179868 
L 511.343017 160.000043 
L 512.159006 159.678272 
L 512.974994 159.088359 
L 513.790982 158.981102 
L 514.606971 158.444818 
L 515.422959 158.069419 
L 516.238947 157.908534 
L 517.054935 157.586763 
L 517.870924 156.943222 
L 518.686912 156.67508 
L 521.134877 155.119855 
L 524.39883 153.564631 
L 525.214818 153.457374 
L 526.846795 152.760204 
L 527.662783 152.277548 
L 528.478772 150.990466 
L 529.29476 150.18604 
L 530.110748 149.757012 
L 530.926737 149.596127 
L 532.558713 148.630815 
L 533.374701 148.46993 
L 535.006678 147.719132 
L 537.454643 146.700192 
L 539.08662 145.627623 
L 540.718596 143.965142 
L 542.350573 142.99983 
L 543.166561 142.517174 
L 543.982549 141.712747 
L 546.430514 139.782124 
L 547.246503 139.353096 
L 548.062491 138.495041 
L 548.878479 137.905129 
L 550.510456 137.368844 
L 551.326444 136.618046 
L 552.958421 135.81362 
L 553.774409 135.599106 
L 554.590397 135.009193 
L 555.406386 134.79468 
L 557.85435 133.561226 
L 558.670339 132.971313 
L 560.302315 132.327772 
L 561.118304 132.166887 
L 561.934292 131.684231 
L 567.64621 129.699979 
L 568.462198 129.002809 
L 571.726152 127.822984 
L 572.54214 127.60847 
L 573.358128 127.018557 
L 575.806093 125.945989 
L 576.622081 125.356076 
L 577.43807 124.927048 
L 579.070046 121.816599 
L 580.702023 119.993233 
L 581.518011 119.456948 
L 583.965976 118.438008 
L 584.781964 118.169866 
L 585.597953 118.062609 
L 586.413941 117.633582 
L 588.861906 116.882784 
L 591.309871 115.917472 
L 592.941847 114.844903 
L 595.389812 113.772335 
L 599.469754 111.51994 
L 600.285742 110.715514 
L 601.917719 109.857459 
L 602.733707 109.428432 
L 603.549695 109.160289 
L 604.365684 108.570377 
L 605.99766 107.819579 
L 606.813649 107.336923 
L 607.629637 107.015152 
L 608.445625 106.532496 
L 609.261613 106.317983 
L 610.077602 105.72807 
L 610.89359 105.406299 
L 611.709578 105.245414 
L 613.341555 104.601873 
L 615.78952 103.743818 
L 616.605508 103.153905 
L 618.237485 102.724878 
L 619.869461 102.134965 
L 620.68545 101.491424 
L 622.317426 101.008768 
L 623.133415 100.633369 
L 623.949403 100.418855 
L 625.581379 99.346286 
L 627.213356 98.649117 
L 628.845333 97.469291 
L 630.477309 96.933007 
L 631.293298 96.235837 
L 632.109286 96.074952 
L 632.925274 95.377783 
L 634.557251 94.466099 
L 636.189227 93.822558 
L 637.005216 93.018132 
L 639.453181 92.267333 
L 640.269169 91.784678 
L 641.085157 91.677421 
L 643.533122 90.497595 
L 646.797075 89.532283 
L 648.429052 89.31777 
L 649.24504 88.995999 
L 650.061029 88.835114 
L 651.693005 88.191573 
L 652.508993 88.137944 
L 654.956958 87.333518 
L 656.588935 86.368206 
L 658.220912 85.295637 
L 663.116841 82.989615 
L 665.564806 81.43439 
L 667.196783 81.058991 
L 669.644748 79.71828 
L 672.092713 78.967482 
L 672.908701 78.645712 
L 674.540678 78.270313 
L 678.620619 76.98323 
L 680.252596 76.66146 
L 681.884572 76.286061 
L 682.700561 75.910662 
L 683.516549 75.803405 
L 685.148525 75.159864 
L 685.964514 75.052607 
L 686.780502 74.677208 
L 688.412479 74.355437 
L 689.228467 73.980038 
L 691.676432 73.443754 
L 693.308408 73.121983 
L 700.652303 71.674016 
L 701.468291 71.352245 
L 702.28428 71.298617 
L 704.732245 70.601447 
L 705.548233 70.17242 
L 707.18021 69.636135 
L 707.996198 69.582507 
L 712.076139 68.402681 
L 717.788058 66.525686 
L 718.604046 66.525686 
L 720.236022 65.989402 
L 721.052011 65.184976 
L 721.867999 64.809577 
L 723.499976 64.326921 
L 726.763929 63.147095 
L 727.579917 62.878953 
L 728.395905 62.396297 
L 729.211894 62.235412 
L 730.027882 61.699127 
L 733.291835 60.733816 
L 734.107824 60.465674 
L 734.923812 59.983018 
L 735.7398 59.768504 
L 736.555788 59.124963 
L 739.003753 58.695935 
L 740.63573 57.83788 
L 741.451718 56.926197 
L 743.083695 56.604426 
L 744.715671 56.229027 
L 746.347648 55.8 
L 747.163636 55.8 
L 747.163636 55.8 
" clip-path="url(#p68f70d9b34)" style="fill: none; stroke: #1f77b4; stroke-width: 1.5; stroke-linecap: square"/>
   </g>
   <g id="line2d_38">
    <path d="M 139.252352 307.8 
L 141.700317 307.692743 
L 143.332293 307.585486 
L 149.044212 307.478229 
L 153.124153 307.317344 
L 156.388106 307.317344 
L 157.204095 307.10283 
L 159.652059 307.049202 
L 164.547989 306.512918 
L 176.787814 305.815748 
L 183.31572 305.708491 
L 187.395662 305.547606 
L 197.187521 305.440349 
L 201.267463 305.279464 
L 206.163393 305.172207 
L 209.427346 305.06495 
L 216.771241 304.957693 
L 219.219205 304.904065 
L 221.66717 304.850436 
L 224.115135 304.582294 
L 229.011065 304.528666 
L 230.643042 304.421409 
L 236.35496 304.314152 
L 245.330831 303.831496 
L 251.042749 303.724239 
L 252.674726 303.616982 
L 255.122691 303.509725 
L 260.018621 303.295212 
L 263.282574 303.241583 
L 265.730539 303.02707 
L 279.60234 302.222643 
L 282.050305 302.115386 
L 287.762223 301.847244 
L 290.210188 301.739987 
L 298.370071 301.31096 
L 307.345942 301.203703 
L 310.609895 300.881932 
L 312.241872 300.774675 
L 321.217743 300.131134 
L 322.033731 299.916621 
L 324.481696 299.702107 
L 326.113673 299.326708 
L 328.561638 299.273079 
L 331.009603 299.165823 
L 337.537509 298.361396 
L 341.617451 298.254139 
L 352.225299 297.449713 
L 357.121228 296.913428 
L 359.569193 296.8598 
L 361.20117 296.752543 
L 364.465123 296.645286 
L 366.0971 296.538029 
L 370.177041 296.16263 
L 370.993029 295.948117 
L 375.888959 295.733603 
L 379.968901 295.626346 
L 391.392737 294.982805 
L 393.024714 294.875548 
L 403.632562 294.285635 
L 409.34448 294.178378 
L 410.160468 294.017493 
L 416.688374 293.910236 
L 422.400292 293.642094 
L 431.376164 293.534837 
L 437.088082 293.266695 
L 443.615988 293.159438 
L 450.959883 292.784039 
L 455.855813 292.676782 
L 471.359591 291.765099 
L 477.887497 291.657842 
L 481.967438 291.282443 
L 483.599415 291.121558 
L 487.679357 291.067929 
L 490.94331 290.746159 
L 499.103193 290.317131 
L 503.999123 290.209874 
L 506.447087 290.156246 
L 508.895052 290.102618 
L 511.343017 289.834475 
L 517.870924 289.727219 
L 519.5029 289.459076 
L 521.134877 289.35182 
L 524.39883 289.244563 
L 526.030807 289.244563 
L 527.662783 288.976421 
L 535.822666 288.869164 
L 537.454643 288.708278 
L 540.718596 288.601021 
L 541.534584 288.386508 
L 543.166561 288.332879 
L 543.982549 288.171994 
L 546.430514 288.064737 
L 560.302315 287.260311 
L 562.75028 287.153054 
L 566.830222 286.992169 
L 578.254058 286.884912 
L 583.965976 286.61677 
L 590.493883 286.509513 
L 593.757836 286.402256 
L 597.021789 286.348627 
L 599.469754 286.134114 
L 606.813649 285.758715 
L 608.445625 285.651458 
L 611.709578 285.544201 
L 615.78952 285.436944 
L 619.869461 285.276059 
L 625.581379 285.168802 
L 628.845333 285.061545 
L 637.821204 284.954288 
L 642.717134 284.739774 
L 647.613064 284.632518 
L 650.061029 284.364375 
L 654.956958 284.310747 
L 655.772947 284.149862 
L 657.404923 284.042605 
L 660.668876 283.935348 
L 670.460736 283.828091 
L 674.540678 283.667206 
L 688.412479 283.613577 
L 690.044455 283.50632 
L 692.49242 283.452692 
L 703.100268 283.345435 
L 704.732245 283.238178 
L 713.708116 283.130921 
L 716.972069 283.023665 
L 726.763929 282.970036 
L 728.395905 282.862779 
L 740.63573 282.809151 
L 743.083695 282.594637 
L 747.163636 282.594637 
L 747.163636 282.594637 
" clip-path="url(#p68f70d9b34)" style="fill: none; stroke: #ff7f0e; stroke-width: 1.5; stroke-linecap: square"/>
   </g>
   <g id="patch_3">
    <path d="M 108 320.4 
L 108 43.2 
" style="fill: none; stroke: #a9a9a9; stroke-width: 0.8; stroke-linejoin: miter; stroke-linecap: square"/>
   </g>
   <g id="patch_4">
    <path d="M 777.6 320.4 
L 777.6 43.2 
" style="fill: none"/>
   </g>
   <g id="patch_5">
    <path d="M 108 320.4 
L 777.6 320.4 
" style="fill: none; stroke: #a9a9a9; stroke-width: 0.8; stroke-linejoin: miter; stroke-linecap: square"/>
   </g>
   <g id="patch_6">
    <path d="M 108 43.2 
L 777.6 43.2 
" style="fill: none"/>
   </g>
   <g id="text_19">
    <!-- get_subscribe history -->
    <g style="fill: #a9a9a9" transform="translate(378.6075 37.2) scale(0.12 -0.12)">
     <defs>
      <path id="DejaVuSans-67" d="M 2906 1791 
Q 2906 2416 2648 2759 
Q 2391 3103 1925 3103 
Q 1463 3103 1205 2759 
Q 947 2416 947 1791 
Q 947 1169 1205 825 
Q 1463 481 1925 481 
Q 2391 481 2648 825 
Q 2906 1169 2906 1791 
z
M 3481 434 
Q 3481 -459 3084 -895 
Q 2688 -1331 1869 -1331 
Q 1566 -1331 1297 -1286 
Q 1028 -1241 775 -1147 
L 775 -588 
Q 1028 -725 1275 -790 
Q 1522 -856 1778 -856 
Q 2344 -856 2625 -561 
Q 2906 -266 2906 331 
L 2906 616 
Q 2728 306 2450 153 
Q 2172 0 1784 0 
Q 1141 0 747 490 
Q 353 981 353 1791 
Q 353 2603 747 3093 
Q 1141 3584 1784 3584 
Q 2172 3584 2450 3431 
Q 2728 3278 2906 2969 
L 2906 3500 
L 3481 3500 
L 3481 434 
z
" transform="scale(0.015625)"/>
      <path id="DejaVuSans-65" d="M 3597 1894 
L 3597 1613 
L 953 1613 
Q 991 1019 1311 708 
Q 1631 397 2203 397 
Q 2534 397 2845 478 
Q 3156 559 3463 722 
L 3463 178 
Q 3153 47 2828 -22 
Q 2503 -91 2169 -91 
Q 1331 -91 842 396 
Q 353 884 353 1716 
Q 353 2575 817 3079 
Q 1281 3584 2069 3584 
Q 2775 3584 3186 3129 
Q 3597 2675 3597 1894 
z
M 3022 2063 
Q 3016 2534 2758 2815 
Q 2500 3097 2075 3097 
Q 1594 3097 1305 2825 
Q 1016 2553 972 2059 
L 3022 2063 
z
" transform="scale(0.015625)"/>
      <path id="DejaVuSans-74" d="M 1172 4494 
L 1172 3500 
L 2356 3500 
L 2356 3053 
L 1172 3053 
L 1172 1153 
Q 1172 725 1289 603 
Q 1406 481 1766 481 
L 2356 481 
L 2356 0 
L 1766 0 
Q 1100 0 847 248 
Q 594 497 594 1153 
L 594 3053 
L 172 3053 
L 172 3500 
L 594 3500 
L 594 4494 
L 1172 4494 
z
" transform="scale(0.015625)"/>
      <path id="DejaVuSans-5f" d="M 3263 -1063 
L 3263 -1509 
L -63 -1509 
L -63 -1063 
L 3263 -1063 
z
" transform="scale(0.015625)"/>
      <path id="DejaVuSans-73" d="M 2834 3397 
L 2834 2853 
Q 2591 2978 2328 3040 
Q 2066 3103 1784 3103 
Q 1356 3103 1142 2972 
Q 928 2841 928 2578 
Q 928 2378 1081 2264 
Q 1234 2150 1697 2047 
L 1894 2003 
Q 2506 1872 2764 1633 
Q 3022 1394 3022 966 
Q 3022 478 2636 193 
Q 2250 -91 1575 -91 
Q 1294 -91 989 -36 
Q 684 19 347 128 
L 347 722 
Q 666 556 975 473 
Q 1284 391 1588 391 
Q 1994 391 2212 530 
Q 2431 669 2431 922 
Q 2431 1156 2273 1281 
Q 2116 1406 1581 1522 
L 1381 1569 
Q 847 1681 609 1914 
Q 372 2147 372 2553 
Q 372 3047 722 3315 
Q 1072 3584 1716 3584 
Q 2034 3584 2315 3537 
Q 2597 3491 2834 3397 
z
" transform="scale(0.015625)"/>
      <path id="DejaVuSans-75" d="M 544 1381 
L 544 3500 
L 1119 3500 
L 1119 1403 
Q 1119 906 1312 657 
Q 1506 409 1894 409 
Q 2359 409 2629 706 
Q 2900 1003 2900 1516 
L 2900 3500 
L 3475 3500 
L 3475 0 
L 2900 0 
L 2900 538 
Q 2691 219 2414 64 
Q 2138 -91 1772 -91 
Q 1169 -91 856 284 
Q 544 659 544 1381 
z
M 1991 3584 
L 1991 3584 
z
" transform="scale(0.015625)"/>
      <path id="DejaVuSans-62" d="M 3116 1747 
Q 3116 2381 2855 2742 
Q 2594 3103 2138 3103 
Q 1681 3103 1420 2742 
Q 1159 2381 1159 1747 
Q 1159 1113 1420 752 
Q 1681 391 2138 391 
Q 2594 391 2855 752 
Q 3116 1113 3116 1747 
z
M 1159 2969 
Q 1341 3281 1617 3432 
Q 1894 3584 2278 3584 
Q 2916 3584 3314 3078 
Q 3713 2572 3713 1747 
Q 3713 922 3314 415 
Q 2916 -91 2278 -91 
Q 1894 -91 1617 61 
Q 1341 213 1159 525 
L 1159 0 
L 581 0 
L 581 4863 
L 1159 4863 
L 1159 2969 
z
" transform="scale(0.015625)"/>
      <path id="DejaVuSans-63" d="M 3122 3366 
L 3122 2828 
Q 2878 2963 2633 3030 
Q 2388 3097 2138 3097 
Q 1578 3097 1268 2742 
Q 959 2388 959 1747 
Q 959 1106 1268 751 
Q 1578 397 2138 397 
Q 2388 397 2633 464 
Q 2878 531 3122 666 
L 3122 134 
Q 2881 22 2623 -34 
Q 2366 -91 2075 -91 
Q 1284 -91 818 406 
Q 353 903 353 1747 
Q 353 2603 823 3093 
Q 1294 3584 2113 3584 
Q 2378 3584 2631 3529 
Q 2884 3475 3122 3366 
z
" transform="scale(0.015625)"/>
      <path id="DejaVuSans-72" d="M 2631 2963 
Q 2534 3019 2420 3045 
Q 2306 3072 2169 3072 
Q 1681 3072 1420 2755 
Q 1159 2438 1159 1844 
L 1159 0 
L 581 0 
L 581 3500 
L 1159 3500 
L 1159 2956 
Q 1341 3275 1631 3429 
Q 1922 3584 2338 3584 
Q 2397 3584 2469 3576 
Q 2541 3569 2628 3553 
L 2631 2963 
z
" transform="scale(0.015625)"/>
      <path id="DejaVuSans-69" d="M 603 3500 
L 1178 3500 
L 1178 0 
L 603 0 
L 603 3500 
z
M 603 4863 
L 1178 4863 
L 1178 4134 
L 603 4134 
L 603 4863 
z
" transform="scale(0.015625)"/>
      <path id="DejaVuSans-20" transform="scale(0.015625)"/>
      <path id="DejaVuSans-68" d="M 3513 2113 
L 3513 0 
L 2938 0 
L 2938 2094 
Q 2938 2591 2744 2837 
Q 2550 3084 2163 3084 
Q 1697 3084 1428 2787 
Q 1159 2491 1159 1978 
L 1159 0 
L 581 0 
L 581 4863 
L 1159 4863 
L 1159 2956 
Q 1366 3272 1645 3428 
Q 1925 3584 2291 3584 
Q 2894 3584 3203 3211 
Q 3513 2838 3513 2113 
z
" transform="scale(0.015625)"/>
      <path id="DejaVuSans-6f" d="M 1959 3097 
Q 1497 3097 1228 2736 
Q 959 2375 959 1747 
Q 959 1119 1226 758 
Q 1494 397 1959 397 
Q 2419 397 2687 759 
Q 2956 1122 2956 1747 
Q 2956 2369 2687 2733 
Q 2419 3097 1959 3097 
z
M 1959 3584 
Q 2709 3584 3137 3096 
Q 3566 2609 3566 1747 
Q 3566 888 3137 398 
Q 2709 -91 1959 -91 
Q 1206 -91 779 398 
Q 353 888 353 1747 
Q 353 2609 779 3096 
Q 1206 3584 1959 3584 
z
" transform="scale(0.015625)"/>
      <path id="DejaVuSans-79" d="M 2059 -325 
Q 1816 -950 1584 -1140 
Q 1353 -1331 966 -1331 
L 506 -1331 
L 506 -850 
L 844 -850 
Q 1081 -850 1212 -737 
Q 1344 -625 1503 -206 
L 1606 56 
L 191 3500 
L 800 3500 
L 1894 763 
L 2988 3500 
L 3597 3500 
L 2059 -325 
z
" transform="scale(0.015625)"/>
     </defs>
     <use xlink:href="#DejaVuSans-67"/>
     <use xlink:href="#DejaVuSans-65" x="63.476562"/>
     <use xlink:href="#DejaVuSans-74" x="125"/>
     <use xlink:href="#DejaVuSans-5f" x="164.208984"/>
     <use xlink:href="#DejaVuSans-73" x="214.208984"/>
     <use xlink:href="#DejaVuSans-75" x="266.308594"/>
     <use xlink:href="#DejaVuSans-62" x="329.6875"/>
     <use xlink:href="#DejaVuSans-73" x="393.164062"/>
     <use xlink:href="#DejaVuSans-63" x="445.263672"/>
     <use xlink:href="#DejaVuSans-72" x="500.244141"/>
     <use xlink:href="#DejaVuSans-69" x="541.357422"/>
     <use xlink:href="#DejaVuSans-62" x="569.140625"/>
     <use xlink:href="#DejaVuSans-65" x="632.617188"/>
     <use xlink:href="#DejaVuSans-20" x="694.140625"/>
     <use xlink:href="#DejaVuSans-68" x="725.927734"/>
     <use xlink:href="#DejaVuSans-69" x="789.306641"/>
     <use xlink:href="#DejaVuSans-73" x="817.089844"/>
     <use xlink:href="#DejaVuSans-74" x="869.189453"/>
     <use xlink:href="#DejaVuSans-6f" x="908.398438"/>
     <use xlink:href="#DejaVuSans-72" x="969.580078"/>
     <use xlink:href="#DejaVuSans-79" x="1010.693359"/>
    </g>
   </g>
   <g id="legend_1">
    <g id="line2d_39">
     <path d="M 815.08 328.498438 
L 825.08 328.498438 
L 835.08 328.498438 
" style="fill: none; stroke: #1f77b4; stroke-width: 1.5; stroke-linecap: square"/>
    </g>
    <g id="text_20">
     <!-- star -->
     <g style="fill: #a9a9a9" transform="translate(843.08 331.998438) scale(0.1 -0.1)">
      <defs>
       <path id="DejaVuSans-61" d="M 2194 1759 
Q 1497 1759 1228 1600 
Q 959 1441 959 1056 
Q 959 750 1161 570 
Q 1363 391 1709 391 
Q 2188 391 2477 730 
Q 2766 1069 2766 1631 
L 2766 1759 
L 2194 1759 
z
M 3341 1997 
L 3341 0 
L 2766 0 
L 2766 531 
Q 2569 213 2275 61 
Q 1981 -91 1556 -91 
Q 1019 -91 701 211 
Q 384 513 384 1019 
Q 384 1609 779 1909 
Q 1175 2209 1959 2209 
L 2766 2209 
L 2766 2266 
Q 2766 2663 2505 2880 
Q 2244 3097 1772 3097 
Q 1472 3097 1187 3025 
Q 903 2953 641 2809 
L 641 3341 
Q 956 3463 1253 3523 
Q 1550 3584 1831 3584 
Q 2591 3584 2966 3190 
Q 3341 2797 3341 1997 
z
" transform="scale(0.015625)"/>
      </defs>
      <use xlink:href="#DejaVuSans-73"/>
      <use xlink:href="#DejaVuSans-74" x="52.099609"/>
      <use xlink:href="#DejaVuSans-61" x="91.308594"/>
      <use xlink:href="#DejaVuSans-72" x="152.587891"/>
     </g>
    </g>
    <g id="line2d_40">
     <path d="M 815.08 343.176562 
L 825.08 343.176562 
L 835.08 343.176562 
" style="fill: none; stroke: #ff7f0e; stroke-width: 1.5; stroke-linecap: square"/>
    </g>
    <g id="text_21">
     <!-- fork -->
     <g style="fill: #a9a9a9" transform="translate(843.08 346.676562) scale(0.1 -0.1)">
      <defs>
       <path id="DejaVuSans-66" d="M 2375 4863 
L 2375 4384 
L 1825 4384 
Q 1516 4384 1395 4259 
Q 1275 4134 1275 3809 
L 1275 3500 
L 2222 3500 
L 2222 3053 
L 1275 3053 
L 1275 0 
L 697 0 
L 697 3053 
L 147 3053 
L 147 3500 
L 697 3500 
L 697 3744 
Q 697 4328 969 4595 
Q 1241 4863 1831 4863 
L 2375 4863 
z
" transform="scale(0.015625)"/>
       <path id="DejaVuSans-6b" d="M 581 4863 
L 1159 4863 
L 1159 1991 
L 2875 3500 
L 3609 3500 
L 1753 1863 
L 3688 0 
L 2938 0 
L 1159 1709 
L 1159 0 
L 581 0 
L 581 4863 
z
" transform="scale(0.015625)"/>
      </defs>
      <use xlink:href="#DejaVuSans-66"/>
      <use xlink:href="#DejaVuSans-6f" x="35.205078"/>
      <use xlink:href="#DejaVuSans-72" x="96.386719"/>
      <use xlink:href="#DejaVuSans-6b" x="137.5"/>
     </g>
    </g>
   </g>
  </g>
 </g>
 <defs>
  <clipPath id="p68f70d9b34">
   <rect x="108" y="43.2" width="669.6" height="277.2"/>
  </clipPath>
 </defs>
</svg>
