<?xml version="1.0" encoding="utf-8" standalone="no"?>
<!DOCTYPE svg PUBLIC "-//W3C//DTD SVG 1.1//EN"
  "http://www.w3.org/Graphics/SVG/1.1/DTD/svg11.dtd">
<svg xmlns:xlink="http://www.w3.org/1999/xlink" width="864pt" height="360pt" viewBox="0 0 864 360" xmlns="http://www.w3.org/2000/svg" version="1.1">
 <metadata>
  <rdf:RDF xmlns:dc="http://purl.org/dc/elements/1.1/" xmlns:cc="http://creativecommons.org/ns#" xmlns:rdf="http://www.w3.org/1999/02/22-rdf-syntax-ns#">
   <cc:Work>
    <dc:type rdf:resource="http://purl.org/dc/dcmitype/StillImage"/>
    <dc:date>2023-08-12T20:17:19.509112</dc:date>
    <dc:format>image/svg+xml</dc:format>
    <dc:creator>
     <cc:Agent>
      <dc:title>Matplotlib v3.7.2, https://matplotlib.org/</dc:title>
     </cc:Agent>
    </dc:creator>
   </cc:Work>
  </rdf:RDF>
 </metadata>
 <defs>
  <style type="text/css">*{stroke-linejoin: round; stroke-linecap: butt}</style>
 </defs>
 <g id="figure_1">
  <g id="patch_1">
   <path d="M 0 360 
L 864 360 
L 864 0 
L 0 0 
L 0 360 
z
" style="fill: none; opacity: 0"/>
  </g>
  <g id="axes_1">
   <g id="patch_2">
    <path d="M 108 320.4 
L 777.6 320.4 
L 777.6 43.2 
L 108 43.2 
L 108 320.4 
z
" style="fill: none; opacity: 0"/>
   </g>
   <g id="matplotlib.axis_1">
    <g id="xtick_1">
     <g id="line2d_1">
      <path d="M 119.743804 320.4 
L 119.743804 43.2 
" clip-path="url(#pd5cdac71be)" style="fill: none; stroke-dasharray: 5.12,1.28,0.8,1.28; stroke-dashoffset: 0; stroke: #b0b0b0; stroke-width: 0.8"/>
     </g>
     <g id="line2d_2">
      <defs>
       <path id="m9d988267a9" d="M 0 0 
L 0 3.5 
" style="stroke: #a9a9a9; stroke-width: 0.8"/>
      </defs>
      <g>
       <use xlink:href="#m9d988267a9" x="119.743804" y="320.4" style="fill: #a9a9a9; stroke: #a9a9a9; stroke-width: 0.8"/>
      </g>
     </g>
     <g id="text_1">
      <!-- 2021-07 -->
      <g style="fill: #a9a9a9" transform="translate(98.852398 334.998438) scale(0.1 -0.1)">
       <defs>
        <path id="DejaVuSans-32" d="M 1228 531 
L 3431 531 
L 3431 0 
L 469 0 
L 469 531 
Q 828 903 1448 1529 
Q 2069 2156 2228 2338 
Q 2531 2678 2651 2914 
Q 2772 3150 2772 3378 
Q 2772 3750 2511 3984 
Q 2250 4219 1831 4219 
Q 1534 4219 1204 4116 
Q 875 4013 500 3803 
L 500 4441 
Q 881 4594 1212 4672 
Q 1544 4750 1819 4750 
Q 2544 4750 2975 4387 
Q 3406 4025 3406 3419 
Q 3406 3131 3298 2873 
Q 3191 2616 2906 2266 
Q 2828 2175 2409 1742 
Q 1991 1309 1228 531 
z
" transform="scale(0.015625)"/>
        <path id="DejaVuSans-30" d="M 2034 4250 
Q 1547 4250 1301 3770 
Q 1056 3291 1056 2328 
Q 1056 1369 1301 889 
Q 1547 409 2034 409 
Q 2525 409 2770 889 
Q 3016 1369 3016 2328 
Q 3016 3291 2770 3770 
Q 2525 4250 2034 4250 
z
M 2034 4750 
Q 2819 4750 3233 4129 
Q 3647 3509 3647 2328 
Q 3647 1150 3233 529 
Q 2819 -91 2034 -91 
Q 1250 -91 836 529 
Q 422 1150 422 2328 
Q 422 3509 836 4129 
Q 1250 4750 2034 4750 
z
" transform="scale(0.015625)"/>
        <path id="DejaVuSans-31" d="M 794 531 
L 1825 531 
L 1825 4091 
L 703 3866 
L 703 4441 
L 1819 4666 
L 2450 4666 
L 2450 531 
L 3481 531 
L 3481 0 
L 794 0 
L 794 531 
z
" transform="scale(0.015625)"/>
        <path id="DejaVuSans-2d" d="M 313 2009 
L 1997 2009 
L 1997 1497 
L 313 1497 
L 313 2009 
z
" transform="scale(0.015625)"/>
        <path id="DejaVuSans-37" d="M 525 4666 
L 3525 4666 
L 3525 4397 
L 1831 0 
L 1172 0 
L 2766 4134 
L 525 4134 
L 525 4666 
z
" transform="scale(0.015625)"/>
       </defs>
       <use xlink:href="#DejaVuSans-32"/>
       <use xlink:href="#DejaVuSans-30" x="63.623047"/>
       <use xlink:href="#DejaVuSans-32" x="127.246094"/>
       <use xlink:href="#DejaVuSans-31" x="190.869141"/>
       <use xlink:href="#DejaVuSans-2d" x="254.492188"/>
       <use xlink:href="#DejaVuSans-30" x="290.576172"/>
       <use xlink:href="#DejaVuSans-37" x="354.199219"/>
      </g>
     </g>
    </g>
    <g id="xtick_2">
     <g id="line2d_3">
      <path d="M 194.514043 320.4 
L 194.514043 43.2 
" clip-path="url(#pd5cdac71be)" style="fill: none; stroke-dasharray: 5.12,1.28,0.8,1.28; stroke-dashoffset: 0; stroke: #b0b0b0; stroke-width: 0.8"/>
     </g>
     <g id="line2d_4">
      <g>
       <use xlink:href="#m9d988267a9" x="194.514043" y="320.4" style="fill: #a9a9a9; stroke: #a9a9a9; stroke-width: 0.8"/>
      </g>
     </g>
     <g id="text_2">
      <!-- 2021-10 -->
      <g style="fill: #a9a9a9" transform="translate(173.622637 334.998438) scale(0.1 -0.1)">
       <use xlink:href="#DejaVuSans-32"/>
       <use xlink:href="#DejaVuSans-30" x="63.623047"/>
       <use xlink:href="#DejaVuSans-32" x="127.246094"/>
       <use xlink:href="#DejaVuSans-31" x="190.869141"/>
       <use xlink:href="#DejaVuSans-2d" x="254.492188"/>
       <use xlink:href="#DejaVuSans-31" x="290.576172"/>
       <use xlink:href="#DejaVuSans-30" x="354.199219"/>
      </g>
     </g>
    </g>
    <g id="xtick_3">
     <g id="line2d_5">
      <path d="M 269.284282 320.4 
L 269.284282 43.2 
" clip-path="url(#pd5cdac71be)" style="fill: none; stroke-dasharray: 5.12,1.28,0.8,1.28; stroke-dashoffset: 0; stroke: #b0b0b0; stroke-width: 0.8"/>
     </g>
     <g id="line2d_6">
      <g>
       <use xlink:href="#m9d988267a9" x="269.284282" y="320.4" style="fill: #a9a9a9; stroke: #a9a9a9; stroke-width: 0.8"/>
      </g>
     </g>
     <g id="text_3">
      <!-- 2022-01 -->
      <g style="fill: #a9a9a9" transform="translate(248.392876 334.998438) scale(0.1 -0.1)">
       <use xlink:href="#DejaVuSans-32"/>
       <use xlink:href="#DejaVuSans-30" x="63.623047"/>
       <use xlink:href="#DejaVuSans-32" x="127.246094"/>
       <use xlink:href="#DejaVuSans-32" x="190.869141"/>
       <use xlink:href="#DejaVuSans-2d" x="254.492188"/>
       <use xlink:href="#DejaVuSans-30" x="290.576172"/>
       <use xlink:href="#DejaVuSans-31" x="354.199219"/>
      </g>
     </g>
    </g>
    <g id="xtick_4">
     <g id="line2d_7">
      <path d="M 342.429081 320.4 
L 342.429081 43.2 
" clip-path="url(#pd5cdac71be)" style="fill: none; stroke-dasharray: 5.12,1.28,0.8,1.28; stroke-dashoffset: 0; stroke: #b0b0b0; stroke-width: 0.8"/>
     </g>
     <g id="line2d_8">
      <g>
       <use xlink:href="#m9d988267a9" x="342.429081" y="320.4" style="fill: #a9a9a9; stroke: #a9a9a9; stroke-width: 0.8"/>
      </g>
     </g>
     <g id="text_4">
      <!-- 2022-04 -->
      <g style="fill: #a9a9a9" transform="translate(321.537675 334.998438) scale(0.1 -0.1)">
       <defs>
        <path id="DejaVuSans-34" d="M 2419 4116 
L 825 1625 
L 2419 1625 
L 2419 4116 
z
M 2253 4666 
L 3047 4666 
L 3047 1625 
L 3713 1625 
L 3713 1100 
L 3047 1100 
L 3047 0 
L 2419 0 
L 2419 1100 
L 313 1100 
L 313 1709 
L 2253 4666 
z
" transform="scale(0.015625)"/>
       </defs>
       <use xlink:href="#DejaVuSans-32"/>
       <use xlink:href="#DejaVuSans-30" x="63.623047"/>
       <use xlink:href="#DejaVuSans-32" x="127.246094"/>
       <use xlink:href="#DejaVuSans-32" x="190.869141"/>
       <use xlink:href="#DejaVuSans-2d" x="254.492188"/>
       <use xlink:href="#DejaVuSans-30" x="290.576172"/>
       <use xlink:href="#DejaVuSans-34" x="354.199219"/>
      </g>
     </g>
    </g>
    <g id="xtick_5">
     <g id="line2d_9">
      <path d="M 416.3866 320.4 
L 416.3866 43.2 
" clip-path="url(#pd5cdac71be)" style="fill: none; stroke-dasharray: 5.12,1.28,0.8,1.28; stroke-dashoffset: 0; stroke: #b0b0b0; stroke-width: 0.8"/>
     </g>
     <g id="line2d_10">
      <g>
       <use xlink:href="#m9d988267a9" x="416.3866" y="320.4" style="fill: #a9a9a9; stroke: #a9a9a9; stroke-width: 0.8"/>
      </g>
     </g>
     <g id="text_5">
      <!-- 2022-07 -->
      <g style="fill: #a9a9a9" transform="translate(395.495194 334.998438) scale(0.1 -0.1)">
       <use xlink:href="#DejaVuSans-32"/>
       <use xlink:href="#DejaVuSans-30" x="63.623047"/>
       <use xlink:href="#DejaVuSans-32" x="127.246094"/>
       <use xlink:href="#DejaVuSans-32" x="190.869141"/>
       <use xlink:href="#DejaVuSans-2d" x="254.492188"/>
       <use xlink:href="#DejaVuSans-30" x="290.576172"/>
       <use xlink:href="#DejaVuSans-37" x="354.199219"/>
      </g>
     </g>
    </g>
    <g id="xtick_6">
     <g id="line2d_11">
      <path d="M 491.156839 320.4 
L 491.156839 43.2 
" clip-path="url(#pd5cdac71be)" style="fill: none; stroke-dasharray: 5.12,1.28,0.8,1.28; stroke-dashoffset: 0; stroke: #b0b0b0; stroke-width: 0.8"/>
     </g>
     <g id="line2d_12">
      <g>
       <use xlink:href="#m9d988267a9" x="491.156839" y="320.4" style="fill: #a9a9a9; stroke: #a9a9a9; stroke-width: 0.8"/>
      </g>
     </g>
     <g id="text_6">
      <!-- 2022-10 -->
      <g style="fill: #a9a9a9" transform="translate(470.265433 334.998438) scale(0.1 -0.1)">
       <use xlink:href="#DejaVuSans-32"/>
       <use xlink:href="#DejaVuSans-30" x="63.623047"/>
       <use xlink:href="#DejaVuSans-32" x="127.246094"/>
       <use xlink:href="#DejaVuSans-32" x="190.869141"/>
       <use xlink:href="#DejaVuSans-2d" x="254.492188"/>
       <use xlink:href="#DejaVuSans-31" x="290.576172"/>
       <use xlink:href="#DejaVuSans-30" x="354.199219"/>
      </g>
     </g>
    </g>
    <g id="xtick_7">
     <g id="line2d_13">
      <path d="M 565.927079 320.4 
L 565.927079 43.2 
" clip-path="url(#pd5cdac71be)" style="fill: none; stroke-dasharray: 5.12,1.28,0.8,1.28; stroke-dashoffset: 0; stroke: #b0b0b0; stroke-width: 0.8"/>
     </g>
     <g id="line2d_14">
      <g>
       <use xlink:href="#m9d988267a9" x="565.927079" y="320.4" style="fill: #a9a9a9; stroke: #a9a9a9; stroke-width: 0.8"/>
      </g>
     </g>
     <g id="text_7">
      <!-- 2023-01 -->
      <g style="fill: #a9a9a9" transform="translate(545.035672 334.998438) scale(0.1 -0.1)">
       <defs>
        <path id="DejaVuSans-33" d="M 2597 2516 
Q 3050 2419 3304 2112 
Q 3559 1806 3559 1356 
Q 3559 666 3084 287 
Q 2609 -91 1734 -91 
Q 1441 -91 1130 -33 
Q 819 25 488 141 
L 488 750 
Q 750 597 1062 519 
Q 1375 441 1716 441 
Q 2309 441 2620 675 
Q 2931 909 2931 1356 
Q 2931 1769 2642 2001 
Q 2353 2234 1838 2234 
L 1294 2234 
L 1294 2753 
L 1863 2753 
Q 2328 2753 2575 2939 
Q 2822 3125 2822 3475 
Q 2822 3834 2567 4026 
Q 2313 4219 1838 4219 
Q 1578 4219 1281 4162 
Q 984 4106 628 3988 
L 628 4550 
Q 988 4650 1302 4700 
Q 1616 4750 1894 4750 
Q 2613 4750 3031 4423 
Q 3450 4097 3450 3541 
Q 3450 3153 3228 2886 
Q 3006 2619 2597 2516 
z
" transform="scale(0.015625)"/>
       </defs>
       <use xlink:href="#DejaVuSans-32"/>
       <use xlink:href="#DejaVuSans-30" x="63.623047"/>
       <use xlink:href="#DejaVuSans-32" x="127.246094"/>
       <use xlink:href="#DejaVuSans-33" x="190.869141"/>
       <use xlink:href="#DejaVuSans-2d" x="254.492188"/>
       <use xlink:href="#DejaVuSans-30" x="290.576172"/>
       <use xlink:href="#DejaVuSans-31" x="354.199219"/>
      </g>
     </g>
    </g>
    <g id="xtick_8">
     <g id="line2d_15">
      <path d="M 639.071878 320.4 
L 639.071878 43.2 
" clip-path="url(#pd5cdac71be)" style="fill: none; stroke-dasharray: 5.12,1.28,0.8,1.28; stroke-dashoffset: 0; stroke: #b0b0b0; stroke-width: 0.8"/>
     </g>
     <g id="line2d_16">
      <g>
       <use xlink:href="#m9d988267a9" x="639.071878" y="320.4" style="fill: #a9a9a9; stroke: #a9a9a9; stroke-width: 0.8"/>
      </g>
     </g>
     <g id="text_8">
      <!-- 2023-04 -->
      <g style="fill: #a9a9a9" transform="translate(618.180471 334.998438) scale(0.1 -0.1)">
       <use xlink:href="#DejaVuSans-32"/>
       <use xlink:href="#DejaVuSans-30" x="63.623047"/>
       <use xlink:href="#DejaVuSans-32" x="127.246094"/>
       <use xlink:href="#DejaVuSans-33" x="190.869141"/>
       <use xlink:href="#DejaVuSans-2d" x="254.492188"/>
       <use xlink:href="#DejaVuSans-30" x="290.576172"/>
       <use xlink:href="#DejaVuSans-34" x="354.199219"/>
      </g>
     </g>
    </g>
    <g id="xtick_9">
     <g id="line2d_17">
      <path d="M 713.029397 320.4 
L 713.029397 43.2 
" clip-path="url(#pd5cdac71be)" style="fill: none; stroke-dasharray: 5.12,1.28,0.8,1.28; stroke-dashoffset: 0; stroke: #b0b0b0; stroke-width: 0.8"/>
     </g>
     <g id="line2d_18">
      <g>
       <use xlink:href="#m9d988267a9" x="713.029397" y="320.4" style="fill: #a9a9a9; stroke: #a9a9a9; stroke-width: 0.8"/>
      </g>
     </g>
     <g id="text_9">
      <!-- 2023-07 -->
      <g style="fill: #a9a9a9" transform="translate(692.137991 334.998438) scale(0.1 -0.1)">
       <use xlink:href="#DejaVuSans-32"/>
       <use xlink:href="#DejaVuSans-30" x="63.623047"/>
       <use xlink:href="#DejaVuSans-32" x="127.246094"/>
       <use xlink:href="#DejaVuSans-33" x="190.869141"/>
       <use xlink:href="#DejaVuSans-2d" x="254.492188"/>
       <use xlink:href="#DejaVuSans-30" x="290.576172"/>
       <use xlink:href="#DejaVuSans-37" x="354.199219"/>
      </g>
     </g>
    </g>
   </g>
   <g id="matplotlib.axis_2">
    <g id="ytick_1">
     <g id="line2d_19">
      <path d="M 108 307.85348 
L 777.6 307.85348 
" clip-path="url(#pd5cdac71be)" style="fill: none; stroke-dasharray: 5.12,1.28,0.8,1.28; stroke-dashoffset: 0; stroke: #b0b0b0; stroke-width: 0.8"/>
     </g>
     <g id="line2d_20">
      <defs>
       <path id="m95a9c8943c" d="M 0 0 
L -3.5 0 
" style="stroke: #a9a9a9; stroke-width: 0.8"/>
      </defs>
      <g>
       <use xlink:href="#m95a9c8943c" x="108" y="307.85348" style="fill: #a9a9a9; stroke: #a9a9a9; stroke-width: 0.8"/>
      </g>
     </g>
     <g id="text_10">
      <!-- 0 -->
      <g style="fill: #a9a9a9" transform="translate(94.6375 311.652699) scale(0.1 -0.1)">
       <use xlink:href="#DejaVuSans-30"/>
      </g>
     </g>
    </g>
    <g id="ytick_2">
     <g id="line2d_21">
      <path d="M 108 275.765195 
L 777.6 275.765195 
" clip-path="url(#pd5cdac71be)" style="fill: none; stroke-dasharray: 5.12,1.28,0.8,1.28; stroke-dashoffset: 0; stroke: #b0b0b0; stroke-width: 0.8"/>
     </g>
     <g id="line2d_22">
      <g>
       <use xlink:href="#m95a9c8943c" x="108" y="275.765195" style="fill: #a9a9a9; stroke: #a9a9a9; stroke-width: 0.8"/>
      </g>
     </g>
     <g id="text_11">
      <!-- 600 -->
      <g style="fill: #a9a9a9" transform="translate(81.9125 279.564414) scale(0.1 -0.1)">
       <defs>
        <path id="DejaVuSans-36" d="M 2113 2584 
Q 1688 2584 1439 2293 
Q 1191 2003 1191 1497 
Q 1191 994 1439 701 
Q 1688 409 2113 409 
Q 2538 409 2786 701 
Q 3034 994 3034 1497 
Q 3034 2003 2786 2293 
Q 2538 2584 2113 2584 
z
M 3366 4563 
L 3366 3988 
Q 3128 4100 2886 4159 
Q 2644 4219 2406 4219 
Q 1781 4219 1451 3797 
Q 1122 3375 1075 2522 
Q 1259 2794 1537 2939 
Q 1816 3084 2150 3084 
Q 2853 3084 3261 2657 
Q 3669 2231 3669 1497 
Q 3669 778 3244 343 
Q 2819 -91 2113 -91 
Q 1303 -91 875 529 
Q 447 1150 447 2328 
Q 447 3434 972 4092 
Q 1497 4750 2381 4750 
Q 2619 4750 2861 4703 
Q 3103 4656 3366 4563 
z
" transform="scale(0.015625)"/>
       </defs>
       <use xlink:href="#DejaVuSans-36"/>
       <use xlink:href="#DejaVuSans-30" x="63.623047"/>
       <use xlink:href="#DejaVuSans-30" x="127.246094"/>
      </g>
     </g>
    </g>
    <g id="ytick_3">
     <g id="line2d_23">
      <path d="M 108 243.67691 
L 777.6 243.67691 
" clip-path="url(#pd5cdac71be)" style="fill: none; stroke-dasharray: 5.12,1.28,0.8,1.28; stroke-dashoffset: 0; stroke: #b0b0b0; stroke-width: 0.8"/>
     </g>
     <g id="line2d_24">
      <g>
       <use xlink:href="#m95a9c8943c" x="108" y="243.67691" style="fill: #a9a9a9; stroke: #a9a9a9; stroke-width: 0.8"/>
      </g>
     </g>
     <g id="text_12">
      <!-- 1200 -->
      <g style="fill: #a9a9a9" transform="translate(75.55 247.476129) scale(0.1 -0.1)">
       <use xlink:href="#DejaVuSans-31"/>
       <use xlink:href="#DejaVuSans-32" x="63.623047"/>
       <use xlink:href="#DejaVuSans-30" x="127.246094"/>
       <use xlink:href="#DejaVuSans-30" x="190.869141"/>
      </g>
     </g>
    </g>
    <g id="ytick_4">
     <g id="line2d_25">
      <path d="M 108 211.588625 
L 777.6 211.588625 
" clip-path="url(#pd5cdac71be)" style="fill: none; stroke-dasharray: 5.12,1.28,0.8,1.28; stroke-dashoffset: 0; stroke: #b0b0b0; stroke-width: 0.8"/>
     </g>
     <g id="line2d_26">
      <g>
       <use xlink:href="#m95a9c8943c" x="108" y="211.588625" style="fill: #a9a9a9; stroke: #a9a9a9; stroke-width: 0.8"/>
      </g>
     </g>
     <g id="text_13">
      <!-- 1800 -->
      <g style="fill: #a9a9a9" transform="translate(75.55 215.387844) scale(0.1 -0.1)">
       <defs>
        <path id="DejaVuSans-38" d="M 2034 2216 
Q 1584 2216 1326 1975 
Q 1069 1734 1069 1313 
Q 1069 891 1326 650 
Q 1584 409 2034 409 
Q 2484 409 2743 651 
Q 3003 894 3003 1313 
Q 3003 1734 2745 1975 
Q 2488 2216 2034 2216 
z
M 1403 2484 
Q 997 2584 770 2862 
Q 544 3141 544 3541 
Q 544 4100 942 4425 
Q 1341 4750 2034 4750 
Q 2731 4750 3128 4425 
Q 3525 4100 3525 3541 
Q 3525 3141 3298 2862 
Q 3072 2584 2669 2484 
Q 3125 2378 3379 2068 
Q 3634 1759 3634 1313 
Q 3634 634 3220 271 
Q 2806 -91 2034 -91 
Q 1263 -91 848 271 
Q 434 634 434 1313 
Q 434 1759 690 2068 
Q 947 2378 1403 2484 
z
M 1172 3481 
Q 1172 3119 1398 2916 
Q 1625 2713 2034 2713 
Q 2441 2713 2670 2916 
Q 2900 3119 2900 3481 
Q 2900 3844 2670 4047 
Q 2441 4250 2034 4250 
Q 1625 4250 1398 4047 
Q 1172 3844 1172 3481 
z
" transform="scale(0.015625)"/>
       </defs>
       <use xlink:href="#DejaVuSans-31"/>
       <use xlink:href="#DejaVuSans-38" x="63.623047"/>
       <use xlink:href="#DejaVuSans-30" x="127.246094"/>
       <use xlink:href="#DejaVuSans-30" x="190.869141"/>
      </g>
     </g>
    </g>
    <g id="ytick_5">
     <g id="line2d_27">
      <path d="M 108 179.50034 
L 777.6 179.50034 
" clip-path="url(#pd5cdac71be)" style="fill: none; stroke-dasharray: 5.12,1.28,0.8,1.28; stroke-dashoffset: 0; stroke: #b0b0b0; stroke-width: 0.8"/>
     </g>
     <g id="line2d_28">
      <g>
       <use xlink:href="#m95a9c8943c" x="108" y="179.50034" style="fill: #a9a9a9; stroke: #a9a9a9; stroke-width: 0.8"/>
      </g>
     </g>
     <g id="text_14">
      <!-- 2400 -->
      <g style="fill: #a9a9a9" transform="translate(75.55 183.299558) scale(0.1 -0.1)">
       <use xlink:href="#DejaVuSans-32"/>
       <use xlink:href="#DejaVuSans-34" x="63.623047"/>
       <use xlink:href="#DejaVuSans-30" x="127.246094"/>
       <use xlink:href="#DejaVuSans-30" x="190.869141"/>
      </g>
     </g>
    </g>
    <g id="ytick_6">
     <g id="line2d_29">
      <path d="M 108 147.412054 
L 777.6 147.412054 
" clip-path="url(#pd5cdac71be)" style="fill: none; stroke-dasharray: 5.12,1.28,0.8,1.28; stroke-dashoffset: 0; stroke: #b0b0b0; stroke-width: 0.8"/>
     </g>
     <g id="line2d_30">
      <g>
       <use xlink:href="#m95a9c8943c" x="108" y="147.412054" style="fill: #a9a9a9; stroke: #a9a9a9; stroke-width: 0.8"/>
      </g>
     </g>
     <g id="text_15">
      <!-- 3000 -->
      <g style="fill: #a9a9a9" transform="translate(75.55 151.211273) scale(0.1 -0.1)">
       <use xlink:href="#DejaVuSans-33"/>
       <use xlink:href="#DejaVuSans-30" x="63.623047"/>
       <use xlink:href="#DejaVuSans-30" x="127.246094"/>
       <use xlink:href="#DejaVuSans-30" x="190.869141"/>
      </g>
     </g>
    </g>
    <g id="ytick_7">
     <g id="line2d_31">
      <path d="M 108 115.323769 
L 777.6 115.323769 
" clip-path="url(#pd5cdac71be)" style="fill: none; stroke-dasharray: 5.12,1.28,0.8,1.28; stroke-dashoffset: 0; stroke: #b0b0b0; stroke-width: 0.8"/>
     </g>
     <g id="line2d_32">
      <g>
       <use xlink:href="#m95a9c8943c" x="108" y="115.323769" style="fill: #a9a9a9; stroke: #a9a9a9; stroke-width: 0.8"/>
      </g>
     </g>
     <g id="text_16">
      <!-- 3600 -->
      <g style="fill: #a9a9a9" transform="translate(75.55 119.122988) scale(0.1 -0.1)">
       <use xlink:href="#DejaVuSans-33"/>
       <use xlink:href="#DejaVuSans-36" x="63.623047"/>
       <use xlink:href="#DejaVuSans-30" x="127.246094"/>
       <use xlink:href="#DejaVuSans-30" x="190.869141"/>
      </g>
     </g>
    </g>
    <g id="ytick_8">
     <g id="line2d_33">
      <path d="M 108 83.235484 
L 777.6 83.235484 
" clip-path="url(#pd5cdac71be)" style="fill: none; stroke-dasharray: 5.12,1.28,0.8,1.28; stroke-dashoffset: 0; stroke: #b0b0b0; stroke-width: 0.8"/>
     </g>
     <g id="line2d_34">
      <g>
       <use xlink:href="#m95a9c8943c" x="108" y="83.235484" style="fill: #a9a9a9; stroke: #a9a9a9; stroke-width: 0.8"/>
      </g>
     </g>
     <g id="text_17">
      <!-- 4200 -->
      <g style="fill: #a9a9a9" transform="translate(75.55 87.034703) scale(0.1 -0.1)">
       <use xlink:href="#DejaVuSans-34"/>
       <use xlink:href="#DejaVuSans-32" x="63.623047"/>
       <use xlink:href="#DejaVuSans-30" x="127.246094"/>
       <use xlink:href="#DejaVuSans-30" x="190.869141"/>
      </g>
     </g>
    </g>
    <g id="ytick_9">
     <g id="line2d_35">
      <path d="M 108 51.147199 
L 777.6 51.147199 
" clip-path="url(#pd5cdac71be)" style="fill: none; stroke-dasharray: 5.12,1.28,0.8,1.28; stroke-dashoffset: 0; stroke: #b0b0b0; stroke-width: 0.8"/>
     </g>
     <g id="line2d_36">
      <g>
       <use xlink:href="#m95a9c8943c" x="108" y="51.147199" style="fill: #a9a9a9; stroke: #a9a9a9; stroke-width: 0.8"/>
      </g>
     </g>
     <g id="text_18">
      <!-- 4800 -->
      <g style="fill: #a9a9a9" transform="translate(75.55 54.946417) scale(0.1 -0.1)">
       <use xlink:href="#DejaVuSans-34"/>
       <use xlink:href="#DejaVuSans-38" x="63.623047"/>
       <use xlink:href="#DejaVuSans-30" x="127.246094"/>
       <use xlink:href="#DejaVuSans-30" x="190.869141"/>
      </g>
     </g>
    </g>
   </g>
   <g id="line2d_37">
    <path d="M 138.436364 307.693039 
L 143.312684 307.318676 
L 144.125404 306.997793 
L 146.563564 306.73039 
L 152.252603 305.714261 
L 156.316203 305.339898 
L 157.128923 304.965535 
L 157.941643 304.751613 
L 158.754363 303.788964 
L 159.567083 303.25416 
L 160.379803 301.542784 
L 161.192523 301.435823 
L 162.005243 300.847538 
L 163.630683 300.098812 
L 165.256123 298.922241 
L 166.068843 298.173514 
L 167.694283 297.424788 
L 168.507003 297.103905 
L 169.319723 296.51562 
L 172.570603 295.178608 
L 173.383323 293.948557 
L 174.196043 293.306791 
L 175.821483 292.451104 
L 183.948683 291.328014 
L 184.761403 290.95365 
L 190.450443 290.525806 
L 192.075883 290.097963 
L 193.701323 289.77708 
L 200.203083 288.921392 
L 201.015803 288.493548 
L 201.828523 288.386587 
L 202.641243 288.065705 
L 204.266683 287.798302 
L 205.079403 287.744822 
L 205.892123 287.477419 
L 209.143003 286.996095 
L 210.768443 286.568251 
L 213.206603 286.354329 
L 214.832043 286.193888 
L 215.644763 285.979966 
L 216.457483 285.926486 
L 218.895643 285.231239 
L 223.771963 284.535993 
L 224.584683 284.268591 
L 225.397403 283.198981 
L 227.835563 282.343294 
L 230.273723 281.701528 
L 231.086443 281.327165 
L 231.899163 281.273684 
L 235.962762 280.204075 
L 237.588202 280.097114 
L 238.400922 279.990153 
L 240.839082 279.294907 
L 244.089962 278.54618 
L 244.902682 278.225297 
L 245.715402 278.118336 
L 246.528122 277.743973 
L 254.655322 276.567402 
L 258.718922 275.444312 
L 259.531642 274.962988 
L 262.782522 274.107301 
L 264.407962 273.198132 
L 265.220682 272.663328 
L 266.033402 272.556367 
L 266.846122 272.288964 
L 269.284282 271.861121 
L 270.097002 271.486757 
L 271.722442 271.219355 
L 273.347882 270.470628 
L 277.411482 269.50798 
L 279.849642 268.919694 
L 280.662362 268.598812 
L 281.475082 268.43837 
L 282.287802 268.117487 
L 283.100522 268.010526 
L 283.913242 267.636163 
L 284.725962 267.422241 
L 286.351402 267.31528 
L 287.976842 266.780475 
L 289.602282 266.673514 
L 290.415002 266.299151 
L 293.665882 265.764346 
L 296.916762 265.496944 
L 297.729482 265.336503 
L 299.354922 264.587776 
L 308.294842 261.004584 
L 309.107562 260.57674 
L 309.920282 259.721053 
L 310.733002 258.437521 
L 311.545722 257.421392 
L 312.358442 257.20747 
L 313.171162 257.20747 
L 314.796602 256.0309 
L 315.609322 255.816978 
L 316.422042 255.389134 
L 317.234762 255.228693 
L 318.047481 254.533447 
L 318.860201 254.319525 
L 321.298361 253.196435 
L 322.111081 252.233786 
L 322.923801 251.057216 
L 323.736521 250.575891 
L 324.549241 249.29236 
L 325.361961 248.490153 
L 326.174681 248.115789 
L 326.987401 247.901868 
L 328.612841 246.939219 
L 329.425561 246.564856 
L 332.676441 244.211715 
L 333.489161 243.088625 
L 334.301881 241.270289 
L 335.114601 240.093718 
L 335.927321 239.505433 
L 336.740041 239.18455 
L 339.990921 236.510526 
L 341.616361 235.333956 
L 342.429081 234.63871 
L 343.241801 233.51562 
L 344.054521 232.766893 
L 346.492681 231.108998 
L 348.118121 230.039389 
L 348.930841 229.344143 
L 349.743561 229.130221 
L 352.181721 227.90017 
L 353.807161 226.991002 
L 354.619881 226.670119 
L 356.245321 225.226146 
L 357.058041 224.263497 
L 358.683481 223.193888 
L 359.496201 222.979966 
L 360.308921 222.552122 
L 361.121641 221.963837 
L 362.747081 221.108149 
L 363.559801 221.001188 
L 365.185241 220.145501 
L 365.997961 219.717657 
L 366.810681 218.91545 
L 367.623401 218.434126 
L 368.436121 218.166723 
L 369.248841 217.631919 
L 372.499721 216.027504 
L 373.312441 215.332258 
L 376.563321 214.262649 
L 377.376041 213.727844 
L 378.188761 213.567402 
L 379.814201 213.032598 
L 382.252361 212.12343 
L 384.690521 211.267742 
L 386.315961 211.00034 
L 387.941401 209.663328 
L 389.566841 208.914601 
L 392.005001 207.577589 
L 393.630441 207.149745 
L 394.443161 206.668421 
L 395.255881 206.454499 
L 397.694041 204.957046 
L 400.132201 204.422241 
L 402.57036 203.566553 
L 404.1958 202.657385 
L 405.00852 202.550424 
L 405.82124 202.283022 
L 407.44668 201.962139 
L 409.88484 200.250764 
L 412.323 199.715959 
L 413.13572 199.448557 
L 413.94844 198.860272 
L 418.82476 197.362818 
L 419.63748 197.309338 
L 425.32652 195.384041 
L 426.13924 195.009677 
L 428.5774 194.474873 
L 430.20284 194.100509 
L 431.01556 193.726146 
L 431.82828 193.565705 
L 434.26644 192.496095 
L 436.7046 191.319525 
L 437.51732 190.78472 
L 438.33004 190.570798 
L 440.7682 189.340747 
L 442.39364 188.966384 
L 444.01908 188.164177 
L 445.64452 187.736333 
L 446.45724 187.629372 
L 447.26996 187.094567 
L 448.08268 186.720204 
L 448.8954 186.559762 
L 450.52084 185.917997 
L 451.33356 185.757555 
L 452.14628 185.329711 
L 455.39716 184.848387 
L 457.0226 184.09966 
L 457.83532 183.457895 
L 458.64804 182.067402 
L 460.27348 181.74652 
L 461.0862 181.586078 
L 464.33708 179.981664 
L 465.1498 179.821222 
L 470.02612 177.575042 
L 470.83884 177.040238 
L 471.65156 176.719355 
L 474.08972 176.238031 
L 475.71516 175.489304 
L 476.52788 175.168421 
L 477.3406 175.06146 
L 480.59148 173.670968 
L 482.21692 172.601358 
L 483.02964 172.226995 
L 483.84236 172.120034 
L 484.655079 171.852632 
L 485.467799 171.799151 
L 488.718679 170.783022 
L 489.531399 170.729542 
L 490.344119 170.141256 
L 491.969559 169.606452 
L 494.407719 168.857725 
L 495.220439 168.376401 
L 496.033159 168.162479 
L 496.845879 167.627674 
L 497.658599 167.306791 
L 498.471319 166.825467 
L 500.096759 166.237182 
L 500.909479 166.02326 
L 501.722199 165.648896 
L 502.534919 165.434975 
L 503.347639 165.060611 
L 504.160359 164.472326 
L 504.973079 163.616638 
L 505.785799 163.081834 
L 506.598519 162.921392 
L 508.223959 161.744822 
L 509.036679 161.58438 
L 509.849399 160.40781 
L 510.662119 160.086927 
L 511.474839 159.498642 
L 512.287559 159.391681 
L 513.100279 158.856876 
L 513.912999 158.482513 
L 514.725719 158.322071 
L 515.538439 158.001188 
L 516.351159 157.359423 
L 517.163879 157.09202 
L 519.602039 155.541087 
L 522.852919 153.990153 
L 523.665639 153.883192 
L 525.291079 153.187946 
L 526.103799 152.706621 
L 526.916519 151.42309 
L 527.729239 150.620883 
L 528.541959 150.193039 
L 529.354679 150.032598 
L 530.980119 149.069949 
L 531.792839 148.909508 
L 533.418279 148.160781 
L 535.856439 147.144652 
L 537.481879 146.075042 
L 539.107319 144.417148 
L 540.732759 143.454499 
L 541.545479 142.973175 
L 542.358199 142.170968 
L 544.796359 140.245671 
L 545.609079 139.817827 
L 546.421799 138.962139 
L 547.234519 138.373854 
L 548.859959 137.839049 
L 549.672679 137.090323 
L 551.298119 136.288115 
L 552.110839 136.074194 
L 552.923559 135.485908 
L 553.736279 135.271986 
L 556.174439 134.041935 
L 556.987159 133.45365 
L 558.612599 132.811885 
L 559.425319 132.651443 
L 560.238039 132.170119 
L 565.927079 130.191341 
L 566.739799 129.496095 
L 569.990678 128.319525 
L 570.803398 128.105603 
L 571.616118 127.517317 
L 574.054278 126.447708 
L 574.866998 125.859423 
L 575.679718 125.431579 
L 577.305158 122.329711 
L 578.930598 120.511375 
L 579.743318 119.97657 
L 582.181478 118.960441 
L 582.994198 118.693039 
L 583.806918 118.586078 
L 584.619638 118.158234 
L 587.057798 117.409508 
L 589.495958 116.446859 
L 591.121398 115.37725 
L 593.559558 114.30764 
L 597.623158 112.06146 
L 598.435878 111.259253 
L 600.061318 110.403565 
L 600.874038 109.975722 
L 601.686758 109.708319 
L 602.499478 109.120034 
L 604.124918 108.371307 
L 604.937638 107.889983 
L 605.750358 107.5691 
L 606.563078 107.087776 
L 607.375798 106.873854 
L 608.188518 106.285569 
L 609.001238 105.964686 
L 609.813958 105.804244 
L 611.439398 105.162479 
L 613.877558 104.306791 
L 614.690278 103.718506 
L 616.315718 103.290662 
L 617.941158 102.702377 
L 618.753878 102.060611 
L 620.379318 101.579287 
L 621.192038 101.204924 
L 622.004758 100.991002 
L 623.630198 99.921392 
L 625.255638 99.226146 
L 626.881078 98.049576 
L 628.506518 97.514771 
L 629.319238 96.819525 
L 630.131958 96.659083 
L 630.944678 95.963837 
L 632.570118 95.054669 
L 634.195558 94.412903 
L 635.008278 93.610696 
L 637.446438 92.861969 
L 638.259158 92.380645 
L 639.071878 92.273684 
L 641.510038 91.097114 
L 644.760918 90.134465 
L 646.386358 89.920543 
L 647.199078 89.59966 
L 648.011798 89.439219 
L 649.637238 88.797453 
L 650.449958 88.743973 
L 652.888117 87.941766 
L 654.513557 86.979117 
L 656.138997 85.909508 
L 661.015317 83.609847 
L 663.453477 82.058913 
L 665.078917 81.68455 
L 667.517077 80.347538 
L 669.955237 79.598812 
L 670.767957 79.277929 
L 672.393397 78.903565 
L 676.456997 77.620034 
L 678.082437 77.299151 
L 679.707877 76.924788 
L 680.520597 76.550424 
L 681.333317 76.443463 
L 682.958757 75.801698 
L 683.771477 75.694737 
L 684.584197 75.320374 
L 686.209637 74.999491 
L 687.022357 74.625127 
L 689.460517 74.090323 
L 691.085957 73.76944 
L 698.400437 72.325467 
L 699.213157 72.004584 
L 700.025877 71.951104 
L 702.464037 71.309338 
L 703.276757 70.881494 
L 704.902197 70.346689 
L 705.714917 70.293209 
L 709.778517 69.116638 
L 715.467557 67.244822 
L 716.280277 67.244822 
L 717.905717 66.710017 
L 718.718437 65.90781 
L 719.531157 65.533447 
L 721.156597 65.052122 
L 724.407477 63.875552 
L 725.220197 63.608149 
L 726.032917 63.126825 
L 726.845637 62.966384 
L 727.658357 62.431579 
L 730.909237 61.46893 
L 731.721957 61.201528 
L 732.534677 60.720204 
L 733.347397 60.506282 
L 734.160117 59.864516 
L 736.598276 59.436672 
L 738.223716 58.580985 
L 739.036436 57.671817 
L 740.661876 57.350934 
L 742.287316 56.97657 
L 743.912756 56.548727 
L 744.725476 56.495246 
L 747.163636 55.8 
L 747.163636 55.8 
" clip-path="url(#pd5cdac71be)" style="fill: none; stroke: #1f77b4; stroke-width: 1.5; stroke-linecap: square"/>
   </g>
   <g id="line2d_38">
    <path d="M 139.249084 307.8 
L 141.687244 307.693039 
L 143.312684 307.586078 
L 149.001724 307.479117 
L 153.065323 307.318676 
L 156.316203 307.318676 
L 157.128923 307.104754 
L 159.567083 307.051273 
L 164.443403 306.516469 
L 176.634203 305.821222 
L 183.135963 305.714261 
L 187.199563 305.55382 
L 196.952203 305.446859 
L 201.015803 305.286418 
L 205.892123 305.179457 
L 209.143003 305.072496 
L 216.457483 304.965535 
L 218.895643 304.912054 
L 221.333803 304.858574 
L 223.771963 304.591171 
L 228.648283 304.537691 
L 230.273723 304.43073 
L 235.962762 304.323769 
L 244.902682 303.842445 
L 250.591722 303.735484 
L 252.217162 303.628523 
L 254.655322 303.521562 
L 259.531642 303.30764 
L 262.782522 303.25416 
L 265.220682 303.040238 
L 279.036922 302.238031 
L 281.475082 302.13107 
L 287.164122 301.863667 
L 289.602282 301.756706 
L 297.729482 301.328862 
L 306.669402 301.221902 
L 309.920282 300.901019 
L 311.545722 300.794058 
L 320.485641 300.152292 
L 321.298361 299.93837 
L 323.736521 299.724448 
L 325.361961 299.350085 
L 327.800121 299.296604 
L 330.238281 299.189643 
L 336.740041 298.387436 
L 340.803641 298.280475 
L 351.369001 297.478268 
L 356.245321 296.943463 
L 358.683481 296.889983 
L 360.308921 296.783022 
L 363.559801 296.676061 
L 365.185241 296.5691 
L 369.248841 296.194737 
L 370.061561 295.980815 
L 374.937881 295.766893 
L 379.001481 295.659932 
L 390.379561 295.018166 
L 392.005001 294.911205 
L 402.57036 294.32292 
L 408.2594 294.215959 
L 409.07212 294.055518 
L 415.57388 293.948557 
L 421.26292 293.681154 
L 430.20284 293.574194 
L 435.89188 293.306791 
L 442.39364 293.19983 
L 449.70812 292.825467 
L 454.58444 292.718506 
L 470.02612 291.809338 
L 476.52788 291.702377 
L 480.59148 291.328014 
L 482.21692 291.167572 
L 486.280519 291.114092 
L 489.531399 290.793209 
L 497.658599 290.365365 
L 502.534919 290.258404 
L 504.973079 290.204924 
L 507.411239 290.151443 
L 509.849399 289.884041 
L 516.351159 289.77708 
L 517.976599 289.509677 
L 519.602039 289.402716 
L 522.852919 289.295756 
L 524.478359 289.295756 
L 526.103799 289.028353 
L 534.230999 288.921392 
L 535.856439 288.760951 
L 539.107319 288.65399 
L 539.920039 288.440068 
L 541.545479 288.386587 
L 542.358199 288.226146 
L 544.796359 288.119185 
L 558.612599 287.316978 
L 561.050759 287.210017 
L 565.114359 287.049576 
L 576.492438 286.942615 
L 582.181478 286.675212 
L 588.683238 286.568251 
L 591.934118 286.46129 
L 595.184998 286.40781 
L 597.623158 286.193888 
L 604.937638 285.819525 
L 606.563078 285.712564 
L 609.813958 285.605603 
L 613.877558 285.498642 
L 617.941158 285.3382 
L 623.630198 285.231239 
L 626.881078 285.124278 
L 635.820998 285.017317 
L 640.697318 284.803396 
L 645.573638 284.696435 
L 648.011798 284.429032 
L 652.888117 284.375552 
L 653.700837 284.21511 
L 655.326277 284.108149 
L 658.577157 284.001188 
L 668.329797 283.894228 
L 672.393397 283.733786 
L 686.209637 283.680306 
L 687.835077 283.573345 
L 690.273237 283.519864 
L 700.838597 283.412903 
L 702.464037 283.305942 
L 711.403957 283.198981 
L 714.654837 283.09202 
L 724.407477 283.03854 
L 726.032917 282.931579 
L 738.223716 282.878098 
L 740.661876 282.664177 
L 747.163636 282.664177 
L 747.163636 282.664177 
" clip-path="url(#pd5cdac71be)" style="fill: none; stroke: #ff7f0e; stroke-width: 1.5; stroke-linecap: square"/>
   </g>
   <g id="patch_3">
    <path d="M 108 320.4 
L 108 43.2 
" style="fill: none; stroke: #a9a9a9; stroke-width: 0.8; stroke-linejoin: miter; stroke-linecap: square"/>
   </g>
   <g id="patch_4">
    <path d="M 777.6 320.4 
L 777.6 43.2 
" style="fill: none"/>
   </g>
   <g id="patch_5">
    <path d="M 108 320.4 
L 777.6 320.4 
" style="fill: none; stroke: #a9a9a9; stroke-width: 0.8; stroke-linejoin: miter; stroke-linecap: square"/>
   </g>
   <g id="patch_6">
    <path d="M 108 43.2 
L 777.6 43.2 
" style="fill: none"/>
   </g>
   <g id="text_19">
    <!-- get_subscribe history -->
    <g style="fill: #a9a9a9" transform="translate(378.6075 37.2) scale(0.12 -0.12)">
     <defs>
      <path id="DejaVuSans-67" d="M 2906 1791 
Q 2906 2416 2648 2759 
Q 2391 3103 1925 3103 
Q 1463 3103 1205 2759 
Q 947 2416 947 1791 
Q 947 1169 1205 825 
Q 1463 481 1925 481 
Q 2391 481 2648 825 
Q 2906 1169 2906 1791 
z
M 3481 434 
Q 3481 -459 3084 -895 
Q 2688 -1331 1869 -1331 
Q 1566 -1331 1297 -1286 
Q 1028 -1241 775 -1147 
L 775 -588 
Q 1028 -725 1275 -790 
Q 1522 -856 1778 -856 
Q 2344 -856 2625 -561 
Q 2906 -266 2906 331 
L 2906 616 
Q 2728 306 2450 153 
Q 2172 0 1784 0 
Q 1141 0 747 490 
Q 353 981 353 1791 
Q 353 2603 747 3093 
Q 1141 3584 1784 3584 
Q 2172 3584 2450 3431 
Q 2728 3278 2906 2969 
L 2906 3500 
L 3481 3500 
L 3481 434 
z
" transform="scale(0.015625)"/>
      <path id="DejaVuSans-65" d="M 3597 1894 
L 3597 1613 
L 953 1613 
Q 991 1019 1311 708 
Q 1631 397 2203 397 
Q 2534 397 2845 478 
Q 3156 559 3463 722 
L 3463 178 
Q 3153 47 2828 -22 
Q 2503 -91 2169 -91 
Q 1331 -91 842 396 
Q 353 884 353 1716 
Q 353 2575 817 3079 
Q 1281 3584 2069 3584 
Q 2775 3584 3186 3129 
Q 3597 2675 3597 1894 
z
M 3022 2063 
Q 3016 2534 2758 2815 
Q 2500 3097 2075 3097 
Q 1594 3097 1305 2825 
Q 1016 2553 972 2059 
L 3022 2063 
z
" transform="scale(0.015625)"/>
      <path id="DejaVuSans-74" d="M 1172 4494 
L 1172 3500 
L 2356 3500 
L 2356 3053 
L 1172 3053 
L 1172 1153 
Q 1172 725 1289 603 
Q 1406 481 1766 481 
L 2356 481 
L 2356 0 
L 1766 0 
Q 1100 0 847 248 
Q 594 497 594 1153 
L 594 3053 
L 172 3053 
L 172 3500 
L 594 3500 
L 594 4494 
L 1172 4494 
z
" transform="scale(0.015625)"/>
      <path id="DejaVuSans-5f" d="M 3263 -1063 
L 3263 -1509 
L -63 -1509 
L -63 -1063 
L 3263 -1063 
z
" transform="scale(0.015625)"/>
      <path id="DejaVuSans-73" d="M 2834 3397 
L 2834 2853 
Q 2591 2978 2328 3040 
Q 2066 3103 1784 3103 
Q 1356 3103 1142 2972 
Q 928 2841 928 2578 
Q 928 2378 1081 2264 
Q 1234 2150 1697 2047 
L 1894 2003 
Q 2506 1872 2764 1633 
Q 3022 1394 3022 966 
Q 3022 478 2636 193 
Q 2250 -91 1575 -91 
Q 1294 -91 989 -36 
Q 684 19 347 128 
L 347 722 
Q 666 556 975 473 
Q 1284 391 1588 391 
Q 1994 391 2212 530 
Q 2431 669 2431 922 
Q 2431 1156 2273 1281 
Q 2116 1406 1581 1522 
L 1381 1569 
Q 847 1681 609 1914 
Q 372 2147 372 2553 
Q 372 3047 722 3315 
Q 1072 3584 1716 3584 
Q 2034 3584 2315 3537 
Q 2597 3491 2834 3397 
z
" transform="scale(0.015625)"/>
      <path id="DejaVuSans-75" d="M 544 1381 
L 544 3500 
L 1119 3500 
L 1119 1403 
Q 1119 906 1312 657 
Q 1506 409 1894 409 
Q 2359 409 2629 706 
Q 2900 1003 2900 1516 
L 2900 3500 
L 3475 3500 
L 3475 0 
L 2900 0 
L 2900 538 
Q 2691 219 2414 64 
Q 2138 -91 1772 -91 
Q 1169 -91 856 284 
Q 544 659 544 1381 
z
M 1991 3584 
L 1991 3584 
z
" transform="scale(0.015625)"/>
      <path id="DejaVuSans-62" d="M 3116 1747 
Q 3116 2381 2855 2742 
Q 2594 3103 2138 3103 
Q 1681 3103 1420 2742 
Q 1159 2381 1159 1747 
Q 1159 1113 1420 752 
Q 1681 391 2138 391 
Q 2594 391 2855 752 
Q 3116 1113 3116 1747 
z
M 1159 2969 
Q 1341 3281 1617 3432 
Q 1894 3584 2278 3584 
Q 2916 3584 3314 3078 
Q 3713 2572 3713 1747 
Q 3713 922 3314 415 
Q 2916 -91 2278 -91 
Q 1894 -91 1617 61 
Q 1341 213 1159 525 
L 1159 0 
L 581 0 
L 581 4863 
L 1159 4863 
L 1159 2969 
z
" transform="scale(0.015625)"/>
      <path id="DejaVuSans-63" d="M 3122 3366 
L 3122 2828 
Q 2878 2963 2633 3030 
Q 2388 3097 2138 3097 
Q 1578 3097 1268 2742 
Q 959 2388 959 1747 
Q 959 1106 1268 751 
Q 1578 397 2138 397 
Q 2388 397 2633 464 
Q 2878 531 3122 666 
L 3122 134 
Q 2881 22 2623 -34 
Q 2366 -91 2075 -91 
Q 1284 -91 818 406 
Q 353 903 353 1747 
Q 353 2603 823 3093 
Q 1294 3584 2113 3584 
Q 2378 3584 2631 3529 
Q 2884 3475 3122 3366 
z
" transform="scale(0.015625)"/>
      <path id="DejaVuSans-72" d="M 2631 2963 
Q 2534 3019 2420 3045 
Q 2306 3072 2169 3072 
Q 1681 3072 1420 2755 
Q 1159 2438 1159 1844 
L 1159 0 
L 581 0 
L 581 3500 
L 1159 3500 
L 1159 2956 
Q 1341 3275 1631 3429 
Q 1922 3584 2338 3584 
Q 2397 3584 2469 3576 
Q 2541 3569 2628 3553 
L 2631 2963 
z
" transform="scale(0.015625)"/>
      <path id="DejaVuSans-69" d="M 603 3500 
L 1178 3500 
L 1178 0 
L 603 0 
L 603 3500 
z
M 603 4863 
L 1178 4863 
L 1178 4134 
L 603 4134 
L 603 4863 
z
" transform="scale(0.015625)"/>
      <path id="DejaVuSans-20" transform="scale(0.015625)"/>
      <path id="DejaVuSans-68" d="M 3513 2113 
L 3513 0 
L 2938 0 
L 2938 2094 
Q 2938 2591 2744 2837 
Q 2550 3084 2163 3084 
Q 1697 3084 1428 2787 
Q 1159 2491 1159 1978 
L 1159 0 
L 581 0 
L 581 4863 
L 1159 4863 
L 1159 2956 
Q 1366 3272 1645 3428 
Q 1925 3584 2291 3584 
Q 2894 3584 3203 3211 
Q 3513 2838 3513 2113 
z
" transform="scale(0.015625)"/>
      <path id="DejaVuSans-6f" d="M 1959 3097 
Q 1497 3097 1228 2736 
Q 959 2375 959 1747 
Q 959 1119 1226 758 
Q 1494 397 1959 397 
Q 2419 397 2687 759 
Q 2956 1122 2956 1747 
Q 2956 2369 2687 2733 
Q 2419 3097 1959 3097 
z
M 1959 3584 
Q 2709 3584 3137 3096 
Q 3566 2609 3566 1747 
Q 3566 888 3137 398 
Q 2709 -91 1959 -91 
Q 1206 -91 779 398 
Q 353 888 353 1747 
Q 353 2609 779 3096 
Q 1206 3584 1959 3584 
z
" transform="scale(0.015625)"/>
      <path id="DejaVuSans-79" d="M 2059 -325 
Q 1816 -950 1584 -1140 
Q 1353 -1331 966 -1331 
L 506 -1331 
L 506 -850 
L 844 -850 
Q 1081 -850 1212 -737 
Q 1344 -625 1503 -206 
L 1606 56 
L 191 3500 
L 800 3500 
L 1894 763 
L 2988 3500 
L 3597 3500 
L 2059 -325 
z
" transform="scale(0.015625)"/>
     </defs>
     <use xlink:href="#DejaVuSans-67"/>
     <use xlink:href="#DejaVuSans-65" x="63.476562"/>
     <use xlink:href="#DejaVuSans-74" x="125"/>
     <use xlink:href="#DejaVuSans-5f" x="164.208984"/>
     <use xlink:href="#DejaVuSans-73" x="214.208984"/>
     <use xlink:href="#DejaVuSans-75" x="266.308594"/>
     <use xlink:href="#DejaVuSans-62" x="329.6875"/>
     <use xlink:href="#DejaVuSans-73" x="393.164062"/>
     <use xlink:href="#DejaVuSans-63" x="445.263672"/>
     <use xlink:href="#DejaVuSans-72" x="500.244141"/>
     <use xlink:href="#DejaVuSans-69" x="541.357422"/>
     <use xlink:href="#DejaVuSans-62" x="569.140625"/>
     <use xlink:href="#DejaVuSans-65" x="632.617188"/>
     <use xlink:href="#DejaVuSans-20" x="694.140625"/>
     <use xlink:href="#DejaVuSans-68" x="725.927734"/>
     <use xlink:href="#DejaVuSans-69" x="789.306641"/>
     <use xlink:href="#DejaVuSans-73" x="817.089844"/>
     <use xlink:href="#DejaVuSans-74" x="869.189453"/>
     <use xlink:href="#DejaVuSans-6f" x="908.398438"/>
     <use xlink:href="#DejaVuSans-72" x="969.580078"/>
     <use xlink:href="#DejaVuSans-79" x="1010.693359"/>
    </g>
   </g>
   <g id="legend_1">
    <g id="line2d_39">
     <path d="M 815.08 328.498438 
L 825.08 328.498438 
L 835.08 328.498438 
" style="fill: none; stroke: #1f77b4; stroke-width: 1.5; stroke-linecap: square"/>
    </g>
    <g id="text_20">
     <!-- star -->
     <g style="fill: #a9a9a9" transform="translate(843.08 331.998438) scale(0.1 -0.1)">
      <defs>
       <path id="DejaVuSans-61" d="M 2194 1759 
Q 1497 1759 1228 1600 
Q 959 1441 959 1056 
Q 959 750 1161 570 
Q 1363 391 1709 391 
Q 2188 391 2477 730 
Q 2766 1069 2766 1631 
L 2766 1759 
L 2194 1759 
z
M 3341 1997 
L 3341 0 
L 2766 0 
L 2766 531 
Q 2569 213 2275 61 
Q 1981 -91 1556 -91 
Q 1019 -91 701 211 
Q 384 513 384 1019 
Q 384 1609 779 1909 
Q 1175 2209 1959 2209 
L 2766 2209 
L 2766 2266 
Q 2766 2663 2505 2880 
Q 2244 3097 1772 3097 
Q 1472 3097 1187 3025 
Q 903 2953 641 2809 
L 641 3341 
Q 956 3463 1253 3523 
Q 1550 3584 1831 3584 
Q 2591 3584 2966 3190 
Q 3341 2797 3341 1997 
z
" transform="scale(0.015625)"/>
      </defs>
      <use xlink:href="#DejaVuSans-73"/>
      <use xlink:href="#DejaVuSans-74" x="52.099609"/>
      <use xlink:href="#DejaVuSans-61" x="91.308594"/>
      <use xlink:href="#DejaVuSans-72" x="152.587891"/>
     </g>
    </g>
    <g id="line2d_40">
     <path d="M 815.08 343.176562 
L 825.08 343.176562 
L 835.08 343.176562 
" style="fill: none; stroke: #ff7f0e; stroke-width: 1.5; stroke-linecap: square"/>
    </g>
    <g id="text_21">
     <!-- fork -->
     <g style="fill: #a9a9a9" transform="translate(843.08 346.676562) scale(0.1 -0.1)">
      <defs>
       <path id="DejaVuSans-66" d="M 2375 4863 
L 2375 4384 
L 1825 4384 
Q 1516 4384 1395 4259 
Q 1275 4134 1275 3809 
L 1275 3500 
L 2222 3500 
L 2222 3053 
L 1275 3053 
L 1275 0 
L 697 0 
L 697 3053 
L 147 3053 
L 147 3500 
L 697 3500 
L 697 3744 
Q 697 4328 969 4595 
Q 1241 4863 1831 4863 
L 2375 4863 
z
" transform="scale(0.015625)"/>
       <path id="DejaVuSans-6b" d="M 581 4863 
L 1159 4863 
L 1159 1991 
L 2875 3500 
L 3609 3500 
L 1753 1863 
L 3688 0 
L 2938 0 
L 1159 1709 
L 1159 0 
L 581 0 
L 581 4863 
z
" transform="scale(0.015625)"/>
      </defs>
      <use xlink:href="#DejaVuSans-66"/>
      <use xlink:href="#DejaVuSans-6f" x="35.205078"/>
      <use xlink:href="#DejaVuSans-72" x="96.386719"/>
      <use xlink:href="#DejaVuSans-6b" x="137.5"/>
     </g>
    </g>
   </g>
  </g>
 </g>
 <defs>
  <clipPath id="pd5cdac71be">
   <rect x="108" y="43.2" width="669.6" height="277.2"/>
  </clipPath>
 </defs>
</svg>
